<?xml version="1.0" encoding="UTF-8" standalone="no"?>
<!DOCTYPE svg PUBLIC "-//W3C//DTD SVG 1.1//EN"
 "http://www.w3.org/Graphics/SVG/1.1/DTD/svg11.dtd">
<!-- Generated by graphviz version 2.49.2 (20211016.1639)
 -->
<!-- Title: C:/Users/a5126135/Dev/rltos_master/rltos/src/rltos_kernel/core Pages: 1 -->
<svg width="140pt" height="183pt"
 viewBox="0.00 0.00 140.00 183.00" xmlns="http://www.w3.org/2000/svg" xmlns:xlink="http://www.w3.org/1999/xlink">
<g id="graph0" class="graph" transform="scale(1 1) rotate(0) translate(4 179)">
<title>C:/Users/a5126135/Dev/rltos_master/rltos/src/rltos_kernel/core</title>
<polygon fill="white" stroke="transparent" points="-4,4 -4,-179 136,-179 136,4 -4,4"/>
<g id="clust1" class="cluster">
<title>clusterdir_af6361a0889bd13a5399807a03405a13</title>
<g id="a_clust1"><a xlink:href="dir_af6361a0889bd13a5399807a03405a13.html" target="_top" xlink:title="rltos_kernel">
<polygon fill="#ddddee" stroke="black" points="8,-8 8,-167 124,-167 124,-8 8,-8"/>
<text text-anchor="middle" x="66" y="-155" font-family="Helvetica,sans-Serif" font-size="10.00">rltos_kernel</text>
</a>
</g>
</g>
<g id="clust2" class="cluster">
<title>clusterdir_01df4195ca0e31245669d7f2e02267d5</title>
<g id="a_clust2"><a xlink:href="dir_01df4195ca0e31245669d7f2e02267d5.html" target="_top">
<polygon fill="#eeeeff" stroke="black" points="16,-16 16,-140 116,-140 116,-16 16,-16"/>
</a>
</g>
</g>
<!-- dir_01df4195ca0e31245669d7f2e02267d5 -->
<g id="node1" class="node">
<title>dir_01df4195ca0e31245669d7f2e02267d5</title>
<text text-anchor="middle" x="66" y="-111.5" font-family="Helvetica,sans-Serif" font-size="10.00">core</text>
</g>
<!-- dir_1991002a29f42615f0e2898ae7084454 -->
<g id="node2" class="node">
<title>dir_1991002a29f42615f0e2898ae7084454</title>
<g id="a_node2"><a xlink:href="dir_1991002a29f42615f0e2898ae7084454.html" target="_top" xlink:title="task_scheduler">
<polygon fill="white" stroke="black" points="107.5,-60 24.5,-60 24.5,-24 107.5,-24 107.5,-60"/>
<text text-anchor="middle" x="66" y="-39.5" font-family="Helvetica,sans-Serif" font-size="10.00">task_scheduler</text>
</a>
</g>
</g>
<!-- dir_01df4195ca0e31245669d7f2e02267d5&#45;&gt;dir_1991002a29f42615f0e2898ae7084454 -->
<g id="edge1" class="edge">
<title>dir_01df4195ca0e31245669d7f2e02267d5&#45;&gt;dir_1991002a29f42615f0e2898ae7084454</title>
<path fill="none" stroke="black" d="M66,-95.7C66,-87.98 66,-78.71 66,-70.11"/>
<polygon fill="black" stroke="black" points="69.5,-70.1 66,-60.1 62.5,-70.1 69.5,-70.1"/>
<g id="a_edge1&#45;headlabel"><a xlink:href="dir_000002_000003.html" target="_top" xlink:title="1">
<text text-anchor="middle" x="72.34" y="-71.2" font-family="Helvetica,sans-Serif" font-size="10.00">1</text>
</a>
</g>
</g>
</g>
</svg>
