<?xml version="1.0" encoding="UTF-8" standalone="no"?>
<!DOCTYPE svg PUBLIC "-//W3C//DTD SVG 1.1//EN"
 "http://www.w3.org/Graphics/SVG/1.1/DTD/svg11.dtd">
<!-- Generated by graphviz version 2.49.2 (20211016.1639)
 -->
<!-- Title: C:/Users/a5126135/Dev/rltos_master/rltos/src/rltos_kernel Pages: 1 -->
<svg width="435pt" height="183pt"
 viewBox="0.00 0.00 435.00 183.00" xmlns="http://www.w3.org/2000/svg" xmlns:xlink="http://www.w3.org/1999/xlink">
<g id="graph0" class="graph" transform="scale(1 1) rotate(0) translate(4 179)">
<title>C:/Users/a5126135/Dev/rltos_master/rltos/src/rltos_kernel</title>
<polygon fill="white" stroke="transparent" points="-4,4 -4,-179 431,-179 431,4 -4,4"/>
<g id="clust1" class="cluster">
<title>clusterdir_68267d1309a1af8e8297ef4c3efbcdba</title>
<g id="a_clust1"><a xlink:href="dir_68267d1309a1af8e8297ef4c3efbcdba.html" target="_top" xlink:title="src">
<polygon fill="#ddddee" stroke="black" points="8,-8 8,-167 419,-167 419,-8 8,-8"/>
<text text-anchor="middle" x="213.5" y="-155" font-family="Helvetica,sans-Serif" font-size="10.00">src</text>
</a>
</g>
</g>
<g id="clust2" class="cluster">
<title>clusterdir_af6361a0889bd13a5399807a03405a13</title>
<g id="a_clust2"><a xlink:href="dir_af6361a0889bd13a5399807a03405a13.html" target="_top">
<polygon fill="#eeeeff" stroke="black" points="16,-16 16,-140 411,-140 411,-16 16,-16"/>
</a>
</g>
</g>
<!-- dir_af6361a0889bd13a5399807a03405a13 -->
<g id="node1" class="node">
<title>dir_af6361a0889bd13a5399807a03405a13</title>
<text text-anchor="middle" x="369" y="-111.5" font-family="Helvetica,sans-Serif" font-size="10.00">rltos_kernel</text>
</g>
<!-- dir_01df4195ca0e31245669d7f2e02267d5 -->
<g id="node2" class="node">
<title>dir_01df4195ca0e31245669d7f2e02267d5</title>
<g id="a_node2"><a xlink:href="dir_01df4195ca0e31245669d7f2e02267d5.html" target="_top" xlink:title="core">
<polygon fill="white" stroke="red" points="198,-60 144,-60 144,-24 198,-24 198,-60"/>
<text text-anchor="middle" x="171" y="-39.5" font-family="Helvetica,sans-Serif" font-size="10.00">core</text>
</a>
</g>
</g>
<!-- dir_45a3502b5235583021a786f070223b99 -->
<g id="node3" class="node">
<title>dir_45a3502b5235583021a786f070223b99</title>
<g id="a_node3"><a xlink:href="dir_45a3502b5235583021a786f070223b99.html" target="_top" xlink:title="event_flags">
<polygon fill="white" stroke="black" points="317.5,-132 252.5,-132 252.5,-96 317.5,-96 317.5,-132"/>
<text text-anchor="middle" x="285" y="-111.5" font-family="Helvetica,sans-Serif" font-size="10.00">event_flags</text>
</a>
</g>
</g>
<!-- dir_45a3502b5235583021a786f070223b99&#45;&gt;dir_01df4195ca0e31245669d7f2e02267d5 -->
<g id="edge1" class="edge">
<title>dir_45a3502b5235583021a786f070223b99&#45;&gt;dir_01df4195ca0e31245669d7f2e02267d5</title>
<path fill="none" stroke="black" d="M257.11,-95.88C241.98,-86.59 223.12,-75 206.9,-65.04"/>
<polygon fill="black" stroke="black" points="208.56,-61.96 198.21,-59.71 204.9,-67.92 208.56,-61.96"/>
<g id="a_edge1&#45;headlabel"><a xlink:href="dir_000004_000002.html" target="_top" xlink:title="2">
<text text-anchor="middle" x="213.11" y="-58.92" font-family="Helvetica,sans-Serif" font-size="10.00">2</text>
</a>
</g>
</g>
<!-- dir_d46fb40ad5eeff5fbad789cc2de5425f -->
<g id="node4" class="node">
<title>dir_d46fb40ad5eeff5fbad789cc2de5425f</title>
<g id="a_node4"><a xlink:href="dir_d46fb40ad5eeff5fbad789cc2de5425f.html" target="_top" xlink:title="mutex">
<polygon fill="white" stroke="black" points="234,-132 180,-132 180,-96 234,-96 234,-132"/>
<text text-anchor="middle" x="207" y="-111.5" font-family="Helvetica,sans-Serif" font-size="10.00">mutex</text>
</a>
</g>
</g>
<!-- dir_d46fb40ad5eeff5fbad789cc2de5425f&#45;&gt;dir_01df4195ca0e31245669d7f2e02267d5 -->
<g id="edge4" class="edge">
<title>dir_d46fb40ad5eeff5fbad789cc2de5425f&#45;&gt;dir_01df4195ca0e31245669d7f2e02267d5</title>
<path fill="none" stroke="black" d="M198.1,-95.7C194,-87.73 189.05,-78.1 184.51,-69.26"/>
<polygon fill="black" stroke="black" points="187.48,-67.4 179.8,-60.1 181.26,-70.6 187.48,-67.4"/>
<g id="a_edge4&#45;headlabel"><a xlink:href="dir_000005_000002.html" target="_top" xlink:title="2">
<text text-anchor="middle" x="191.65" y="-66.79" font-family="Helvetica,sans-Serif" font-size="10.00">2</text>
</a>
</g>
</g>
<!-- dir_6f1e2c01d0aba682fc96a9491f9a5dc3 -->
<g id="node5" class="node">
<title>dir_6f1e2c01d0aba682fc96a9491f9a5dc3</title>
<g id="a_node5"><a xlink:href="dir_6f1e2c01d0aba682fc96a9491f9a5dc3.html" target="_top" xlink:title="queue">
<polygon fill="white" stroke="black" points="162,-132 108,-132 108,-96 162,-96 162,-132"/>
<text text-anchor="middle" x="135" y="-111.5" font-family="Helvetica,sans-Serif" font-size="10.00">queue</text>
</a>
</g>
</g>
<!-- dir_6f1e2c01d0aba682fc96a9491f9a5dc3&#45;&gt;dir_01df4195ca0e31245669d7f2e02267d5 -->
<g id="edge3" class="edge">
<title>dir_6f1e2c01d0aba682fc96a9491f9a5dc3&#45;&gt;dir_01df4195ca0e31245669d7f2e02267d5</title>
<path fill="none" stroke="black" d="M143.9,-95.7C148,-87.73 152.95,-78.1 157.49,-69.26"/>
<polygon fill="black" stroke="black" points="160.74,-70.6 162.2,-60.1 154.52,-67.4 160.74,-70.6"/>
<g id="a_edge3&#45;headlabel"><a xlink:href="dir_000006_000002.html" target="_top" xlink:title="2">
<text text-anchor="middle" x="161.62" y="-72.59" font-family="Helvetica,sans-Serif" font-size="10.00">2</text>
</a>
</g>
</g>
<!-- dir_5979f9da59ade50f2d3bac777f8dff71 -->
<g id="node6" class="node">
<title>dir_5979f9da59ade50f2d3bac777f8dff71</title>
<g id="a_node6"><a xlink:href="dir_5979f9da59ade50f2d3bac777f8dff71.html" target="_top" xlink:title="semaphore">
<polygon fill="white" stroke="black" points="89.5,-132 24.5,-132 24.5,-96 89.5,-96 89.5,-132"/>
<text text-anchor="middle" x="57" y="-111.5" font-family="Helvetica,sans-Serif" font-size="10.00">semaphore</text>
</a>
</g>
</g>
<!-- dir_5979f9da59ade50f2d3bac777f8dff71&#45;&gt;dir_01df4195ca0e31245669d7f2e02267d5 -->
<g id="edge2" class="edge">
<title>dir_5979f9da59ade50f2d3bac777f8dff71&#45;&gt;dir_01df4195ca0e31245669d7f2e02267d5</title>
<path fill="none" stroke="black" d="M84.89,-95.88C100.02,-86.59 118.88,-75 135.1,-65.04"/>
<polygon fill="black" stroke="black" points="137.1,-67.92 143.79,-59.71 133.44,-61.96 137.1,-67.92"/>
<g id="a_edge2&#45;headlabel"><a xlink:href="dir_000007_000002.html" target="_top" xlink:title="2">
<text text-anchor="middle" x="135.53" y="-69.72" font-family="Helvetica,sans-Serif" font-size="10.00">2</text>
</a>
</g>
</g>
</g>
</svg>
