<?xml version="1.0" encoding="UTF-8" standalone="no"?>
<!DOCTYPE svg PUBLIC "-//W3C//DTD SVG 1.1//EN"
 "http://www.w3.org/Graphics/SVG/1.1/DTD/svg11.dtd">
<!-- Generated by graphviz version 2.49.2 (20211016.1639)
 -->
<!-- Title: C:/Users/a5126135/Dev/rltos_master/rltos/src/rltos_kernel/event_flags Pages: 1 -->
<svg width="106pt" height="167pt"
 viewBox="0.00 0.00 106.00 167.00" xmlns="http://www.w3.org/2000/svg" xmlns:xlink="http://www.w3.org/1999/xlink">
<g id="graph0" class="graph" transform="scale(1 1) rotate(0) translate(4 163)">
<title>C:/Users/a5126135/Dev/rltos_master/rltos/src/rltos_kernel/event_flags</title>
<polygon fill="white" stroke="transparent" points="-4,4 -4,-163 102,-163 102,4 -4,4"/>
<g id="clust1" class="cluster">
<title>clusterdir_af6361a0889bd13a5399807a03405a13</title>
<g id="a_clust1"><a xlink:href="dir_af6361a0889bd13a5399807a03405a13.html" target="_top" xlink:title="rltos_kernel">
<polygon fill="#ddddee" stroke="black" points="8,-8 8,-151 90,-151 90,-8 8,-8"/>
<text text-anchor="middle" x="49" y="-139" font-family="Helvetica,sans-Serif" font-size="10.00">rltos_kernel</text>
</a>
</g>
</g>
<!-- dir_b9eff2dc487c716f5330e9bcc12d1199 -->
<g id="node1" class="node">
<title>dir_b9eff2dc487c716f5330e9bcc12d1199</title>
<g id="a_node1"><a xlink:href="dir_b9eff2dc487c716f5330e9bcc12d1199.html" target="_top" xlink:title="task">
<polygon fill="white" stroke="red" points="76,-52 22,-52 22,-16 76,-16 76,-52"/>
<text text-anchor="middle" x="49" y="-31.5" font-family="Helvetica,sans-Serif" font-size="10.00">task</text>
</a>
</g>
</g>
<!-- dir_45a3502b5235583021a786f070223b99 -->
<g id="node2" class="node">
<title>dir_45a3502b5235583021a786f070223b99</title>
<g id="a_node2"><a xlink:href="dir_45a3502b5235583021a786f070223b99.html" target="_top" xlink:title="event_flags">
<polygon fill="#eeeeff" stroke="black" points="81.5,-124 16.5,-124 16.5,-88 81.5,-88 81.5,-124"/>
<text text-anchor="middle" x="49" y="-103.5" font-family="Helvetica,sans-Serif" font-size="10.00">event_flags</text>
</a>
</g>
</g>
<!-- dir_45a3502b5235583021a786f070223b99&#45;&gt;dir_b9eff2dc487c716f5330e9bcc12d1199 -->
<g id="edge1" class="edge">
<title>dir_45a3502b5235583021a786f070223b99&#45;&gt;dir_b9eff2dc487c716f5330e9bcc12d1199</title>
<path fill="none" stroke="black" d="M49,-87.7C49,-79.98 49,-70.71 49,-62.11"/>
<polygon fill="black" stroke="black" points="52.5,-62.1 49,-52.1 45.5,-62.1 52.5,-62.1"/>
<g id="a_edge1&#45;headlabel"><a xlink:href="dir_000002_000006.html" target="_top" xlink:title="2">
<text text-anchor="middle" x="55.34" y="-63.2" font-family="Helvetica,sans-Serif" font-size="10.00">2</text>
</a>
</g>
</g>
</g>
</svg>
