<?xml version="1.0" encoding="UTF-8" standalone="no"?>
<!DOCTYPE svg PUBLIC "-//W3C//DTD SVG 1.1//EN"
 "http://www.w3.org/Graphics/SVG/1.1/DTD/svg11.dtd">
<!-- Generated by graphviz version 2.49.2 (20211016.1639)
 -->
<!-- Title: C:/Users/a5126135/Dev/rltos_master/rltos/rltos/rltos_kernel Pages: 1 -->
<svg width="435pt" height="183pt"
 viewBox="0.00 0.00 435.00 183.00" xmlns="http://www.w3.org/2000/svg" xmlns:xlink="http://www.w3.org/1999/xlink">
<g id="graph0" class="graph" transform="scale(1 1) rotate(0) translate(4 179)">
<title>C:/Users/a5126135/Dev/rltos_master/rltos/rltos/rltos_kernel</title>
<polygon fill="white" stroke="transparent" points="-4,4 -4,-179 431,-179 431,4 -4,4"/>
<g id="clust1" class="cluster">
<title>clusterdir_5280863bcef8592cc42d88659b7a1d5b</title>
<g id="a_clust1"><a xlink:href="dir_5280863bcef8592cc42d88659b7a1d5b.html" target="_top" xlink:title="rltos">
<polygon fill="#ddddee" stroke="black" points="8,-8 8,-167 419,-167 419,-8 8,-8"/>
<text text-anchor="middle" x="213.5" y="-155" font-family="Helvetica,sans-Serif" font-size="10.00">rltos</text>
</a>
</g>
</g>
<g id="clust2" class="cluster">
<title>clusterdir_862a754748605bb6003eb3d717fe385f</title>
<g id="a_clust2"><a xlink:href="dir_862a754748605bb6003eb3d717fe385f.html" target="_top">
<polygon fill="#eeeeff" stroke="black" points="16,-16 16,-140 411,-140 411,-16 16,-16"/>
</a>
</g>
</g>
<!-- dir_862a754748605bb6003eb3d717fe385f -->
<g id="node1" class="node">
<title>dir_862a754748605bb6003eb3d717fe385f</title>
<text text-anchor="middle" x="369" y="-111.5" font-family="Helvetica,sans-Serif" font-size="10.00">rltos_kernel</text>
</g>
<!-- dir_129a6e6d21f45a3e8a9b0cece35d21b2 -->
<g id="node6" class="node">
<title>dir_129a6e6d21f45a3e8a9b0cece35d21b2</title>
<g id="a_node6"><a xlink:href="dir_129a6e6d21f45a3e8a9b0cece35d21b2.html" target="_top" xlink:title="task_list">
<polygon fill="white" stroke="black" points="396,-60 342,-60 342,-24 396,-24 396,-60"/>
<text text-anchor="middle" x="369" y="-39.5" font-family="Helvetica,sans-Serif" font-size="10.00">task_list</text>
</a>
</g>
</g>
<!-- dir_862a754748605bb6003eb3d717fe385f&#45;&gt;dir_129a6e6d21f45a3e8a9b0cece35d21b2 -->
<g id="edge1" class="edge">
<title>dir_862a754748605bb6003eb3d717fe385f&#45;&gt;dir_129a6e6d21f45a3e8a9b0cece35d21b2</title>
<path fill="none" stroke="black" d="M369,-95.7C369,-87.98 369,-78.71 369,-70.11"/>
<polygon fill="black" stroke="black" points="372.5,-70.1 369,-60.1 365.5,-70.1 372.5,-70.1"/>
<g id="a_edge1&#45;headlabel"><a xlink:href="dir_000001_000006.html" target="_top" xlink:title="1">
<text text-anchor="middle" x="375.34" y="-71.2" font-family="Helvetica,sans-Serif" font-size="10.00">1</text>
</a>
</g>
</g>
<!-- dir_d2f388b8fddb032cc85cd749eee50742 -->
<g id="node2" class="node">
<title>dir_d2f388b8fddb032cc85cd749eee50742</title>
<g id="a_node2"><a xlink:href="dir_d2f388b8fddb032cc85cd749eee50742.html" target="_top" xlink:title="event_flags">
<polygon fill="white" stroke="black" points="317.5,-132 252.5,-132 252.5,-96 317.5,-96 317.5,-132"/>
<text text-anchor="middle" x="285" y="-111.5" font-family="Helvetica,sans-Serif" font-size="10.00">event_flags</text>
</a>
</g>
</g>
<!-- dir_63c41f576932602e7b7c63538ec65b61 -->
<g id="node3" class="node">
<title>dir_63c41f576932602e7b7c63538ec65b61</title>
<g id="a_node3"><a xlink:href="dir_63c41f576932602e7b7c63538ec65b61.html" target="_top" xlink:title="mutex">
<polygon fill="white" stroke="black" points="234,-132 180,-132 180,-96 234,-96 234,-132"/>
<text text-anchor="middle" x="207" y="-111.5" font-family="Helvetica,sans-Serif" font-size="10.00">mutex</text>
</a>
</g>
</g>
<!-- dir_8973495b8d2aaa86973d1a18a5413c63 -->
<g id="node4" class="node">
<title>dir_8973495b8d2aaa86973d1a18a5413c63</title>
<g id="a_node4"><a xlink:href="dir_8973495b8d2aaa86973d1a18a5413c63.html" target="_top" xlink:title="queue">
<polygon fill="white" stroke="black" points="162,-132 108,-132 108,-96 162,-96 162,-132"/>
<text text-anchor="middle" x="135" y="-111.5" font-family="Helvetica,sans-Serif" font-size="10.00">queue</text>
</a>
</g>
</g>
<!-- dir_8cfe6fc34ceea9df13092650d83105cd -->
<g id="node5" class="node">
<title>dir_8cfe6fc34ceea9df13092650d83105cd</title>
<g id="a_node5"><a xlink:href="dir_8cfe6fc34ceea9df13092650d83105cd.html" target="_top" xlink:title="semaphore">
<polygon fill="white" stroke="black" points="89.5,-132 24.5,-132 24.5,-96 89.5,-96 89.5,-132"/>
<text text-anchor="middle" x="57" y="-111.5" font-family="Helvetica,sans-Serif" font-size="10.00">semaphore</text>
</a>
</g>
</g>
</g>
</svg>
