<?xml version="1.0" encoding="UTF-8" standalone="no"?>
<!DOCTYPE svg PUBLIC "-//W3C//DTD SVG 1.1//EN"
 "http://www.w3.org/Graphics/SVG/1.1/DTD/svg11.dtd">
<!-- Generated by graphviz version 2.49.2 (20211016.1639)
 -->
<!-- Title: Task_set_running Pages: 1 -->
<svg width="393pt" height="78pt"
 viewBox="0.00 0.00 393.00 77.50" xmlns="http://www.w3.org/2000/svg" xmlns:xlink="http://www.w3.org/1999/xlink">
<g id="graph0" class="graph" transform="scale(1 1) rotate(0) translate(4 73.5)">
<title>Task_set_running</title>
<polygon fill="white" stroke="transparent" points="-4,4 -4,-73.5 389,-73.5 389,4 -4,4"/>
<!-- Node1 -->
<g id="node1" class="node">
<title>Node1</title>
<g id="a_node1"><a xlink:title="Function used to insert the task to the running list.">
<polygon fill="#bfbfbf" stroke="black" points="292,-22.5 292,-41.5 385,-41.5 385,-22.5 292,-22.5"/>
<text text-anchor="middle" x="338.5" y="-29.5" font-family="Helvetica,sans-Serif" font-size="10.00">Task_set_running</text>
</a>
</g>
</g>
<!-- Node2 -->
<g id="node2" class="node">
<title>Node2</title>
<g id="a_node2"><a xlink:href="group___rltos__task__scheduler__prv.html#ga7dad02e1630e47f423618b110c2071a4" target="_top" xlink:title="implementation of rltos context switch &#45; called from rltos_scheduler_asm.asm">
<polygon fill="white" stroke="black" points="137,-39 137,-69 256,-69 256,-39 137,-39"/>
<text text-anchor="start" x="145" y="-57" font-family="Helvetica,sans-Serif" font-size="10.00">Rltos_scheduler_switch</text>
<text text-anchor="middle" x="196.5" y="-46" font-family="Helvetica,sans-Serif" font-size="10.00">_context</text>
</a>
</g>
</g>
<!-- Node1&#45;&gt;Node2 -->
<g id="edge1" class="edge">
<title>Node1&#45;&gt;Node2</title>
<path fill="none" stroke="midnightblue" d="M281.63,-40.78C273.27,-42.09 264.63,-43.45 256.21,-44.77"/>
<polygon fill="midnightblue" stroke="midnightblue" points="282.32,-44.21 291.66,-39.2 281.24,-37.3 282.32,-44.21"/>
</g>
<!-- Node3 -->
<g id="node3" class="node">
<title>Node3</title>
<g id="a_node3"><a xlink:href="group___rltos__task__scheduler__api.html#gafed22720e2a57cdac7337c27d9f6b71d" target="_top" xlink:title="Function used to set a task running &#45; only if it is stopped (not waiting on an object or idled)">
<polygon fill="white" stroke="black" points="159,-0.5 159,-19.5 234,-19.5 234,-0.5 159,-0.5"/>
<text text-anchor="middle" x="196.5" y="-7.5" font-family="Helvetica,sans-Serif" font-size="10.00">Task_resume</text>
</a>
</g>
</g>
<!-- Node1&#45;&gt;Node3 -->
<g id="edge2" class="edge">
<title>Node1&#45;&gt;Node3</title>
<path fill="none" stroke="midnightblue" d="M281.38,-23.18C265.47,-20.68 248.56,-18.02 234.13,-15.76"/>
<polygon fill="midnightblue" stroke="midnightblue" points="281.24,-26.7 291.66,-24.8 282.32,-19.79 281.24,-26.7"/>
</g>
<!-- Node4 -->
<g id="node4" class="node">
<title>Node4</title>
<g id="a_node4"><a xlink:href="group___rltos__task__api.html#gac973b9f42436cf326284b4a7ae5222ac" target="_top" xlink:title="Resumes the targetted task in the stop state.">
<polygon fill="white" stroke="black" points="0,-0.5 0,-19.5 101,-19.5 101,-0.5 0,-0.5"/>
<text text-anchor="middle" x="50.5" y="-7.5" font-family="Helvetica,sans-Serif" font-size="10.00">Rltos_task_resume</text>
</a>
</g>
</g>
<!-- Node3&#45;&gt;Node4 -->
<g id="edge3" class="edge">
<title>Node3&#45;&gt;Node4</title>
<path fill="none" stroke="midnightblue" d="M148.6,-10C133.42,-10 116.55,-10 101.18,-10"/>
<polygon fill="midnightblue" stroke="midnightblue" points="148.79,-13.5 158.79,-10 148.79,-6.5 148.79,-13.5"/>
</g>
</g>
</svg>
