<?xml version="1.0" encoding="UTF-8" standalone="no"?>
<!DOCTYPE svg PUBLIC "-//W3C//DTD SVG 1.1//EN"
 "http://www.w3.org/Graphics/SVG/1.1/DTD/svg11.dtd">
<!-- Generated by graphviz version 2.49.2 (20211016.1639)
 -->
<!-- Title: Task_resume Pages: 1 -->
<svg width="481pt" height="66pt"
 viewBox="0.00 0.00 481.00 66.00" xmlns="http://www.w3.org/2000/svg" xmlns:xlink="http://www.w3.org/1999/xlink">
<g id="graph0" class="graph" transform="scale(1 1) rotate(0) translate(4 62)">
<title>Task_resume</title>
<polygon fill="white" stroke="transparent" points="-4,4 -4,-62 477,-62 477,4 -4,4"/>
<!-- Node1 -->
<g id="node1" class="node">
<title>Node1</title>
<g id="a_node1"><a xlink:title="Function used to set a task running &#45; only if it is stopped (not waiting on an object or idled)">
<polygon fill="#bfbfbf" stroke="black" points="0,-19.5 0,-38.5 75,-38.5 75,-19.5 0,-19.5"/>
<text text-anchor="middle" x="37.5" y="-26.5" font-family="Helvetica,sans-Serif" font-size="10.00">Task_resume</text>
</a>
</g>
</g>
<!-- Node2 -->
<g id="node2" class="node">
<title>Node2</title>
<g id="a_node2"><a xlink:href="group___rltos__task__scheduler__api.html#gae2e9ba76398ba904d0c32071d3512a2b" target="_top" xlink:title="Function used to insert the task to the running list.">
<polygon fill="white" stroke="black" points="111,-19.5 111,-38.5 204,-38.5 204,-19.5 111,-19.5"/>
<text text-anchor="middle" x="157.5" y="-26.5" font-family="Helvetica,sans-Serif" font-size="10.00">Task_set_running</text>
</a>
</g>
</g>
<!-- Node1&#45;&gt;Node2 -->
<g id="edge1" class="edge">
<title>Node1&#45;&gt;Node2</title>
<path fill="none" stroke="midnightblue" d="M75.19,-29C83.26,-29 91.99,-29 100.62,-29"/>
<polygon fill="midnightblue" stroke="midnightblue" points="100.67,-32.5 110.67,-29 100.67,-25.5 100.67,-32.5"/>
</g>
<!-- Node3 -->
<g id="node3" class="node">
<title>Node3</title>
<g id="a_node3"><a xlink:href="group___rltos__task__scheduler__prv.html#gab915c720a9360b7be5bb388002b6ebcd" target="_top" xlink:title="Function used to insert a task in a sorted task list.">
<polygon fill="white" stroke="black" points="249,-38.5 249,-57.5 347,-57.5 347,-38.5 249,-38.5"/>
<text text-anchor="middle" x="298" y="-45.5" font-family="Helvetica,sans-Serif" font-size="10.00">Task_insert_in_list</text>
</a>
</g>
</g>
<!-- Node2&#45;&gt;Node3 -->
<g id="edge2" class="edge">
<title>Node2&#45;&gt;Node3</title>
<path fill="none" stroke="midnightblue" d="M204.23,-35.27C215.33,-36.8 227.33,-38.44 238.91,-40.03"/>
<polygon fill="midnightblue" stroke="midnightblue" points="238.55,-43.51 248.94,-41.41 239.51,-36.58 238.55,-43.51"/>
</g>
<!-- Node4 -->
<g id="node4" class="node">
<title>Node4</title>
<g id="a_node4"><a xlink:href="group___rltos__task__scheduler__prv.html#ga421dbb81487cd2fdc1fd06b1407eae5b" target="_top" xlink:title="Function used to remove task from a task list.">
<polygon fill="white" stroke="black" points="240,-0.5 240,-19.5 356,-19.5 356,-0.5 240,-0.5"/>
<text text-anchor="middle" x="298" y="-7.5" font-family="Helvetica,sans-Serif" font-size="10.00">Task_remove_from_list</text>
</a>
</g>
</g>
<!-- Node2&#45;&gt;Node4 -->
<g id="edge3" class="edge">
<title>Node2&#45;&gt;Node4</title>
<path fill="none" stroke="midnightblue" d="M204.23,-22.73C212.39,-21.61 221.04,-20.42 229.65,-19.24"/>
<polygon fill="midnightblue" stroke="midnightblue" points="230.27,-22.69 239.7,-17.86 229.32,-15.75 230.27,-22.69"/>
</g>
<!-- Node5 -->
<g id="node5" class="node">
<title>Node5</title>
<g id="a_node5"><a xlink:href="group___rltos__task__scheduler__prv.html#ga6f098dd7382a94e001bdeeadd29ae7bf" target="_top" xlink:title="Function used to check if a task is contained within the task list or not.">
<polygon fill="white" stroke="black" points="392,-0.5 392,-19.5 473,-19.5 473,-0.5 392,-0.5"/>
<text text-anchor="middle" x="432.5" y="-7.5" font-family="Helvetica,sans-Serif" font-size="10.00">Task_is_in_list</text>
</a>
</g>
</g>
<!-- Node4&#45;&gt;Node5 -->
<g id="edge4" class="edge">
<title>Node4&#45;&gt;Node5</title>
<path fill="none" stroke="midnightblue" d="M356.35,-10C364.71,-10 373.26,-10 381.46,-10"/>
<polygon fill="midnightblue" stroke="midnightblue" points="381.62,-13.5 391.62,-10 381.62,-6.5 381.62,-13.5"/>
</g>
</g>
</svg>
