<?xml version="1.0" encoding="UTF-8" standalone="no"?>
<!DOCTYPE svg PUBLIC "-//W3C//DTD SVG 1.1//EN"
 "http://www.w3.org/Graphics/SVG/1.1/DTD/svg11.dtd">
<!-- Generated by graphviz version 2.49.2 (20211016.1639)
 -->
<!-- Title: Rltos_scheduler_switch_context Pages: 1 -->
<svg width="543pt" height="66pt"
 viewBox="0.00 0.00 543.00 66.00" xmlns="http://www.w3.org/2000/svg" xmlns:xlink="http://www.w3.org/1999/xlink">
<g id="graph0" class="graph" transform="scale(1 1) rotate(0) translate(4 62)">
<title>Rltos_scheduler_switch_context</title>
<polygon fill="white" stroke="transparent" points="-4,4 -4,-62 539,-62 539,4 -4,4"/>
<!-- Node1 -->
<g id="node1" class="node">
<title>Node1</title>
<g id="a_node1"><a xlink:title="implementation of rltos context switch &#45; called from rltos_scheduler_asm.asm">
<polygon fill="#bfbfbf" stroke="black" points="0,-14 0,-44 119,-44 119,-14 0,-14"/>
<text text-anchor="start" x="8" y="-32" font-family="Helvetica,sans-Serif" font-size="10.00">Rltos_scheduler_switch</text>
<text text-anchor="middle" x="59.5" y="-21" font-family="Helvetica,sans-Serif" font-size="10.00">_context</text>
</a>
</g>
</g>
<!-- Node2 -->
<g id="node2" class="node">
<title>Node2</title>
<g id="a_node2"><a xlink:href="group___rltos__task__scheduler__api.html#gae2e9ba76398ba904d0c32071d3512a2b" target="_top" xlink:title="Function used to insert the task to the running list.">
<polygon fill="white" stroke="black" points="155,-19.5 155,-38.5 248,-38.5 248,-19.5 155,-19.5"/>
<text text-anchor="middle" x="201.5" y="-26.5" font-family="Helvetica,sans-Serif" font-size="10.00">Task_set_running</text>
</a>
</g>
</g>
<!-- Node1&#45;&gt;Node2 -->
<g id="edge1" class="edge">
<title>Node1&#45;&gt;Node2</title>
<path fill="none" stroke="midnightblue" d="M119.06,-29C127.58,-29 136.34,-29 144.8,-29"/>
<polygon fill="midnightblue" stroke="midnightblue" points="144.95,-32.5 154.95,-29 144.95,-25.5 144.95,-32.5"/>
</g>
<!-- Node3 -->
<g id="node3" class="node">
<title>Node3</title>
<g id="a_node3"><a xlink:href="group___rltos__task__scheduler__prv.html#ga22fda87fe06611ea2bc93aec643b60bd" target="_top" xlink:title="Function used to insert a task in the running list (sorted).">
<polygon fill="white" stroke="black" points="284,-38.5 284,-57.5 418,-57.5 418,-38.5 284,-38.5"/>
<text text-anchor="middle" x="351" y="-45.5" font-family="Helvetica,sans-Serif" font-size="10.00">Task_insert_in_running_list</text>
</a>
</g>
</g>
<!-- Node2&#45;&gt;Node3 -->
<g id="edge2" class="edge">
<title>Node2&#45;&gt;Node3</title>
<path fill="none" stroke="midnightblue" d="M248.36,-34.91C256.45,-35.95 265.05,-37.06 273.71,-38.17"/>
<polygon fill="midnightblue" stroke="midnightblue" points="273.5,-41.67 283.86,-39.48 274.39,-34.73 273.5,-41.67"/>
</g>
<!-- Node4 -->
<g id="node4" class="node">
<title>Node4</title>
<g id="a_node4"><a xlink:href="group___rltos__task__scheduler__prv.html#ga421dbb81487cd2fdc1fd06b1407eae5b" target="_top" xlink:title="Function used to remove task from a task list.">
<polygon fill="white" stroke="black" points="293,-0.5 293,-19.5 409,-19.5 409,-0.5 293,-0.5"/>
<text text-anchor="middle" x="351" y="-7.5" font-family="Helvetica,sans-Serif" font-size="10.00">Task_remove_from_list</text>
</a>
</g>
</g>
<!-- Node2&#45;&gt;Node4 -->
<g id="edge3" class="edge">
<title>Node2&#45;&gt;Node4</title>
<path fill="none" stroke="midnightblue" d="M248.36,-23.09C259.28,-21.69 271.16,-20.16 282.82,-18.65"/>
<polygon fill="midnightblue" stroke="midnightblue" points="283.51,-22.09 292.98,-17.34 282.62,-15.15 283.51,-22.09"/>
</g>
<!-- Node5 -->
<g id="node5" class="node">
<title>Node5</title>
<g id="a_node5"><a xlink:href="group___rltos__task__scheduler__prv.html#ga6f098dd7382a94e001bdeeadd29ae7bf" target="_top" xlink:title="Function used to check if a task is contained within the task list or not.">
<polygon fill="white" stroke="black" points="454,-0.5 454,-19.5 535,-19.5 535,-0.5 454,-0.5"/>
<text text-anchor="middle" x="494.5" y="-7.5" font-family="Helvetica,sans-Serif" font-size="10.00">Task_is_in_list</text>
</a>
</g>
</g>
<!-- Node4&#45;&gt;Node5 -->
<g id="edge4" class="edge">
<title>Node4&#45;&gt;Node5</title>
<path fill="none" stroke="midnightblue" d="M409.15,-10C420.66,-10 432.67,-10 443.89,-10"/>
<polygon fill="midnightblue" stroke="midnightblue" points="443.95,-13.5 453.95,-10 443.95,-6.5 443.95,-13.5"/>
</g>
</g>
</svg>
