<?xml version="1.0" encoding="UTF-8" standalone="no"?>
<!DOCTYPE svg PUBLIC "-//W3C//DTD SVG 1.1//EN"
 "http://www.w3.org/Graphics/SVG/1.1/DTD/svg11.dtd">
<!-- Generated by graphviz version 2.49.2 (20211016.1639)
 -->
<!-- Title: Task_scheduler_init Pages: 1 -->
<svg width="523pt" height="116pt"
 viewBox="0.00 0.00 523.00 115.50" xmlns="http://www.w3.org/2000/svg" xmlns:xlink="http://www.w3.org/1999/xlink">
<g id="graph0" class="graph" transform="scale(1 1) rotate(0) translate(4 111.5)">
<title>Task_scheduler_init</title>
<polygon fill="white" stroke="transparent" points="-4,4 -4,-111.5 519,-111.5 519,4 -4,4"/>
<!-- Node1 -->
<g id="node1" class="node">
<title>Node1</title>
<g id="a_node1"><a xlink:title="Function to initialise the current task on entry to the scheduler &amp; create + add the idle task to the...">
<polygon fill="#bfbfbf" stroke="black" points="0,-57.5 0,-76.5 103,-76.5 103,-57.5 0,-57.5"/>
<text text-anchor="middle" x="51.5" y="-64.5" font-family="Helvetica,sans-Serif" font-size="10.00">Task_scheduler_init</text>
</a>
</g>
</g>
<!-- Node2 -->
<g id="node2" class="node">
<title>Node2</title>
<g id="a_node2"><a xlink:href="group___rltos__task__scheduler__prv.html#gaaf0d6196a9bd2cf22c5fd38b0a6725bf" target="_top" xlink:title="Idle task function &#45; calls hook function on each execution.">
<polygon fill="white" stroke="black" points="139,-76.5 139,-95.5 231,-95.5 231,-76.5 139,-76.5"/>
<text text-anchor="middle" x="185" y="-83.5" font-family="Helvetica,sans-Serif" font-size="10.00">Rltos_idle_thread</text>
</a>
</g>
</g>
<!-- Node1&#45;&gt;Node2 -->
<g id="edge1" class="edge">
<title>Node1&#45;&gt;Node2</title>
<path fill="none" stroke="midnightblue" d="M103.34,-74.35C111.67,-75.55 120.33,-76.8 128.75,-78.02"/>
<polygon fill="midnightblue" stroke="midnightblue" points="128.47,-81.51 138.87,-79.48 129.47,-74.59 128.47,-81.51"/>
</g>
<!-- Node3 -->
<g id="node3" class="node">
<title>Node3</title>
<g id="a_node3"><a xlink:href="group___rltos__task__scheduler__api.html#gaf77c7c3425845b054fd8fc2ddc9ea57a" target="_top" xlink:title="Function used to set initial stack pointer, task entry function &amp; clear pointers to next and prev nod...">
<polygon fill="white" stroke="black" points="157,-38.5 157,-57.5 213,-57.5 213,-38.5 157,-38.5"/>
<text text-anchor="middle" x="185" y="-45.5" font-family="Helvetica,sans-Serif" font-size="10.00">Task_init</text>
</a>
</g>
</g>
<!-- Node1&#45;&gt;Node3 -->
<g id="edge2" class="edge">
<title>Node1&#45;&gt;Node3</title>
<path fill="none" stroke="midnightblue" d="M103.34,-59.65C117.85,-57.56 133.39,-55.31 146.92,-53.36"/>
<polygon fill="midnightblue" stroke="midnightblue" points="147.42,-56.82 156.82,-51.93 146.42,-49.89 147.42,-56.82"/>
</g>
<!-- Node4 -->
<g id="node4" class="node">
<title>Node4</title>
<g id="a_node4"><a xlink:href="group___rltos__task__scheduler__api.html#gace63a5440ce856ed27f2c9dc07331b67" target="_top" xlink:title="Function used to insert the task to the running list.">
<polygon fill="white" stroke="black" points="268.5,-57.5 268.5,-76.5 361.5,-76.5 361.5,-57.5 268.5,-57.5"/>
<text text-anchor="middle" x="315" y="-64.5" font-family="Helvetica,sans-Serif" font-size="10.00">Task_set_running</text>
</a>
</g>
</g>
<!-- Node3&#45;&gt;Node4 -->
<g id="edge3" class="edge">
<title>Node3&#45;&gt;Node4</title>
<path fill="none" stroke="midnightblue" d="M213.15,-52.03C226.27,-53.98 242.53,-56.39 258.13,-58.71"/>
<polygon fill="midnightblue" stroke="midnightblue" points="257.85,-62.2 268.25,-60.21 258.87,-55.28 257.85,-62.2"/>
</g>
<!-- Node7 -->
<g id="node7" class="node">
<title>Node7</title>
<g id="a_node7"><a xlink:href="group___rltos__task__scheduler__api.html#ga52008f4c16a074cacada44393f18ef3b" target="_top" xlink:title="Function used to append the task to the stopped list.">
<polygon fill="white" stroke="black" points="267,-19.5 267,-38.5 363,-38.5 363,-19.5 267,-19.5"/>
<text text-anchor="middle" x="315" y="-26.5" font-family="Helvetica,sans-Serif" font-size="10.00">Task_set_stopped</text>
</a>
</g>
</g>
<!-- Node3&#45;&gt;Node7 -->
<g id="edge6" class="edge">
<title>Node3&#45;&gt;Node7</title>
<path fill="none" stroke="midnightblue" d="M213.15,-43.97C225.97,-42.07 241.78,-39.72 257.06,-37.45"/>
<polygon fill="midnightblue" stroke="midnightblue" points="257.6,-40.91 266.98,-35.98 256.57,-33.99 257.6,-40.91"/>
</g>
<!-- Node5 -->
<g id="node5" class="node">
<title>Node5</title>
<g id="a_node5"><a xlink:href="group___rltos__task__scheduler__prv.html#ga70d365501a692d51bd9f0fecb49a0f1d" target="_top" xlink:title="Function used to insert a task into a list directly after the index.">
<polygon fill="white" stroke="black" points="408,-77 408,-107 506,-107 506,-77 408,-77"/>
<text text-anchor="start" x="416" y="-95" font-family="Helvetica,sans-Serif" font-size="10.00">Task_insert_in_list</text>
<text text-anchor="middle" x="457" y="-84" font-family="Helvetica,sans-Serif" font-size="10.00">_after_index</text>
</a>
</g>
</g>
<!-- Node4&#45;&gt;Node5 -->
<g id="edge4" class="edge">
<title>Node4&#45;&gt;Node5</title>
<path fill="none" stroke="midnightblue" d="M361.84,-75.19C373.3,-77.23 385.75,-79.46 397.73,-81.59"/>
<polygon fill="midnightblue" stroke="midnightblue" points="397.19,-85.05 407.65,-83.37 398.42,-78.16 397.19,-85.05"/>
</g>
<!-- Node6 -->
<g id="node6" class="node">
<title>Node6</title>
<g id="a_node6"><a xlink:href="group___rltos__task__scheduler__prv.html#gae76b463d2edcb6299d3cf3d2c175055b" target="_top" xlink:title="Function used to remove task from a task list.">
<polygon fill="white" stroke="black" points="399,-38.5 399,-57.5 515,-57.5 515,-38.5 399,-38.5"/>
<text text-anchor="middle" x="457" y="-45.5" font-family="Helvetica,sans-Serif" font-size="10.00">Task_remove_from_list</text>
</a>
</g>
</g>
<!-- Node4&#45;&gt;Node6 -->
<g id="edge5" class="edge">
<title>Node4&#45;&gt;Node6</title>
<path fill="none" stroke="midnightblue" d="M361.84,-60.78C370.42,-59.61 379.54,-58.38 388.61,-57.15"/>
<polygon fill="midnightblue" stroke="midnightblue" points="389.35,-60.58 398.79,-55.76 388.41,-53.64 389.35,-60.58"/>
</g>
<!-- Node7&#45;&gt;Node6 -->
<g id="edge8" class="edge">
<title>Node7&#45;&gt;Node6</title>
<path fill="none" stroke="midnightblue" d="M363.01,-35.38C371.23,-36.5 379.93,-37.68 388.57,-38.85"/>
<polygon fill="midnightblue" stroke="midnightblue" points="388.29,-42.34 398.67,-40.22 389.23,-35.41 388.29,-42.34"/>
</g>
<!-- Node8 -->
<g id="node8" class="node">
<title>Node8</title>
<g id="a_node8"><a xlink:href="group___rltos__task__scheduler__prv.html#ga9951add830408f2b732d52e13c3ee0e9" target="_top" xlink:title="Function used to append task to a task list.">
<polygon fill="white" stroke="black" points="404,-0.5 404,-19.5 510,-19.5 510,-0.5 404,-0.5"/>
<text text-anchor="middle" x="457" y="-7.5" font-family="Helvetica,sans-Serif" font-size="10.00">Task_append_to_list</text>
</a>
</g>
</g>
<!-- Node7&#45;&gt;Node8 -->
<g id="edge7" class="edge">
<title>Node7&#45;&gt;Node8</title>
<path fill="none" stroke="midnightblue" d="M363.01,-22.62C372.78,-21.29 383.22,-19.88 393.45,-18.49"/>
<polygon fill="midnightblue" stroke="midnightblue" points="394.14,-21.93 403.57,-17.12 393.19,-14.99 394.14,-21.93"/>
</g>
</g>
</svg>
