<?xml version="1.0" encoding="UTF-8" standalone="no"?>
<!DOCTYPE svg PUBLIC "-//W3C//DTD SVG 1.1//EN"
 "http://www.w3.org/Graphics/SVG/1.1/DTD/svg11.dtd">
<!-- Generated by graphviz version 2.49.2 (20211016.1639)
 -->
<!-- Title: Task_insert_in_list Pages: 1 -->
<svg width="511pt" height="154pt"
 viewBox="0.00 0.00 511.00 154.00" xmlns="http://www.w3.org/2000/svg" xmlns:xlink="http://www.w3.org/1999/xlink">
<g id="graph0" class="graph" transform="scale(1 1) rotate(0) translate(4 150)">
<title>Task_insert_in_list</title>
<polygon fill="white" stroke="transparent" points="-4,4 -4,-150 507,-150 507,4 -4,4"/>
<!-- Node1 -->
<g id="node1" class="node">
<title>Node1</title>
<g id="a_node1"><a xlink:title="Function used to insert a task in a sorted task list.">
<polygon fill="#bfbfbf" stroke="black" points="405,-55.5 405,-74.5 503,-74.5 503,-55.5 405,-55.5"/>
<text text-anchor="middle" x="454" y="-62.5" font-family="Helvetica,sans-Serif" font-size="10.00">Task_insert_in_list</text>
</a>
</g>
</g>
<!-- Node2 -->
<g id="node2" class="node">
<title>Node2</title>
<g id="a_node2"><a xlink:href="group___rltos__task__list__prv.html#ga7381af6f29df467e5543f1a7f358c4b1" target="_top" xlink:title="Function used to set initial stack pointer, task entry function &amp; clear pointers to next and prev nod...">
<polygon fill="white" stroke="black" points="285,-115.5 285,-134.5 341,-134.5 341,-115.5 285,-115.5"/>
<text text-anchor="middle" x="313" y="-122.5" font-family="Helvetica,sans-Serif" font-size="10.00">Task_init</text>
</a>
</g>
</g>
<!-- Node1&#45;&gt;Node2 -->
<g id="edge1" class="edge">
<title>Node1&#45;&gt;Node2</title>
<path fill="none" stroke="midnightblue" d="M421.58,-78.56C395.64,-89.76 359.46,-105.38 336.38,-115.34"/>
<polygon fill="midnightblue" stroke="midnightblue" points="423.18,-81.68 430.98,-74.51 420.41,-75.26 423.18,-81.68"/>
</g>
<!-- Node4 -->
<g id="node4" class="node">
<title>Node4</title>
<g id="a_node4"><a xlink:href="group___rltos__task__list__prv.html#gaef14e9b4eac09dd868feb5c3b2b4442f" target="_top" xlink:title="Function used to append task to the idle list.">
<polygon fill="white" stroke="black" points="257,-55.5 257,-74.5 369,-74.5 369,-55.5 257,-55.5"/>
<text text-anchor="middle" x="313" y="-62.5" font-family="Helvetica,sans-Serif" font-size="10.00">Task_set_current_idle</text>
</a>
</g>
</g>
<!-- Node1&#45;&gt;Node4 -->
<g id="edge3" class="edge">
<title>Node1&#45;&gt;Node4</title>
<path fill="none" stroke="midnightblue" d="M394.67,-65C386.26,-65 377.63,-65 369.29,-65"/>
<polygon fill="midnightblue" stroke="midnightblue" points="394.77,-68.5 404.77,-65 394.77,-61.5 394.77,-68.5"/>
</g>
<!-- Node7 -->
<g id="node7" class="node">
<title>Node7</title>
<g id="a_node7"><a xlink:href="group___rltos__task__list__prv.html#gae2e9ba76398ba904d0c32071d3512a2b" target="_top" xlink:title="Function used to append task to the running list.">
<polygon fill="white" stroke="black" points="266.5,-14.5 266.5,-33.5 359.5,-33.5 359.5,-14.5 266.5,-14.5"/>
<text text-anchor="middle" x="313" y="-21.5" font-family="Helvetica,sans-Serif" font-size="10.00">Task_set_running</text>
</a>
</g>
</g>
<!-- Node1&#45;&gt;Node7 -->
<g id="edge6" class="edge">
<title>Node1&#45;&gt;Node7</title>
<path fill="none" stroke="midnightblue" d="M410.96,-52.6C390.29,-46.5 365.76,-39.27 346.55,-33.6"/>
<polygon fill="midnightblue" stroke="midnightblue" points="410.18,-56.02 420.76,-55.49 412.16,-49.3 410.18,-56.02"/>
</g>
<!-- Node3 -->
<g id="node3" class="node">
<title>Node3</title>
<g id="a_node3"><a xlink:href="group___rltos__task__prv.html#ga790b5af16f8d4959f265cbfa215ab868" target="_top" xlink:title="Initialises task control structure, stack &amp; appends to task list.">
<polygon fill="white" stroke="black" points="111,-126.5 111,-145.5 206,-145.5 206,-126.5 111,-126.5"/>
<text text-anchor="middle" x="158.5" y="-133.5" font-family="Helvetica,sans-Serif" font-size="10.00">Rltos_task_create</text>
</a>
</g>
</g>
<!-- Node2&#45;&gt;Node3 -->
<g id="edge2" class="edge">
<title>Node2&#45;&gt;Node3</title>
<path fill="none" stroke="midnightblue" d="M274.48,-127.71C253.89,-129.19 228.17,-131.05 206.28,-132.63"/>
<polygon fill="midnightblue" stroke="midnightblue" points="275.01,-131.18 284.74,-126.97 274.51,-124.2 275.01,-131.18"/>
</g>
<!-- Node5 -->
<g id="node5" class="node">
<title>Node5</title>
<g id="a_node5"><a xlink:href="group___rltos__task__prv.html#ga581dd045fa985add7730a8a1581389b7" target="_top" xlink:title="Puts the current thread to sleep for a minimum of the given number of ticks.">
<polygon fill="white" stroke="black" points="112.5,-88.5 112.5,-107.5 204.5,-107.5 204.5,-88.5 112.5,-88.5"/>
<text text-anchor="middle" x="158.5" y="-95.5" font-family="Helvetica,sans-Serif" font-size="10.00">Rltos_task_sleep</text>
</a>
</g>
</g>
<!-- Node4&#45;&gt;Node5 -->
<g id="edge4" class="edge">
<title>Node4&#45;&gt;Node5</title>
<path fill="none" stroke="midnightblue" d="M257.67,-76.76C239.91,-80.6 220.41,-84.82 203.51,-88.48"/>
<polygon fill="midnightblue" stroke="midnightblue" points="258.86,-80.08 267.89,-74.54 257.38,-73.24 258.86,-80.08"/>
</g>
<!-- Node6 -->
<g id="node6" class="node">
<title>Node6</title>
<g id="a_node6"><a xlink:href="group___rltos__task__list__prv.html#ga90ce1a0329edc828e765740fce4e29cb" target="_top" xlink:title="Function used to set the current task to wait on an object (uses auxillary list)">
<polygon fill="white" stroke="black" points="101.5,-39 101.5,-69 215.5,-69 215.5,-39 101.5,-39"/>
<text text-anchor="start" x="109.5" y="-57" font-family="Helvetica,sans-Serif" font-size="10.00">Task_set_current_wait</text>
<text text-anchor="middle" x="158.5" y="-46" font-family="Helvetica,sans-Serif" font-size="10.00">_on_object</text>
</a>
</g>
</g>
<!-- Node4&#45;&gt;Node6 -->
<g id="edge5" class="edge">
<title>Node4&#45;&gt;Node6</title>
<path fill="none" stroke="midnightblue" d="M246.68,-60.29C236.3,-59.54 225.64,-58.77 215.5,-58.04"/>
<polygon fill="midnightblue" stroke="midnightblue" points="246.72,-63.8 256.94,-61.03 247.22,-56.82 246.72,-63.8"/>
</g>
<!-- Node8 -->
<g id="node8" class="node">
<title>Node8</title>
<g id="a_node8"><a xlink:href="group___rltos__task__list__prv.html#ga609bbe6d9efbe0605517cde0ba5c9f06" target="_top" xlink:title="implementation of rltos tick increment &#45; called from rltos_scheduler_asm.asm">
<polygon fill="white" stroke="black" points="96,-0.5 96,-19.5 221,-19.5 221,-0.5 96,-0.5"/>
<text text-anchor="middle" x="158.5" y="-7.5" font-family="Helvetica,sans-Serif" font-size="10.00">Rltos_scheduler_tick_inc</text>
</a>
</g>
</g>
<!-- Node7&#45;&gt;Node8 -->
<g id="edge7" class="edge">
<title>Node7&#45;&gt;Node8</title>
<path fill="none" stroke="midnightblue" d="M256,-18.86C244.62,-17.81 232.59,-16.71 221.02,-15.65"/>
<polygon fill="midnightblue" stroke="midnightblue" points="255.97,-22.37 266.24,-19.8 256.61,-15.4 255.97,-22.37"/>
</g>
<!-- Node9 -->
<g id="node9" class="node">
<title>Node9</title>
<g id="a_node9"><a xlink:href="rltos__scheduler__asm__dummy_8c.html#a3e46e11736a8372c7fbdda0fface2eea" target="_top" xlink:title="dummy definition of function referenced in source that is typically provided in asm">
<polygon fill="white" stroke="black" points="0,-0.5 0,-19.5 60,-19.5 60,-0.5 0,-0.5"/>
<text text-anchor="middle" x="30" y="-7.5" font-family="Helvetica,sans-Serif" font-size="10.00">Rltos_tick</text>
</a>
</g>
</g>
<!-- Node8&#45;&gt;Node9 -->
<g id="edge8" class="edge">
<title>Node8&#45;&gt;Node9</title>
<path fill="none" stroke="midnightblue" d="M85.57,-10C76.62,-10 67.91,-10 60.17,-10"/>
<polygon fill="midnightblue" stroke="midnightblue" points="85.73,-13.5 95.73,-10 85.73,-6.5 85.73,-13.5"/>
</g>
</g>
</svg>
