<?xml version="1.0" encoding="UTF-8" standalone="no"?>
<!DOCTYPE svg PUBLIC "-//W3C//DTD SVG 1.1//EN"
 "http://www.w3.org/Graphics/SVG/1.1/DTD/svg11.dtd">
<!-- Generated by graphviz version 2.49.2 (20211016.1639)
 -->
<!-- Title: Mutex API Pages: 1 -->
<svg width="262pt" height="27pt"
 viewBox="0.00 0.00 262.00 27.00" xmlns="http://www.w3.org/2000/svg" xmlns:xlink="http://www.w3.org/1999/xlink">
<g id="graph0" class="graph" transform="scale(1 1) rotate(0) translate(4 23)">
<title>Mutex API</title>
<polygon fill="white" stroke="transparent" points="-4,4 -4,-23 258,-23 258,4 -4,4"/>
<!-- Node2 -->
<g id="node1" class="node">
<title>Node2</title>
<g id="a_node1"><a xlink:href="group___rltos__mutex.html" target="_top" xlink:title=" ">
<polygon fill="white" stroke="black" points="44,-19 0,-19 0,0 44,0 44,-19"/>
<text text-anchor="middle" x="22" y="-7" font-family="Helvetica,sans-Serif" font-size="10.00">Mutex</text>
</a>
</g>
</g>
<!-- Node1 -->
<g id="node2" class="node">
<title>Node1</title>
<g id="a_node2"><a xlink:title=" ">
<polygon fill="#bfbfbf" stroke="black" points="142,-19 80,-19 80,0 142,0 142,-19"/>
<text text-anchor="middle" x="111" y="-7" font-family="Helvetica,sans-Serif" font-size="10.00">Mutex API</text>
</a>
</g>
</g>
<!-- Node2&#45;&gt;Node1 -->
<g id="edge1" class="edge">
<title>Node2&#45;&gt;Node1</title>
<path fill="none" stroke="black" d="M54.21,-9.5C62.58,-9.5 71.62,-9.5 79.93,-9.5"/>
<polygon fill="black" stroke="black" points="54.06,-6 44.06,-9.5 54.06,-13 54.06,-6"/>
</g>
<!-- Node3 -->
<g id="node3" class="node">
<title>Node3</title>
<g id="a_node3"><a xlink:href="group___rltos__mutex__prv.html" target="_top" xlink:title=" ">
<polygon fill="white" stroke="black" points="254,-19 178,-19 178,0 254,0 254,-19"/>
<text text-anchor="middle" x="216" y="-7" font-family="Helvetica,sans-Serif" font-size="10.00">Mutex Private</text>
</a>
</g>
</g>
<!-- Node1&#45;&gt;Node3 -->
<g id="edge2" class="edge">
<title>Node1&#45;&gt;Node3</title>
<path fill="none" stroke="black" d="M152.09,-9.5C160.54,-9.5 169.42,-9.5 177.76,-9.5"/>
<polygon fill="black" stroke="black" points="152.07,-6 142.07,-9.5 152.07,-13 152.07,-6"/>
</g>
</g>
</svg>
