<?xml version="1.0" encoding="UTF-8" standalone="no"?>
<!DOCTYPE svg PUBLIC "-//W3C//DTD SVG 1.1//EN"
 "http://www.w3.org/Graphics/SVG/1.1/DTD/svg11.dtd">
<!-- Generated by graphviz version 2.49.2 (20211016.1639)
 -->
<!-- Title: Sempahore Pages: 1 -->
<svg width="208pt" height="64pt"
 viewBox="0.00 0.00 208.00 64.00" xmlns="http://www.w3.org/2000/svg" xmlns:xlink="http://www.w3.org/1999/xlink">
<g id="graph0" class="graph" transform="scale(1 1) rotate(0) translate(4 60)">
<title>Sempahore</title>
<polygon fill="white" stroke="transparent" points="-4,4 -4,-60 204,-60 204,4 -4,4"/>
<!-- Node1 -->
<g id="node1" class="node">
<title>Node1</title>
<g id="a_node1"><a xlink:title=" ">
<polygon fill="#bfbfbf" stroke="black" points="66,-37 0,-37 0,-18 66,-18 66,-37"/>
<text text-anchor="middle" x="33" y="-25" font-family="Helvetica,sans-Serif" font-size="10.00">Sempahore</text>
</a>
</g>
</g>
<!-- Node3 -->
<g id="node2" class="node">
<title>Node3</title>
<g id="a_node2"><a xlink:href="group___rltos__semaphore__api.html" target="_top" xlink:title=" ">
<polygon fill="white" stroke="black" points="193.5,-56 108.5,-56 108.5,-37 193.5,-37 193.5,-56"/>
<text text-anchor="middle" x="151" y="-44" font-family="Helvetica,sans-Serif" font-size="10.00">Semaphore API</text>
</a>
</g>
</g>
<!-- Node1&#45;&gt;Node3 -->
<g id="edge2" class="edge">
<title>Node1&#45;&gt;Node3</title>
<path fill="none" stroke="black" d="M76.12,-34.4C86.54,-36.11 97.69,-37.93 108.1,-39.64"/>
<polygon fill="black" stroke="black" points="76.44,-30.9 66,-32.74 75.31,-37.81 76.44,-30.9"/>
</g>
<!-- Node2 -->
<g id="node3" class="node">
<title>Node2</title>
<g id="a_node3"><a xlink:href="group___rltos__semaphore__prv.html" target="_top" xlink:title=" ">
<polygon fill="white" stroke="black" points="200,-19 102,-19 102,0 200,0 200,-19"/>
<text text-anchor="middle" x="151" y="-7" font-family="Helvetica,sans-Serif" font-size="10.00">Semaphore Private</text>
</a>
</g>
</g>
<!-- Node1&#45;&gt;Node2 -->
<g id="edge1" class="edge">
<title>Node1&#45;&gt;Node2</title>
<path fill="none" stroke="black" d="M76.16,-20.96C84.42,-19.68 93.14,-18.32 101.58,-17.01"/>
<polygon fill="black" stroke="black" points="75.35,-17.54 66,-22.53 76.42,-24.46 75.35,-17.54"/>
</g>
</g>
</svg>
