<?xml version="1.0" encoding="UTF-8" standalone="no"?>
<!DOCTYPE svg PUBLIC "-//W3C//DTD SVG 1.1//EN"
 "http://www.w3.org/Graphics/SVG/1.1/DTD/svg11.dtd">
<!-- Generated by graphviz version 2.49.2 (20211016.1639)
 -->
<!-- Title: Semaphore API Pages: 1 -->
<svg width="329pt" height="27pt"
 viewBox="0.00 0.00 329.00 27.00" xmlns="http://www.w3.org/2000/svg" xmlns:xlink="http://www.w3.org/1999/xlink">
<g id="graph0" class="graph" transform="scale(1 1) rotate(0) translate(4 23)">
<title>Semaphore API</title>
<polygon fill="white" stroke="transparent" points="-4,4 -4,-23 325,-23 325,4 -4,4"/>
<!-- Node2 -->
<g id="node1" class="node">
<title>Node2</title>
<g id="a_node1"><a xlink:href="group___rltos__semaphore.html" target="_top" xlink:title=" ">
<polygon fill="white" stroke="black" points="66,-19 0,-19 0,0 66,0 66,-19"/>
<text text-anchor="middle" x="33" y="-7" font-family="Helvetica,sans-Serif" font-size="10.00">Sempahore</text>
</a>
</g>
</g>
<!-- Node1 -->
<g id="node2" class="node">
<title>Node1</title>
<g id="a_node2"><a xlink:title=" ">
<polygon fill="#bfbfbf" stroke="black" points="187,-19 102,-19 102,0 187,0 187,-19"/>
<text text-anchor="middle" x="144.5" y="-7" font-family="Helvetica,sans-Serif" font-size="10.00">Semaphore API</text>
</a>
</g>
</g>
<!-- Node2&#45;&gt;Node1 -->
<g id="edge1" class="edge">
<title>Node2&#45;&gt;Node1</title>
<path fill="none" stroke="black" d="M76.48,-9.5C84.77,-9.5 93.45,-9.5 101.71,-9.5"/>
<polygon fill="black" stroke="black" points="76.26,-6 66.26,-9.5 76.26,-13 76.26,-6"/>
</g>
<!-- Node3 -->
<g id="node3" class="node">
<title>Node3</title>
<g id="a_node3"><a xlink:href="group___rltos__semaphore__prv.html" target="_top" xlink:title=" ">
<polygon fill="white" stroke="black" points="321,-19 223,-19 223,0 321,0 321,-19"/>
<text text-anchor="middle" x="272" y="-7" font-family="Helvetica,sans-Serif" font-size="10.00">Semaphore Private</text>
</a>
</g>
</g>
<!-- Node1&#45;&gt;Node3 -->
<g id="edge2" class="edge">
<title>Node1&#45;&gt;Node3</title>
<path fill="none" stroke="black" d="M197.4,-9.5C205.84,-9.5 214.54,-9.5 222.88,-9.5"/>
<polygon fill="black" stroke="black" points="197.29,-6 187.29,-9.5 197.29,-13 197.29,-6"/>
</g>
</g>
</svg>
