<?xml version="1.0" encoding="UTF-8" standalone="no"?>
<!DOCTYPE svg PUBLIC "-//W3C//DTD SVG 1.1//EN"
 "http://www.w3.org/Graphics/SVG/1.1/DTD/svg11.dtd">
<!-- Generated by graphviz version 2.49.2 (20211016.1639)
 -->
<!-- Title: Task_set_running Pages: 1 -->
<svg width="529pt" height="116pt"
 viewBox="0.00 0.00 529.00 115.50" xmlns="http://www.w3.org/2000/svg" xmlns:xlink="http://www.w3.org/1999/xlink">
<g id="graph0" class="graph" transform="scale(1 1) rotate(0) translate(4 111.5)">
<title>Task_set_running</title>
<polygon fill="white" stroke="transparent" points="-4,4 -4,-111.5 525,-111.5 525,4 -4,4"/>
<!-- Node1 -->
<g id="node1" class="node">
<title>Node1</title>
<g id="a_node1"><a xlink:title="Function used to insert the task to the running list.">
<polygon fill="#bfbfbf" stroke="black" points="428,-38.5 428,-57.5 521,-57.5 521,-38.5 428,-38.5"/>
<text text-anchor="middle" x="474.5" y="-45.5" font-family="Helvetica,sans-Serif" font-size="10.00">Task_set_running</text>
</a>
</g>
</g>
<!-- Node2 -->
<g id="node2" class="node">
<title>Node2</title>
<g id="a_node2"><a xlink:href="group___rltos__task__scheduler__prv.html#ga7dad02e1630e47f423618b110c2071a4" target="_top" xlink:title="implementation of rltos context switch &#45; called from rltos_scheduler_asm.asm">
<polygon fill="white" stroke="black" points="273,-77 273,-107 392,-107 392,-77 273,-77"/>
<text text-anchor="start" x="281" y="-95" font-family="Helvetica,sans-Serif" font-size="10.00">Rltos_scheduler_switch</text>
<text text-anchor="middle" x="332.5" y="-84" font-family="Helvetica,sans-Serif" font-size="10.00">_context</text>
</a>
</g>
</g>
<!-- Node1&#45;&gt;Node2 -->
<g id="edge1" class="edge">
<title>Node1&#45;&gt;Node2</title>
<path fill="none" stroke="midnightblue" d="M433.41,-60.6C417.2,-65.69 398.36,-71.62 381.44,-76.93"/>
<polygon fill="midnightblue" stroke="midnightblue" points="434.63,-63.88 443.12,-57.55 432.53,-57.21 434.63,-63.88"/>
</g>
<!-- Node3 -->
<g id="node3" class="node">
<title>Node3</title>
<g id="a_node3"><a xlink:href="group___rltos__task__scheduler__api.html#gaf77c7c3425845b054fd8fc2ddc9ea57a" target="_top" xlink:title="Function used to set initial stack pointer, task entry function &amp; clear pointers to next and prev nod...">
<polygon fill="white" stroke="black" points="304.5,-38.5 304.5,-57.5 360.5,-57.5 360.5,-38.5 304.5,-38.5"/>
<text text-anchor="middle" x="332.5" y="-45.5" font-family="Helvetica,sans-Serif" font-size="10.00">Task_init</text>
</a>
</g>
</g>
<!-- Node1&#45;&gt;Node3 -->
<g id="edge2" class="edge">
<title>Node1&#45;&gt;Node3</title>
<path fill="none" stroke="midnightblue" d="M417.58,-48C397.96,-48 376.81,-48 360.63,-48"/>
<polygon fill="midnightblue" stroke="midnightblue" points="417.66,-51.5 427.66,-48 417.66,-44.5 417.66,-51.5"/>
</g>
<!-- Node7 -->
<g id="node7" class="node">
<title>Node7</title>
<g id="a_node7"><a xlink:href="group___rltos__task__scheduler__api.html#ga7aafcf0d154df3fca76237a821cf6060" target="_top" xlink:title="Function used to set a task running &#45; only if it is stopped (not waiting on an object or idled)">
<polygon fill="white" stroke="black" points="295,-0.5 295,-19.5 370,-19.5 370,-0.5 295,-0.5"/>
<text text-anchor="middle" x="332.5" y="-7.5" font-family="Helvetica,sans-Serif" font-size="10.00">Task_resume</text>
</a>
</g>
</g>
<!-- Node1&#45;&gt;Node7 -->
<g id="edge6" class="edge">
<title>Node1&#45;&gt;Node7</title>
<path fill="none" stroke="midnightblue" d="M428.38,-35.75C409.09,-30.52 386.89,-24.49 368.82,-19.59"/>
<polygon fill="midnightblue" stroke="midnightblue" points="427.6,-39.17 438.17,-38.41 429.44,-32.41 427.6,-39.17"/>
</g>
<!-- Node4 -->
<g id="node4" class="node">
<title>Node4</title>
<g id="a_node4"><a xlink:href="group___rltos__task__api.html#ga174b5e621bd6dac5d8c7d9a33ebb218d" target="_top" xlink:title="Initialises task control structure, stack &amp; appends to task list.">
<polygon fill="white" stroke="black" points="138,-76.5 138,-95.5 233,-95.5 233,-76.5 138,-76.5"/>
<text text-anchor="middle" x="185.5" y="-83.5" font-family="Helvetica,sans-Serif" font-size="10.00">Rltos_task_create</text>
</a>
</g>
</g>
<!-- Node3&#45;&gt;Node4 -->
<g id="edge3" class="edge">
<title>Node3&#45;&gt;Node4</title>
<path fill="none" stroke="midnightblue" d="M294.29,-57.75C272.36,-63.5 244.75,-70.73 222.96,-76.44"/>
<polygon fill="midnightblue" stroke="midnightblue" points="295.44,-61.07 304.23,-55.15 293.67,-54.3 295.44,-61.07"/>
</g>
<!-- Node5 -->
<g id="node5" class="node">
<title>Node5</title>
<g id="a_node5"><a xlink:href="group___rltos__task__scheduler__api.html#gae1bd8e8e3af9f778a719fb7a086451f1" target="_top" xlink:title="Function to initialise the current task on entry to the scheduler &amp; create + add the idle task to the...">
<polygon fill="white" stroke="black" points="134,-38.5 134,-57.5 237,-57.5 237,-38.5 134,-38.5"/>
<text text-anchor="middle" x="185.5" y="-45.5" font-family="Helvetica,sans-Serif" font-size="10.00">Task_scheduler_init</text>
</a>
</g>
</g>
<!-- Node3&#45;&gt;Node5 -->
<g id="edge4" class="edge">
<title>Node3&#45;&gt;Node5</title>
<path fill="none" stroke="midnightblue" d="M293.94,-48C276.62,-48 255.81,-48 237.13,-48"/>
<polygon fill="midnightblue" stroke="midnightblue" points="294.23,-51.5 304.23,-48 294.23,-44.5 294.23,-51.5"/>
</g>
<!-- Node6 -->
<g id="node6" class="node">
<title>Node6</title>
<g id="a_node6"><a xlink:href="group___rltos__task__api.html#gac44bc5223fd6d5d7f635776b1eb6231b" target="_top" xlink:title="Enters RLTOS kernel and starts scheduler timer. Should not return from this function,...">
<polygon fill="white" stroke="black" points="0,-38.5 0,-57.5 98,-57.5 98,-38.5 0,-38.5"/>
<text text-anchor="middle" x="49" y="-45.5" font-family="Helvetica,sans-Serif" font-size="10.00">Rltos_kernel_enter</text>
</a>
</g>
</g>
<!-- Node5&#45;&gt;Node6 -->
<g id="edge5" class="edge">
<title>Node5&#45;&gt;Node6</title>
<path fill="none" stroke="midnightblue" d="M123.45,-48C115,-48 106.43,-48 98.25,-48"/>
<polygon fill="midnightblue" stroke="midnightblue" points="123.65,-51.5 133.65,-48 123.65,-44.5 123.65,-51.5"/>
</g>
<!-- Node8 -->
<g id="node8" class="node">
<title>Node8</title>
<g id="a_node8"><a xlink:href="group___rltos__task__api.html#ga9d4e61cf5d9de6406c5e2b71956dc7c6" target="_top" xlink:title="Resumes the targetted task in the stop state.">
<polygon fill="white" stroke="black" points="135,-0.5 135,-19.5 236,-19.5 236,-0.5 135,-0.5"/>
<text text-anchor="middle" x="185.5" y="-7.5" font-family="Helvetica,sans-Serif" font-size="10.00">Rltos_task_resume</text>
</a>
</g>
</g>
<!-- Node7&#45;&gt;Node8 -->
<g id="edge7" class="edge">
<title>Node7&#45;&gt;Node8</title>
<path fill="none" stroke="midnightblue" d="M284.54,-10C269.09,-10 251.87,-10 236.22,-10"/>
<polygon fill="midnightblue" stroke="midnightblue" points="284.91,-13.5 294.91,-10 284.91,-6.5 284.91,-13.5"/>
</g>
</g>
</svg>
