<?xml version="1.0" encoding="UTF-8" standalone="no"?>
<!DOCTYPE svg PUBLIC "-//W3C//DTD SVG 1.1//EN"
 "http://www.w3.org/Graphics/SVG/1.1/DTD/svg11.dtd">
<!-- Generated by graphviz version 2.49.2 (20211016.1639)
 -->
<!-- Title: Event Flags API Pages: 1 -->
<svg width="330pt" height="27pt"
 viewBox="0.00 0.00 330.00 27.00" xmlns="http://www.w3.org/2000/svg" xmlns:xlink="http://www.w3.org/1999/xlink">
<g id="graph0" class="graph" transform="scale(1 1) rotate(0) translate(4 23)">
<title>Event Flags API</title>
<polygon fill="white" stroke="transparent" points="-4,4 -4,-23 326,-23 326,4 -4,4"/>
<!-- Node2 -->
<g id="node1" class="node">
<title>Node2</title>
<g id="a_node1"><a xlink:href="group___rltos__event__flags.html" target="_top" xlink:title=" ">
<polygon fill="white" stroke="black" points="64,-19 0,-19 0,0 64,0 64,-19"/>
<text text-anchor="middle" x="32" y="-7" font-family="Helvetica,sans-Serif" font-size="10.00">Event flags</text>
</a>
</g>
</g>
<!-- Node1 -->
<g id="node2" class="node">
<title>Node1</title>
<g id="a_node2"><a xlink:title=" ">
<polygon fill="#bfbfbf" stroke="black" points="186,-19 100,-19 100,0 186,0 186,-19"/>
<text text-anchor="middle" x="143" y="-7" font-family="Helvetica,sans-Serif" font-size="10.00">Event Flags API</text>
</a>
</g>
</g>
<!-- Node2&#45;&gt;Node1 -->
<g id="edge1" class="edge">
<title>Node2&#45;&gt;Node1</title>
<path fill="none" stroke="black" d="M74.45,-9.5C82.75,-9.5 91.47,-9.5 99.79,-9.5"/>
<polygon fill="black" stroke="black" points="74.24,-6 64.24,-9.5 74.23,-13 74.24,-6"/>
</g>
<!-- Node3 -->
<g id="node3" class="node">
<title>Node3</title>
<g id="a_node3"><a xlink:href="group___rltos__event__flags__prv.html" target="_top" xlink:title=" ">
<polygon fill="white" stroke="black" points="322,-19 222,-19 222,0 322,0 322,-19"/>
<text text-anchor="middle" x="272" y="-7" font-family="Helvetica,sans-Serif" font-size="10.00">Event Flags Private</text>
</a>
</g>
</g>
<!-- Node1&#45;&gt;Node3 -->
<g id="edge2" class="edge">
<title>Node1&#45;&gt;Node3</title>
<path fill="none" stroke="black" d="M196.39,-9.5C204.82,-9.5 213.52,-9.5 221.86,-9.5"/>
<polygon fill="black" stroke="black" points="196.29,-6 186.29,-9.5 196.29,-13 196.29,-6"/>
</g>
</g>
</svg>
