<?xml version="1.0" encoding="UTF-8" standalone="no"?>
<!DOCTYPE svg PUBLIC "-//W3C//DTD SVG 1.1//EN"
 "http://www.w3.org/Graphics/SVG/1.1/DTD/svg11.dtd">
<!-- Generated by graphviz version 2.49.2 (20211016.1639)
 -->
<!-- Title: Task_remove_from_list Pages: 1 -->
<svg width="529pt" height="116pt"
 viewBox="0.00 0.00 529.00 116.00" xmlns="http://www.w3.org/2000/svg" xmlns:xlink="http://www.w3.org/1999/xlink">
<g id="graph0" class="graph" transform="scale(1 1) rotate(0) translate(4 112)">
<title>Task_remove_from_list</title>
<polygon fill="white" stroke="transparent" points="-4,4 -4,-112 525,-112 525,4 -4,4"/>
<!-- Node1 -->
<g id="node1" class="node">
<title>Node1</title>
<g id="a_node1"><a xlink:title="Function used to remove task from a task list.">
<polygon fill="#bfbfbf" stroke="black" points="405,-44.5 405,-63.5 521,-63.5 521,-44.5 405,-44.5"/>
<text text-anchor="middle" x="463" y="-51.5" font-family="Helvetica,sans-Serif" font-size="10.00">Task_remove_from_list</text>
</a>
</g>
</g>
<!-- Node2 -->
<g id="node2" class="node">
<title>Node2</title>
<g id="a_node2"><a xlink:href="group___rltos__task__list__prv.html#ga497b702db38a8ce118c8393eb0587712" target="_top" xlink:title="Function used to set deinit a task and removes from both running and idle lists.">
<polygon fill="white" stroke="black" points="280,-82.5 280,-101.5 346,-101.5 346,-82.5 280,-82.5"/>
<text text-anchor="middle" x="313" y="-89.5" font-family="Helvetica,sans-Serif" font-size="10.00">Task_deinit</text>
</a>
</g>
</g>
<!-- Node1&#45;&gt;Node2 -->
<g id="edge1" class="edge">
<title>Node1&#45;&gt;Node2</title>
<path fill="none" stroke="midnightblue" d="M414.7,-66.15C392.38,-71.87 366.32,-78.57 346.31,-83.7"/>
<polygon fill="midnightblue" stroke="midnightblue" points="415.84,-69.47 424.65,-63.59 414.1,-62.69 415.84,-69.47"/>
</g>
<!-- Node3 -->
<g id="node3" class="node">
<title>Node3</title>
<g id="a_node3"><a xlink:href="group___rltos__task__list__prv.html#gaef14e9b4eac09dd868feb5c3b2b4442f" target="_top" xlink:title="Function used to append task to the idle list.">
<polygon fill="white" stroke="black" points="257,-44.5 257,-63.5 369,-63.5 369,-44.5 257,-44.5"/>
<text text-anchor="middle" x="313" y="-51.5" font-family="Helvetica,sans-Serif" font-size="10.00">Task_set_current_idle</text>
</a>
</g>
</g>
<!-- Node1&#45;&gt;Node3 -->
<g id="edge2" class="edge">
<title>Node1&#45;&gt;Node3</title>
<path fill="none" stroke="midnightblue" d="M394.5,-54C386.01,-54 377.4,-54 369.12,-54"/>
<polygon fill="midnightblue" stroke="midnightblue" points="394.78,-57.5 404.78,-54 394.78,-50.5 394.78,-57.5"/>
</g>
<!-- Node6 -->
<g id="node6" class="node">
<title>Node6</title>
<g id="a_node6"><a xlink:href="group___rltos__task__list__prv.html#gae2e9ba76398ba904d0c32071d3512a2b" target="_top" xlink:title="Function used to append task to the running list.">
<polygon fill="white" stroke="black" points="266.5,-3.5 266.5,-22.5 359.5,-22.5 359.5,-3.5 266.5,-3.5"/>
<text text-anchor="middle" x="313" y="-10.5" font-family="Helvetica,sans-Serif" font-size="10.00">Task_set_running</text>
</a>
</g>
</g>
<!-- Node1&#45;&gt;Node6 -->
<g id="edge5" class="edge">
<title>Node1&#45;&gt;Node6</title>
<path fill="none" stroke="midnightblue" d="M417.81,-41.76C395.59,-35.6 369.07,-28.26 348.4,-22.53"/>
<polygon fill="midnightblue" stroke="midnightblue" points="417.1,-45.19 427.67,-44.49 418.97,-38.45 417.1,-45.19"/>
</g>
<!-- Node4 -->
<g id="node4" class="node">
<title>Node4</title>
<g id="a_node4"><a xlink:href="group___rltos__task__prv.html#ga581dd045fa985add7730a8a1581389b7" target="_top" xlink:title="Puts the current thread to sleep for a minimum of the given number of ticks.">
<polygon fill="white" stroke="black" points="112.5,-88.5 112.5,-107.5 204.5,-107.5 204.5,-88.5 112.5,-88.5"/>
<text text-anchor="middle" x="158.5" y="-95.5" font-family="Helvetica,sans-Serif" font-size="10.00">Rltos_task_sleep</text>
</a>
</g>
</g>
<!-- Node3&#45;&gt;Node4 -->
<g id="edge3" class="edge">
<title>Node3&#45;&gt;Node4</title>
<path fill="none" stroke="midnightblue" d="M269.23,-66.34C244.94,-73.35 214.99,-81.99 192.53,-88.47"/>
<polygon fill="midnightblue" stroke="midnightblue" points="270.27,-69.68 278.91,-63.55 268.33,-62.96 270.27,-69.68"/>
</g>
<!-- Node5 -->
<g id="node5" class="node">
<title>Node5</title>
<g id="a_node5"><a xlink:href="group___rltos__task__list__prv.html#ga90ce1a0329edc828e765740fce4e29cb" target="_top" xlink:title="Function used to set the current task to wait on an object (uses auxillary list)">
<polygon fill="white" stroke="black" points="101.5,-39 101.5,-69 215.5,-69 215.5,-39 101.5,-39"/>
<text text-anchor="start" x="109.5" y="-57" font-family="Helvetica,sans-Serif" font-size="10.00">Task_set_current_wait</text>
<text text-anchor="middle" x="158.5" y="-46" font-family="Helvetica,sans-Serif" font-size="10.00">_on_object</text>
</a>
</g>
</g>
<!-- Node3&#45;&gt;Node5 -->
<g id="edge4" class="edge">
<title>Node3&#45;&gt;Node5</title>
<path fill="none" stroke="midnightblue" d="M246.68,-54C236.3,-54 225.64,-54 215.5,-54"/>
<polygon fill="midnightblue" stroke="midnightblue" points="246.94,-57.5 256.94,-54 246.94,-50.5 246.94,-57.5"/>
</g>
<!-- Node7 -->
<g id="node7" class="node">
<title>Node7</title>
<g id="a_node7"><a xlink:href="group___rltos__task__list__prv.html#ga609bbe6d9efbe0605517cde0ba5c9f06" target="_top" xlink:title="implementation of rltos tick increment &#45; called from rltos_scheduler_asm.asm">
<polygon fill="white" stroke="black" points="96,-0.5 96,-19.5 221,-19.5 221,-0.5 96,-0.5"/>
<text text-anchor="middle" x="158.5" y="-7.5" font-family="Helvetica,sans-Serif" font-size="10.00">Rltos_scheduler_tick_inc</text>
</a>
</g>
</g>
<!-- Node6&#45;&gt;Node7 -->
<g id="edge6" class="edge">
<title>Node6&#45;&gt;Node7</title>
<path fill="none" stroke="midnightblue" d="M256,-11.9C244.62,-11.67 232.59,-11.44 221.02,-11.21"/>
<polygon fill="midnightblue" stroke="midnightblue" points="256.18,-15.4 266.24,-12.1 256.32,-8.4 256.18,-15.4"/>
</g>
<!-- Node8 -->
<g id="node8" class="node">
<title>Node8</title>
<g id="a_node8"><a xlink:href="rltos__scheduler__asm__dummy_8c.html#a3e46e11736a8372c7fbdda0fface2eea" target="_top" xlink:title="dummy definition of function referenced in source that is typically provided in asm">
<polygon fill="white" stroke="black" points="0,-0.5 0,-19.5 60,-19.5 60,-0.5 0,-0.5"/>
<text text-anchor="middle" x="30" y="-7.5" font-family="Helvetica,sans-Serif" font-size="10.00">Rltos_tick</text>
</a>
</g>
</g>
<!-- Node7&#45;&gt;Node8 -->
<g id="edge7" class="edge">
<title>Node7&#45;&gt;Node8</title>
<path fill="none" stroke="midnightblue" d="M85.57,-10C76.62,-10 67.91,-10 60.17,-10"/>
<polygon fill="midnightblue" stroke="midnightblue" points="85.73,-13.5 95.73,-10 85.73,-6.5 85.73,-13.5"/>
</g>
</g>
</svg>
