<?xml version="1.0" encoding="UTF-8" standalone="no"?>
<!DOCTYPE svg PUBLIC "-//W3C//DTD SVG 1.1//EN"
 "http://www.w3.org/Graphics/SVG/1.1/DTD/svg11.dtd">
<!-- Generated by graphviz version 2.49.2 (20211016.1639)
 -->
<!-- Title: Rltos_task_destroy Pages: 1 -->
<svg width="363pt" height="28pt"
 viewBox="0.00 0.00 363.00 28.00" xmlns="http://www.w3.org/2000/svg" xmlns:xlink="http://www.w3.org/1999/xlink">
<g id="graph0" class="graph" transform="scale(1 1) rotate(0) translate(4 24)">
<title>Rltos_task_destroy</title>
<polygon fill="white" stroke="transparent" points="-4,4 -4,-24 359,-24 359,4 -4,4"/>
<!-- Node1 -->
<g id="node1" class="node">
<title>Node1</title>
<g id="a_node1"><a xlink:title="Deinitialises task control structure, and removes from any lists.">
<polygon fill="#bfbfbf" stroke="black" points="0,-0.5 0,-19.5 101,-19.5 101,-0.5 0,-0.5"/>
<text text-anchor="middle" x="50.5" y="-7.5" font-family="Helvetica,sans-Serif" font-size="10.00">Rltos_task_destroy</text>
</a>
</g>
</g>
<!-- Node2 -->
<g id="node2" class="node">
<title>Node2</title>
<g id="a_node2"><a xlink:href="group___rltos__task__scheduler__api.html#ga87d2e1bf2416a8e34b2d5dca73616a03" target="_top" xlink:title="Function used to set deinit a task and removes from both state and aux lists.">
<polygon fill="white" stroke="black" points="137,-0.5 137,-19.5 203,-19.5 203,-0.5 137,-0.5"/>
<text text-anchor="middle" x="170" y="-7.5" font-family="Helvetica,sans-Serif" font-size="10.00">Task_deinit</text>
</a>
</g>
</g>
<!-- Node1&#45;&gt;Node2 -->
<g id="edge1" class="edge">
<title>Node1&#45;&gt;Node2</title>
<path fill="none" stroke="midnightblue" d="M101.33,-10C109.77,-10 118.47,-10 126.7,-10"/>
<polygon fill="midnightblue" stroke="midnightblue" points="126.81,-13.5 136.81,-10 126.81,-6.5 126.81,-13.5"/>
</g>
<!-- Node3 -->
<g id="node3" class="node">
<title>Node3</title>
<g id="a_node3"><a xlink:href="group___rltos__task__scheduler__prv.html#gae76b463d2edcb6299d3cf3d2c175055b" target="_top" xlink:title="Function used to remove task from a task list.">
<polygon fill="white" stroke="black" points="239,-0.5 239,-19.5 355,-19.5 355,-0.5 239,-0.5"/>
<text text-anchor="middle" x="297" y="-7.5" font-family="Helvetica,sans-Serif" font-size="10.00">Task_remove_from_list</text>
</a>
</g>
</g>
<!-- Node2&#45;&gt;Node3 -->
<g id="edge2" class="edge">
<title>Node2&#45;&gt;Node3</title>
<path fill="none" stroke="midnightblue" d="M203.19,-10C211.07,-10 219.81,-10 228.67,-10"/>
<polygon fill="midnightblue" stroke="midnightblue" points="228.69,-13.5 238.69,-10 228.69,-6.5 228.69,-13.5"/>
</g>
</g>
</svg>
