<?xml version="1.0" encoding="UTF-8" standalone="no"?>
<!DOCTYPE svg PUBLIC "-//W3C//DTD SVG 1.1//EN"
 "http://www.w3.org/Graphics/SVG/1.1/DTD/svg11.dtd">
<!-- Generated by graphviz version 2.49.2 (20211016.1639)
 -->
<!-- Title: Rltos_task_create Pages: 1 -->
<svg width="359pt" height="66pt"
 viewBox="0.00 0.00 359.00 66.00" xmlns="http://www.w3.org/2000/svg" xmlns:xlink="http://www.w3.org/1999/xlink">
<g id="graph0" class="graph" transform="scale(1 1) rotate(0) translate(4 62)">
<title>Rltos_task_create</title>
<polygon fill="white" stroke="transparent" points="-4,4 -4,-62 355,-62 355,4 -4,4"/>
<!-- Node1 -->
<g id="node1" class="node">
<title>Node1</title>
<g id="a_node1"><a xlink:title="Initialises task control structure, stack &amp; appends to task list.">
<polygon fill="#bfbfbf" stroke="black" points="0,-19.5 0,-38.5 95,-38.5 95,-19.5 0,-19.5"/>
<text text-anchor="middle" x="47.5" y="-26.5" font-family="Helvetica,sans-Serif" font-size="10.00">Rltos_task_create</text>
</a>
</g>
</g>
<!-- Node2 -->
<g id="node2" class="node">
<title>Node2</title>
<g id="a_node2"><a xlink:href="group___rltos__task__prv.html#ga0891d018525403a612d750c2851fe082" target="_top" xlink:title="Initialises stack for creation of task. This function is provided by the porting layer.">
<polygon fill="white" stroke="black" points="131,-38.5 131,-57.5 217,-57.5 217,-38.5 131,-38.5"/>
<text text-anchor="middle" x="174" y="-45.5" font-family="Helvetica,sans-Serif" font-size="10.00">Rltos_stack_init</text>
</a>
</g>
</g>
<!-- Node1&#45;&gt;Node2 -->
<g id="edge1" class="edge">
<title>Node1&#45;&gt;Node2</title>
<path fill="none" stroke="midnightblue" d="M95.21,-36.13C103.64,-37.42 112.48,-38.76 121.05,-40.07"/>
<polygon fill="midnightblue" stroke="midnightblue" points="120.53,-43.53 130.95,-41.58 121.59,-36.61 120.53,-43.53"/>
</g>
<!-- Node3 -->
<g id="node3" class="node">
<title>Node3</title>
<g id="a_node3"><a xlink:href="group___rltos__task__list__prv.html#ga6bbde0c90e5e572e8131cc7652d8dd78" target="_top" xlink:title="Function used to set initial stack pointer, task entry function &amp; clear pointers to next and prev nod...">
<polygon fill="white" stroke="black" points="146,-0.5 146,-19.5 202,-19.5 202,-0.5 146,-0.5"/>
<text text-anchor="middle" x="174" y="-7.5" font-family="Helvetica,sans-Serif" font-size="10.00">Task_init</text>
</a>
</g>
</g>
<!-- Node1&#45;&gt;Node3 -->
<g id="edge2" class="edge">
<title>Node1&#45;&gt;Node3</title>
<path fill="none" stroke="midnightblue" d="M95.21,-21.87C108.58,-19.83 122.97,-17.63 135.7,-15.69"/>
<polygon fill="midnightblue" stroke="midnightblue" points="136.58,-19.1 145.93,-14.13 135.52,-12.18 136.58,-19.1"/>
</g>
<!-- Node4 -->
<g id="node4" class="node">
<title>Node4</title>
<g id="a_node4"><a xlink:href="group___rltos__task__list__prv.html#gab915c720a9360b7be5bb388002b6ebcd" target="_top" xlink:title="Function used to insert a task in a sorted task list.">
<polygon fill="white" stroke="black" points="253,-0.5 253,-19.5 351,-19.5 351,-0.5 253,-0.5"/>
<text text-anchor="middle" x="302" y="-7.5" font-family="Helvetica,sans-Serif" font-size="10.00">Task_insert_in_list</text>
</a>
</g>
</g>
<!-- Node3&#45;&gt;Node4 -->
<g id="edge3" class="edge">
<title>Node3&#45;&gt;Node4</title>
<path fill="none" stroke="midnightblue" d="M202.03,-10C213.96,-10 228.47,-10 242.67,-10"/>
<polygon fill="midnightblue" stroke="midnightblue" points="242.91,-13.5 252.91,-10 242.91,-6.5 242.91,-13.5"/>
</g>
</g>
</svg>
