<?xml version="1.0" encoding="UTF-8" standalone="no"?>
<!DOCTYPE svg PUBLIC "-//W3C//DTD SVG 1.1//EN"
 "http://www.w3.org/Graphics/SVG/1.1/DTD/svg11.dtd">
<!-- Generated by graphviz version 2.49.2 (20211016.1639)
 -->
<!-- Title: Event flags Pages: 1 -->
<svg width="208pt" height="64pt"
 viewBox="0.00 0.00 208.00 64.00" xmlns="http://www.w3.org/2000/svg" xmlns:xlink="http://www.w3.org/1999/xlink">
<g id="graph0" class="graph" transform="scale(1 1) rotate(0) translate(4 60)">
<title>Event flags</title>
<polygon fill="white" stroke="transparent" points="-4,4 -4,-60 204,-60 204,4 -4,4"/>
<!-- Node1 -->
<g id="node1" class="node">
<title>Node1</title>
<g id="a_node1"><a xlink:title=" ">
<polygon fill="#bfbfbf" stroke="black" points="64,-37 0,-37 0,-18 64,-18 64,-37"/>
<text text-anchor="middle" x="32" y="-25" font-family="Helvetica,sans-Serif" font-size="10.00">Event flags</text>
</a>
</g>
</g>
<!-- Node3 -->
<g id="node2" class="node">
<title>Node3</title>
<g id="a_node2"><a xlink:href="group___rltos__event__flags__api.html" target="_top" xlink:title=" ">
<polygon fill="white" stroke="black" points="193,-56 107,-56 107,-37 193,-37 193,-56"/>
<text text-anchor="middle" x="150" y="-44" font-family="Helvetica,sans-Serif" font-size="10.00">Event Flags API</text>
</a>
</g>
</g>
<!-- Node1&#45;&gt;Node3 -->
<g id="edge2" class="edge">
<title>Node1&#45;&gt;Node3</title>
<path fill="none" stroke="black" d="M74.01,-34.22C84.68,-35.96 96.19,-37.85 106.92,-39.61"/>
<polygon fill="black" stroke="black" points="74.52,-30.75 64.09,-32.59 73.39,-37.66 74.52,-30.75"/>
</g>
<!-- Node2 -->
<g id="node3" class="node">
<title>Node2</title>
<g id="a_node3"><a xlink:href="group___rltos__event__flags__prv.html" target="_top" xlink:title=" ">
<polygon fill="white" stroke="black" points="200,-19 100,-19 100,0 200,0 200,-19"/>
<text text-anchor="middle" x="150" y="-7" font-family="Helvetica,sans-Serif" font-size="10.00">Event Flags Private</text>
</a>
</g>
</g>
<!-- Node1&#45;&gt;Node2 -->
<g id="edge1" class="edge">
<title>Node1&#45;&gt;Node2</title>
<path fill="none" stroke="black" d="M73.99,-21.14C82.37,-19.84 91.27,-18.46 99.89,-17.12"/>
<polygon fill="black" stroke="black" points="73.43,-17.68 64.09,-22.68 74.5,-24.6 73.43,-17.68"/>
</g>
</g>
</svg>
