<?xml version="1.0" encoding="UTF-8" standalone="no"?>
<!DOCTYPE svg PUBLIC "-//W3C//DTD SVG 1.1//EN"
 "http://www.w3.org/Graphics/SVG/1.1/DTD/svg11.dtd">
<!-- Generated by graphviz version 2.49.2 (20211016.1639)
 -->
<!-- Title: Event flags Pages: 1 -->
<svg width="137pt" height="64pt"
 viewBox="0.00 0.00 137.00 64.00" xmlns="http://www.w3.org/2000/svg" xmlns:xlink="http://www.w3.org/1999/xlink">
<g id="graph0" class="graph" transform="scale(1 1) rotate(0) translate(4 60)">
<title>Event flags</title>
<polygon fill="white" stroke="transparent" points="-4,4 -4,-60 133,-60 133,4 -4,4"/>
<!-- Node1 -->
<g id="node1" class="node">
<title>Node1</title>
<g id="a_node1"><a xlink:title=" ">
<polygon fill="#bfbfbf" stroke="black" points="64,-37 0,-37 0,-18 64,-18 64,-37"/>
<text text-anchor="middle" x="32" y="-25" font-family="Helvetica,sans-Serif" font-size="10.00">Event flags</text>
</a>
</g>
</g>
<!-- Node3 -->
<g id="node2" class="node">
<title>Node3</title>
<g id="a_node2"><a xlink:href="group___rltos__event__flags__api.html" target="_top" xlink:title=" ">
<polygon fill="white" stroke="black" points="129,-56 100,-56 100,-37 129,-37 129,-56"/>
<text text-anchor="middle" x="114.5" y="-44" font-family="Helvetica,sans-Serif" font-size="10.00">api</text>
</a>
</g>
</g>
<!-- Node1&#45;&gt;Node3 -->
<g id="edge2" class="edge">
<title>Node1&#45;&gt;Node3</title>
<path fill="none" stroke="black" d="M74.36,-37.26C83.64,-39.45 92.84,-41.62 99.99,-43.31"/>
<polygon fill="black" stroke="black" points="74.89,-33.79 64.35,-34.9 73.28,-40.6 74.89,-33.79"/>
</g>
<!-- Node2 -->
<g id="node3" class="node">
<title>Node2</title>
<g id="a_node3"><a xlink:href="group___rltos__event__flags__prv.html" target="_top" xlink:title=" ">
<polygon fill="white" stroke="black" points="129,-19 100,-19 100,0 129,0 129,-19"/>
<text text-anchor="middle" x="114.5" y="-7" font-family="Helvetica,sans-Serif" font-size="10.00">prv</text>
</a>
</g>
</g>
<!-- Node1&#45;&gt;Node2 -->
<g id="edge1" class="edge">
<title>Node1&#45;&gt;Node2</title>
<path fill="none" stroke="black" d="M74.36,-18.25C83.64,-16.18 92.84,-14.12 99.99,-12.52"/>
<polygon fill="black" stroke="black" points="73.35,-14.89 64.35,-20.49 74.88,-21.72 73.35,-14.89"/>
</g>
</g>
</svg>
