<?xml version="1.0" encoding="UTF-8" standalone="no"?>
<!DOCTYPE svg PUBLIC "-//W3C//DTD SVG 1.1//EN"
 "http://www.w3.org/Graphics/SVG/1.1/DTD/svg11.dtd">
<!-- Generated by graphviz version 2.49.2 (20211016.1639)
 -->
<!-- Title: Mutex Private Pages: 1 -->
<svg width="321pt" height="27pt"
 viewBox="0.00 0.00 321.00 27.00" xmlns="http://www.w3.org/2000/svg" xmlns:xlink="http://www.w3.org/1999/xlink">
<g id="graph0" class="graph" transform="scale(1 1) rotate(0) translate(4 23)">
<title>Mutex Private</title>
<polygon fill="white" stroke="transparent" points="-4,4 -4,-23 317,-23 317,4 -4,4"/>
<!-- Node2 -->
<g id="node1" class="node">
<title>Node2</title>
<g id="a_node1"><a xlink:href="group___rltos__mutex__api.html" target="_top" xlink:title=" ">
<polygon fill="white" stroke="black" points="62,-19 0,-19 0,0 62,0 62,-19"/>
<text text-anchor="middle" x="31" y="-7" font-family="Helvetica,sans-Serif" font-size="10.00">Mutex API</text>
</a>
</g>
</g>
<!-- Node1 -->
<g id="node2" class="node">
<title>Node1</title>
<g id="a_node2"><a xlink:title=" ">
<polygon fill="#bfbfbf" stroke="black" points="174,-19 98,-19 98,0 174,0 174,-19"/>
<text text-anchor="middle" x="136" y="-7" font-family="Helvetica,sans-Serif" font-size="10.00">Mutex Private</text>
</a>
</g>
</g>
<!-- Node2&#45;&gt;Node1 -->
<g id="edge1" class="edge">
<title>Node2&#45;&gt;Node1</title>
<path fill="none" stroke="black" d="M72.09,-9.5C80.54,-9.5 89.42,-9.5 97.76,-9.5"/>
<polygon fill="black" stroke="black" points="72.07,-6 62.07,-9.5 72.07,-13 72.07,-6"/>
</g>
<!-- Node3 -->
<g id="node3" class="node">
<title>Node3</title>
<g id="a_node3"><a xlink:href="group___rltos__task__scheduler__api.html" target="_top" xlink:title=" ">
<polygon fill="white" stroke="black" points="313,-19 210,-19 210,0 313,0 313,-19"/>
<text text-anchor="middle" x="261.5" y="-7" font-family="Helvetica,sans-Serif" font-size="10.00">Task Scheduler API</text>
</a>
</g>
</g>
<!-- Node1&#45;&gt;Node3 -->
<g id="edge2" class="edge">
<title>Node1&#45;&gt;Node3</title>
<path fill="none" stroke="black" d="M184.07,-9.5C192.48,-9.5 201.27,-9.5 209.77,-9.5"/>
<polygon fill="black" stroke="black" points="184.05,-6 174.05,-9.5 184.05,-13 184.05,-6"/>
</g>
</g>
</svg>
