<?xml version="1.0" encoding="UTF-8" standalone="no"?>
<!DOCTYPE svg PUBLIC "-//W3C//DTD SVG 1.1//EN"
 "http://www.w3.org/Graphics/SVG/1.1/DTD/svg11.dtd">
<!-- Generated by graphviz version 2.49.2 (20211016.1639)
 -->
<!-- Title: Task_append_to_list Pages: 1 -->
<svg width="669pt" height="135pt"
 viewBox="0.00 0.00 669.00 134.50" xmlns="http://www.w3.org/2000/svg" xmlns:xlink="http://www.w3.org/1999/xlink">
<g id="graph0" class="graph" transform="scale(1 1) rotate(0) translate(4 130.5)">
<title>Task_append_to_list</title>
<polygon fill="white" stroke="transparent" points="-4,4 -4,-130.5 665,-130.5 665,4 -4,4"/>
<!-- Node1 -->
<g id="node1" class="node">
<title>Node1</title>
<g id="a_node1"><a xlink:title="Function used to append task to a task list.">
<polygon fill="#bfbfbf" stroke="black" points="555,-79.5 555,-98.5 661,-98.5 661,-79.5 555,-79.5"/>
<text text-anchor="middle" x="608" y="-86.5" font-family="Helvetica,sans-Serif" font-size="10.00">Task_append_to_list</text>
</a>
</g>
</g>
<!-- Node2 -->
<g id="node2" class="node">
<title>Node2</title>
<g id="a_node2"><a xlink:href="group___rltos__task__scheduler__api.html#gaf04d49ef43d334ab6fb5e0345f82e332" target="_top" xlink:title="Function used to set the current task to wait on an object (uses auxillary list)">
<polygon fill="white" stroke="black" points="273,-96 273,-126 387,-126 387,-96 273,-96"/>
<text text-anchor="start" x="281" y="-114" font-family="Helvetica,sans-Serif" font-size="10.00">Task_set_current_wait</text>
<text text-anchor="middle" x="330" y="-103" font-family="Helvetica,sans-Serif" font-size="10.00">_on_object</text>
</a>
</g>
</g>
<!-- Node1&#45;&gt;Node2 -->
<g id="edge1" class="edge">
<title>Node1&#45;&gt;Node2</title>
<path fill="none" stroke="midnightblue" d="M544.65,-93.97C497.39,-97.74 433,-102.87 387.3,-106.51"/>
<polygon fill="midnightblue" stroke="midnightblue" points="545.07,-97.45 554.76,-93.16 544.52,-90.47 545.07,-97.45"/>
</g>
<!-- Node3 -->
<g id="node3" class="node">
<title>Node3</title>
<g id="a_node3"><a xlink:href="group___rltos__task__scheduler__api.html#ga52008f4c16a074cacada44393f18ef3b" target="_top" xlink:title="Function used to append the task to the stopped list.">
<polygon fill="white" stroke="black" points="423,-60.5 423,-79.5 519,-79.5 519,-60.5 423,-60.5"/>
<text text-anchor="middle" x="471" y="-67.5" font-family="Helvetica,sans-Serif" font-size="10.00">Task_set_stopped</text>
</a>
</g>
</g>
<!-- Node1&#45;&gt;Node3 -->
<g id="edge2" class="edge">
<title>Node1&#45;&gt;Node3</title>
<path fill="none" stroke="midnightblue" d="M544.79,-80.25C536.19,-79.03 527.47,-77.81 519.2,-76.64"/>
<polygon fill="midnightblue" stroke="midnightblue" points="544.42,-83.73 554.81,-81.65 545.39,-76.79 544.42,-83.73"/>
</g>
<!-- Node3&#45;&gt;Node2 -->
<g id="edge8" class="edge">
<title>Node3&#45;&gt;Node2</title>
<path fill="none" stroke="midnightblue" d="M428.09,-82.36C413.62,-86.63 397.24,-91.46 382.12,-95.92"/>
<polygon fill="midnightblue" stroke="midnightblue" points="429.16,-85.7 437.76,-79.51 427.18,-78.98 429.16,-85.7"/>
</g>
<!-- Node4 -->
<g id="node4" class="node">
<title>Node4</title>
<g id="a_node4"><a xlink:href="group___rltos__task__api.html#ga8adaf8dcff5d26b382e45361d7f2c874" target="_top" xlink:title="Stops the targetted task indefinitely.">
<polygon fill="white" stroke="black" points="286.5,-57.5 286.5,-76.5 373.5,-76.5 373.5,-57.5 286.5,-57.5"/>
<text text-anchor="middle" x="330" y="-64.5" font-family="Helvetica,sans-Serif" font-size="10.00">Rltos_task_stop</text>
</a>
</g>
</g>
<!-- Node3&#45;&gt;Node4 -->
<g id="edge3" class="edge">
<title>Node3&#45;&gt;Node4</title>
<path fill="none" stroke="midnightblue" d="M412.67,-68.76C399.67,-68.48 386.08,-68.19 373.8,-67.92"/>
<polygon fill="midnightblue" stroke="midnightblue" points="412.87,-72.27 422.94,-68.98 413.02,-65.27 412.87,-72.27"/>
</g>
<!-- Node5 -->
<g id="node5" class="node">
<title>Node5</title>
<g id="a_node5"><a xlink:href="group___rltos__task__scheduler__api.html#gaf77c7c3425845b054fd8fc2ddc9ea57a" target="_top" xlink:title="Function used to set initial stack pointer, task entry function &amp; clear pointers to next and prev nod...">
<polygon fill="white" stroke="black" points="302,-19.5 302,-38.5 358,-38.5 358,-19.5 302,-19.5"/>
<text text-anchor="middle" x="330" y="-26.5" font-family="Helvetica,sans-Serif" font-size="10.00">Task_init</text>
</a>
</g>
</g>
<!-- Node3&#45;&gt;Node5 -->
<g id="edge4" class="edge">
<title>Node3&#45;&gt;Node5</title>
<path fill="none" stroke="midnightblue" d="M428.07,-57.63C405.48,-50.97 378.24,-42.94 358.38,-37.08"/>
<polygon fill="midnightblue" stroke="midnightblue" points="427.18,-61.02 437.76,-60.49 429.16,-54.3 427.18,-61.02"/>
</g>
<!-- Node6 -->
<g id="node6" class="node">
<title>Node6</title>
<g id="a_node6"><a xlink:href="group___rltos__task__api.html#ga174b5e621bd6dac5d8c7d9a33ebb218d" target="_top" xlink:title="Initialises task control structure, stack &amp; appends to task list.">
<polygon fill="white" stroke="black" points="138,-38.5 138,-57.5 233,-57.5 233,-38.5 138,-38.5"/>
<text text-anchor="middle" x="185.5" y="-45.5" font-family="Helvetica,sans-Serif" font-size="10.00">Rltos_task_create</text>
</a>
</g>
</g>
<!-- Node5&#45;&gt;Node6 -->
<g id="edge5" class="edge">
<title>Node5&#45;&gt;Node6</title>
<path fill="none" stroke="midnightblue" d="M291.79,-33.96C273.87,-36.35 252.19,-39.24 233.17,-41.78"/>
<polygon fill="midnightblue" stroke="midnightblue" points="292.41,-37.41 301.86,-32.62 291.49,-30.47 292.41,-37.41"/>
</g>
<!-- Node7 -->
<g id="node7" class="node">
<title>Node7</title>
<g id="a_node7"><a xlink:href="group___rltos__task__scheduler__api.html#gae1bd8e8e3af9f778a719fb7a086451f1" target="_top" xlink:title="Function to initialise the current task on entry to the scheduler &amp; create + add the idle task to the...">
<polygon fill="white" stroke="black" points="134,-0.5 134,-19.5 237,-19.5 237,-0.5 134,-0.5"/>
<text text-anchor="middle" x="185.5" y="-7.5" font-family="Helvetica,sans-Serif" font-size="10.00">Task_scheduler_init</text>
</a>
</g>
</g>
<!-- Node5&#45;&gt;Node7 -->
<g id="edge6" class="edge">
<title>Node5&#45;&gt;Node7</title>
<path fill="none" stroke="midnightblue" d="M291.93,-24.06C275.23,-21.83 255.25,-19.17 237.19,-16.76"/>
<polygon fill="midnightblue" stroke="midnightblue" points="291.49,-27.53 301.86,-25.38 292.41,-20.59 291.49,-27.53"/>
</g>
<!-- Node8 -->
<g id="node8" class="node">
<title>Node8</title>
<g id="a_node8"><a xlink:href="group___rltos__task__api.html#gac44bc5223fd6d5d7f635776b1eb6231b" target="_top" xlink:title="Enters RLTOS kernel and starts scheduler timer. Should not return from this function,...">
<polygon fill="white" stroke="black" points="0,-0.5 0,-19.5 98,-19.5 98,-0.5 0,-0.5"/>
<text text-anchor="middle" x="49" y="-7.5" font-family="Helvetica,sans-Serif" font-size="10.00">Rltos_kernel_enter</text>
</a>
</g>
</g>
<!-- Node7&#45;&gt;Node8 -->
<g id="edge7" class="edge">
<title>Node7&#45;&gt;Node8</title>
<path fill="none" stroke="midnightblue" d="M123.45,-10C115,-10 106.43,-10 98.25,-10"/>
<polygon fill="midnightblue" stroke="midnightblue" points="123.65,-13.5 133.65,-10 123.65,-6.5 123.65,-13.5"/>
</g>
</g>
</svg>
