<?xml version="1.0" encoding="UTF-8" standalone="no"?>
<!DOCTYPE svg PUBLIC "-//W3C//DTD SVG 1.1//EN"
 "http://www.w3.org/Graphics/SVG/1.1/DTD/svg11.dtd">
<!-- Generated by graphviz version 2.49.2 (20211016.1639)
 -->
<!-- Title: Task Scheduler Pages: 1 -->
<svg width="222pt" height="64pt"
 viewBox="0.00 0.00 222.00 64.00" xmlns="http://www.w3.org/2000/svg" xmlns:xlink="http://www.w3.org/1999/xlink">
<g id="graph0" class="graph" transform="scale(1 1) rotate(0) translate(4 60)">
<title>Task Scheduler</title>
<polygon fill="white" stroke="transparent" points="-4,4 -4,-60 218,-60 218,4 -4,4"/>
<!-- Node2 -->
<g id="node1" class="node">
<title>Node2</title>
<g id="a_node1"><a xlink:href="group___rltos__task__prv.html" target="_top" xlink:title=" ">
<polygon fill="white" stroke="black" points="29,-37 0,-37 0,-18 29,-18 29,-37"/>
<text text-anchor="middle" x="14.5" y="-25" font-family="Helvetica,sans-Serif" font-size="10.00">prv</text>
</a>
</g>
</g>
<!-- Node1 -->
<g id="node2" class="node">
<title>Node1</title>
<g id="a_node2"><a xlink:title=" ">
<polygon fill="#bfbfbf" stroke="black" points="149,-37 65,-37 65,-18 149,-18 149,-37"/>
<text text-anchor="middle" x="107" y="-25" font-family="Helvetica,sans-Serif" font-size="10.00">Task Scheduler</text>
</a>
</g>
</g>
<!-- Node2&#45;&gt;Node1 -->
<g id="edge1" class="edge">
<title>Node2&#45;&gt;Node1</title>
<path fill="none" stroke="black" d="M39.36,-27.5C47.13,-27.5 55.99,-27.5 64.66,-27.5"/>
<polygon fill="black" stroke="black" points="39.25,-24 29.25,-27.5 39.24,-31 39.25,-24"/>
</g>
<!-- Node4 -->
<g id="node3" class="node">
<title>Node4</title>
<g id="a_node3"><a xlink:href="group___rltos__task__scheduler__api.html" target="_top" xlink:title=" ">
<polygon fill="white" stroke="black" points="214,-56 185,-56 185,-37 214,-37 214,-56"/>
<text text-anchor="middle" x="199.5" y="-44" font-family="Helvetica,sans-Serif" font-size="10.00">api</text>
</a>
</g>
</g>
<!-- Node1&#45;&gt;Node4 -->
<g id="edge3" class="edge">
<title>Node1&#45;&gt;Node4</title>
<path fill="none" stroke="black" d="M159.02,-38.21C168.56,-40.22 177.76,-42.15 184.88,-43.64"/>
<polygon fill="black" stroke="black" points="159.52,-34.74 149.01,-36.11 158.08,-41.59 159.52,-34.74"/>
</g>
<!-- Node3 -->
<g id="node4" class="node">
<title>Node3</title>
<g id="a_node4"><a xlink:href="group___rltos__task__scheduler__prv.html" target="_top" xlink:title=" ">
<polygon fill="white" stroke="black" points="214,-19 185,-19 185,0 214,0 214,-19"/>
<text text-anchor="middle" x="199.5" y="-7" font-family="Helvetica,sans-Serif" font-size="10.00">prv</text>
</a>
</g>
</g>
<!-- Node1&#45;&gt;Node3 -->
<g id="edge2" class="edge">
<title>Node1&#45;&gt;Node3</title>
<path fill="none" stroke="black" d="M159.02,-17.35C168.56,-15.45 177.76,-13.62 184.88,-12.21"/>
<polygon fill="black" stroke="black" points="158.14,-13.96 149.01,-19.34 159.5,-20.82 158.14,-13.96"/>
</g>
</g>
</svg>
