<?xml version="1.0" encoding="UTF-8" standalone="no"?>
<!DOCTYPE svg PUBLIC "-//W3C//DTD SVG 1.1//EN"
 "http://www.w3.org/Graphics/SVG/1.1/DTD/svg11.dtd">
<!-- Generated by graphviz version 2.49.2 (20211016.1639)
 -->
<!-- Title: Sempahore Pages: 1 -->
<svg width="139pt" height="64pt"
 viewBox="0.00 0.00 139.00 64.00" xmlns="http://www.w3.org/2000/svg" xmlns:xlink="http://www.w3.org/1999/xlink">
<g id="graph0" class="graph" transform="scale(1 1) rotate(0) translate(4 60)">
<title>Sempahore</title>
<polygon fill="white" stroke="transparent" points="-4,4 -4,-60 135,-60 135,4 -4,4"/>
<!-- Node1 -->
<g id="node1" class="node">
<title>Node1</title>
<g id="a_node1"><a xlink:title=" ">
<polygon fill="#bfbfbf" stroke="black" points="66,-37 0,-37 0,-18 66,-18 66,-37"/>
<text text-anchor="middle" x="33" y="-25" font-family="Helvetica,sans-Serif" font-size="10.00">Sempahore</text>
</a>
</g>
</g>
<!-- Node3 -->
<g id="node2" class="node">
<title>Node3</title>
<g id="a_node2"><a xlink:href="group___rltos__semaphore__api.html" target="_top" xlink:title=" ">
<polygon fill="white" stroke="black" points="131,-56 102,-56 102,-37 131,-37 131,-56"/>
<text text-anchor="middle" x="116.5" y="-44" font-family="Helvetica,sans-Serif" font-size="10.00">api</text>
</a>
</g>
</g>
<!-- Node1&#45;&gt;Node3 -->
<g id="edge2" class="edge">
<title>Node1&#45;&gt;Node3</title>
<path fill="none" stroke="black" d="M75.98,-37.29C85.41,-39.49 94.75,-41.66 101.98,-43.35"/>
<polygon fill="black" stroke="black" points="76.74,-33.87 66.21,-35.01 75.16,-40.69 76.74,-33.87"/>
</g>
<!-- Node2 -->
<g id="node3" class="node">
<title>Node2</title>
<g id="a_node3"><a xlink:href="group___rltos__semaphore__prv.html" target="_top" xlink:title=" ">
<polygon fill="white" stroke="black" points="131,-19 102,-19 102,0 131,0 131,-19"/>
<text text-anchor="middle" x="116.5" y="-7" font-family="Helvetica,sans-Serif" font-size="10.00">prv</text>
</a>
</g>
</g>
<!-- Node1&#45;&gt;Node2 -->
<g id="edge1" class="edge">
<title>Node1&#45;&gt;Node2</title>
<path fill="none" stroke="black" d="M75.98,-18.23C85.41,-16.14 94.75,-14.08 101.98,-12.48"/>
<polygon fill="black" stroke="black" points="75.22,-14.81 66.21,-20.39 76.73,-21.65 75.22,-14.81"/>
</g>
</g>
</svg>
