<?xml version="1.0" encoding="UTF-8" standalone="no"?>
<!DOCTYPE svg PUBLIC "-//W3C//DTD SVG 1.1//EN"
 "http://www.w3.org/Graphics/SVG/1.1/DTD/svg11.dtd">
<!-- Generated by graphviz version 2.49.2 (20211016.1639)
 -->
<!-- Title: Rltos_task_resume Pages: 1 -->
<svg width="618pt" height="66pt"
 viewBox="0.00 0.00 618.00 66.00" xmlns="http://www.w3.org/2000/svg" xmlns:xlink="http://www.w3.org/1999/xlink">
<g id="graph0" class="graph" transform="scale(1 1) rotate(0) translate(4 62)">
<title>Rltos_task_resume</title>
<polygon fill="white" stroke="transparent" points="-4,4 -4,-62 614,-62 614,4 -4,4"/>
<!-- Node1 -->
<g id="node1" class="node">
<title>Node1</title>
<g id="a_node1"><a xlink:title="Resumes the targetted task in the stop state.">
<polygon fill="#bfbfbf" stroke="black" points="0,-19.5 0,-38.5 101,-38.5 101,-19.5 0,-19.5"/>
<text text-anchor="middle" x="50.5" y="-26.5" font-family="Helvetica,sans-Serif" font-size="10.00">Rltos_task_resume</text>
</a>
</g>
</g>
<!-- Node2 -->
<g id="node2" class="node">
<title>Node2</title>
<g id="a_node2"><a xlink:href="group___rltos__task__scheduler__api.html#gafed22720e2a57cdac7337c27d9f6b71d" target="_top" xlink:title="Function used to set a task running &#45; only if it is stopped (not waiting on an object or idled)">
<polygon fill="white" stroke="black" points="137,-19.5 137,-38.5 212,-38.5 212,-19.5 137,-19.5"/>
<text text-anchor="middle" x="174.5" y="-26.5" font-family="Helvetica,sans-Serif" font-size="10.00">Task_resume</text>
</a>
</g>
</g>
<!-- Node1&#45;&gt;Node2 -->
<g id="edge1" class="edge">
<title>Node1&#45;&gt;Node2</title>
<path fill="none" stroke="midnightblue" d="M101.12,-29C109.47,-29 118.12,-29 126.4,-29"/>
<polygon fill="midnightblue" stroke="midnightblue" points="126.65,-32.5 136.65,-29 126.65,-25.5 126.65,-32.5"/>
</g>
<!-- Node3 -->
<g id="node3" class="node">
<title>Node3</title>
<g id="a_node3"><a xlink:href="group___rltos__task__scheduler__api.html#gae2e9ba76398ba904d0c32071d3512a2b" target="_top" xlink:title="Function used to insert the task to the running list.">
<polygon fill="white" stroke="black" points="248,-19.5 248,-38.5 341,-38.5 341,-19.5 248,-19.5"/>
<text text-anchor="middle" x="294.5" y="-26.5" font-family="Helvetica,sans-Serif" font-size="10.00">Task_set_running</text>
</a>
</g>
</g>
<!-- Node2&#45;&gt;Node3 -->
<g id="edge2" class="edge">
<title>Node2&#45;&gt;Node3</title>
<path fill="none" stroke="midnightblue" d="M212.19,-29C220.26,-29 228.99,-29 237.62,-29"/>
<polygon fill="midnightblue" stroke="midnightblue" points="237.67,-32.5 247.67,-29 237.67,-25.5 237.67,-32.5"/>
</g>
<!-- Node4 -->
<g id="node4" class="node">
<title>Node4</title>
<g id="a_node4"><a xlink:href="group___rltos__task__scheduler__prv.html#gab915c720a9360b7be5bb388002b6ebcd" target="_top" xlink:title="Function used to insert a task in a sorted task list.">
<polygon fill="white" stroke="black" points="386,-38.5 386,-57.5 484,-57.5 484,-38.5 386,-38.5"/>
<text text-anchor="middle" x="435" y="-45.5" font-family="Helvetica,sans-Serif" font-size="10.00">Task_insert_in_list</text>
</a>
</g>
</g>
<!-- Node3&#45;&gt;Node4 -->
<g id="edge3" class="edge">
<title>Node3&#45;&gt;Node4</title>
<path fill="none" stroke="midnightblue" d="M341.23,-35.27C352.33,-36.8 364.33,-38.44 375.91,-40.03"/>
<polygon fill="midnightblue" stroke="midnightblue" points="375.55,-43.51 385.94,-41.41 376.51,-36.58 375.55,-43.51"/>
</g>
<!-- Node5 -->
<g id="node5" class="node">
<title>Node5</title>
<g id="a_node5"><a xlink:href="group___rltos__task__scheduler__prv.html#ga421dbb81487cd2fdc1fd06b1407eae5b" target="_top" xlink:title="Function used to remove task from a task list.">
<polygon fill="white" stroke="black" points="377,-0.5 377,-19.5 493,-19.5 493,-0.5 377,-0.5"/>
<text text-anchor="middle" x="435" y="-7.5" font-family="Helvetica,sans-Serif" font-size="10.00">Task_remove_from_list</text>
</a>
</g>
</g>
<!-- Node3&#45;&gt;Node5 -->
<g id="edge4" class="edge">
<title>Node3&#45;&gt;Node5</title>
<path fill="none" stroke="midnightblue" d="M341.23,-22.73C349.39,-21.61 358.04,-20.42 366.65,-19.24"/>
<polygon fill="midnightblue" stroke="midnightblue" points="367.27,-22.69 376.7,-17.86 366.32,-15.75 367.27,-22.69"/>
</g>
<!-- Node6 -->
<g id="node6" class="node">
<title>Node6</title>
<g id="a_node6"><a xlink:href="group___rltos__task__scheduler__prv.html#ga6f098dd7382a94e001bdeeadd29ae7bf" target="_top" xlink:title="Function used to check if a task is contained within the task list or not.">
<polygon fill="white" stroke="black" points="529,-0.5 529,-19.5 610,-19.5 610,-0.5 529,-0.5"/>
<text text-anchor="middle" x="569.5" y="-7.5" font-family="Helvetica,sans-Serif" font-size="10.00">Task_is_in_list</text>
</a>
</g>
</g>
<!-- Node5&#45;&gt;Node6 -->
<g id="edge5" class="edge">
<title>Node5&#45;&gt;Node6</title>
<path fill="none" stroke="midnightblue" d="M493.35,-10C501.71,-10 510.26,-10 518.46,-10"/>
<polygon fill="midnightblue" stroke="midnightblue" points="518.62,-13.5 528.62,-10 518.62,-6.5 518.62,-13.5"/>
</g>
</g>
</svg>
