<?xml version="1.0" encoding="UTF-8" standalone="no"?>
<!DOCTYPE svg PUBLIC "-//W3C//DTD SVG 1.1//EN"
 "http://www.w3.org/Graphics/SVG/1.1/DTD/svg11.dtd">
<!-- Generated by graphviz version 2.49.2 (20211016.1639)
 -->
<!-- Title: Task_insert_in_list Pages: 1 -->
<svg width="546pt" height="241pt"
 viewBox="0.00 0.00 546.00 241.00" xmlns="http://www.w3.org/2000/svg" xmlns:xlink="http://www.w3.org/1999/xlink">
<g id="graph0" class="graph" transform="scale(1 1) rotate(0) translate(4 237)">
<title>Task_insert_in_list</title>
<polygon fill="white" stroke="transparent" points="-4,4 -4,-237 542,-237 542,4 -4,4"/>
<!-- Node1 -->
<g id="node1" class="node">
<title>Node1</title>
<g id="a_node1"><a xlink:title="Function used to insert a task in a sorted task list.">
<polygon fill="#bfbfbf" stroke="black" points="440,-115.5 440,-134.5 538,-134.5 538,-115.5 440,-115.5"/>
<text text-anchor="middle" x="489" y="-122.5" font-family="Helvetica,sans-Serif" font-size="10.00">Task_insert_in_list</text>
</a>
</g>
</g>
<!-- Node2 -->
<g id="node2" class="node">
<title>Node2</title>
<g id="a_node2"><a xlink:href="group___rltos__task__scheduler__api.html#ga6bbde0c90e5e572e8131cc7652d8dd78" target="_top" xlink:title="Function used to set initial stack pointer, task entry function &amp; clear pointers to next and prev nod...">
<polygon fill="white" stroke="black" points="320,-175.5 320,-194.5 376,-194.5 376,-175.5 320,-175.5"/>
<text text-anchor="middle" x="348" y="-182.5" font-family="Helvetica,sans-Serif" font-size="10.00">Task_init</text>
</a>
</g>
</g>
<!-- Node1&#45;&gt;Node2 -->
<g id="edge1" class="edge">
<title>Node1&#45;&gt;Node2</title>
<path fill="none" stroke="midnightblue" d="M456.58,-138.56C430.64,-149.76 394.46,-165.38 371.38,-175.34"/>
<polygon fill="midnightblue" stroke="midnightblue" points="458.18,-141.68 465.98,-134.51 455.41,-135.26 458.18,-141.68"/>
</g>
<!-- Node6 -->
<g id="node6" class="node">
<title>Node6</title>
<g id="a_node6"><a xlink:href="group___rltos__task__scheduler__api.html#gaef14e9b4eac09dd868feb5c3b2b4442f" target="_top" xlink:title="Function used to append task to the idle list.">
<polygon fill="white" stroke="black" points="292,-115.5 292,-134.5 404,-134.5 404,-115.5 292,-115.5"/>
<text text-anchor="middle" x="348" y="-122.5" font-family="Helvetica,sans-Serif" font-size="10.00">Task_set_current_idle</text>
</a>
</g>
</g>
<!-- Node1&#45;&gt;Node6 -->
<g id="edge5" class="edge">
<title>Node1&#45;&gt;Node6</title>
<path fill="none" stroke="midnightblue" d="M429.67,-125C421.26,-125 412.63,-125 404.29,-125"/>
<polygon fill="midnightblue" stroke="midnightblue" points="429.77,-128.5 439.77,-125 429.77,-121.5 429.77,-128.5"/>
</g>
<!-- Node9 -->
<g id="node9" class="node">
<title>Node9</title>
<g id="a_node9"><a xlink:href="group___rltos__task__scheduler__api.html#gae2e9ba76398ba904d0c32071d3512a2b" target="_top" xlink:title="Function used to insert the task to the running list.">
<polygon fill="white" stroke="black" points="301.5,-44.5 301.5,-63.5 394.5,-63.5 394.5,-44.5 301.5,-44.5"/>
<text text-anchor="middle" x="348" y="-51.5" font-family="Helvetica,sans-Serif" font-size="10.00">Task_set_running</text>
</a>
</g>
</g>
<!-- Node1&#45;&gt;Node9 -->
<g id="edge8" class="edge">
<title>Node1&#45;&gt;Node9</title>
<path fill="none" stroke="midnightblue" d="M460.19,-110.79C432.79,-96.8 391.7,-75.81 367.89,-63.65"/>
<polygon fill="midnightblue" stroke="midnightblue" points="458.76,-113.99 469.25,-115.42 461.94,-107.76 458.76,-113.99"/>
</g>
<!-- Node3 -->
<g id="node3" class="node">
<title>Node3</title>
<g id="a_node3"><a xlink:href="group___rltos__task__api.html#ga834372bf1fbfa182dcd47b8f680f435a" target="_top" xlink:title="Initialises task control structure, stack &amp; appends to task list.">
<polygon fill="white" stroke="black" points="149,-213.5 149,-232.5 244,-232.5 244,-213.5 149,-213.5"/>
<text text-anchor="middle" x="196.5" y="-220.5" font-family="Helvetica,sans-Serif" font-size="10.00">Rltos_task_create</text>
</a>
</g>
</g>
<!-- Node2&#45;&gt;Node3 -->
<g id="edge2" class="edge">
<title>Node2&#45;&gt;Node3</title>
<path fill="none" stroke="midnightblue" d="M309.94,-194.42C287.12,-200.22 257.96,-207.63 235.05,-213.45"/>
<polygon fill="midnightblue" stroke="midnightblue" points="311.1,-197.74 319.93,-191.88 309.37,-190.95 311.1,-197.74"/>
</g>
<!-- Node4 -->
<g id="node4" class="node">
<title>Node4</title>
<g id="a_node4"><a xlink:href="group___rltos__task__scheduler__api.html#gae1bd8e8e3af9f778a719fb7a086451f1" target="_top" xlink:title="Function to initialise the current task on entry to the scheduler &amp; create + add the idle task to the...">
<polygon fill="white" stroke="black" points="145,-175.5 145,-194.5 248,-194.5 248,-175.5 145,-175.5"/>
<text text-anchor="middle" x="196.5" y="-182.5" font-family="Helvetica,sans-Serif" font-size="10.00">Task_scheduler_init</text>
</a>
</g>
</g>
<!-- Node2&#45;&gt;Node4 -->
<g id="edge3" class="edge">
<title>Node2&#45;&gt;Node4</title>
<path fill="none" stroke="midnightblue" d="M309.79,-185C291.2,-185 268.43,-185 248.26,-185"/>
<polygon fill="midnightblue" stroke="midnightblue" points="309.93,-188.5 319.93,-185 309.93,-181.5 309.93,-188.5"/>
</g>
<!-- Node5 -->
<g id="node5" class="node">
<title>Node5</title>
<g id="a_node5"><a xlink:href="group___rltos__task__api.html#gac44bc5223fd6d5d7f635776b1eb6231b" target="_top" xlink:title="Enters RLTOS kernel and starts scheduler timer.">
<polygon fill="white" stroke="black" points="1.5,-175.5 1.5,-194.5 99.5,-194.5 99.5,-175.5 1.5,-175.5"/>
<text text-anchor="middle" x="50.5" y="-182.5" font-family="Helvetica,sans-Serif" font-size="10.00">Rltos_kernel_enter</text>
</a>
</g>
</g>
<!-- Node4&#45;&gt;Node5 -->
<g id="edge4" class="edge">
<title>Node4&#45;&gt;Node5</title>
<path fill="none" stroke="midnightblue" d="M134.66,-185C123.05,-185 111.04,-185 99.88,-185"/>
<polygon fill="midnightblue" stroke="midnightblue" points="134.73,-188.5 144.73,-185 134.73,-181.5 134.73,-188.5"/>
</g>
<!-- Node7 -->
<g id="node7" class="node">
<title>Node7</title>
<g id="a_node7"><a xlink:href="group___rltos__task__api.html#ga581dd045fa985add7730a8a1581389b7" target="_top" xlink:title="Puts the current thread to sleep for a minimum of the given number of ticks.">
<polygon fill="white" stroke="black" points="150.5,-137.5 150.5,-156.5 242.5,-156.5 242.5,-137.5 150.5,-137.5"/>
<text text-anchor="middle" x="196.5" y="-144.5" font-family="Helvetica,sans-Serif" font-size="10.00">Rltos_task_sleep</text>
</a>
</g>
</g>
<!-- Node6&#45;&gt;Node7 -->
<g id="edge6" class="edge">
<title>Node6&#45;&gt;Node7</title>
<path fill="none" stroke="midnightblue" d="M281.79,-134.6C268.62,-136.53 255.04,-138.53 242.74,-140.34"/>
<polygon fill="midnightblue" stroke="midnightblue" points="282.37,-138.05 291.76,-133.13 281.35,-131.12 282.37,-138.05"/>
</g>
<!-- Node8 -->
<g id="node8" class="node">
<title>Node8</title>
<g id="a_node8"><a xlink:href="group___rltos__task__scheduler__api.html#ga90ce1a0329edc828e765740fce4e29cb" target="_top" xlink:title="Function used to set the current task to wait on an object (uses auxillary list)">
<polygon fill="white" stroke="black" points="139.5,-88 139.5,-118 253.5,-118 253.5,-88 139.5,-88"/>
<text text-anchor="start" x="147.5" y="-106" font-family="Helvetica,sans-Serif" font-size="10.00">Task_set_current_wait</text>
<text text-anchor="middle" x="196.5" y="-95" font-family="Helvetica,sans-Serif" font-size="10.00">_on_object</text>
</a>
</g>
</g>
<!-- Node6&#45;&gt;Node8 -->
<g id="edge7" class="edge">
<title>Node6&#45;&gt;Node8</title>
<path fill="none" stroke="midnightblue" d="M281.68,-115.39C272.29,-114.01 262.7,-112.59 253.52,-111.24"/>
<polygon fill="midnightblue" stroke="midnightblue" points="281.35,-118.88 291.76,-116.87 282.37,-111.95 281.35,-118.88"/>
</g>
<!-- Node10 -->
<g id="node10" class="node">
<title>Node10</title>
<g id="a_node10"><a xlink:href="group___rltos__task__scheduler__prv.html#ga7dad02e1630e47f423618b110c2071a4" target="_top" xlink:title="implementation of rltos context switch &#45; called from rltos_scheduler_asm.asm">
<polygon fill="white" stroke="black" points="137,-39 137,-69 256,-69 256,-39 137,-39"/>
<text text-anchor="start" x="145" y="-57" font-family="Helvetica,sans-Serif" font-size="10.00">Rltos_scheduler_switch</text>
<text text-anchor="middle" x="196.5" y="-46" font-family="Helvetica,sans-Serif" font-size="10.00">_context</text>
</a>
</g>
</g>
<!-- Node9&#45;&gt;Node10 -->
<g id="edge9" class="edge">
<title>Node9&#45;&gt;Node10</title>
<path fill="none" stroke="midnightblue" d="M291.07,-54C279.66,-54 267.63,-54 256.14,-54"/>
<polygon fill="midnightblue" stroke="midnightblue" points="291.33,-57.5 301.33,-54 291.33,-50.5 291.33,-57.5"/>
</g>
<!-- Node11 -->
<g id="node11" class="node">
<title>Node11</title>
<g id="a_node11"><a xlink:href="group___rltos__task__scheduler__api.html#gafed22720e2a57cdac7337c27d9f6b71d" target="_top" xlink:title="Function used to set a task running &#45; only if it is stopped (not waiting on an object or idled)">
<polygon fill="white" stroke="black" points="159,-0.5 159,-19.5 234,-19.5 234,-0.5 159,-0.5"/>
<text text-anchor="middle" x="196.5" y="-7.5" font-family="Helvetica,sans-Serif" font-size="10.00">Task_resume</text>
</a>
</g>
</g>
<!-- Node9&#45;&gt;Node11 -->
<g id="edge10" class="edge">
<title>Node9&#45;&gt;Node11</title>
<path fill="none" stroke="midnightblue" d="M304.75,-41.57C281,-34.57 251.8,-25.98 229.88,-19.53"/>
<polygon fill="midnightblue" stroke="midnightblue" points="303.98,-44.99 314.56,-44.45 305.96,-38.27 303.98,-44.99"/>
</g>
<!-- Node12 -->
<g id="node12" class="node">
<title>Node12</title>
<g id="a_node12"><a xlink:href="group___rltos__task__api.html#gac973b9f42436cf326284b4a7ae5222ac" target="_top" xlink:title="Resumes the targetted task in the stop state.">
<polygon fill="white" stroke="black" points="0,-0.5 0,-19.5 101,-19.5 101,-0.5 0,-0.5"/>
<text text-anchor="middle" x="50.5" y="-7.5" font-family="Helvetica,sans-Serif" font-size="10.00">Rltos_task_resume</text>
</a>
</g>
</g>
<!-- Node11&#45;&gt;Node12 -->
<g id="edge11" class="edge">
<title>Node11&#45;&gt;Node12</title>
<path fill="none" stroke="midnightblue" d="M148.6,-10C133.42,-10 116.55,-10 101.18,-10"/>
<polygon fill="midnightblue" stroke="midnightblue" points="148.79,-13.5 158.79,-10 148.79,-6.5 148.79,-13.5"/>
</g>
</g>
</svg>
