<?xml version="1.0" encoding="UTF-8" standalone="no"?>
<!DOCTYPE svg PUBLIC "-//W3C//DTD SVG 1.1//EN"
 "http://www.w3.org/Graphics/SVG/1.1/DTD/svg11.dtd">
<!-- Generated by graphviz version 2.49.2 (20211016.1639)
 -->
<!-- Title: Rltos_task_stop Pages: 1 -->
<svg width="532pt" height="85pt"
 viewBox="0.00 0.00 532.00 85.00" xmlns="http://www.w3.org/2000/svg" xmlns:xlink="http://www.w3.org/1999/xlink">
<g id="graph0" class="graph" transform="scale(1 1) rotate(0) translate(4 81)">
<title>Rltos_task_stop</title>
<polygon fill="white" stroke="transparent" points="-4,4 -4,-81 528,-81 528,4 -4,4"/>
<!-- Node1 -->
<g id="node1" class="node">
<title>Node1</title>
<g id="a_node1"><a xlink:title="Stops the targetted task indefinitely.">
<polygon fill="#bfbfbf" stroke="black" points="0,-19.5 0,-38.5 87,-38.5 87,-19.5 0,-19.5"/>
<text text-anchor="middle" x="43.5" y="-26.5" font-family="Helvetica,sans-Serif" font-size="10.00">Rltos_task_stop</text>
</a>
</g>
</g>
<!-- Node2 -->
<g id="node2" class="node">
<title>Node2</title>
<g id="a_node2"><a xlink:href="group___rltos__task__scheduler__api.html#gaa65328e4b21083ff31b9ab00088bba47" target="_top" xlink:title="Function used to append the task to the stopped list.">
<polygon fill="white" stroke="black" points="141,-38.5 141,-57.5 237,-57.5 237,-38.5 141,-38.5"/>
<text text-anchor="middle" x="189" y="-45.5" font-family="Helvetica,sans-Serif" font-size="10.00">Task_set_stopped</text>
</a>
</g>
</g>
<!-- Node1&#45;&gt;Node2 -->
<g id="edge1" class="edge">
<title>Node1&#45;&gt;Node2</title>
<path fill="none" stroke="midnightblue" d="M87.17,-34.65C100.93,-36.47 116.41,-38.52 131.03,-40.46"/>
<polygon fill="midnightblue" stroke="midnightblue" points="130.61,-43.93 140.98,-41.77 131.53,-36.99 130.61,-43.93"/>
</g>
<!-- Node6 -->
<g id="node6" class="node">
<title>Node6</title>
<g id="a_node6"><a xlink:href="group___rltos__task__scheduler__api.html#ga4648697c86601dd2628cdd3fd173d583" target="_top" xlink:title="if task_to_check is the current task &#45; calls yield.">
<polygon fill="white" stroke="black" points="123,-0.5 123,-19.5 255,-19.5 255,-0.5 123,-0.5"/>
<text text-anchor="middle" x="189" y="-7.5" font-family="Helvetica,sans-Serif" font-size="10.00">Task_yield_if_current_task</text>
</a>
</g>
</g>
<!-- Node1&#45;&gt;Node6 -->
<g id="edge5" class="edge">
<title>Node1&#45;&gt;Node6</title>
<path fill="none" stroke="midnightblue" d="M87.17,-23.35C95.33,-22.27 104.1,-21.11 112.93,-19.94"/>
<polygon fill="midnightblue" stroke="midnightblue" points="113.45,-23.4 122.91,-18.62 112.54,-16.46 113.45,-23.4"/>
</g>
<!-- Node3 -->
<g id="node3" class="node">
<title>Node3</title>
<g id="a_node3"><a xlink:href="group___rltos__task__scheduler__prv.html#ga28f6d69d82ff510be23a1a401d5d42a9" target="_top" xlink:title="Function used to append task to a task list.">
<polygon fill="white" stroke="black" points="296,-57.5 296,-76.5 402,-76.5 402,-57.5 296,-57.5"/>
<text text-anchor="middle" x="349" y="-64.5" font-family="Helvetica,sans-Serif" font-size="10.00">Task_append_to_list</text>
</a>
</g>
</g>
<!-- Node2&#45;&gt;Node3 -->
<g id="edge2" class="edge">
<title>Node2&#45;&gt;Node3</title>
<path fill="none" stroke="midnightblue" d="M237.41,-53.7C252.54,-55.52 269.53,-57.56 285.57,-59.49"/>
<polygon fill="midnightblue" stroke="midnightblue" points="285.59,-63.02 295.94,-60.74 286.43,-56.07 285.59,-63.02"/>
</g>
<!-- Node4 -->
<g id="node4" class="node">
<title>Node4</title>
<g id="a_node4"><a xlink:href="group___rltos__task__scheduler__prv.html#ga421dbb81487cd2fdc1fd06b1407eae5b" target="_top" xlink:title="Function used to remove task from a task list.">
<polygon fill="white" stroke="black" points="291,-19.5 291,-38.5 407,-38.5 407,-19.5 291,-19.5"/>
<text text-anchor="middle" x="349" y="-26.5" font-family="Helvetica,sans-Serif" font-size="10.00">Task_remove_from_list</text>
</a>
</g>
</g>
<!-- Node2&#45;&gt;Node4 -->
<g id="edge3" class="edge">
<title>Node2&#45;&gt;Node4</title>
<path fill="none" stroke="midnightblue" d="M237.41,-42.3C251.07,-40.66 266.24,-38.83 280.86,-37.07"/>
<polygon fill="midnightblue" stroke="midnightblue" points="281.36,-40.54 290.87,-35.87 280.52,-33.59 281.36,-40.54"/>
</g>
<!-- Node5 -->
<g id="node5" class="node">
<title>Node5</title>
<g id="a_node5"><a xlink:href="group___rltos__task__scheduler__prv.html#ga6f098dd7382a94e001bdeeadd29ae7bf" target="_top" xlink:title="Function used to check if a task is contained within the task list or not.">
<polygon fill="white" stroke="black" points="443,-19.5 443,-38.5 524,-38.5 524,-19.5 443,-19.5"/>
<text text-anchor="middle" x="483.5" y="-26.5" font-family="Helvetica,sans-Serif" font-size="10.00">Task_is_in_list</text>
</a>
</g>
</g>
<!-- Node4&#45;&gt;Node5 -->
<g id="edge4" class="edge">
<title>Node4&#45;&gt;Node5</title>
<path fill="none" stroke="midnightblue" d="M407.35,-29C415.71,-29 424.26,-29 432.46,-29"/>
<polygon fill="midnightblue" stroke="midnightblue" points="432.62,-32.5 442.62,-29 432.62,-25.5 432.62,-32.5"/>
</g>
</g>
</svg>
