<?xml version="1.0" encoding="UTF-8" standalone="no"?>
<!DOCTYPE svg PUBLIC "-//W3C//DTD SVG 1.1//EN"
 "http://www.w3.org/Graphics/SVG/1.1/DTD/svg11.dtd">
<!-- Generated by graphviz version 2.49.2 (20211016.1639)
 -->
<!-- Title: Task_scheduler_init Pages: 1 -->
<svg width="373pt" height="66pt"
 viewBox="0.00 0.00 373.00 66.00" xmlns="http://www.w3.org/2000/svg" xmlns:xlink="http://www.w3.org/1999/xlink">
<g id="graph0" class="graph" transform="scale(1 1) rotate(0) translate(4 62)">
<title>Task_scheduler_init</title>
<polygon fill="white" stroke="transparent" points="-4,4 -4,-62 369,-62 369,4 -4,4"/>
<!-- Node1 -->
<g id="node1" class="node">
<title>Node1</title>
<g id="a_node1"><a xlink:title="Function to initialise the current task on entry to the scheduler &amp; create + add the idle task to the...">
<polygon fill="#bfbfbf" stroke="black" points="0,-19.5 0,-38.5 103,-38.5 103,-19.5 0,-19.5"/>
<text text-anchor="middle" x="51.5" y="-26.5" font-family="Helvetica,sans-Serif" font-size="10.00">Task_scheduler_init</text>
</a>
</g>
</g>
<!-- Node2 -->
<g id="node2" class="node">
<title>Node2</title>
<g id="a_node2"><a xlink:href="group___rltos__task__scheduler__prv.html#gaaf0d6196a9bd2cf22c5fd38b0a6725bf" target="_top" xlink:title="Idle task function &#45; calls hook function on each execution.">
<polygon fill="white" stroke="black" points="139,-38.5 139,-57.5 231,-57.5 231,-38.5 139,-38.5"/>
<text text-anchor="middle" x="185" y="-45.5" font-family="Helvetica,sans-Serif" font-size="10.00">Rltos_idle_thread</text>
</a>
</g>
</g>
<!-- Node1&#45;&gt;Node2 -->
<g id="edge1" class="edge">
<title>Node1&#45;&gt;Node2</title>
<path fill="none" stroke="midnightblue" d="M103.34,-36.35C111.67,-37.55 120.33,-38.8 128.75,-40.02"/>
<polygon fill="midnightblue" stroke="midnightblue" points="128.47,-43.51 138.87,-41.48 129.47,-36.59 128.47,-43.51"/>
</g>
<!-- Node3 -->
<g id="node3" class="node">
<title>Node3</title>
<g id="a_node3"><a xlink:href="group___rltos__task__scheduler__api.html#ga6bbde0c90e5e572e8131cc7652d8dd78" target="_top" xlink:title="Function used to set initial stack pointer, task entry function &amp; clear pointers to next and prev nod...">
<polygon fill="white" stroke="black" points="157,-0.5 157,-19.5 213,-19.5 213,-0.5 157,-0.5"/>
<text text-anchor="middle" x="185" y="-7.5" font-family="Helvetica,sans-Serif" font-size="10.00">Task_init</text>
</a>
</g>
</g>
<!-- Node1&#45;&gt;Node3 -->
<g id="edge2" class="edge">
<title>Node1&#45;&gt;Node3</title>
<path fill="none" stroke="midnightblue" d="M103.34,-21.65C117.85,-19.56 133.39,-17.31 146.92,-15.36"/>
<polygon fill="midnightblue" stroke="midnightblue" points="147.42,-18.82 156.82,-13.93 146.42,-11.89 147.42,-18.82"/>
</g>
<!-- Node4 -->
<g id="node4" class="node">
<title>Node4</title>
<g id="a_node4"><a xlink:href="group___rltos__task__scheduler__prv.html#gab915c720a9360b7be5bb388002b6ebcd" target="_top" xlink:title="Function used to insert a task in a sorted task list.">
<polygon fill="white" stroke="black" points="267,-0.5 267,-19.5 365,-19.5 365,-0.5 267,-0.5"/>
<text text-anchor="middle" x="316" y="-7.5" font-family="Helvetica,sans-Serif" font-size="10.00">Task_insert_in_list</text>
</a>
</g>
</g>
<!-- Node3&#45;&gt;Node4 -->
<g id="edge3" class="edge">
<title>Node3&#45;&gt;Node4</title>
<path fill="none" stroke="midnightblue" d="M213.04,-10C225.71,-10 241.32,-10 256.49,-10"/>
<polygon fill="midnightblue" stroke="midnightblue" points="256.88,-13.5 266.88,-10 256.88,-6.5 256.88,-13.5"/>
</g>
</g>
</svg>
