<?xml version="1.0" encoding="UTF-8" standalone="no"?>
<!DOCTYPE svg PUBLIC "-//W3C//DTD SVG 1.1//EN"
 "http://www.w3.org/Graphics/SVG/1.1/DTD/svg11.dtd">
<!-- Generated by graphviz version 2.49.2 (20211016.1639)
 -->
<!-- Title: Rltos_scheduler_switch_context Pages: 1 -->
<svg width="228pt" height="66pt"
 viewBox="0.00 0.00 228.00 66.00" xmlns="http://www.w3.org/2000/svg" xmlns:xlink="http://www.w3.org/1999/xlink">
<g id="graph0" class="graph" transform="scale(1 1) rotate(0) translate(4 62)">
<title>Rltos_scheduler_switch_context</title>
<polygon fill="white" stroke="transparent" points="-4,4 -4,-62 224,-62 224,4 -4,4"/>
<!-- Node1 -->
<g id="node1" class="node">
<title>Node1</title>
<g id="a_node1"><a xlink:title="implementation of rltos context switch &#45; called from rltos_scheduler_asm.asm">
<polygon fill="#bfbfbf" stroke="black" points="101,-14 101,-44 220,-44 220,-14 101,-14"/>
<text text-anchor="start" x="109" y="-32" font-family="Helvetica,sans-Serif" font-size="10.00">Rltos_scheduler_switch</text>
<text text-anchor="middle" x="160.5" y="-21" font-family="Helvetica,sans-Serif" font-size="10.00">_context</text>
</a>
</g>
</g>
<!-- Node2 -->
<g id="node2" class="node">
<title>Node2</title>
<g id="a_node2"><a xlink:href="rltos__scheduler__asm__dummy_8c.html#a3e46e11736a8372c7fbdda0fface2eea" target="_top" xlink:title="dummy definition of function referenced in source that is typically provided in asm">
<polygon fill="white" stroke="black" points="2.5,-38.5 2.5,-57.5 62.5,-57.5 62.5,-38.5 2.5,-38.5"/>
<text text-anchor="middle" x="32.5" y="-45.5" font-family="Helvetica,sans-Serif" font-size="10.00">Rltos_tick</text>
</a>
</g>
</g>
<!-- Node1&#45;&gt;Node2 -->
<g id="edge1" class="edge">
<title>Node1&#45;&gt;Node2</title>
<path fill="none" stroke="midnightblue" d="M90.99,-39.33C81.07,-40.83 71.33,-42.29 62.78,-43.59"/>
<polygon fill="midnightblue" stroke="midnightblue" points="91.56,-42.78 100.93,-37.83 90.52,-35.86 91.56,-42.78"/>
</g>
<!-- Node3 -->
<g id="node3" class="node">
<title>Node3</title>
<g id="a_node3"><a xlink:href="rltos__scheduler__asm__dummy_8c.html#a6077bc6263d8f5d904b5bc949c97ec1c" target="_top" xlink:title="dummy definition of function referenced in source that is typically provided in asm">
<polygon fill="white" stroke="black" points="0,-0.5 0,-19.5 65,-19.5 65,-0.5 0,-0.5"/>
<text text-anchor="middle" x="32.5" y="-7.5" font-family="Helvetica,sans-Serif" font-size="10.00">Rltos_yield</text>
</a>
</g>
</g>
<!-- Node1&#45;&gt;Node3 -->
<g id="edge2" class="edge">
<title>Node1&#45;&gt;Node3</title>
<path fill="none" stroke="midnightblue" d="M90.79,-18.64C81.84,-17.29 73.04,-15.96 65.13,-14.77"/>
<polygon fill="midnightblue" stroke="midnightblue" points="90.52,-22.14 100.93,-20.17 91.56,-15.22 90.52,-22.14"/>
</g>
</g>
</svg>
