<?xml version="1.0" encoding="UTF-8" standalone="no"?>
<!DOCTYPE svg PUBLIC "-//W3C//DTD SVG 1.1//EN"
 "http://www.w3.org/Graphics/SVG/1.1/DTD/svg11.dtd">
<!-- Generated by graphviz version 2.49.2 (20211016.1639)
 -->
<!-- Title: Task_init Pages: 1 -->
<svg width="348pt" height="116pt"
 viewBox="0.00 0.00 348.00 115.50" xmlns="http://www.w3.org/2000/svg" xmlns:xlink="http://www.w3.org/1999/xlink">
<g id="graph0" class="graph" transform="scale(1 1) rotate(0) translate(4 111.5)">
<title>Task_init</title>
<polygon fill="white" stroke="transparent" points="-4,4 -4,-111.5 344,-111.5 344,4 -4,4"/>
<!-- Node1 -->
<g id="node1" class="node">
<title>Node1</title>
<g id="a_node1"><a xlink:title="Function used to set initial stack pointer, task entry function &amp; clear pointers to next and prev nod...">
<polygon fill="#bfbfbf" stroke="black" points="0,-38.5 0,-57.5 56,-57.5 56,-38.5 0,-38.5"/>
<text text-anchor="middle" x="28" y="-45.5" font-family="Helvetica,sans-Serif" font-size="10.00">Task_init</text>
</a>
</g>
</g>
<!-- Node2 -->
<g id="node2" class="node">
<title>Node2</title>
<g id="a_node2"><a xlink:href="group___rltos__task__scheduler__api.html#gace63a5440ce856ed27f2c9dc07331b67" target="_top" xlink:title="Function used to insert the task to the running list.">
<polygon fill="white" stroke="black" points="93.5,-57.5 93.5,-76.5 186.5,-76.5 186.5,-57.5 93.5,-57.5"/>
<text text-anchor="middle" x="140" y="-64.5" font-family="Helvetica,sans-Serif" font-size="10.00">Task_set_running</text>
</a>
</g>
</g>
<!-- Node1&#45;&gt;Node2 -->
<g id="edge1" class="edge">
<title>Node1&#45;&gt;Node2</title>
<path fill="none" stroke="midnightblue" d="M56.19,-52.7C64.41,-54.12 73.76,-55.73 83.14,-57.35"/>
<polygon fill="midnightblue" stroke="midnightblue" points="82.84,-60.85 93.29,-59.1 84.03,-53.95 82.84,-60.85"/>
</g>
<!-- Node5 -->
<g id="node5" class="node">
<title>Node5</title>
<g id="a_node5"><a xlink:href="group___rltos__task__scheduler__api.html#ga52008f4c16a074cacada44393f18ef3b" target="_top" xlink:title="Function used to append the task to the stopped list.">
<polygon fill="white" stroke="black" points="92,-19.5 92,-38.5 188,-38.5 188,-19.5 92,-19.5"/>
<text text-anchor="middle" x="140" y="-26.5" font-family="Helvetica,sans-Serif" font-size="10.00">Task_set_stopped</text>
</a>
</g>
</g>
<!-- Node1&#45;&gt;Node5 -->
<g id="edge4" class="edge">
<title>Node1&#45;&gt;Node5</title>
<path fill="none" stroke="midnightblue" d="M56.19,-43.3C64.05,-41.95 72.94,-40.41 81.9,-38.86"/>
<polygon fill="midnightblue" stroke="midnightblue" points="82.74,-42.27 91.99,-37.12 81.54,-35.37 82.74,-42.27"/>
</g>
<!-- Node3 -->
<g id="node3" class="node">
<title>Node3</title>
<g id="a_node3"><a xlink:href="group___rltos__task__scheduler__prv.html#ga70d365501a692d51bd9f0fecb49a0f1d" target="_top" xlink:title="Function used to insert a task into a list directly after the index.">
<polygon fill="white" stroke="black" points="233,-77 233,-107 331,-107 331,-77 233,-77"/>
<text text-anchor="start" x="241" y="-95" font-family="Helvetica,sans-Serif" font-size="10.00">Task_insert_in_list</text>
<text text-anchor="middle" x="282" y="-84" font-family="Helvetica,sans-Serif" font-size="10.00">_after_index</text>
</a>
</g>
</g>
<!-- Node2&#45;&gt;Node3 -->
<g id="edge2" class="edge">
<title>Node2&#45;&gt;Node3</title>
<path fill="none" stroke="midnightblue" d="M186.84,-75.19C198.3,-77.23 210.75,-79.46 222.73,-81.59"/>
<polygon fill="midnightblue" stroke="midnightblue" points="222.19,-85.05 232.65,-83.37 223.42,-78.16 222.19,-85.05"/>
</g>
<!-- Node4 -->
<g id="node4" class="node">
<title>Node4</title>
<g id="a_node4"><a xlink:href="group___rltos__task__scheduler__prv.html#gae76b463d2edcb6299d3cf3d2c175055b" target="_top" xlink:title="Function used to remove task from a task list.">
<polygon fill="white" stroke="black" points="224,-38.5 224,-57.5 340,-57.5 340,-38.5 224,-38.5"/>
<text text-anchor="middle" x="282" y="-45.5" font-family="Helvetica,sans-Serif" font-size="10.00">Task_remove_from_list</text>
</a>
</g>
</g>
<!-- Node2&#45;&gt;Node4 -->
<g id="edge3" class="edge">
<title>Node2&#45;&gt;Node4</title>
<path fill="none" stroke="midnightblue" d="M186.84,-60.78C195.42,-59.61 204.54,-58.38 213.61,-57.15"/>
<polygon fill="midnightblue" stroke="midnightblue" points="214.35,-60.58 223.79,-55.76 213.41,-53.64 214.35,-60.58"/>
</g>
<!-- Node5&#45;&gt;Node4 -->
<g id="edge6" class="edge">
<title>Node5&#45;&gt;Node4</title>
<path fill="none" stroke="midnightblue" d="M188.01,-35.38C196.23,-36.5 204.93,-37.68 213.57,-38.85"/>
<polygon fill="midnightblue" stroke="midnightblue" points="213.29,-42.34 223.67,-40.22 214.23,-35.41 213.29,-42.34"/>
</g>
<!-- Node6 -->
<g id="node6" class="node">
<title>Node6</title>
<g id="a_node6"><a xlink:href="group___rltos__task__scheduler__prv.html#ga9951add830408f2b732d52e13c3ee0e9" target="_top" xlink:title="Function used to append task to a task list.">
<polygon fill="white" stroke="black" points="229,-0.5 229,-19.5 335,-19.5 335,-0.5 229,-0.5"/>
<text text-anchor="middle" x="282" y="-7.5" font-family="Helvetica,sans-Serif" font-size="10.00">Task_append_to_list</text>
</a>
</g>
</g>
<!-- Node5&#45;&gt;Node6 -->
<g id="edge5" class="edge">
<title>Node5&#45;&gt;Node6</title>
<path fill="none" stroke="midnightblue" d="M188.01,-22.62C197.78,-21.29 208.22,-19.88 218.45,-18.49"/>
<polygon fill="midnightblue" stroke="midnightblue" points="219.14,-21.93 228.57,-17.12 218.19,-14.99 219.14,-21.93"/>
</g>
</g>
</svg>
