<?xml version="1.0" encoding="UTF-8" standalone="no"?>
<!DOCTYPE svg PUBLIC "-//W3C//DTD SVG 1.1//EN"
 "http://www.w3.org/Graphics/SVG/1.1/DTD/svg11.dtd">
<!-- Generated by graphviz version 2.49.2 (20211016.1639)
 -->
<!-- Title: Queue Pages: 1 -->
<svg width="118pt" height="64pt"
 viewBox="0.00 0.00 118.00 64.00" xmlns="http://www.w3.org/2000/svg" xmlns:xlink="http://www.w3.org/1999/xlink">
<g id="graph0" class="graph" transform="scale(1 1) rotate(0) translate(4 60)">
<title>Queue</title>
<polygon fill="white" stroke="transparent" points="-4,4 -4,-60 114,-60 114,4 -4,4"/>
<!-- Node1 -->
<g id="node1" class="node">
<title>Node1</title>
<g id="a_node1"><a xlink:title=" ">
<polygon fill="#bfbfbf" stroke="black" points="45,-37 0,-37 0,-18 45,-18 45,-37"/>
<text text-anchor="middle" x="22.5" y="-25" font-family="Helvetica,sans-Serif" font-size="10.00">Queue</text>
</a>
</g>
</g>
<!-- Node3 -->
<g id="node2" class="node">
<title>Node3</title>
<g id="a_node2"><a xlink:href="group___rltos__queue__api.html" target="_top" xlink:title=" ">
<polygon fill="white" stroke="black" points="110,-56 81,-56 81,-37 110,-37 110,-56"/>
<text text-anchor="middle" x="95.5" y="-44" font-family="Helvetica,sans-Serif" font-size="10.00">api</text>
</a>
</g>
</g>
<!-- Node1&#45;&gt;Node3 -->
<g id="edge2" class="edge">
<title>Node1&#45;&gt;Node3</title>
<path fill="none" stroke="black" d="M55.08,-35.95C64.09,-38.36 73.43,-40.86 80.76,-42.82"/>
<polygon fill="black" stroke="black" points="55.75,-32.51 45.19,-33.3 53.94,-39.27 55.75,-32.51"/>
</g>
<!-- Node2 -->
<g id="node3" class="node">
<title>Node2</title>
<g id="a_node3"><a xlink:href="group___rltos__queue__prv.html" target="_top" xlink:title=" ">
<polygon fill="white" stroke="black" points="110,-19 81,-19 81,0 110,0 110,-19"/>
<text text-anchor="middle" x="95.5" y="-7" font-family="Helvetica,sans-Serif" font-size="10.00">prv</text>
</a>
</g>
</g>
<!-- Node1&#45;&gt;Node2 -->
<g id="edge1" class="edge">
<title>Node1&#45;&gt;Node2</title>
<path fill="none" stroke="black" d="M55.08,-19.49C64.09,-17.21 73.43,-14.84 80.76,-12.98"/>
<polygon fill="black" stroke="black" points="54.02,-16.15 45.19,-22 55.74,-22.94 54.02,-16.15"/>
</g>
</g>
</svg>
