<?xml version="1.0" encoding="UTF-8" standalone="no"?>
<!DOCTYPE svg PUBLIC "-//W3C//DTD SVG 1.1//EN"
 "http://www.w3.org/Graphics/SVG/1.1/DTD/svg11.dtd">
<!-- Generated by graphviz version 2.49.2 (20211016.1639)
 -->
<!-- Title: Task Pages: 1 -->
<svg width="211pt" height="27pt"
 viewBox="0.00 0.00 211.00 27.00" xmlns="http://www.w3.org/2000/svg" xmlns:xlink="http://www.w3.org/1999/xlink">
<g id="graph0" class="graph" transform="scale(1 1) rotate(0) translate(4 23)">
<title>Task</title>
<polygon fill="white" stroke="transparent" points="-4,4 -4,-23 207,-23 207,4 -4,4"/>
<!-- Node2 -->
<g id="node1" class="node">
<title>Node2</title>
<g id="a_node1"><a xlink:href="group___rltos__core.html" target="_top" xlink:title=" ">
<polygon fill="white" stroke="black" points="37,-19 0,-19 0,0 37,0 37,-19"/>
<text text-anchor="middle" x="18.5" y="-7" font-family="Helvetica,sans-Serif" font-size="10.00">Core</text>
</a>
</g>
</g>
<!-- Node1 -->
<g id="node2" class="node">
<title>Node1</title>
<g id="a_node2"><a xlink:title=" ">
<polygon fill="#bfbfbf" stroke="black" points="111,-19 73,-19 73,0 111,0 111,-19"/>
<text text-anchor="middle" x="92" y="-7" font-family="Helvetica,sans-Serif" font-size="10.00">Task</text>
</a>
</g>
</g>
<!-- Node2&#45;&gt;Node1 -->
<g id="edge1" class="edge">
<title>Node2&#45;&gt;Node1</title>
<path fill="none" stroke="black" d="M47.18,-9.5C55.77,-9.5 65.01,-9.5 72.78,-9.5"/>
<polygon fill="black" stroke="black" points="47.17,-6 37.17,-9.5 47.17,-13 47.17,-6"/>
</g>
<!-- Node3 -->
<g id="node3" class="node">
<title>Node3</title>
<g id="a_node3"><a xlink:href="group___rltos__task__api.html" target="_top" xlink:title=" ">
<polygon fill="white" stroke="black" points="203,-19 147,-19 147,0 203,0 203,-19"/>
<text text-anchor="middle" x="175" y="-7" font-family="Helvetica,sans-Serif" font-size="10.00">Task API</text>
</a>
</g>
</g>
<!-- Node1&#45;&gt;Node3 -->
<g id="edge2" class="edge">
<title>Node1&#45;&gt;Node3</title>
<path fill="none" stroke="black" d="M121.6,-9.5C129.78,-9.5 138.68,-9.5 146.77,-9.5"/>
<polygon fill="black" stroke="black" points="121.38,-6 111.38,-9.5 121.38,-13 121.38,-6"/>
</g>
</g>
</svg>
