<?xml version="1.0" encoding="UTF-8" standalone="no"?>
<!DOCTYPE svg PUBLIC "-//W3C//DTD SVG 1.1//EN"
 "http://www.w3.org/Graphics/SVG/1.1/DTD/svg11.dtd">
<!-- Generated by graphviz version 2.49.2 (20211016.1639)
 -->
<!-- Title: Task_set_stopped Pages: 1 -->
<svg width="527pt" height="116pt"
 viewBox="0.00 0.00 527.00 115.50" xmlns="http://www.w3.org/2000/svg" xmlns:xlink="http://www.w3.org/1999/xlink">
<g id="graph0" class="graph" transform="scale(1 1) rotate(0) translate(4 111.5)">
<title>Task_set_stopped</title>
<polygon fill="white" stroke="transparent" points="-4,4 -4,-111.5 523,-111.5 523,4 -4,4"/>
<!-- Node1 -->
<g id="node1" class="node">
<title>Node1</title>
<g id="a_node1"><a xlink:title="Function used to append the task to the stopped list.">
<polygon fill="#bfbfbf" stroke="black" points="423,-50 423,-69 519,-69 519,-50 423,-50"/>
<text text-anchor="middle" x="471" y="-57" font-family="Helvetica,sans-Serif" font-size="10.00">Task_set_stopped</text>
</a>
</g>
</g>
<!-- Node2 -->
<g id="node2" class="node">
<title>Node2</title>
<g id="a_node2"><a xlink:href="group___rltos__task__api.html#ga8adaf8dcff5d26b382e45361d7f2c874" target="_top" xlink:title="Stops the targetted task indefinitely.">
<polygon fill="white" stroke="black" points="286.5,-88 286.5,-107 373.5,-107 373.5,-88 286.5,-88"/>
<text text-anchor="middle" x="330" y="-95" font-family="Helvetica,sans-Serif" font-size="10.00">Rltos_task_stop</text>
</a>
</g>
</g>
<!-- Node1&#45;&gt;Node2 -->
<g id="edge1" class="edge">
<title>Node1&#45;&gt;Node2</title>
<path fill="none" stroke="midnightblue" d="M425.2,-71.75C406.05,-76.98 384.01,-83.01 366.06,-87.91"/>
<polygon fill="midnightblue" stroke="midnightblue" points="426.2,-75.1 434.92,-69.09 424.36,-68.35 426.2,-75.1"/>
</g>
<!-- Node3 -->
<g id="node3" class="node">
<title>Node3</title>
<g id="a_node3"><a xlink:href="group___rltos__task__scheduler__api.html#gaf77c7c3425845b054fd8fc2ddc9ea57a" target="_top" xlink:title="Function used to set initial stack pointer, task entry function &amp; clear pointers to next and prev nod...">
<polygon fill="white" stroke="black" points="302,-50 302,-69 358,-69 358,-50 302,-50"/>
<text text-anchor="middle" x="330" y="-57" font-family="Helvetica,sans-Serif" font-size="10.00">Task_init</text>
</a>
</g>
</g>
<!-- Node1&#45;&gt;Node3 -->
<g id="edge2" class="edge">
<title>Node1&#45;&gt;Node3</title>
<path fill="none" stroke="midnightblue" d="M412.89,-59.5C393.95,-59.5 373.74,-59.5 358.14,-59.5"/>
<polygon fill="midnightblue" stroke="midnightblue" points="412.94,-63 422.94,-59.5 412.94,-56 412.94,-63"/>
</g>
<!-- Node7 -->
<g id="node7" class="node">
<title>Node7</title>
<g id="a_node7"><a xlink:href="group___rltos__task__scheduler__api.html#gaf04d49ef43d334ab6fb5e0345f82e332" target="_top" xlink:title="Function used to set the current task to wait on an object (uses auxillary list)">
<polygon fill="white" stroke="black" points="273,-0.5 273,-30.5 387,-30.5 387,-0.5 273,-0.5"/>
<text text-anchor="start" x="281" y="-18.5" font-family="Helvetica,sans-Serif" font-size="10.00">Task_set_current_wait</text>
<text text-anchor="middle" x="330" y="-7.5" font-family="Helvetica,sans-Serif" font-size="10.00">_on_object</text>
</a>
</g>
</g>
<!-- Node1&#45;&gt;Node7 -->
<g id="edge6" class="edge">
<title>Node1&#45;&gt;Node7</title>
<path fill="none" stroke="midnightblue" d="M430.2,-46.9C414.11,-41.81 395.4,-35.88 378.59,-30.57"/>
<polygon fill="midnightblue" stroke="midnightblue" points="429.25,-50.27 439.84,-49.95 431.36,-43.6 429.25,-50.27"/>
</g>
<!-- Node4 -->
<g id="node4" class="node">
<title>Node4</title>
<g id="a_node4"><a xlink:href="group___rltos__task__api.html#ga174b5e621bd6dac5d8c7d9a33ebb218d" target="_top" xlink:title="Initialises task control structure, stack &amp; appends to task list.">
<polygon fill="white" stroke="black" points="138,-69 138,-88 233,-88 233,-69 138,-69"/>
<text text-anchor="middle" x="185.5" y="-76" font-family="Helvetica,sans-Serif" font-size="10.00">Rltos_task_create</text>
</a>
</g>
</g>
<!-- Node3&#45;&gt;Node4 -->
<g id="edge3" class="edge">
<title>Node3&#45;&gt;Node4</title>
<path fill="none" stroke="midnightblue" d="M291.79,-64.46C273.87,-66.85 252.19,-69.74 233.17,-72.28"/>
<polygon fill="midnightblue" stroke="midnightblue" points="292.41,-67.91 301.86,-63.12 291.49,-60.97 292.41,-67.91"/>
</g>
<!-- Node5 -->
<g id="node5" class="node">
<title>Node5</title>
<g id="a_node5"><a xlink:href="group___rltos__task__scheduler__api.html#gae1bd8e8e3af9f778a719fb7a086451f1" target="_top" xlink:title="Function to initialise the current task on entry to the scheduler &amp; create + add the idle task to the...">
<polygon fill="white" stroke="black" points="134,-31 134,-50 237,-50 237,-31 134,-31"/>
<text text-anchor="middle" x="185.5" y="-38" font-family="Helvetica,sans-Serif" font-size="10.00">Task_scheduler_init</text>
</a>
</g>
</g>
<!-- Node3&#45;&gt;Node5 -->
<g id="edge4" class="edge">
<title>Node3&#45;&gt;Node5</title>
<path fill="none" stroke="midnightblue" d="M291.93,-54.56C275.23,-52.33 255.25,-49.67 237.19,-47.26"/>
<polygon fill="midnightblue" stroke="midnightblue" points="291.49,-58.03 301.86,-55.88 292.41,-51.09 291.49,-58.03"/>
</g>
<!-- Node6 -->
<g id="node6" class="node">
<title>Node6</title>
<g id="a_node6"><a xlink:href="group___rltos__task__api.html#gac44bc5223fd6d5d7f635776b1eb6231b" target="_top" xlink:title="Enters RLTOS kernel and starts scheduler timer. Should not return from this function,...">
<polygon fill="white" stroke="black" points="0,-31 0,-50 98,-50 98,-31 0,-31"/>
<text text-anchor="middle" x="49" y="-38" font-family="Helvetica,sans-Serif" font-size="10.00">Rltos_kernel_enter</text>
</a>
</g>
</g>
<!-- Node5&#45;&gt;Node6 -->
<g id="edge5" class="edge">
<title>Node5&#45;&gt;Node6</title>
<path fill="none" stroke="midnightblue" d="M123.45,-40.5C115,-40.5 106.43,-40.5 98.25,-40.5"/>
<polygon fill="midnightblue" stroke="midnightblue" points="123.65,-44 133.65,-40.5 123.65,-37 123.65,-44"/>
</g>
</g>
</svg>
