<?xml version="1.0" encoding="UTF-8" standalone="no"?>
<!DOCTYPE svg PUBLIC "-//W3C//DTD SVG 1.1//EN"
 "http://www.w3.org/Graphics/SVG/1.1/DTD/svg11.dtd">
<!-- Generated by graphviz version 2.49.2 (20211016.1639)
 -->
<!-- Title: Task_resume Pages: 1 -->
<svg width="364pt" height="78pt"
 viewBox="0.00 0.00 364.00 77.50" xmlns="http://www.w3.org/2000/svg" xmlns:xlink="http://www.w3.org/1999/xlink">
<g id="graph0" class="graph" transform="scale(1 1) rotate(0) translate(4 73.5)">
<title>Task_resume</title>
<polygon fill="white" stroke="transparent" points="-4,4 -4,-73.5 360,-73.5 360,4 -4,4"/>
<!-- Node1 -->
<g id="node1" class="node">
<title>Node1</title>
<g id="a_node1"><a xlink:title="Function used to set a task running &#45; only if it is stopped (not waiting on an object or idled)">
<polygon fill="#bfbfbf" stroke="black" points="0,-22.5 0,-41.5 75,-41.5 75,-22.5 0,-22.5"/>
<text text-anchor="middle" x="37.5" y="-29.5" font-family="Helvetica,sans-Serif" font-size="10.00">Task_resume</text>
</a>
</g>
</g>
<!-- Node2 -->
<g id="node2" class="node">
<title>Node2</title>
<g id="a_node2"><a xlink:href="group___rltos__task__scheduler__api.html#gace63a5440ce856ed27f2c9dc07331b67" target="_top" xlink:title="Function used to insert the task to the running list.">
<polygon fill="white" stroke="black" points="111,-22.5 111,-41.5 204,-41.5 204,-22.5 111,-22.5"/>
<text text-anchor="middle" x="157.5" y="-29.5" font-family="Helvetica,sans-Serif" font-size="10.00">Task_set_running</text>
</a>
</g>
</g>
<!-- Node1&#45;&gt;Node2 -->
<g id="edge1" class="edge">
<title>Node1&#45;&gt;Node2</title>
<path fill="none" stroke="midnightblue" d="M75.19,-32C83.26,-32 91.99,-32 100.62,-32"/>
<polygon fill="midnightblue" stroke="midnightblue" points="100.67,-35.5 110.67,-32 100.67,-28.5 100.67,-35.5"/>
</g>
<!-- Node3 -->
<g id="node3" class="node">
<title>Node3</title>
<g id="a_node3"><a xlink:href="group___rltos__task__scheduler__prv.html#ga70d365501a692d51bd9f0fecb49a0f1d" target="_top" xlink:title="Function used to insert a task into a list directly after the index.">
<polygon fill="white" stroke="black" points="249,-39 249,-69 347,-69 347,-39 249,-39"/>
<text text-anchor="start" x="257" y="-57" font-family="Helvetica,sans-Serif" font-size="10.00">Task_insert_in_list</text>
<text text-anchor="middle" x="298" y="-46" font-family="Helvetica,sans-Serif" font-size="10.00">_after_index</text>
</a>
</g>
</g>
<!-- Node2&#45;&gt;Node3 -->
<g id="edge2" class="edge">
<title>Node2&#45;&gt;Node3</title>
<path fill="none" stroke="midnightblue" d="M204.23,-39.26C215.33,-41.03 227.33,-42.93 238.91,-44.77"/>
<polygon fill="midnightblue" stroke="midnightblue" points="238.51,-48.25 248.94,-46.37 239.61,-41.34 238.51,-48.25"/>
</g>
<!-- Node4 -->
<g id="node4" class="node">
<title>Node4</title>
<g id="a_node4"><a xlink:href="group___rltos__task__scheduler__prv.html#gae76b463d2edcb6299d3cf3d2c175055b" target="_top" xlink:title="Function used to remove task from a task list.">
<polygon fill="white" stroke="black" points="240,-0.5 240,-19.5 356,-19.5 356,-0.5 240,-0.5"/>
<text text-anchor="middle" x="298" y="-7.5" font-family="Helvetica,sans-Serif" font-size="10.00">Task_remove_from_list</text>
</a>
</g>
</g>
<!-- Node2&#45;&gt;Node4 -->
<g id="edge3" class="edge">
<title>Node2&#45;&gt;Node4</title>
<path fill="none" stroke="midnightblue" d="M204.23,-24.74C212.39,-23.44 221.04,-22.07 229.65,-20.7"/>
<polygon fill="midnightblue" stroke="midnightblue" points="230.38,-24.13 239.7,-19.1 229.28,-17.21 230.38,-24.13"/>
</g>
</g>
</svg>
