<?xml version="1.0" encoding="UTF-8" standalone="no"?>
<!DOCTYPE svg PUBLIC "-//W3C//DTD SVG 1.1//EN"
 "http://www.w3.org/Graphics/SVG/1.1/DTD/svg11.dtd">
<!-- Generated by graphviz version 2.49.2 (20211016.1639)
 -->
<!-- Title: Task list Pages: 1 -->
<svg width="200pt" height="64pt"
 viewBox="0.00 0.00 200.00 64.00" xmlns="http://www.w3.org/2000/svg" xmlns:xlink="http://www.w3.org/1999/xlink">
<g id="graph0" class="graph" transform="scale(1 1) rotate(0) translate(4 60)">
<title>Task list</title>
<polygon fill="white" stroke="transparent" points="-4,4 -4,-60 196,-60 196,4 -4,4"/>
<!-- Node2 -->
<g id="node1" class="node">
<title>Node2</title>
<g id="a_node1"><a xlink:href="group___rltos__task.html" target="_top" xlink:title=" ">
<polygon fill="white" stroke="black" points="38,-37 0,-37 0,-18 38,-18 38,-37"/>
<text text-anchor="middle" x="19" y="-25" font-family="Helvetica,sans-Serif" font-size="10.00">Task</text>
</a>
</g>
</g>
<!-- Node1 -->
<g id="node2" class="node">
<title>Node1</title>
<g id="a_node2"><a xlink:title=" ">
<polygon fill="#bfbfbf" stroke="black" points="127,-37 74,-37 74,-18 127,-18 127,-37"/>
<text text-anchor="middle" x="100.5" y="-25" font-family="Helvetica,sans-Serif" font-size="10.00">Task list</text>
</a>
</g>
</g>
<!-- Node2&#45;&gt;Node1 -->
<g id="edge1" class="edge">
<title>Node2&#45;&gt;Node1</title>
<path fill="none" stroke="black" d="M48.17,-27.5C56.58,-27.5 65.76,-27.5 74,-27.5"/>
<polygon fill="black" stroke="black" points="48.04,-24 38.04,-27.5 48.04,-31 48.04,-24"/>
</g>
<!-- Node4 -->
<g id="node3" class="node">
<title>Node4</title>
<g id="a_node3"><a xlink:href="group___rltos__task__list__api.html" target="_top" xlink:title=" ">
<polygon fill="white" stroke="black" points="192,-56 163,-56 163,-37 192,-37 192,-56"/>
<text text-anchor="middle" x="177.5" y="-44" font-family="Helvetica,sans-Serif" font-size="10.00">api</text>
</a>
</g>
</g>
<!-- Node1&#45;&gt;Node4 -->
<g id="edge3" class="edge">
<title>Node1&#45;&gt;Node4</title>
<path fill="none" stroke="black" d="M137.03,-36.5C146.14,-38.81 155.4,-41.15 162.66,-42.99"/>
<polygon fill="black" stroke="black" points="137.86,-33.1 127.31,-34.04 136.14,-39.89 137.86,-33.1"/>
</g>
<!-- Node3 -->
<g id="node4" class="node">
<title>Node3</title>
<g id="a_node4"><a xlink:href="group___rltos__task__list__prv.html" target="_top" xlink:title=" ">
<polygon fill="white" stroke="black" points="192,-19 163,-19 163,0 192,0 192,-19"/>
<text text-anchor="middle" x="177.5" y="-7" font-family="Helvetica,sans-Serif" font-size="10.00">prv</text>
</a>
</g>
</g>
<!-- Node1&#45;&gt;Node3 -->
<g id="edge2" class="edge">
<title>Node1&#45;&gt;Node3</title>
<path fill="none" stroke="black" d="M137.32,-18.9C146.33,-16.74 155.48,-14.55 162.66,-12.82"/>
<polygon fill="black" stroke="black" points="136.22,-15.57 127.31,-21.31 137.85,-22.37 136.22,-15.57"/>
</g>
</g>
</svg>
