<?xml version="1.0" encoding="UTF-8" standalone="no"?>
<!DOCTYPE svg PUBLIC "-//W3C//DTD SVG 1.1//EN"
 "http://www.w3.org/Graphics/SVG/1.1/DTD/svg11.dtd">
<!-- Generated by graphviz version 2.49.2 (20211016.1639)
 -->
<!-- Title: Task_set_current_wait_on_object Pages: 1 -->
<svg width="566pt" height="120pt"
 viewBox="0.00 0.00 566.00 119.89" xmlns="http://www.w3.org/2000/svg" xmlns:xlink="http://www.w3.org/1999/xlink">
<g id="graph0" class="graph" transform="scale(1 1) rotate(0) translate(4 115.89)">
<title>Task_set_current_wait_on_object</title>
<polygon fill="white" stroke="transparent" points="-4,4 -4,-115.89 562,-115.89 562,4 -4,4"/>
<!-- Node1 -->
<g id="node1" class="node">
<title>Node1</title>
<g id="a_node1"><a xlink:title="Function used to set the current task to wait on an object (uses auxillary list)">
<polygon fill="#bfbfbf" stroke="black" points="0,-71 0,-101 114,-101 114,-71 0,-71"/>
<text text-anchor="start" x="8" y="-89" font-family="Helvetica,sans-Serif" font-size="10.00">Task_set_current_wait</text>
<text text-anchor="middle" x="57" y="-78" font-family="Helvetica,sans-Serif" font-size="10.00">_on_object</text>
</a>
</g>
</g>
<!-- Node2 -->
<g id="node2" class="node">
<title>Node2</title>
<g id="a_node2"><a xlink:href="group___rltos__task__scheduler__prv.html#ga28f6d69d82ff510be23a1a401d5d42a9" target="_top" xlink:title="Function used to append task to a task list.">
<polygon fill="white" stroke="black" points="452,-76.5 452,-95.5 558,-95.5 558,-76.5 452,-76.5"/>
<text text-anchor="middle" x="505" y="-83.5" font-family="Helvetica,sans-Serif" font-size="10.00">Task_append_to_list</text>
</a>
</g>
</g>
<!-- Node1&#45;&gt;Node2 -->
<g id="edge1" class="edge">
<title>Node1&#45;&gt;Node2</title>
<path fill="none" stroke="midnightblue" d="M114.16,-99.49C125.93,-101.78 138.32,-103.81 150,-105 267.63,-117.02 298.29,-111.23 416,-100 424.3,-99.21 433.01,-98.13 441.58,-96.92"/>
<polygon fill="midnightblue" stroke="midnightblue" points="442.17,-100.37 451.55,-95.45 441.15,-93.44 442.17,-100.37"/>
</g>
<!-- Node3 -->
<g id="node3" class="node">
<title>Node3</title>
<g id="a_node3"><a xlink:href="group___rltos__task__scheduler__api.html#gaef14e9b4eac09dd868feb5c3b2b4442f" target="_top" xlink:title="Function used to append task to the idle list.">
<polygon fill="white" stroke="black" points="150,-38.5 150,-57.5 262,-57.5 262,-38.5 150,-38.5"/>
<text text-anchor="middle" x="206" y="-45.5" font-family="Helvetica,sans-Serif" font-size="10.00">Task_set_current_idle</text>
</a>
</g>
</g>
<!-- Node1&#45;&gt;Node3 -->
<g id="edge2" class="edge">
<title>Node1&#45;&gt;Node3</title>
<path fill="none" stroke="midnightblue" d="M114.41,-71.42C128.88,-67.68 144.28,-63.7 158.2,-60.1"/>
<polygon fill="midnightblue" stroke="midnightblue" points="159.23,-63.45 168.04,-57.56 157.48,-56.67 159.23,-63.45"/>
</g>
<!-- Node7 -->
<g id="node7" class="node">
<title>Node7</title>
<g id="a_node7"><a xlink:href="group___rltos__task__scheduler__api.html#gaa65328e4b21083ff31b9ab00088bba47" target="_top" xlink:title="Function used to append the task to the stopped list.">
<polygon fill="white" stroke="black" points="158,-76.5 158,-95.5 254,-95.5 254,-76.5 158,-76.5"/>
<text text-anchor="middle" x="206" y="-83.5" font-family="Helvetica,sans-Serif" font-size="10.00">Task_set_stopped</text>
</a>
</g>
</g>
<!-- Node1&#45;&gt;Node7 -->
<g id="edge7" class="edge">
<title>Node1&#45;&gt;Node7</title>
<path fill="none" stroke="midnightblue" d="M114.41,-86C125.21,-86 136.53,-86 147.37,-86"/>
<polygon fill="midnightblue" stroke="midnightblue" points="147.58,-89.5 157.58,-86 147.58,-82.5 147.58,-89.5"/>
</g>
<!-- Node4 -->
<g id="node4" class="node">
<title>Node4</title>
<g id="a_node4"><a xlink:href="group___rltos__task__scheduler__prv.html#ga61aab9e930d140a49708e98bf741c3dd" target="_top" xlink:title="Function used to insert a task in the idle list (sorted).">
<polygon fill="white" stroke="black" points="298,-0.5 298,-19.5 416,-19.5 416,-0.5 298,-0.5"/>
<text text-anchor="middle" x="357" y="-7.5" font-family="Helvetica,sans-Serif" font-size="10.00">Task_insert_in_idle_list</text>
</a>
</g>
</g>
<!-- Node3&#45;&gt;Node4 -->
<g id="edge3" class="edge">
<title>Node3&#45;&gt;Node4</title>
<path fill="none" stroke="midnightblue" d="M244.6,-38.41C264.08,-33.44 288.07,-27.32 308.8,-22.04"/>
<polygon fill="midnightblue" stroke="midnightblue" points="309.85,-25.38 318.67,-19.52 308.12,-18.6 309.85,-25.38"/>
</g>
<!-- Node5 -->
<g id="node5" class="node">
<title>Node5</title>
<g id="a_node5"><a xlink:href="group___rltos__task__scheduler__prv.html#ga421dbb81487cd2fdc1fd06b1407eae5b" target="_top" xlink:title="Function used to remove task from a task list.">
<polygon fill="white" stroke="black" points="299,-38.5 299,-57.5 415,-57.5 415,-38.5 299,-38.5"/>
<text text-anchor="middle" x="357" y="-45.5" font-family="Helvetica,sans-Serif" font-size="10.00">Task_remove_from_list</text>
</a>
</g>
</g>
<!-- Node3&#45;&gt;Node5 -->
<g id="edge5" class="edge">
<title>Node3&#45;&gt;Node5</title>
<path fill="none" stroke="midnightblue" d="M262.06,-48C270.64,-48 279.59,-48 288.41,-48"/>
<polygon fill="midnightblue" stroke="midnightblue" points="288.67,-51.5 298.67,-48 288.67,-44.5 288.67,-51.5"/>
</g>
<!-- Node4&#45;&gt;Node2 -->
<g id="edge4" class="edge">
<title>Node4&#45;&gt;Node2</title>
<path fill="none" stroke="midnightblue" d="M396.35,-19.57C403.17,-22.09 410,-25.2 416,-29 435.66,-41.45 432.56,-54.22 452,-67 454.94,-68.93 458.1,-70.7 461.37,-72.31"/>
<polygon fill="midnightblue" stroke="midnightblue" points="460.15,-75.6 470.72,-76.45 462.98,-69.2 460.15,-75.6"/>
</g>
<!-- Node6 -->
<g id="node6" class="node">
<title>Node6</title>
<g id="a_node6"><a xlink:href="group___rltos__task__scheduler__prv.html#ga6f098dd7382a94e001bdeeadd29ae7bf" target="_top" xlink:title="Function used to check if a task is contained within the task list or not.">
<polygon fill="white" stroke="black" points="464.5,-38.5 464.5,-57.5 545.5,-57.5 545.5,-38.5 464.5,-38.5"/>
<text text-anchor="middle" x="505" y="-45.5" font-family="Helvetica,sans-Serif" font-size="10.00">Task_is_in_list</text>
</a>
</g>
</g>
<!-- Node5&#45;&gt;Node6 -->
<g id="edge6" class="edge">
<title>Node5&#45;&gt;Node6</title>
<path fill="none" stroke="midnightblue" d="M415.28,-48C428.14,-48 441.68,-48 454.2,-48"/>
<polygon fill="midnightblue" stroke="midnightblue" points="454.45,-51.5 464.45,-48 454.45,-44.5 454.45,-51.5"/>
</g>
<!-- Node7&#45;&gt;Node2 -->
<g id="edge8" class="edge">
<title>Node7&#45;&gt;Node2</title>
<path fill="none" stroke="midnightblue" d="M254.06,-86C304.8,-86 385.8,-86 441.77,-86"/>
<polygon fill="midnightblue" stroke="midnightblue" points="441.91,-89.5 451.91,-86 441.91,-82.5 441.91,-89.5"/>
</g>
<!-- Node7&#45;&gt;Node5 -->
<g id="edge9" class="edge">
<title>Node7&#45;&gt;Node5</title>
<path fill="none" stroke="midnightblue" d="M244.6,-76.41C264.08,-71.44 288.07,-65.32 308.8,-60.04"/>
<polygon fill="midnightblue" stroke="midnightblue" points="309.85,-63.38 318.67,-57.52 308.12,-56.6 309.85,-63.38"/>
</g>
</g>
</svg>
