<?xml version="1.0" encoding="UTF-8" standalone="no"?>
<!DOCTYPE svg PUBLIC "-//W3C//DTD SVG 1.1//EN"
 "http://www.w3.org/Graphics/SVG/1.1/DTD/svg11.dtd">
<!-- Generated by graphviz version 2.49.2 (20211016.1639)
 -->
<!-- Title: Task Pages: 1 -->
<svg width="111pt" height="64pt"
 viewBox="0.00 0.00 111.00 64.00" xmlns="http://www.w3.org/2000/svg" xmlns:xlink="http://www.w3.org/1999/xlink">
<g id="graph0" class="graph" transform="scale(1 1) rotate(0) translate(4 60)">
<title>Task</title>
<polygon fill="white" stroke="transparent" points="-4,4 -4,-60 107,-60 107,4 -4,4"/>
<!-- Node1 -->
<g id="node1" class="node">
<title>Node1</title>
<g id="a_node1"><a xlink:title=" ">
<polygon fill="#bfbfbf" stroke="black" points="38,-37 0,-37 0,-18 38,-18 38,-37"/>
<text text-anchor="middle" x="19" y="-25" font-family="Helvetica,sans-Serif" font-size="10.00">Task</text>
</a>
</g>
</g>
<!-- Node3 -->
<g id="node2" class="node">
<title>Node3</title>
<g id="a_node2"><a xlink:href="group___rltos__task__api.html" target="_top" xlink:title=" ">
<polygon fill="white" stroke="black" points="103,-56 74,-56 74,-37 103,-37 103,-56"/>
<text text-anchor="middle" x="88.5" y="-44" font-family="Helvetica,sans-Serif" font-size="10.00">api</text>
</a>
</g>
</g>
<!-- Node1&#45;&gt;Node3 -->
<g id="edge2" class="edge">
<title>Node1&#45;&gt;Node3</title>
<path fill="none" stroke="black" d="M47.84,-35.34C56.82,-37.86 66.38,-40.55 73.86,-42.66"/>
<polygon fill="black" stroke="black" points="48.66,-31.93 38.09,-32.59 46.77,-38.67 48.66,-31.93"/>
</g>
<!-- Node2 -->
<g id="node3" class="node">
<title>Node2</title>
<g id="a_node3"><a xlink:href="group___rltos__task__prv.html" target="_top" xlink:title=" ">
<polygon fill="white" stroke="black" points="103,-19 74,-19 74,0 103,0 103,-19"/>
<text text-anchor="middle" x="88.5" y="-7" font-family="Helvetica,sans-Serif" font-size="10.00">prv</text>
</a>
</g>
</g>
<!-- Node1&#45;&gt;Node2 -->
<g id="edge1" class="edge">
<title>Node1&#45;&gt;Node2</title>
<path fill="none" stroke="black" d="M47.84,-20.08C56.82,-17.68 66.38,-15.13 73.86,-13.14"/>
<polygon fill="black" stroke="black" points="46.85,-16.72 38.09,-22.68 48.65,-23.48 46.85,-16.72"/>
</g>
</g>
</svg>
