<?xml version="1.0" encoding="UTF-8" standalone="no"?>
<!DOCTYPE svg PUBLIC "-//W3C//DTD SVG 1.1//EN"
 "http://www.w3.org/Graphics/SVG/1.1/DTD/svg11.dtd">
<!-- Generated by graphviz version 2.49.2 (20211016.1639)
 -->
<!-- Title: Mutex Pages: 1 -->
<svg width="117pt" height="64pt"
 viewBox="0.00 0.00 117.00 64.00" xmlns="http://www.w3.org/2000/svg" xmlns:xlink="http://www.w3.org/1999/xlink">
<g id="graph0" class="graph" transform="scale(1 1) rotate(0) translate(4 60)">
<title>Mutex</title>
<polygon fill="white" stroke="transparent" points="-4,4 -4,-60 113,-60 113,4 -4,4"/>
<!-- Node1 -->
<g id="node1" class="node">
<title>Node1</title>
<g id="a_node1"><a xlink:title=" ">
<polygon fill="#bfbfbf" stroke="black" points="44,-37 0,-37 0,-18 44,-18 44,-37"/>
<text text-anchor="middle" x="22" y="-25" font-family="Helvetica,sans-Serif" font-size="10.00">Mutex</text>
</a>
</g>
</g>
<!-- Node3 -->
<g id="node2" class="node">
<title>Node3</title>
<g id="a_node2"><a xlink:href="group___rltos__mutex__api.html" target="_top" xlink:title=" ">
<polygon fill="white" stroke="black" points="109,-56 80,-56 80,-37 109,-37 109,-56"/>
<text text-anchor="middle" x="94.5" y="-44" font-family="Helvetica,sans-Serif" font-size="10.00">api</text>
</a>
</g>
</g>
<!-- Node1&#45;&gt;Node3 -->
<g id="edge2" class="edge">
<title>Node1&#45;&gt;Node3</title>
<path fill="none" stroke="black" d="M54.01,-35.86C63,-38.28 72.36,-40.8 79.71,-42.78"/>
<polygon fill="black" stroke="black" points="54.72,-32.42 44.15,-33.2 52.9,-39.18 54.72,-32.42"/>
</g>
<!-- Node2 -->
<g id="node3" class="node">
<title>Node2</title>
<g id="a_node3"><a xlink:href="group___rltos__mutex__prv.html" target="_top" xlink:title=" ">
<polygon fill="white" stroke="black" points="109,-19 80,-19 80,0 109,0 109,-19"/>
<text text-anchor="middle" x="94.5" y="-7" font-family="Helvetica,sans-Serif" font-size="10.00">prv</text>
</a>
</g>
</g>
<!-- Node1&#45;&gt;Node2 -->
<g id="edge1" class="edge">
<title>Node1&#45;&gt;Node2</title>
<path fill="none" stroke="black" d="M54.01,-19.58C63,-17.29 72.36,-14.9 79.71,-13.02"/>
<polygon fill="black" stroke="black" points="52.98,-16.23 44.15,-22.1 54.71,-23.02 52.98,-16.23"/>
</g>
</g>
</svg>
