<?xml version="1.0" encoding="UTF-8" standalone="no"?>
<!DOCTYPE svg PUBLIC "-//W3C//DTD SVG 1.1//EN"
 "http://www.w3.org/Graphics/SVG/1.1/DTD/svg11.dtd">
<!-- Generated by graphviz version 2.49.2 (20211016.1639)
 -->
<!-- Title: Task_append_to_list Pages: 1 -->
<svg width="396pt" height="78pt"
 viewBox="0.00 0.00 396.00 77.50" xmlns="http://www.w3.org/2000/svg" xmlns:xlink="http://www.w3.org/1999/xlink">
<g id="graph0" class="graph" transform="scale(1 1) rotate(0) translate(4 73.5)">
<title>Task_append_to_list</title>
<polygon fill="white" stroke="transparent" points="-4,4 -4,-73.5 392,-73.5 392,4 -4,4"/>
<!-- Node1 -->
<g id="node1" class="node">
<title>Node1</title>
<g id="a_node1"><a xlink:title="Function used to append task to a task list.">
<polygon fill="#bfbfbf" stroke="black" points="282,-25.5 282,-44.5 388,-44.5 388,-25.5 282,-25.5"/>
<text text-anchor="middle" x="335" y="-32.5" font-family="Helvetica,sans-Serif" font-size="10.00">Task_append_to_list</text>
</a>
</g>
</g>
<!-- Node2 -->
<g id="node2" class="node">
<title>Node2</title>
<g id="a_node2"><a xlink:href="group___rltos__task__scheduler__api.html#ga90ce1a0329edc828e765740fce4e29cb" target="_top" xlink:title="Function used to set the current task to wait on an object (uses auxillary list)">
<polygon fill="white" stroke="black" points="0,-39 0,-69 114,-69 114,-39 0,-39"/>
<text text-anchor="start" x="8" y="-57" font-family="Helvetica,sans-Serif" font-size="10.00">Task_set_current_wait</text>
<text text-anchor="middle" x="57" y="-46" font-family="Helvetica,sans-Serif" font-size="10.00">_on_object</text>
</a>
</g>
</g>
<!-- Node1&#45;&gt;Node2 -->
<g id="edge1" class="edge">
<title>Node1&#45;&gt;Node2</title>
<path fill="none" stroke="midnightblue" d="M271.65,-39.29C224.39,-42.55 160,-46.98 114.3,-50.12"/>
<polygon fill="midnightblue" stroke="midnightblue" points="272.03,-42.77 281.76,-38.6 271.55,-35.79 272.03,-42.77"/>
</g>
<!-- Node3 -->
<g id="node3" class="node">
<title>Node3</title>
<g id="a_node3"><a xlink:href="group___rltos__task__scheduler__api.html#gaa65328e4b21083ff31b9ab00088bba47" target="_top" xlink:title="Function used to append the task to the stopped list.">
<polygon fill="white" stroke="black" points="150,-6.5 150,-25.5 246,-25.5 246,-6.5 150,-6.5"/>
<text text-anchor="middle" x="198" y="-13.5" font-family="Helvetica,sans-Serif" font-size="10.00">Task_set_stopped</text>
</a>
</g>
</g>
<!-- Node1&#45;&gt;Node3 -->
<g id="edge2" class="edge">
<title>Node1&#45;&gt;Node3</title>
<path fill="none" stroke="midnightblue" d="M271.79,-26.25C263.19,-25.03 254.47,-23.81 246.2,-22.64"/>
<polygon fill="midnightblue" stroke="midnightblue" points="271.42,-29.73 281.81,-27.65 272.39,-22.79 271.42,-29.73"/>
</g>
<!-- Node3&#45;&gt;Node2 -->
<g id="edge4" class="edge">
<title>Node3&#45;&gt;Node2</title>
<path fill="none" stroke="midnightblue" d="M152.22,-28.24C139.76,-31.65 126.07,-35.39 113.09,-38.94"/>
<polygon fill="midnightblue" stroke="midnightblue" points="153.2,-31.6 161.92,-25.59 151.36,-24.85 153.2,-31.6"/>
</g>
<!-- Node4 -->
<g id="node4" class="node">
<title>Node4</title>
<g id="a_node4"><a xlink:href="group___rltos__task__api.html#gab91ca4aee9a220306a8ba1ad8ad18644" target="_top" xlink:title="Stops the targetted task indefinitely.">
<polygon fill="white" stroke="black" points="13.5,-0.5 13.5,-19.5 100.5,-19.5 100.5,-0.5 13.5,-0.5"/>
<text text-anchor="middle" x="57" y="-7.5" font-family="Helvetica,sans-Serif" font-size="10.00">Rltos_task_stop</text>
</a>
</g>
</g>
<!-- Node3&#45;&gt;Node4 -->
<g id="edge3" class="edge">
<title>Node3&#45;&gt;Node4</title>
<path fill="none" stroke="midnightblue" d="M139.67,-13.53C126.67,-12.96 113.08,-12.38 100.8,-11.85"/>
<polygon fill="midnightblue" stroke="midnightblue" points="139.8,-17.03 149.94,-13.97 140.1,-10.04 139.8,-17.03"/>
</g>
</g>
</svg>
