<?xml version="1.0" encoding="UTF-8" standalone="no"?>
<!DOCTYPE svg PUBLIC "-//W3C//DTD SVG 1.1//EN"
 "http://www.w3.org/Graphics/SVG/1.1/DTD/svg11.dtd">
<!-- Generated by graphviz version 2.49.2 (20211016.1639)
 -->
<!-- Title: Task_scheduler_init Pages: 1 -->
<svg width="658pt" height="104pt"
 viewBox="0.00 0.00 658.00 104.00" xmlns="http://www.w3.org/2000/svg" xmlns:xlink="http://www.w3.org/1999/xlink">
<g id="graph0" class="graph" transform="scale(1 1) rotate(0) translate(4 100)">
<title>Task_scheduler_init</title>
<polygon fill="white" stroke="transparent" points="-4,4 -4,-100 654,-100 654,4 -4,4"/>
<!-- Node1 -->
<g id="node1" class="node">
<title>Node1</title>
<g id="a_node1"><a xlink:title="Function to initialise the current task on entry to the scheduler &amp; create + add the idle task to the...">
<polygon fill="#bfbfbf" stroke="black" points="0,-57.5 0,-76.5 103,-76.5 103,-57.5 0,-57.5"/>
<text text-anchor="middle" x="51.5" y="-64.5" font-family="Helvetica,sans-Serif" font-size="10.00">Task_scheduler_init</text>
</a>
</g>
</g>
<!-- Node2 -->
<g id="node2" class="node">
<title>Node2</title>
<g id="a_node2"><a xlink:href="group___rltos__task__scheduler__prv.html#gaaf0d6196a9bd2cf22c5fd38b0a6725bf" target="_top" xlink:title="Idle task function &#45; calls hook function on each execution.">
<polygon fill="white" stroke="black" points="139,-76.5 139,-95.5 231,-95.5 231,-76.5 139,-76.5"/>
<text text-anchor="middle" x="185" y="-83.5" font-family="Helvetica,sans-Serif" font-size="10.00">Rltos_idle_thread</text>
</a>
</g>
</g>
<!-- Node1&#45;&gt;Node2 -->
<g id="edge1" class="edge">
<title>Node1&#45;&gt;Node2</title>
<path fill="none" stroke="midnightblue" d="M103.34,-74.35C111.67,-75.55 120.33,-76.8 128.75,-78.02"/>
<polygon fill="midnightblue" stroke="midnightblue" points="128.47,-81.51 138.87,-79.48 129.47,-74.59 128.47,-81.51"/>
</g>
<!-- Node3 -->
<g id="node3" class="node">
<title>Node3</title>
<g id="a_node3"><a xlink:href="group___rltos__task__scheduler__api.html#ga6bbde0c90e5e572e8131cc7652d8dd78" target="_top" xlink:title="Function used to set initial stack pointer, task entry function &amp; clear pointers to next and prev nod...">
<polygon fill="white" stroke="black" points="157,-38.5 157,-57.5 213,-57.5 213,-38.5 157,-38.5"/>
<text text-anchor="middle" x="185" y="-45.5" font-family="Helvetica,sans-Serif" font-size="10.00">Task_init</text>
</a>
</g>
</g>
<!-- Node1&#45;&gt;Node3 -->
<g id="edge2" class="edge">
<title>Node1&#45;&gt;Node3</title>
<path fill="none" stroke="midnightblue" d="M103.34,-59.65C117.85,-57.56 133.39,-55.31 146.92,-53.36"/>
<polygon fill="midnightblue" stroke="midnightblue" points="147.42,-56.82 156.82,-51.93 146.42,-49.89 147.42,-56.82"/>
</g>
<!-- Node4 -->
<g id="node4" class="node">
<title>Node4</title>
<g id="a_node4"><a xlink:href="group___rltos__task__scheduler__api.html#gae2e9ba76398ba904d0c32071d3512a2b" target="_top" xlink:title="Function used to insert the task to the running list.">
<polygon fill="white" stroke="black" points="268.5,-57.5 268.5,-76.5 361.5,-76.5 361.5,-57.5 268.5,-57.5"/>
<text text-anchor="middle" x="315" y="-64.5" font-family="Helvetica,sans-Serif" font-size="10.00">Task_set_running</text>
</a>
</g>
</g>
<!-- Node3&#45;&gt;Node4 -->
<g id="edge3" class="edge">
<title>Node3&#45;&gt;Node4</title>
<path fill="none" stroke="midnightblue" d="M213.15,-52.03C226.27,-53.98 242.53,-56.39 258.13,-58.71"/>
<polygon fill="midnightblue" stroke="midnightblue" points="257.85,-62.2 268.25,-60.21 258.87,-55.28 257.85,-62.2"/>
</g>
<!-- Node8 -->
<g id="node8" class="node">
<title>Node8</title>
<g id="a_node8"><a xlink:href="group___rltos__task__scheduler__api.html#gaa65328e4b21083ff31b9ab00088bba47" target="_top" xlink:title="Function used to append the task to the stopped list.">
<polygon fill="white" stroke="black" points="267,-19.5 267,-38.5 363,-38.5 363,-19.5 267,-19.5"/>
<text text-anchor="middle" x="315" y="-26.5" font-family="Helvetica,sans-Serif" font-size="10.00">Task_set_stopped</text>
</a>
</g>
</g>
<!-- Node3&#45;&gt;Node8 -->
<g id="edge7" class="edge">
<title>Node3&#45;&gt;Node8</title>
<path fill="none" stroke="midnightblue" d="M213.15,-43.97C225.97,-42.07 241.78,-39.72 257.06,-37.45"/>
<polygon fill="midnightblue" stroke="midnightblue" points="257.6,-40.91 266.98,-35.98 256.57,-33.99 257.6,-40.91"/>
</g>
<!-- Node5 -->
<g id="node5" class="node">
<title>Node5</title>
<g id="a_node5"><a xlink:href="group___rltos__task__scheduler__prv.html#ga22fda87fe06611ea2bc93aec643b60bd" target="_top" xlink:title="Function used to insert a task in the running list (sorted).">
<polygon fill="white" stroke="black" points="399,-76.5 399,-95.5 533,-95.5 533,-76.5 399,-76.5"/>
<text text-anchor="middle" x="466" y="-83.5" font-family="Helvetica,sans-Serif" font-size="10.00">Task_insert_in_running_list</text>
</a>
</g>
</g>
<!-- Node4&#45;&gt;Node5 -->
<g id="edge4" class="edge">
<title>Node4&#45;&gt;Node5</title>
<path fill="none" stroke="midnightblue" d="M361.51,-72.8C370.19,-73.91 379.48,-75.1 388.81,-76.28"/>
<polygon fill="midnightblue" stroke="midnightblue" points="388.56,-79.78 398.92,-77.57 389.44,-72.84 388.56,-79.78"/>
</g>
<!-- Node6 -->
<g id="node6" class="node">
<title>Node6</title>
<g id="a_node6"><a xlink:href="group___rltos__task__scheduler__prv.html#ga421dbb81487cd2fdc1fd06b1407eae5b" target="_top" xlink:title="Function used to remove task from a task list.">
<polygon fill="white" stroke="black" points="408,-38.5 408,-57.5 524,-57.5 524,-38.5 408,-38.5"/>
<text text-anchor="middle" x="466" y="-45.5" font-family="Helvetica,sans-Serif" font-size="10.00">Task_remove_from_list</text>
</a>
</g>
</g>
<!-- Node4&#45;&gt;Node6 -->
<g id="edge5" class="edge">
<title>Node4&#45;&gt;Node6</title>
<path fill="none" stroke="midnightblue" d="M361.51,-61.2C372.95,-59.74 385.46,-58.14 397.71,-56.58"/>
<polygon fill="midnightblue" stroke="midnightblue" points="398.43,-60.02 407.91,-55.28 397.55,-53.07 398.43,-60.02"/>
</g>
<!-- Node7 -->
<g id="node7" class="node">
<title>Node7</title>
<g id="a_node7"><a xlink:href="group___rltos__task__scheduler__prv.html#ga6f098dd7382a94e001bdeeadd29ae7bf" target="_top" xlink:title="Function used to check if a task is contained within the task list or not.">
<polygon fill="white" stroke="black" points="569,-38.5 569,-57.5 650,-57.5 650,-38.5 569,-38.5"/>
<text text-anchor="middle" x="609.5" y="-45.5" font-family="Helvetica,sans-Serif" font-size="10.00">Task_is_in_list</text>
</a>
</g>
</g>
<!-- Node6&#45;&gt;Node7 -->
<g id="edge6" class="edge">
<title>Node6&#45;&gt;Node7</title>
<path fill="none" stroke="midnightblue" d="M524.15,-48C535.66,-48 547.67,-48 558.89,-48"/>
<polygon fill="midnightblue" stroke="midnightblue" points="558.95,-51.5 568.95,-48 558.95,-44.5 558.95,-51.5"/>
</g>
<!-- Node8&#45;&gt;Node6 -->
<g id="edge9" class="edge">
<title>Node8&#45;&gt;Node6</title>
<path fill="none" stroke="midnightblue" d="M363.14,-35.01C374.16,-36.42 386.1,-37.94 397.79,-39.43"/>
<polygon fill="midnightblue" stroke="midnightblue" points="397.62,-42.94 407.98,-40.73 398.5,-35.99 397.62,-42.94"/>
</g>
<!-- Node9 -->
<g id="node9" class="node">
<title>Node9</title>
<g id="a_node9"><a xlink:href="group___rltos__task__scheduler__prv.html#ga28f6d69d82ff510be23a1a401d5d42a9" target="_top" xlink:title="Function used to append task to a task list.">
<polygon fill="white" stroke="black" points="413,-0.5 413,-19.5 519,-19.5 519,-0.5 413,-0.5"/>
<text text-anchor="middle" x="466" y="-7.5" font-family="Helvetica,sans-Serif" font-size="10.00">Task_append_to_list</text>
</a>
</g>
</g>
<!-- Node8&#45;&gt;Node9 -->
<g id="edge8" class="edge">
<title>Node8&#45;&gt;Node9</title>
<path fill="none" stroke="midnightblue" d="M363.14,-22.99C375.78,-21.38 389.64,-19.61 402.95,-17.91"/>
<polygon fill="midnightblue" stroke="midnightblue" points="403.51,-21.37 412.99,-16.63 402.63,-14.43 403.51,-21.37"/>
</g>
</g>
</svg>
