<?xml version="1.0" encoding="UTF-8" standalone="no"?>
<!DOCTYPE svg PUBLIC "-//W3C//DTD SVG 1.1//EN"
 "http://www.w3.org/Graphics/SVG/1.1/DTD/svg11.dtd">
<!-- Generated by graphviz version 2.49.2 (20211016.1639)
 -->
<!-- Title: Task Pages: 1 -->
<svg width="152pt" height="64pt"
 viewBox="0.00 0.00 152.00 64.00" xmlns="http://www.w3.org/2000/svg" xmlns:xlink="http://www.w3.org/1999/xlink">
<g id="graph0" class="graph" transform="scale(1 1) rotate(0) translate(4 60)">
<title>Task</title>
<polygon fill="white" stroke="transparent" points="-4,4 -4,-60 148,-60 148,4 -4,4"/>
<!-- Node1 -->
<g id="node1" class="node">
<title>Node1</title>
<g id="a_node1"><a xlink:title=" ">
<polygon fill="#bfbfbf" stroke="black" points="38,-37 0,-37 0,-18 38,-18 38,-37"/>
<text text-anchor="middle" x="19" y="-25" font-family="Helvetica,sans-Serif" font-size="10.00">Task</text>
</a>
</g>
</g>
<!-- Node3 -->
<g id="node2" class="node">
<title>Node3</title>
<g id="a_node2"><a xlink:href="group___rltos__task__api.html" target="_top" xlink:title=" ">
<polygon fill="white" stroke="black" points="137,-56 81,-56 81,-37 137,-37 137,-56"/>
<text text-anchor="middle" x="109" y="-44" font-family="Helvetica,sans-Serif" font-size="10.00">Task API</text>
</a>
</g>
</g>
<!-- Node1&#45;&gt;Node3 -->
<g id="edge2" class="edge">
<title>Node1&#45;&gt;Node3</title>
<path fill="none" stroke="black" d="M48.12,-33.57C58.57,-35.83 70.39,-38.38 80.76,-40.62"/>
<polygon fill="black" stroke="black" points="48.75,-30.13 38.23,-31.44 47.27,-36.97 48.75,-30.13"/>
</g>
<!-- Node2 -->
<g id="node3" class="node">
<title>Node2</title>
<g id="a_node3"><a xlink:href="group___rltos__task__prv.html" target="_top" xlink:title=" ">
<polygon fill="white" stroke="black" points="144,-19 74,-19 74,0 144,0 144,-19"/>
<text text-anchor="middle" x="109" y="-7" font-family="Helvetica,sans-Serif" font-size="10.00">Task Private</text>
</a>
</g>
</g>
<!-- Node1&#45;&gt;Node2 -->
<g id="edge1" class="edge">
<title>Node1&#45;&gt;Node2</title>
<path fill="none" stroke="black" d="M48.04,-21.76C56.23,-20.09 65.26,-18.24 73.78,-16.5"/>
<polygon fill="black" stroke="black" points="47.33,-18.34 38.23,-23.77 48.73,-25.2 47.33,-18.34"/>
</g>
</g>
</svg>
