<?xml version="1.0" encoding="UTF-8" standalone="no"?>
<!DOCTYPE svg PUBLIC "-//W3C//DTD SVG 1.1//EN"
 "http://www.w3.org/Graphics/SVG/1.1/DTD/svg11.dtd">
<!-- Generated by graphviz version 2.49.2 (20211016.1639)
 -->
<!-- Title: Rltos_task_create Pages: 1 -->
<svg width="614pt" height="104pt"
 viewBox="0.00 0.00 614.00 104.00" xmlns="http://www.w3.org/2000/svg" xmlns:xlink="http://www.w3.org/1999/xlink">
<g id="graph0" class="graph" transform="scale(1 1) rotate(0) translate(4 100)">
<title>Rltos_task_create</title>
<polygon fill="white" stroke="transparent" points="-4,4 -4,-100 610,-100 610,4 -4,4"/>
<!-- Node1 -->
<g id="node1" class="node">
<title>Node1</title>
<g id="a_node1"><a xlink:title="Initialises task control structure, stack &amp; appends to task list.">
<polygon fill="#bfbfbf" stroke="black" points="0,-38.5 0,-57.5 95,-57.5 95,-38.5 0,-38.5"/>
<text text-anchor="middle" x="47.5" y="-45.5" font-family="Helvetica,sans-Serif" font-size="10.00">Rltos_task_create</text>
</a>
</g>
</g>
<!-- Node2 -->
<g id="node2" class="node">
<title>Node2</title>
<g id="a_node2"><a xlink:href="group___rltos__task__scheduler__api.html#ga6bbde0c90e5e572e8131cc7652d8dd78" target="_top" xlink:title="Function used to set initial stack pointer, task entry function &amp; clear pointers to next and prev nod...">
<polygon fill="white" stroke="black" points="131,-38.5 131,-57.5 187,-57.5 187,-38.5 131,-38.5"/>
<text text-anchor="middle" x="159" y="-45.5" font-family="Helvetica,sans-Serif" font-size="10.00">Task_init</text>
</a>
</g>
</g>
<!-- Node1&#45;&gt;Node2 -->
<g id="edge1" class="edge">
<title>Node1&#45;&gt;Node2</title>
<path fill="none" stroke="midnightblue" d="M95.26,-48C103.66,-48 112.33,-48 120.43,-48"/>
<polygon fill="midnightblue" stroke="midnightblue" points="120.7,-51.5 130.7,-48 120.7,-44.5 120.7,-51.5"/>
</g>
<!-- Node3 -->
<g id="node3" class="node">
<title>Node3</title>
<g id="a_node3"><a xlink:href="group___rltos__task__scheduler__api.html#gae2e9ba76398ba904d0c32071d3512a2b" target="_top" xlink:title="Function used to insert the task to the running list.">
<polygon fill="white" stroke="black" points="224.5,-57.5 224.5,-76.5 317.5,-76.5 317.5,-57.5 224.5,-57.5"/>
<text text-anchor="middle" x="271" y="-64.5" font-family="Helvetica,sans-Serif" font-size="10.00">Task_set_running</text>
</a>
</g>
</g>
<!-- Node2&#45;&gt;Node3 -->
<g id="edge2" class="edge">
<title>Node2&#45;&gt;Node3</title>
<path fill="none" stroke="midnightblue" d="M187.19,-52.7C195.41,-54.12 204.76,-55.73 214.14,-57.35"/>
<polygon fill="midnightblue" stroke="midnightblue" points="213.84,-60.85 224.29,-59.1 215.03,-53.95 213.84,-60.85"/>
</g>
<!-- Node7 -->
<g id="node7" class="node">
<title>Node7</title>
<g id="a_node7"><a xlink:href="group___rltos__task__scheduler__api.html#gaa65328e4b21083ff31b9ab00088bba47" target="_top" xlink:title="Function used to append the task to the stopped list.">
<polygon fill="white" stroke="black" points="223,-19.5 223,-38.5 319,-38.5 319,-19.5 223,-19.5"/>
<text text-anchor="middle" x="271" y="-26.5" font-family="Helvetica,sans-Serif" font-size="10.00">Task_set_stopped</text>
</a>
</g>
</g>
<!-- Node2&#45;&gt;Node7 -->
<g id="edge6" class="edge">
<title>Node2&#45;&gt;Node7</title>
<path fill="none" stroke="midnightblue" d="M187.19,-43.3C195.05,-41.95 203.94,-40.41 212.9,-38.86"/>
<polygon fill="midnightblue" stroke="midnightblue" points="213.74,-42.27 222.99,-37.12 212.54,-35.37 213.74,-42.27"/>
</g>
<!-- Node4 -->
<g id="node4" class="node">
<title>Node4</title>
<g id="a_node4"><a xlink:href="group___rltos__task__scheduler__prv.html#ga22fda87fe06611ea2bc93aec643b60bd" target="_top" xlink:title="Function used to insert a task in the running list (sorted).">
<polygon fill="white" stroke="black" points="355,-76.5 355,-95.5 489,-95.5 489,-76.5 355,-76.5"/>
<text text-anchor="middle" x="422" y="-83.5" font-family="Helvetica,sans-Serif" font-size="10.00">Task_insert_in_running_list</text>
</a>
</g>
</g>
<!-- Node3&#45;&gt;Node4 -->
<g id="edge3" class="edge">
<title>Node3&#45;&gt;Node4</title>
<path fill="none" stroke="midnightblue" d="M317.51,-72.8C326.19,-73.91 335.48,-75.1 344.81,-76.28"/>
<polygon fill="midnightblue" stroke="midnightblue" points="344.56,-79.78 354.92,-77.57 345.44,-72.84 344.56,-79.78"/>
</g>
<!-- Node5 -->
<g id="node5" class="node">
<title>Node5</title>
<g id="a_node5"><a xlink:href="group___rltos__task__scheduler__prv.html#ga421dbb81487cd2fdc1fd06b1407eae5b" target="_top" xlink:title="Function used to remove task from a task list.">
<polygon fill="white" stroke="black" points="364,-38.5 364,-57.5 480,-57.5 480,-38.5 364,-38.5"/>
<text text-anchor="middle" x="422" y="-45.5" font-family="Helvetica,sans-Serif" font-size="10.00">Task_remove_from_list</text>
</a>
</g>
</g>
<!-- Node3&#45;&gt;Node5 -->
<g id="edge4" class="edge">
<title>Node3&#45;&gt;Node5</title>
<path fill="none" stroke="midnightblue" d="M317.51,-61.2C328.95,-59.74 341.46,-58.14 353.71,-56.58"/>
<polygon fill="midnightblue" stroke="midnightblue" points="354.43,-60.02 363.91,-55.28 353.55,-53.07 354.43,-60.02"/>
</g>
<!-- Node6 -->
<g id="node6" class="node">
<title>Node6</title>
<g id="a_node6"><a xlink:href="group___rltos__task__scheduler__prv.html#ga6f098dd7382a94e001bdeeadd29ae7bf" target="_top" xlink:title="Function used to check if a task is contained within the task list or not.">
<polygon fill="white" stroke="black" points="525,-38.5 525,-57.5 606,-57.5 606,-38.5 525,-38.5"/>
<text text-anchor="middle" x="565.5" y="-45.5" font-family="Helvetica,sans-Serif" font-size="10.00">Task_is_in_list</text>
</a>
</g>
</g>
<!-- Node5&#45;&gt;Node6 -->
<g id="edge5" class="edge">
<title>Node5&#45;&gt;Node6</title>
<path fill="none" stroke="midnightblue" d="M480.15,-48C491.66,-48 503.67,-48 514.89,-48"/>
<polygon fill="midnightblue" stroke="midnightblue" points="514.95,-51.5 524.95,-48 514.95,-44.5 514.95,-51.5"/>
</g>
<!-- Node7&#45;&gt;Node5 -->
<g id="edge8" class="edge">
<title>Node7&#45;&gt;Node5</title>
<path fill="none" stroke="midnightblue" d="M319.14,-35.01C330.16,-36.42 342.1,-37.94 353.79,-39.43"/>
<polygon fill="midnightblue" stroke="midnightblue" points="353.62,-42.94 363.98,-40.73 354.5,-35.99 353.62,-42.94"/>
</g>
<!-- Node8 -->
<g id="node8" class="node">
<title>Node8</title>
<g id="a_node8"><a xlink:href="group___rltos__task__scheduler__prv.html#ga28f6d69d82ff510be23a1a401d5d42a9" target="_top" xlink:title="Function used to append task to a task list.">
<polygon fill="white" stroke="black" points="369,-0.5 369,-19.5 475,-19.5 475,-0.5 369,-0.5"/>
<text text-anchor="middle" x="422" y="-7.5" font-family="Helvetica,sans-Serif" font-size="10.00">Task_append_to_list</text>
</a>
</g>
</g>
<!-- Node7&#45;&gt;Node8 -->
<g id="edge7" class="edge">
<title>Node7&#45;&gt;Node8</title>
<path fill="none" stroke="midnightblue" d="M319.14,-22.99C331.78,-21.38 345.64,-19.61 358.95,-17.91"/>
<polygon fill="midnightblue" stroke="midnightblue" points="359.51,-21.37 368.99,-16.63 358.63,-14.43 359.51,-21.37"/>
</g>
</g>
</svg>
