<?xml version="1.0" encoding="UTF-8" standalone="no"?>
<!DOCTYPE svg PUBLIC "-//W3C//DTD SVG 1.1//EN"
 "http://www.w3.org/Graphics/SVG/1.1/DTD/svg11.dtd">
<!-- Generated by graphviz version 2.49.2 (20211016.1639)
 -->
<!-- Title: Task_insert_in_idle_list Pages: 1 -->
<svg width="424pt" height="78pt"
 viewBox="0.00 0.00 424.00 77.50" xmlns="http://www.w3.org/2000/svg" xmlns:xlink="http://www.w3.org/1999/xlink">
<g id="graph0" class="graph" transform="scale(1 1) rotate(0) translate(4 73.5)">
<title>Task_insert_in_idle_list</title>
<polygon fill="white" stroke="transparent" points="-4,4 -4,-73.5 420,-73.5 420,4 -4,4"/>
<!-- Node1 -->
<g id="node1" class="node">
<title>Node1</title>
<g id="a_node1"><a xlink:title="Function used to insert a task in the idle list (sorted).">
<polygon fill="#bfbfbf" stroke="black" points="298,-28 298,-47 416,-47 416,-28 298,-28"/>
<text text-anchor="middle" x="357" y="-35" font-family="Helvetica,sans-Serif" font-size="10.00">Task_insert_in_idle_list</text>
</a>
</g>
</g>
<!-- Node2 -->
<g id="node2" class="node">
<title>Node2</title>
<g id="a_node2"><a xlink:href="group___rltos__task__scheduler__api.html#gaef14e9b4eac09dd868feb5c3b2b4442f" target="_top" xlink:title="Function used to append task to the idle list.">
<polygon fill="white" stroke="black" points="150,-28 150,-47 262,-47 262,-28 150,-28"/>
<text text-anchor="middle" x="206" y="-35" font-family="Helvetica,sans-Serif" font-size="10.00">Task_set_current_idle</text>
</a>
</g>
</g>
<!-- Node1&#45;&gt;Node2 -->
<g id="edge1" class="edge">
<title>Node1&#45;&gt;Node2</title>
<path fill="none" stroke="midnightblue" d="M287.93,-37.5C279.31,-37.5 270.58,-37.5 262.19,-37.5"/>
<polygon fill="midnightblue" stroke="midnightblue" points="287.97,-41 297.97,-37.5 287.97,-34 287.97,-41"/>
</g>
<!-- Node3 -->
<g id="node3" class="node">
<title>Node3</title>
<g id="a_node3"><a xlink:href="group___rltos__task__api.html#ga581dd045fa985add7730a8a1581389b7" target="_top" xlink:title="Puts the current thread to sleep for a minimum of the given number of ticks.">
<polygon fill="white" stroke="black" points="11,-50 11,-69 103,-69 103,-50 11,-50"/>
<text text-anchor="middle" x="57" y="-57" font-family="Helvetica,sans-Serif" font-size="10.00">Rltos_task_sleep</text>
</a>
</g>
</g>
<!-- Node2&#45;&gt;Node3 -->
<g id="edge2" class="edge">
<title>Node2&#45;&gt;Node3</title>
<path fill="none" stroke="midnightblue" d="M139.66,-47.28C127.42,-49.11 114.86,-50.99 103.39,-52.71"/>
<polygon fill="midnightblue" stroke="midnightblue" points="140.47,-50.7 149.84,-45.75 139.44,-43.77 140.47,-50.7"/>
</g>
<!-- Node4 -->
<g id="node4" class="node">
<title>Node4</title>
<g id="a_node4"><a xlink:href="group___rltos__task__scheduler__api.html#gaf04d49ef43d334ab6fb5e0345f82e332" target="_top" xlink:title="Function used to set the current task to wait on an object (uses auxillary list)">
<polygon fill="white" stroke="black" points="0,-0.5 0,-30.5 114,-30.5 114,-0.5 0,-0.5"/>
<text text-anchor="start" x="8" y="-18.5" font-family="Helvetica,sans-Serif" font-size="10.00">Task_set_current_wait</text>
<text text-anchor="middle" x="57" y="-7.5" font-family="Helvetica,sans-Serif" font-size="10.00">_on_object</text>
</a>
</g>
</g>
<!-- Node2&#45;&gt;Node4 -->
<g id="edge3" class="edge">
<title>Node2&#45;&gt;Node4</title>
<path fill="none" stroke="midnightblue" d="M139.68,-27.72C131.26,-26.46 122.7,-25.18 114.44,-23.95"/>
<polygon fill="midnightblue" stroke="midnightblue" points="139.44,-31.23 149.84,-29.25 140.47,-24.3 139.44,-31.23"/>
</g>
</g>
</svg>
