<?xml version="1.0" encoding="UTF-8" standalone="no"?>
<!DOCTYPE svg PUBLIC "-//W3C//DTD SVG 1.1//EN"
 "http://www.w3.org/Graphics/SVG/1.1/DTD/svg11.dtd">
<!-- Generated by graphviz version 2.49.2 (20211016.1639)
 -->
<!-- Title: Task_insert_in_list Pages: 1 -->
<!--zoomable 192 -->
<svg id="main" version="1.1" xmlns="http://www.w3.org/2000/svg" xmlns:xlink="http://www.w3.org/1999/xlink" xml:space="preserve" onload="init(evt)">
<style type="text/css"><![CDATA[
.edge:hover path { stroke: red; }
.edge:hover polygon { stroke: red; fill: red; }
]]></style>
<script type="text/javascript"><![CDATA[
var edges = document.getElementsByTagName('g');
if (edges && edges.length) {
  for (var i=0;i<edges.length;i++) {
    if (edges[i].id.substr(0,4)=='edge') {
      edges[i].setAttribute('class','edge');
    }
  }
}
]]></script>
        <defs>
                <circle id="rim" cx="0" cy="0" r="7"/>
                <circle id="rim2" cx="0" cy="0" r="3.5"/>
                <g id="zoomPlus">
                        <use xlink:href="#rim" fill="#404040">
                                <set attributeName="fill" to="#808080" begin="zoomplus.mouseover" end="zoomplus.mouseout"/>
                        </use>
                        <path d="M-4,0h8M0,-4v8" fill="none" stroke="white" stroke-width="1.5" pointer-events="none"/>
                </g>
                <g id="zoomMin">
                        <use xlink:href="#rim" fill="#404040">
                                <set attributeName="fill" to="#808080" begin="zoomminus.mouseover" end="zoomminus.mouseout"/>
                        </use>
                        <path d="M-4,0h8" fill="none" stroke="white" stroke-width="1.5" pointer-events="none"/>
                </g>
                <g id="dirArrow">
                        <path fill="none" stroke="white" stroke-width="1.5" d="M0,-3.0v7 M-2.5,-0.5L0,-3.0L2.5,-0.5"/>
                </g>
               <g id="resetDef">
                       <use xlink:href="#rim2" fill="#404040">
                               <set attributeName="fill" to="#808080" begin="reset.mouseover" end="reset.mouseout"/>
                       </use>
               </g>
        </defs>

<script type="text/javascript">
var viewWidth = 549;
var viewHeight = 192;
var sectionId = 'dynsection-4';
</script>
<script xlink:href="svgpan.js"/>
<svg id="graph" class="graph">
<g id="viewport">
<title>Task_insert_in_list</title>
<polygon fill="white" stroke="transparent" points="-4,4 -4,-188 545,-188 545,4 -4,4"/>
<!-- Node1 -->
<g id="node1" class="node">
<title>Node1</title>
<g id="a_node1"><a xlink:title="Function used to insert a task in a sorted task list.">
<polygon fill="#bfbfbf" stroke="black" points="443,-66.5 443,-85.5 541,-85.5 541,-66.5 443,-66.5"/>
<text text-anchor="middle" x="492" y="-73.5" font-family="Helvetica,sans-Serif" font-size="10.00">Task_insert_in_list</text>
</a>
</g>
</g>
<!-- Node2 -->
<g id="node2" class="node">
<title>Node2</title>
<g id="a_node2"><a xlink:href="group___rltos__task__scheduler__api.html#ga6bbde0c90e5e572e8131cc7652d8dd78" target="_top" xlink:title="Function used to set initial stack pointer, task entry function &amp; clear pointers to next and prev nod...">
<polygon fill="white" stroke="black" points="323,-126.5 323,-145.5 379,-145.5 379,-126.5 323,-126.5"/>
<text text-anchor="middle" x="351" y="-133.5" font-family="Helvetica,sans-Serif" font-size="10.00">Task_init</text>
</a>
</g>
</g>
<!-- Node1&#45;&gt;Node2 -->
<g id="edge1" class="edge">
<title>Node1&#45;&gt;Node2</title>
<path fill="none" stroke="midnightblue" d="M459.58,-89.56C433.64,-100.76 397.46,-116.38 374.38,-126.34"/>
<polygon fill="midnightblue" stroke="midnightblue" points="461.18,-92.68 468.98,-85.51 458.41,-86.26 461.18,-92.68"/>
</g>
<!-- Node6 -->
<g id="node6" class="node">
<title>Node6</title>
<g id="a_node6"><a xlink:href="group___rltos__task__scheduler__api.html#gaef14e9b4eac09dd868feb5c3b2b4442f" target="_top" xlink:title="Function used to append task to the idle list.">
<polygon fill="white" stroke="black" points="295,-66.5 295,-85.5 407,-85.5 407,-66.5 295,-66.5"/>
<text text-anchor="middle" x="351" y="-73.5" font-family="Helvetica,sans-Serif" font-size="10.00">Task_set_current_idle</text>
</a>
</g>
</g>
<!-- Node1&#45;&gt;Node6 -->
<g id="edge5" class="edge">
<title>Node1&#45;&gt;Node6</title>
<path fill="none" stroke="midnightblue" d="M432.67,-76C424.26,-76 415.63,-76 407.29,-76"/>
<polygon fill="midnightblue" stroke="midnightblue" points="432.77,-79.5 442.77,-76 432.77,-72.5 432.77,-79.5"/>
</g>
<!-- Node9 -->
<g id="node9" class="node">
<title>Node9</title>
<g id="a_node9"><a xlink:href="group___rltos__task__scheduler__api.html#gae2e9ba76398ba904d0c32071d3512a2b" target="_top" xlink:title="Function used to append task to the running list.">
<polygon fill="white" stroke="black" points="304.5,-25.5 304.5,-44.5 397.5,-44.5 397.5,-25.5 304.5,-25.5"/>
<text text-anchor="middle" x="351" y="-32.5" font-family="Helvetica,sans-Serif" font-size="10.00">Task_set_running</text>
</a>
</g>
</g>
<!-- Node1&#45;&gt;Node9 -->
<g id="edge8" class="edge">
<title>Node1&#45;&gt;Node9</title>
<path fill="none" stroke="midnightblue" d="M448.96,-63.6C428.29,-57.5 403.76,-50.27 384.55,-44.6"/>
<polygon fill="midnightblue" stroke="midnightblue" points="448.18,-67.02 458.76,-66.49 450.16,-60.3 448.18,-67.02"/>
</g>
<!-- Node3 -->
<g id="node3" class="node">
<title>Node3</title>
<g id="a_node3"><a xlink:href="group___rltos__task__api.html#ga834372bf1fbfa182dcd47b8f680f435a" target="_top" xlink:title="Initialises task control structure, stack &amp; appends to task list.">
<polygon fill="white" stroke="black" points="149,-164.5 149,-183.5 244,-183.5 244,-164.5 149,-164.5"/>
<text text-anchor="middle" x="196.5" y="-171.5" font-family="Helvetica,sans-Serif" font-size="10.00">Rltos_task_create</text>
</a>
</g>
</g>
<!-- Node2&#45;&gt;Node3 -->
<g id="edge2" class="edge">
<title>Node2&#45;&gt;Node3</title>
<path fill="none" stroke="midnightblue" d="M312.83,-145.26C289.43,-151.09 259.29,-158.6 235.7,-164.48"/>
<polygon fill="midnightblue" stroke="midnightblue" points="313.88,-148.61 322.74,-142.79 312.19,-141.82 313.88,-148.61"/>
</g>
<!-- Node4 -->
<g id="node4" class="node">
<title>Node4</title>
<g id="a_node4"><a xlink:href="group___rltos__task__scheduler__api.html#gae1bd8e8e3af9f778a719fb7a086451f1" target="_top" xlink:title="Function to initialise the current task on entry to the scheduler &amp; create + add the idle task to the...">
<polygon fill="white" stroke="black" points="145,-126.5 145,-145.5 248,-145.5 248,-126.5 145,-126.5"/>
<text text-anchor="middle" x="196.5" y="-133.5" font-family="Helvetica,sans-Serif" font-size="10.00">Task_scheduler_init</text>
</a>
</g>
</g>
<!-- Node2&#45;&gt;Node4 -->
<g id="edge3" class="edge">
<title>Node2&#45;&gt;Node4</title>
<path fill="none" stroke="midnightblue" d="M312.5,-136C293.14,-136 269.25,-136 248.26,-136"/>
<polygon fill="midnightblue" stroke="midnightblue" points="312.74,-139.5 322.74,-136 312.74,-132.5 312.74,-139.5"/>
</g>
<!-- Node5 -->
<g id="node5" class="node">
<title>Node5</title>
<g id="a_node5"><a xlink:href="group___rltos__task__api.html#gac44bc5223fd6d5d7f635776b1eb6231b" target="_top" xlink:title="Enters RLTOS kernel and starts scheduler timer.">
<polygon fill="white" stroke="black" points="0,-126.5 0,-145.5 98,-145.5 98,-126.5 0,-126.5"/>
<text text-anchor="middle" x="49" y="-133.5" font-family="Helvetica,sans-Serif" font-size="10.00">Rltos_kernel_enter</text>
</a>
</g>
</g>
<!-- Node4&#45;&gt;Node5 -->
<g id="edge4" class="edge">
<title>Node4&#45;&gt;Node5</title>
<path fill="none" stroke="midnightblue" d="M134.55,-136C122.41,-136 109.81,-136 98.17,-136"/>
<polygon fill="midnightblue" stroke="midnightblue" points="134.61,-139.5 144.61,-136 134.61,-132.5 134.61,-139.5"/>
</g>
<!-- Node7 -->
<g id="node7" class="node">
<title>Node7</title>
<g id="a_node7"><a xlink:href="group___rltos__task__api.html#ga581dd045fa985add7730a8a1581389b7" target="_top" xlink:title="Puts the current thread to sleep for a minimum of the given number of ticks.">
<polygon fill="white" stroke="black" points="150.5,-88.5 150.5,-107.5 242.5,-107.5 242.5,-88.5 150.5,-88.5"/>
<text text-anchor="middle" x="196.5" y="-95.5" font-family="Helvetica,sans-Serif" font-size="10.00">Rltos_task_sleep</text>
</a>
</g>
</g>
<!-- Node6&#45;&gt;Node7 -->
<g id="edge6" class="edge">
<title>Node6&#45;&gt;Node7</title>
<path fill="none" stroke="midnightblue" d="M284.8,-85.41C270.7,-87.44 256.09,-89.55 242.95,-91.44"/>
<polygon fill="midnightblue" stroke="midnightblue" points="285.55,-88.83 294.94,-83.94 284.55,-81.91 285.55,-88.83"/>
</g>
<!-- Node8 -->
<g id="node8" class="node">
<title>Node8</title>
<g id="a_node8"><a xlink:href="group___rltos__task__scheduler__api.html#ga90ce1a0329edc828e765740fce4e29cb" target="_top" xlink:title="Function used to set the current task to wait on an object (uses auxillary list)">
<polygon fill="white" stroke="black" points="139.5,-39 139.5,-69 253.5,-69 253.5,-39 139.5,-39"/>
<text text-anchor="start" x="147.5" y="-57" font-family="Helvetica,sans-Serif" font-size="10.00">Task_set_current_wait</text>
<text text-anchor="middle" x="196.5" y="-46" font-family="Helvetica,sans-Serif" font-size="10.00">_on_object</text>
</a>
</g>
</g>
<!-- Node6&#45;&gt;Node8 -->
<g id="edge7" class="edge">
<title>Node6&#45;&gt;Node8</title>
<path fill="none" stroke="midnightblue" d="M285.01,-66.62C274.52,-65.11 263.75,-63.56 253.5,-62.08"/>
<polygon fill="midnightblue" stroke="midnightblue" points="284.55,-70.09 294.94,-68.06 285.55,-63.17 284.55,-70.09"/>
</g>
<!-- Node10 -->
<g id="node10" class="node">
<title>Node10</title>
<g id="a_node10"><a xlink:href="group___rltos__task__scheduler__prv.html#ga609bbe6d9efbe0605517cde0ba5c9f06" target="_top" xlink:title="implementation of rltos tick increment &#45; called from rltos_scheduler_asm.asm">
<polygon fill="white" stroke="black" points="134,-0.5 134,-19.5 259,-19.5 259,-0.5 134,-0.5"/>
<text text-anchor="middle" x="196.5" y="-7.5" font-family="Helvetica,sans-Serif" font-size="10.00">Rltos_scheduler_tick_inc</text>
</a>
</g>
</g>
<!-- Node9&#45;&gt;Node10 -->
<g id="edge9" class="edge">
<title>Node9&#45;&gt;Node10</title>
<path fill="none" stroke="midnightblue" d="M294.35,-25.88C281.77,-23.81 268.37,-21.62 255.68,-19.54"/>
<polygon fill="midnightblue" stroke="midnightblue" points="293.81,-29.34 304.24,-27.5 294.94,-22.43 293.81,-29.34"/>
</g>
</g>
</svg>
        <g id="navigator" transform="translate(0 0)" fill="#404254">
                <rect fill="#f2f5e9" fill-opacity="0.5" stroke="#606060" stroke-width=".5" x="0" y="0" width="60" height="60"/>
                <use id="zoomplus" xlink:href="#zoomPlus" x="17" y="9" onmousedown="handleZoom(evt,'in')"/>
                <use id="zoomminus" xlink:href="#zoomMin" x="42" y="9" onmousedown="handleZoom(evt,'out')"/>
                <use id="reset" xlink:href="#resetDef" x="30" y="36" onmousedown="handleReset()"/>
                <g id="arrowUp" xlink:href="#dirArrow" transform="translate(30 24)" onmousedown="handlePan(0,-1)">
                  <use xlink:href="#rim" fill="#404040">
                        <set attributeName="fill" to="#808080" begin="arrowUp.mouseover" end="arrowUp.mouseout"/>
                  </use>
                  <path fill="none" stroke="white" stroke-width="1.5" d="M0,-3.0v7 M-2.5,-0.5L0,-3.0L2.5,-0.5"/>
                </g>
                <g id="arrowRight" xlink:href="#dirArrow" transform="rotate(90) translate(36 -43)" onmousedown="handlePan(1,0)">
                  <use xlink:href="#rim" fill="#404040">
                        <set attributeName="fill" to="#808080" begin="arrowRight.mouseover" end="arrowRight.mouseout"/>
                  </use>
                  <path fill="none" stroke="white" stroke-width="1.5" d="M0,-3.0v7 M-2.5,-0.5L0,-3.0L2.5,-0.5"/>
                </g>
                <g id="arrowDown" xlink:href="#dirArrow" transform="rotate(180) translate(-30 -48)" onmousedown="handlePan(0,1)">
                  <use xlink:href="#rim" fill="#404040">
                        <set attributeName="fill" to="#808080" begin="arrowDown.mouseover" end="arrowDown.mouseout"/>
                  </use>
                  <path fill="none" stroke="white" stroke-width="1.5" d="M0,-3.0v7 M-2.5,-0.5L0,-3.0L2.5,-0.5"/>
                </g>
                <g id="arrowLeft" xlink:href="#dirArrow" transform="rotate(270) translate(-36 17)" onmousedown="handlePan(-1,0)">
                  <use xlink:href="#rim" fill="#404040">
                        <set attributeName="fill" to="#808080" begin="arrowLeft.mouseover" end="arrowLeft.mouseout"/>
                  </use>
                  <path fill="none" stroke="white" stroke-width="1.5" d="M0,-3.0v7 M-2.5,-0.5L0,-3.0L2.5,-0.5"/>
                </g>
        </g>
        <svg viewBox="0 0 15 15" width="100%" height="30px" preserveAspectRatio="xMaxYMin meet">
         <g id="arrow_out" transform="scale(0.3 0.3)">
          <a xlink:href="group___rltos__task__scheduler__prv_gab915c720a9360b7be5bb388002b6ebcd_icgraph_org.svg" target="_base">
           <rect id="button" ry="5" rx="5" y="6" x="6" height="38" width="38"
                fill="#f2f5e9" fill-opacity="0.5" stroke="#606060" stroke-width="1.0"/>
           <path id="arrow"
             d="M 11.500037,31.436501 C 11.940474,20.09759 22.043105,11.32322 32.158766,21.979434 L 37.068811,17.246167 C 37.068811,17.246167 37.088388,32 37.088388,32 L 22.160133,31.978069 C 22.160133,31.978069 26.997745,27.140456 26.997745,27.140456 C 18.528582,18.264221 13.291696,25.230495 11.500037,31.436501 z"
             style="fill:#404040;"/>
          </a>
         </g>
        </svg>
</svg>
