<?xml version="1.0" encoding="UTF-8" standalone="no"?>
<!DOCTYPE svg PUBLIC "-//W3C//DTD SVG 1.1//EN"
 "http://www.w3.org/Graphics/SVG/1.1/DTD/svg11.dtd">
<!-- Generated by graphviz version 2.49.2 (20211016.1639)
 -->
<!-- Title: Task_remove_from_list Pages: 1 -->
<svg width="433pt" height="192pt"
 viewBox="0.00 0.00 433.00 192.00" xmlns="http://www.w3.org/2000/svg" xmlns:xlink="http://www.w3.org/1999/xlink">
<g id="graph0" class="graph" transform="scale(1 1) rotate(0) translate(4 188)">
<title>Task_remove_from_list</title>
<polygon fill="white" stroke="transparent" points="-4,4 -4,-188 429,-188 429,4 -4,4"/>
<!-- Node1 -->
<g id="node1" class="node">
<title>Node1</title>
<g id="a_node1"><a xlink:title="Function used to remove task from a task list.">
<polygon fill="#bfbfbf" stroke="black" points="309,-66.5 309,-85.5 425,-85.5 425,-66.5 309,-66.5"/>
<text text-anchor="middle" x="367" y="-73.5" font-family="Helvetica,sans-Serif" font-size="10.00">Task_remove_from_list</text>
</a>
</g>
</g>
<!-- Node2 -->
<g id="node2" class="node">
<title>Node2</title>
<g id="a_node2"><a xlink:href="group___rltos__task__scheduler__api.html#ga497b702db38a8ce118c8393eb0587712" target="_top" xlink:title="Function used to set deinit a task and removes from both state and aux lists.">
<polygon fill="white" stroke="black" points="184,-126.5 184,-145.5 250,-145.5 250,-126.5 184,-126.5"/>
<text text-anchor="middle" x="217" y="-133.5" font-family="Helvetica,sans-Serif" font-size="10.00">Task_deinit</text>
</a>
</g>
</g>
<!-- Node1&#45;&gt;Node2 -->
<g id="edge1" class="edge">
<title>Node1&#45;&gt;Node2</title>
<path fill="none" stroke="midnightblue" d="M333.28,-89.27C305.61,-100.48 266.62,-116.29 241.83,-126.34"/>
<polygon fill="midnightblue" stroke="midnightblue" points="334.6,-92.51 342.55,-85.51 331.97,-86.02 334.6,-92.51"/>
</g>
<!-- Node5 -->
<g id="node5" class="node">
<title>Node5</title>
<g id="a_node5"><a xlink:href="group___rltos__task__scheduler__api.html#gaef14e9b4eac09dd868feb5c3b2b4442f" target="_top" xlink:title="Function used to append task to the idle list.">
<polygon fill="white" stroke="black" points="161,-66.5 161,-85.5 273,-85.5 273,-66.5 161,-66.5"/>
<text text-anchor="middle" x="217" y="-73.5" font-family="Helvetica,sans-Serif" font-size="10.00">Task_set_current_idle</text>
</a>
</g>
</g>
<!-- Node1&#45;&gt;Node5 -->
<g id="edge4" class="edge">
<title>Node1&#45;&gt;Node5</title>
<path fill="none" stroke="midnightblue" d="M298.5,-76C290.01,-76 281.4,-76 273.12,-76"/>
<polygon fill="midnightblue" stroke="midnightblue" points="298.78,-79.5 308.78,-76 298.78,-72.5 298.78,-79.5"/>
</g>
<!-- Node8 -->
<g id="node8" class="node">
<title>Node8</title>
<g id="a_node8"><a xlink:href="group___rltos__task__scheduler__api.html#gae2e9ba76398ba904d0c32071d3512a2b" target="_top" xlink:title="Function used to append task to the running list.">
<polygon fill="white" stroke="black" points="170.5,-25.5 170.5,-44.5 263.5,-44.5 263.5,-25.5 170.5,-25.5"/>
<text text-anchor="middle" x="217" y="-32.5" font-family="Helvetica,sans-Serif" font-size="10.00">Task_set_running</text>
</a>
</g>
</g>
<!-- Node1&#45;&gt;Node8 -->
<g id="edge7" class="edge">
<title>Node1&#45;&gt;Node8</title>
<path fill="none" stroke="midnightblue" d="M321.81,-63.76C299.59,-57.6 273.07,-50.26 252.4,-44.53"/>
<polygon fill="midnightblue" stroke="midnightblue" points="321.1,-67.19 331.67,-66.49 322.97,-60.45 321.1,-67.19"/>
</g>
<!-- Node3 -->
<g id="node3" class="node">
<title>Node3</title>
<g id="a_node3"><a xlink:href="group___rltos__task__api.html#ga2e60520c320866bc60fdcb5fbc9260e3" target="_top" xlink:title="Deinitialises task control structure, and removes from any lists.">
<polygon fill="white" stroke="black" points="12,-164.5 12,-183.5 113,-183.5 113,-164.5 12,-164.5"/>
<text text-anchor="middle" x="62.5" y="-171.5" font-family="Helvetica,sans-Serif" font-size="10.00">Rltos_task_destroy</text>
</a>
</g>
</g>
<!-- Node2&#45;&gt;Node3 -->
<g id="edge2" class="edge">
<title>Node2&#45;&gt;Node3</title>
<path fill="none" stroke="midnightblue" d="M173.69,-146.54C151.14,-152.16 123.62,-159.02 101.72,-164.48"/>
<polygon fill="midnightblue" stroke="midnightblue" points="174.8,-149.87 183.66,-144.06 173.11,-143.08 174.8,-149.87"/>
</g>
<!-- Node4 -->
<g id="node4" class="node">
<title>Node4</title>
<g id="a_node4"><a xlink:href="group___rltos__task__scheduler__api.html#gaea5aed38dc28d13622f7ab25c56e9715" target="_top" xlink:title="Function to deinitialise the current task and remove the idle task from the running list.">
<polygon fill="white" stroke="black" points="6,-126.5 6,-145.5 119,-145.5 119,-126.5 6,-126.5"/>
<text text-anchor="middle" x="62.5" y="-133.5" font-family="Helvetica,sans-Serif" font-size="10.00">Task_scheduler_deinit</text>
</a>
</g>
</g>
<!-- Node2&#45;&gt;Node4 -->
<g id="edge3" class="edge">
<title>Node2&#45;&gt;Node4</title>
<path fill="none" stroke="midnightblue" d="M173.58,-136C156.75,-136 137.16,-136 119.22,-136"/>
<polygon fill="midnightblue" stroke="midnightblue" points="173.66,-139.5 183.66,-136 173.66,-132.5 173.66,-139.5"/>
</g>
<!-- Node6 -->
<g id="node6" class="node">
<title>Node6</title>
<g id="a_node6"><a xlink:href="group___rltos__task__api.html#ga581dd045fa985add7730a8a1581389b7" target="_top" xlink:title="Puts the current thread to sleep for a minimum of the given number of ticks.">
<polygon fill="white" stroke="black" points="16.5,-88.5 16.5,-107.5 108.5,-107.5 108.5,-88.5 16.5,-88.5"/>
<text text-anchor="middle" x="62.5" y="-95.5" font-family="Helvetica,sans-Serif" font-size="10.00">Rltos_task_sleep</text>
</a>
</g>
</g>
<!-- Node5&#45;&gt;Node6 -->
<g id="edge5" class="edge">
<title>Node5&#45;&gt;Node6</title>
<path fill="none" stroke="midnightblue" d="M150.8,-85.41C136.7,-87.44 122.09,-89.55 108.95,-91.44"/>
<polygon fill="midnightblue" stroke="midnightblue" points="151.55,-88.83 160.94,-83.94 150.55,-81.91 151.55,-88.83"/>
</g>
<!-- Node7 -->
<g id="node7" class="node">
<title>Node7</title>
<g id="a_node7"><a xlink:href="group___rltos__task__scheduler__api.html#ga90ce1a0329edc828e765740fce4e29cb" target="_top" xlink:title="Function used to set the current task to wait on an object (uses auxillary list)">
<polygon fill="white" stroke="black" points="5.5,-39 5.5,-69 119.5,-69 119.5,-39 5.5,-39"/>
<text text-anchor="start" x="13.5" y="-57" font-family="Helvetica,sans-Serif" font-size="10.00">Task_set_current_wait</text>
<text text-anchor="middle" x="62.5" y="-46" font-family="Helvetica,sans-Serif" font-size="10.00">_on_object</text>
</a>
</g>
</g>
<!-- Node5&#45;&gt;Node7 -->
<g id="edge6" class="edge">
<title>Node5&#45;&gt;Node7</title>
<path fill="none" stroke="midnightblue" d="M151.01,-66.62C140.52,-65.11 129.75,-63.56 119.5,-62.08"/>
<polygon fill="midnightblue" stroke="midnightblue" points="150.55,-70.09 160.94,-68.06 151.55,-63.17 150.55,-70.09"/>
</g>
<!-- Node9 -->
<g id="node9" class="node">
<title>Node9</title>
<g id="a_node9"><a xlink:href="group___rltos__task__scheduler__prv.html#ga609bbe6d9efbe0605517cde0ba5c9f06" target="_top" xlink:title="implementation of rltos tick increment &#45; called from rltos_scheduler_asm.asm">
<polygon fill="white" stroke="black" points="0,-0.5 0,-19.5 125,-19.5 125,-0.5 0,-0.5"/>
<text text-anchor="middle" x="62.5" y="-7.5" font-family="Helvetica,sans-Serif" font-size="10.00">Rltos_scheduler_tick_inc</text>
</a>
</g>
</g>
<!-- Node8&#45;&gt;Node9 -->
<g id="edge8" class="edge">
<title>Node8&#45;&gt;Node9</title>
<path fill="none" stroke="midnightblue" d="M160.35,-25.88C147.77,-23.81 134.37,-21.62 121.68,-19.54"/>
<polygon fill="midnightblue" stroke="midnightblue" points="159.81,-29.34 170.24,-27.5 160.94,-22.43 159.81,-29.34"/>
</g>
</g>
</svg>
