<?xml version="1.0" encoding="UTF-8" standalone="no"?>
<!DOCTYPE svg PUBLIC "-//W3C//DTD SVG 1.1//EN"
 "http://www.w3.org/Graphics/SVG/1.1/DTD/svg11.dtd">
<!-- Generated by graphviz version 2.49.2 (20211016.1639)
 -->
<!-- Title: Semaphore Private Pages: 1 -->
<svg width="366pt" height="27pt"
 viewBox="0.00 0.00 366.00 27.00" xmlns="http://www.w3.org/2000/svg" xmlns:xlink="http://www.w3.org/1999/xlink">
<g id="graph0" class="graph" transform="scale(1 1) rotate(0) translate(4 23)">
<title>Semaphore Private</title>
<polygon fill="white" stroke="transparent" points="-4,4 -4,-23 362,-23 362,4 -4,4"/>
<!-- Node2 -->
<g id="node1" class="node">
<title>Node2</title>
<g id="a_node1"><a xlink:href="group___rltos__semaphore__api.html" target="_top" xlink:title=" ">
<polygon fill="white" stroke="black" points="85,-19 0,-19 0,0 85,0 85,-19"/>
<text text-anchor="middle" x="42.5" y="-7" font-family="Helvetica,sans-Serif" font-size="10.00">Semaphore API</text>
</a>
</g>
</g>
<!-- Node1 -->
<g id="node2" class="node">
<title>Node1</title>
<g id="a_node2"><a xlink:title=" ">
<polygon fill="#bfbfbf" stroke="black" points="219,-19 121,-19 121,0 219,0 219,-19"/>
<text text-anchor="middle" x="170" y="-7" font-family="Helvetica,sans-Serif" font-size="10.00">Semaphore Private</text>
</a>
</g>
</g>
<!-- Node2&#45;&gt;Node1 -->
<g id="edge1" class="edge">
<title>Node2&#45;&gt;Node1</title>
<path fill="none" stroke="black" d="M95.4,-9.5C103.84,-9.5 112.54,-9.5 120.88,-9.5"/>
<polygon fill="black" stroke="black" points="95.29,-6 85.29,-9.5 95.29,-13 95.29,-6"/>
</g>
<!-- Node3 -->
<g id="node3" class="node">
<title>Node3</title>
<g id="a_node3"><a xlink:href="group___rltos__task__scheduler__api.html" target="_top" xlink:title=" ">
<polygon fill="white" stroke="black" points="358,-19 255,-19 255,0 358,0 358,-19"/>
<text text-anchor="middle" x="306.5" y="-7" font-family="Helvetica,sans-Serif" font-size="10.00">Task Scheduler API</text>
</a>
</g>
</g>
<!-- Node1&#45;&gt;Node3 -->
<g id="edge2" class="edge">
<title>Node1&#45;&gt;Node3</title>
<path fill="none" stroke="black" d="M229.41,-9.5C237.91,-9.5 246.61,-9.5 254.93,-9.5"/>
<polygon fill="black" stroke="black" points="229.18,-6 219.18,-9.5 229.18,-13 229.18,-6"/>
</g>
</g>
</svg>
