<?xml version="1.0" encoding="UTF-8" standalone="no"?>
<!DOCTYPE svg PUBLIC "-//W3C//DTD SVG 1.1//EN"
 "http://www.w3.org/Graphics/SVG/1.1/DTD/svg11.dtd">
<!-- Generated by graphviz version 2.49.2 (20211016.1639)
 -->
<!-- Title: Rltos_kernel_enter Pages: 1 -->
<svg width="657pt" height="116pt"
 viewBox="0.00 0.00 657.00 115.50" xmlns="http://www.w3.org/2000/svg" xmlns:xlink="http://www.w3.org/1999/xlink">
<g id="graph0" class="graph" transform="scale(1 1) rotate(0) translate(4 111.5)">
<title>Rltos_kernel_enter</title>
<polygon fill="white" stroke="transparent" points="-4,4 -4,-111.5 653,-111.5 653,4 -4,4"/>
<!-- Node1 -->
<g id="node1" class="node">
<title>Node1</title>
<g id="a_node1"><a xlink:title="Enters RLTOS kernel and starts scheduler timer. Should not return from this function,...">
<polygon fill="#bfbfbf" stroke="black" points="0,-57.5 0,-76.5 98,-76.5 98,-57.5 0,-57.5"/>
<text text-anchor="middle" x="49" y="-64.5" font-family="Helvetica,sans-Serif" font-size="10.00">Rltos_kernel_enter</text>
</a>
</g>
</g>
<!-- Node2 -->
<g id="node2" class="node">
<title>Node2</title>
<g id="a_node2"><a xlink:href="group___rltos__task__scheduler__api.html#gae1bd8e8e3af9f778a719fb7a086451f1" target="_top" xlink:title="Function to initialise the current task on entry to the scheduler &amp; create + add the idle task to the...">
<polygon fill="white" stroke="black" points="134,-57.5 134,-76.5 237,-76.5 237,-57.5 134,-57.5"/>
<text text-anchor="middle" x="185.5" y="-64.5" font-family="Helvetica,sans-Serif" font-size="10.00">Task_scheduler_init</text>
</a>
</g>
</g>
<!-- Node1&#45;&gt;Node2 -->
<g id="edge1" class="edge">
<title>Node1&#45;&gt;Node2</title>
<path fill="none" stroke="midnightblue" d="M98.18,-67C106.52,-67 115.29,-67 123.91,-67"/>
<polygon fill="midnightblue" stroke="midnightblue" points="123.93,-70.5 133.93,-67 123.93,-63.5 123.93,-70.5"/>
</g>
<!-- Node3 -->
<g id="node3" class="node">
<title>Node3</title>
<g id="a_node3"><a xlink:href="group___rltos__task__scheduler__prv.html#gaaf0d6196a9bd2cf22c5fd38b0a6725bf" target="_top" xlink:title="Idle task function &#45; calls hook function on each execution.">
<polygon fill="white" stroke="black" points="273,-76.5 273,-95.5 365,-95.5 365,-76.5 273,-76.5"/>
<text text-anchor="middle" x="319" y="-83.5" font-family="Helvetica,sans-Serif" font-size="10.00">Rltos_idle_thread</text>
</a>
</g>
</g>
<!-- Node2&#45;&gt;Node3 -->
<g id="edge2" class="edge">
<title>Node2&#45;&gt;Node3</title>
<path fill="none" stroke="midnightblue" d="M237.34,-74.35C245.67,-75.55 254.33,-76.8 262.75,-78.02"/>
<polygon fill="midnightblue" stroke="midnightblue" points="262.47,-81.51 272.87,-79.48 263.47,-74.59 262.47,-81.51"/>
</g>
<!-- Node4 -->
<g id="node4" class="node">
<title>Node4</title>
<g id="a_node4"><a xlink:href="group___rltos__task__scheduler__api.html#gaf77c7c3425845b054fd8fc2ddc9ea57a" target="_top" xlink:title="Function used to set initial stack pointer, task entry function &amp; clear pointers to next and prev nod...">
<polygon fill="white" stroke="black" points="291,-38.5 291,-57.5 347,-57.5 347,-38.5 291,-38.5"/>
<text text-anchor="middle" x="319" y="-45.5" font-family="Helvetica,sans-Serif" font-size="10.00">Task_init</text>
</a>
</g>
</g>
<!-- Node2&#45;&gt;Node4 -->
<g id="edge3" class="edge">
<title>Node2&#45;&gt;Node4</title>
<path fill="none" stroke="midnightblue" d="M237.34,-59.65C251.85,-57.56 267.39,-55.31 280.92,-53.36"/>
<polygon fill="midnightblue" stroke="midnightblue" points="281.42,-56.82 290.82,-51.93 280.42,-49.89 281.42,-56.82"/>
</g>
<!-- Node5 -->
<g id="node5" class="node">
<title>Node5</title>
<g id="a_node5"><a xlink:href="group___rltos__task__scheduler__api.html#gace63a5440ce856ed27f2c9dc07331b67" target="_top" xlink:title="Function used to insert the task to the running list.">
<polygon fill="white" stroke="black" points="402.5,-57.5 402.5,-76.5 495.5,-76.5 495.5,-57.5 402.5,-57.5"/>
<text text-anchor="middle" x="449" y="-64.5" font-family="Helvetica,sans-Serif" font-size="10.00">Task_set_running</text>
</a>
</g>
</g>
<!-- Node4&#45;&gt;Node5 -->
<g id="edge4" class="edge">
<title>Node4&#45;&gt;Node5</title>
<path fill="none" stroke="midnightblue" d="M347.15,-52.03C360.27,-53.98 376.53,-56.39 392.13,-58.71"/>
<polygon fill="midnightblue" stroke="midnightblue" points="391.85,-62.2 402.25,-60.21 392.87,-55.28 391.85,-62.2"/>
</g>
<!-- Node8 -->
<g id="node8" class="node">
<title>Node8</title>
<g id="a_node8"><a xlink:href="group___rltos__task__scheduler__api.html#ga52008f4c16a074cacada44393f18ef3b" target="_top" xlink:title="Function used to append the task to the stopped list.">
<polygon fill="white" stroke="black" points="401,-19.5 401,-38.5 497,-38.5 497,-19.5 401,-19.5"/>
<text text-anchor="middle" x="449" y="-26.5" font-family="Helvetica,sans-Serif" font-size="10.00">Task_set_stopped</text>
</a>
</g>
</g>
<!-- Node4&#45;&gt;Node8 -->
<g id="edge7" class="edge">
<title>Node4&#45;&gt;Node8</title>
<path fill="none" stroke="midnightblue" d="M347.15,-43.97C359.97,-42.07 375.78,-39.72 391.06,-37.45"/>
<polygon fill="midnightblue" stroke="midnightblue" points="391.6,-40.91 400.98,-35.98 390.57,-33.99 391.6,-40.91"/>
</g>
<!-- Node6 -->
<g id="node6" class="node">
<title>Node6</title>
<g id="a_node6"><a xlink:href="group___rltos__task__scheduler__prv.html#ga70d365501a692d51bd9f0fecb49a0f1d" target="_top" xlink:title="Function used to insert a task into a list directly after the index.">
<polygon fill="white" stroke="black" points="542,-77 542,-107 640,-107 640,-77 542,-77"/>
<text text-anchor="start" x="550" y="-95" font-family="Helvetica,sans-Serif" font-size="10.00">Task_insert_in_list</text>
<text text-anchor="middle" x="591" y="-84" font-family="Helvetica,sans-Serif" font-size="10.00">_after_index</text>
</a>
</g>
</g>
<!-- Node5&#45;&gt;Node6 -->
<g id="edge5" class="edge">
<title>Node5&#45;&gt;Node6</title>
<path fill="none" stroke="midnightblue" d="M495.84,-75.19C507.3,-77.23 519.75,-79.46 531.73,-81.59"/>
<polygon fill="midnightblue" stroke="midnightblue" points="531.19,-85.05 541.65,-83.37 532.42,-78.16 531.19,-85.05"/>
</g>
<!-- Node7 -->
<g id="node7" class="node">
<title>Node7</title>
<g id="a_node7"><a xlink:href="group___rltos__task__scheduler__prv.html#gae76b463d2edcb6299d3cf3d2c175055b" target="_top" xlink:title="Function used to remove task from a task list.">
<polygon fill="white" stroke="black" points="533,-38.5 533,-57.5 649,-57.5 649,-38.5 533,-38.5"/>
<text text-anchor="middle" x="591" y="-45.5" font-family="Helvetica,sans-Serif" font-size="10.00">Task_remove_from_list</text>
</a>
</g>
</g>
<!-- Node5&#45;&gt;Node7 -->
<g id="edge6" class="edge">
<title>Node5&#45;&gt;Node7</title>
<path fill="none" stroke="midnightblue" d="M495.84,-60.78C504.42,-59.61 513.54,-58.38 522.61,-57.15"/>
<polygon fill="midnightblue" stroke="midnightblue" points="523.35,-60.58 532.79,-55.76 522.41,-53.64 523.35,-60.58"/>
</g>
<!-- Node8&#45;&gt;Node7 -->
<g id="edge9" class="edge">
<title>Node8&#45;&gt;Node7</title>
<path fill="none" stroke="midnightblue" d="M497.01,-35.38C505.23,-36.5 513.93,-37.68 522.57,-38.85"/>
<polygon fill="midnightblue" stroke="midnightblue" points="522.29,-42.34 532.67,-40.22 523.23,-35.41 522.29,-42.34"/>
</g>
<!-- Node9 -->
<g id="node9" class="node">
<title>Node9</title>
<g id="a_node9"><a xlink:href="group___rltos__task__scheduler__prv.html#ga9951add830408f2b732d52e13c3ee0e9" target="_top" xlink:title="Function used to append task to a task list.">
<polygon fill="white" stroke="black" points="538,-0.5 538,-19.5 644,-19.5 644,-0.5 538,-0.5"/>
<text text-anchor="middle" x="591" y="-7.5" font-family="Helvetica,sans-Serif" font-size="10.00">Task_append_to_list</text>
</a>
</g>
</g>
<!-- Node8&#45;&gt;Node9 -->
<g id="edge8" class="edge">
<title>Node8&#45;&gt;Node9</title>
<path fill="none" stroke="midnightblue" d="M497.01,-22.62C506.78,-21.29 517.22,-19.88 527.45,-18.49"/>
<polygon fill="midnightblue" stroke="midnightblue" points="528.14,-21.93 537.57,-17.12 527.19,-14.99 528.14,-21.93"/>
</g>
</g>
</svg>
