<?xml version="1.0" encoding="UTF-8" standalone="no"?>
<!DOCTYPE svg PUBLIC "-//W3C//DTD SVG 1.1//EN"
 "http://www.w3.org/Graphics/SVG/1.1/DTD/svg11.dtd">
<!-- Generated by graphviz version 2.49.2 (20211016.1639)
 -->
<!-- Title: Core Pages: 1 -->
<svg width="165pt" height="64pt"
 viewBox="0.00 0.00 165.00 64.00" xmlns="http://www.w3.org/2000/svg" xmlns:xlink="http://www.w3.org/1999/xlink">
<g id="graph0" class="graph" transform="scale(1 1) rotate(0) translate(4 60)">
<title>Core</title>
<polygon fill="white" stroke="transparent" points="-4,4 -4,-60 161,-60 161,4 -4,4"/>
<!-- Node1 -->
<g id="node1" class="node">
<title>Node1</title>
<g id="a_node1"><a xlink:title=" ">
<polygon fill="#bfbfbf" stroke="black" points="37,-37 0,-37 0,-18 37,-18 37,-37"/>
<text text-anchor="middle" x="18.5" y="-25" font-family="Helvetica,sans-Serif" font-size="10.00">Core</text>
</a>
</g>
</g>
<!-- Node2 -->
<g id="node2" class="node">
<title>Node2</title>
<g id="a_node2"><a xlink:href="group___rltos__task.html" target="_top" xlink:title=" ">
<polygon fill="white" stroke="black" points="134,-56 96,-56 96,-37 134,-37 134,-56"/>
<text text-anchor="middle" x="115" y="-44" font-family="Helvetica,sans-Serif" font-size="10.00">Task</text>
</a>
</g>
</g>
<!-- Node1&#45;&gt;Node2 -->
<g id="edge1" class="edge">
<title>Node1&#45;&gt;Node2</title>
<path fill="none" stroke="black" d="M47.48,-33.13C63.17,-36.28 82.28,-40.12 95.98,-42.88"/>
<polygon fill="black" stroke="black" points="47.77,-29.61 37.27,-31.07 46.39,-36.48 47.77,-29.61"/>
</g>
<!-- Node3 -->
<g id="node3" class="node">
<title>Node3</title>
<g id="a_node3"><a xlink:href="group___rltos__task__scheduler.html" target="_top" xlink:title=" ">
<polygon fill="white" stroke="black" points="157,-19 73,-19 73,0 157,0 157,-19"/>
<text text-anchor="middle" x="115" y="-7" font-family="Helvetica,sans-Serif" font-size="10.00">Task Scheduler</text>
</a>
</g>
</g>
<!-- Node1&#45;&gt;Node3 -->
<g id="edge2" class="edge">
<title>Node1&#45;&gt;Node3</title>
<path fill="none" stroke="black" d="M47.19,-22.23C55.2,-20.7 64.13,-19 72.79,-17.35"/>
<polygon fill="black" stroke="black" points="46.44,-18.8 37.27,-24.11 47.75,-25.68 46.44,-18.8"/>
</g>
</g>
</svg>
