<?xml version="1.0" encoding="UTF-8" standalone="no"?>
<!DOCTYPE svg PUBLIC "-//W3C//DTD SVG 1.1//EN"
 "http://www.w3.org/Graphics/SVG/1.1/DTD/svg11.dtd">
<!-- Generated by graphviz version 2.49.2 (20211016.1639)
 -->
<!-- Title: Task Scheduler API Pages: 1 -->
<svg width="399pt" height="212pt"
 viewBox="0.00 0.00 399.00 212.00" xmlns="http://www.w3.org/2000/svg" xmlns:xlink="http://www.w3.org/1999/xlink">
<g id="graph0" class="graph" transform="scale(1 1) rotate(0) translate(4 208)">
<title>Task Scheduler API</title>
<polygon fill="white" stroke="transparent" points="-4,4 -4,-208 395,-208 395,4 -4,4"/>
<!-- Node7 -->
<g id="node1" class="node">
<title>Node7</title>
<g id="a_node1"><a xlink:href="group___rltos__event__flags__prv.html" target="_top" xlink:title=" ">
<polygon fill="white" stroke="black" points="100,-204 0,-204 0,-185 100,-185 100,-204"/>
<text text-anchor="middle" x="50" y="-192" font-family="Helvetica,sans-Serif" font-size="10.00">Event Flags Private</text>
</a>
</g>
</g>
<!-- Node1 -->
<g id="node7" class="node">
<title>Node1</title>
<g id="a_node7"><a xlink:title=" ">
<polygon fill="#bfbfbf" stroke="black" points="239,-111 136,-111 136,-92 239,-92 239,-111"/>
<text text-anchor="middle" x="187.5" y="-99" font-family="Helvetica,sans-Serif" font-size="10.00">Task Scheduler API</text>
</a>
</g>
</g>
<!-- Node7&#45;&gt;Node1 -->
<g id="edge6" class="edge">
<title>Node7&#45;&gt;Node1</title>
<path fill="none" stroke="black" d="M91.67,-180.89C94.55,-179.53 97.35,-178.06 100,-176.5 131.84,-157.71 163.07,-126.63 177.78,-111.04"/>
<polygon fill="black" stroke="black" points="90.16,-177.73 82.36,-184.91 92.93,-184.16 90.16,-177.73"/>
</g>
<!-- Node6 -->
<g id="node2" class="node">
<title>Node6</title>
<g id="a_node2"><a xlink:href="group___rltos__mutex__prv.html" target="_top" xlink:title=" ">
<polygon fill="white" stroke="black" points="88,-167 12,-167 12,-148 88,-148 88,-167"/>
<text text-anchor="middle" x="50" y="-155" font-family="Helvetica,sans-Serif" font-size="10.00">Mutex Private</text>
</a>
</g>
</g>
<!-- Node6&#45;&gt;Node1 -->
<g id="edge5" class="edge">
<title>Node6&#45;&gt;Node1</title>
<path fill="none" stroke="black" d="M87.54,-144.36C91.75,-142.76 95.98,-141.12 100,-139.5 122.67,-130.37 148.25,-118.99 165.68,-111.08"/>
<polygon fill="black" stroke="black" points="85.96,-141.21 77.82,-147.99 88.41,-147.77 85.96,-141.21"/>
</g>
<!-- Node5 -->
<g id="node3" class="node">
<title>Node5</title>
<g id="a_node3"><a xlink:href="group___rltos__queue__prv.html" target="_top" xlink:title=" ">
<polygon fill="white" stroke="black" points="88.5,-130 11.5,-130 11.5,-111 88.5,-111 88.5,-130"/>
<text text-anchor="middle" x="50" y="-118" font-family="Helvetica,sans-Serif" font-size="10.00">Queue Private</text>
</a>
</g>
</g>
<!-- Node5&#45;&gt;Node1 -->
<g id="edge4" class="edge">
<title>Node5&#45;&gt;Node1</title>
<path fill="none" stroke="black" d="M98.96,-113.78C110.89,-112.1 123.73,-110.3 135.79,-108.61"/>
<polygon fill="black" stroke="black" points="98.16,-110.35 88.74,-115.21 99.13,-117.28 98.16,-110.35"/>
</g>
<!-- Node4 -->
<g id="node4" class="node">
<title>Node4</title>
<g id="a_node4"><a xlink:href="group___rltos__semaphore__prv.html" target="_top" xlink:title=" ">
<polygon fill="white" stroke="black" points="99,-93 1,-93 1,-74 99,-74 99,-93"/>
<text text-anchor="middle" x="50" y="-81" font-family="Helvetica,sans-Serif" font-size="10.00">Semaphore Private</text>
</a>
</g>
</g>
<!-- Node4&#45;&gt;Node1 -->
<g id="edge3" class="edge">
<title>Node4&#45;&gt;Node1</title>
<path fill="none" stroke="black" d="M109.34,-91.25C118.13,-92.42 127.14,-93.61 135.75,-94.76"/>
<polygon fill="black" stroke="black" points="109.53,-87.74 99.15,-89.9 108.61,-94.68 109.53,-87.74"/>
</g>
<!-- Node3 -->
<g id="node5" class="node">
<title>Node3</title>
<g id="a_node5"><a xlink:href="group___rltos__task__prv.html" target="_top" xlink:title=" ">
<polygon fill="white" stroke="black" points="85,-56 15,-56 15,-37 85,-37 85,-56"/>
<text text-anchor="middle" x="50" y="-44" font-family="Helvetica,sans-Serif" font-size="10.00">Task Private</text>
</a>
</g>
</g>
<!-- Node3&#45;&gt;Node1 -->
<g id="edge2" class="edge">
<title>Node3&#45;&gt;Node1</title>
<path fill="none" stroke="black" d="M85.29,-59.67C90.24,-61.61 95.25,-63.59 100,-65.5 121.73,-74.23 146.39,-84.53 163.8,-91.87"/>
<polygon fill="black" stroke="black" points="86.56,-56.41 75.97,-56.05 84.02,-62.94 86.56,-56.41"/>
</g>
<!-- Node2 -->
<g id="node6" class="node">
<title>Node2</title>
<g id="a_node6"><a xlink:href="group___rltos__task__scheduler.html" target="_top" xlink:title=" ">
<polygon fill="white" stroke="black" points="92,-19 8,-19 8,0 92,0 92,-19"/>
<text text-anchor="middle" x="50" y="-7" font-family="Helvetica,sans-Serif" font-size="10.00">Task Scheduler</text>
</a>
</g>
</g>
<!-- Node2&#45;&gt;Node1 -->
<g id="edge1" class="edge">
<title>Node2&#45;&gt;Node1</title>
<path fill="none" stroke="black" d="M89.71,-23.1C93.27,-24.77 96.75,-26.57 100,-28.5 131.1,-46.95 162.18,-76.59 177.2,-91.8"/>
<polygon fill="black" stroke="black" points="90.82,-19.77 80.25,-19.02 88.04,-26.19 90.82,-19.77"/>
</g>
<!-- Node8 -->
<g id="node8" class="node">
<title>Node8</title>
<g id="a_node8"><a xlink:href="group___rltos__task__scheduler__prv.html" target="_top" xlink:title=" ">
<polygon fill="white" stroke="black" points="391,-111 275,-111 275,-92 391,-92 391,-111"/>
<text text-anchor="middle" x="333" y="-99" font-family="Helvetica,sans-Serif" font-size="10.00">Task Scheduler Private</text>
</a>
</g>
</g>
<!-- Node1&#45;&gt;Node8 -->
<g id="edge7" class="edge">
<title>Node1&#45;&gt;Node8</title>
<path fill="none" stroke="black" d="M249.2,-101.5C257.59,-101.5 266.19,-101.5 274.52,-101.5"/>
<polygon fill="black" stroke="black" points="249.09,-98 239.09,-101.5 249.09,-105 249.09,-98"/>
</g>
</g>
</svg>
