<?xml version="1.0" encoding="UTF-8" standalone="no"?>
<!DOCTYPE svg PUBLIC "-//W3C//DTD SVG 1.1//EN"
 "http://www.w3.org/Graphics/SVG/1.1/DTD/svg11.dtd">
<!-- Generated by graphviz version 2.49.2 (20211016.1639)
 -->
<!-- Title: Task_deinit Pages: 1 -->
<svg width="223pt" height="66pt"
 viewBox="0.00 0.00 223.00 66.00" xmlns="http://www.w3.org/2000/svg" xmlns:xlink="http://www.w3.org/1999/xlink">
<g id="graph0" class="graph" transform="scale(1 1) rotate(0) translate(4 62)">
<title>Task_deinit</title>
<polygon fill="white" stroke="transparent" points="-4,4 -4,-62 219,-62 219,4 -4,4"/>
<!-- Node1 -->
<g id="node1" class="node">
<title>Node1</title>
<g id="a_node1"><a xlink:title="Function used to set deinit a task and removes from both state and aux lists.">
<polygon fill="#bfbfbf" stroke="black" points="149,-19.5 149,-38.5 215,-38.5 215,-19.5 149,-19.5"/>
<text text-anchor="middle" x="182" y="-26.5" font-family="Helvetica,sans-Serif" font-size="10.00">Task_deinit</text>
</a>
</g>
</g>
<!-- Node2 -->
<g id="node2" class="node">
<title>Node2</title>
<g id="a_node2"><a xlink:href="group___rltos__task__api.html#ga2e60520c320866bc60fdcb5fbc9260e3" target="_top" xlink:title="Deinitialises task control structure, and removes from any lists.">
<polygon fill="white" stroke="black" points="6,-38.5 6,-57.5 107,-57.5 107,-38.5 6,-38.5"/>
<text text-anchor="middle" x="56.5" y="-45.5" font-family="Helvetica,sans-Serif" font-size="10.00">Rltos_task_destroy</text>
</a>
</g>
</g>
<!-- Node1&#45;&gt;Node2 -->
<g id="edge1" class="edge">
<title>Node1&#45;&gt;Node2</title>
<path fill="none" stroke="midnightblue" d="M138.97,-35.47C128.75,-37.04 117.72,-38.74 107.18,-40.36"/>
<polygon fill="midnightblue" stroke="midnightblue" points="139.52,-38.92 148.87,-33.94 138.46,-32 139.52,-38.92"/>
</g>
<!-- Node3 -->
<g id="node3" class="node">
<title>Node3</title>
<g id="a_node3"><a xlink:href="group___rltos__task__scheduler__api.html#gaea5aed38dc28d13622f7ab25c56e9715" target="_top" xlink:title="Function to deinitialise the current task and remove the idle task from the running list.">
<polygon fill="white" stroke="black" points="0,-0.5 0,-19.5 113,-19.5 113,-0.5 0,-0.5"/>
<text text-anchor="middle" x="56.5" y="-7.5" font-family="Helvetica,sans-Serif" font-size="10.00">Task_scheduler_deinit</text>
</a>
</g>
</g>
<!-- Node1&#45;&gt;Node3 -->
<g id="edge2" class="edge">
<title>Node1&#45;&gt;Node3</title>
<path fill="none" stroke="midnightblue" d="M138.83,-22.51C130.64,-21.25 121.93,-19.91 113.38,-18.6"/>
<polygon fill="midnightblue" stroke="midnightblue" points="138.46,-26 148.87,-24.06 139.52,-19.08 138.46,-26"/>
</g>
</g>
</svg>
