<?xml version="1.0" encoding="UTF-8" standalone="no"?>
<!DOCTYPE svg PUBLIC "-//W3C//DTD SVG 1.1//EN"
 "http://www.w3.org/Graphics/SVG/1.1/DTD/svg11.dtd">
<!-- Generated by graphviz version 2.49.2 (20211016.1639)
 -->
<!-- Title: Rltos_task_stop Pages: 1 -->
<svg width="496pt" height="66pt"
 viewBox="0.00 0.00 496.00 66.00" xmlns="http://www.w3.org/2000/svg" xmlns:xlink="http://www.w3.org/1999/xlink">
<g id="graph0" class="graph" transform="scale(1 1) rotate(0) translate(4 62)">
<title>Rltos_task_stop</title>
<polygon fill="white" stroke="transparent" points="-4,4 -4,-62 492,-62 492,4 -4,4"/>
<!-- Node1 -->
<g id="node1" class="node">
<title>Node1</title>
<g id="a_node1"><a xlink:title="Stops the targetted task indefinitely.">
<polygon fill="#bfbfbf" stroke="black" points="0,-19.5 0,-38.5 87,-38.5 87,-19.5 0,-19.5"/>
<text text-anchor="middle" x="43.5" y="-26.5" font-family="Helvetica,sans-Serif" font-size="10.00">Rltos_task_stop</text>
</a>
</g>
</g>
<!-- Node2 -->
<g id="node2" class="node">
<title>Node2</title>
<g id="a_node2"><a xlink:href="group___rltos__task__scheduler__api.html#gaa65328e4b21083ff31b9ab00088bba47" target="_top" xlink:title="Function used to append the task to the stopped list.">
<polygon fill="white" stroke="black" points="123,-19.5 123,-38.5 219,-38.5 219,-19.5 123,-19.5"/>
<text text-anchor="middle" x="171" y="-26.5" font-family="Helvetica,sans-Serif" font-size="10.00">Task_set_stopped</text>
</a>
</g>
</g>
<!-- Node1&#45;&gt;Node2 -->
<g id="edge1" class="edge">
<title>Node1&#45;&gt;Node2</title>
<path fill="none" stroke="midnightblue" d="M87.34,-29C95.42,-29 103.98,-29 112.43,-29"/>
<polygon fill="midnightblue" stroke="midnightblue" points="112.62,-32.5 122.62,-29 112.62,-25.5 112.62,-32.5"/>
</g>
<!-- Node3 -->
<g id="node3" class="node">
<title>Node3</title>
<g id="a_node3"><a xlink:href="group___rltos__task__scheduler__prv.html#ga28f6d69d82ff510be23a1a401d5d42a9" target="_top" xlink:title="Function used to append task to a task list.">
<polygon fill="white" stroke="black" points="260,-38.5 260,-57.5 366,-57.5 366,-38.5 260,-38.5"/>
<text text-anchor="middle" x="313" y="-45.5" font-family="Helvetica,sans-Serif" font-size="10.00">Task_append_to_list</text>
</a>
</g>
</g>
<!-- Node2&#45;&gt;Node3 -->
<g id="edge2" class="edge">
<title>Node2&#45;&gt;Node3</title>
<path fill="none" stroke="midnightblue" d="M219.01,-35.38C228.78,-36.71 239.22,-38.12 249.45,-39.51"/>
<polygon fill="midnightblue" stroke="midnightblue" points="249.19,-43.01 259.57,-40.88 250.14,-36.07 249.19,-43.01"/>
</g>
<!-- Node4 -->
<g id="node4" class="node">
<title>Node4</title>
<g id="a_node4"><a xlink:href="group___rltos__task__scheduler__prv.html#ga421dbb81487cd2fdc1fd06b1407eae5b" target="_top" xlink:title="Function used to remove task from a task list.">
<polygon fill="white" stroke="black" points="255,-0.5 255,-19.5 371,-19.5 371,-0.5 255,-0.5"/>
<text text-anchor="middle" x="313" y="-7.5" font-family="Helvetica,sans-Serif" font-size="10.00">Task_remove_from_list</text>
</a>
</g>
</g>
<!-- Node2&#45;&gt;Node4 -->
<g id="edge3" class="edge">
<title>Node2&#45;&gt;Node4</title>
<path fill="none" stroke="midnightblue" d="M219.01,-22.62C227.23,-21.5 235.93,-20.32 244.57,-19.15"/>
<polygon fill="midnightblue" stroke="midnightblue" points="245.23,-22.59 254.67,-17.78 244.29,-15.66 245.23,-22.59"/>
</g>
<!-- Node5 -->
<g id="node5" class="node">
<title>Node5</title>
<g id="a_node5"><a xlink:href="group___rltos__task__scheduler__prv.html#ga6f098dd7382a94e001bdeeadd29ae7bf" target="_top" xlink:title="Function used to check if a task is contained within the task list or not.">
<polygon fill="white" stroke="black" points="407,-0.5 407,-19.5 488,-19.5 488,-0.5 407,-0.5"/>
<text text-anchor="middle" x="447.5" y="-7.5" font-family="Helvetica,sans-Serif" font-size="10.00">Task_is_in_list</text>
</a>
</g>
</g>
<!-- Node4&#45;&gt;Node5 -->
<g id="edge4" class="edge">
<title>Node4&#45;&gt;Node5</title>
<path fill="none" stroke="midnightblue" d="M371.35,-10C379.71,-10 388.26,-10 396.46,-10"/>
<polygon fill="midnightblue" stroke="midnightblue" points="396.62,-13.5 406.62,-10 396.62,-6.5 396.62,-13.5"/>
</g>
</g>
</svg>
