<?xml version="1.0" encoding="UTF-8" standalone="no"?>
<!DOCTYPE svg PUBLIC "-//W3C//DTD SVG 1.1//EN"
 "http://www.w3.org/Graphics/SVG/1.1/DTD/svg11.dtd">
<!-- Generated by graphviz version 2.49.2 (20211016.1639)
 -->
<!-- Title: Rltos_kernel_enter Pages: 1 -->
<svg width="792pt" height="104pt"
 viewBox="0.00 0.00 792.00 104.00" xmlns="http://www.w3.org/2000/svg" xmlns:xlink="http://www.w3.org/1999/xlink">
<g id="graph0" class="graph" transform="scale(1 1) rotate(0) translate(4 100)">
<title>Rltos_kernel_enter</title>
<polygon fill="white" stroke="transparent" points="-4,4 -4,-100 788,-100 788,4 -4,4"/>
<!-- Node1 -->
<g id="node1" class="node">
<title>Node1</title>
<g id="a_node1"><a xlink:title="Enters RLTOS kernel and starts scheduler timer.">
<polygon fill="#bfbfbf" stroke="black" points="0,-57.5 0,-76.5 98,-76.5 98,-57.5 0,-57.5"/>
<text text-anchor="middle" x="49" y="-64.5" font-family="Helvetica,sans-Serif" font-size="10.00">Rltos_kernel_enter</text>
</a>
</g>
</g>
<!-- Node2 -->
<g id="node2" class="node">
<title>Node2</title>
<g id="a_node2"><a xlink:href="group___rltos__task__scheduler__api.html#gae1bd8e8e3af9f778a719fb7a086451f1" target="_top" xlink:title="Function to initialise the current task on entry to the scheduler &amp; create + add the idle task to the...">
<polygon fill="white" stroke="black" points="134,-57.5 134,-76.5 237,-76.5 237,-57.5 134,-57.5"/>
<text text-anchor="middle" x="185.5" y="-64.5" font-family="Helvetica,sans-Serif" font-size="10.00">Task_scheduler_init</text>
</a>
</g>
</g>
<!-- Node1&#45;&gt;Node2 -->
<g id="edge1" class="edge">
<title>Node1&#45;&gt;Node2</title>
<path fill="none" stroke="midnightblue" d="M98.18,-67C106.52,-67 115.29,-67 123.91,-67"/>
<polygon fill="midnightblue" stroke="midnightblue" points="123.93,-70.5 133.93,-67 123.93,-63.5 123.93,-70.5"/>
</g>
<!-- Node3 -->
<g id="node3" class="node">
<title>Node3</title>
<g id="a_node3"><a xlink:href="group___rltos__task__scheduler__prv.html#gaaf0d6196a9bd2cf22c5fd38b0a6725bf" target="_top" xlink:title="Idle task function &#45; calls hook function on each execution.">
<polygon fill="white" stroke="black" points="273,-76.5 273,-95.5 365,-95.5 365,-76.5 273,-76.5"/>
<text text-anchor="middle" x="319" y="-83.5" font-family="Helvetica,sans-Serif" font-size="10.00">Rltos_idle_thread</text>
</a>
</g>
</g>
<!-- Node2&#45;&gt;Node3 -->
<g id="edge2" class="edge">
<title>Node2&#45;&gt;Node3</title>
<path fill="none" stroke="midnightblue" d="M237.34,-74.35C245.67,-75.55 254.33,-76.8 262.75,-78.02"/>
<polygon fill="midnightblue" stroke="midnightblue" points="262.47,-81.51 272.87,-79.48 263.47,-74.59 262.47,-81.51"/>
</g>
<!-- Node4 -->
<g id="node4" class="node">
<title>Node4</title>
<g id="a_node4"><a xlink:href="group___rltos__task__scheduler__api.html#ga6bbde0c90e5e572e8131cc7652d8dd78" target="_top" xlink:title="Function used to set initial stack pointer, task entry function &amp; clear pointers to next and prev nod...">
<polygon fill="white" stroke="black" points="291,-38.5 291,-57.5 347,-57.5 347,-38.5 291,-38.5"/>
<text text-anchor="middle" x="319" y="-45.5" font-family="Helvetica,sans-Serif" font-size="10.00">Task_init</text>
</a>
</g>
</g>
<!-- Node2&#45;&gt;Node4 -->
<g id="edge3" class="edge">
<title>Node2&#45;&gt;Node4</title>
<path fill="none" stroke="midnightblue" d="M237.34,-59.65C251.85,-57.56 267.39,-55.31 280.92,-53.36"/>
<polygon fill="midnightblue" stroke="midnightblue" points="281.42,-56.82 290.82,-51.93 280.42,-49.89 281.42,-56.82"/>
</g>
<!-- Node5 -->
<g id="node5" class="node">
<title>Node5</title>
<g id="a_node5"><a xlink:href="group___rltos__task__scheduler__api.html#gae2e9ba76398ba904d0c32071d3512a2b" target="_top" xlink:title="Function used to insert the task to the running list.">
<polygon fill="white" stroke="black" points="402.5,-57.5 402.5,-76.5 495.5,-76.5 495.5,-57.5 402.5,-57.5"/>
<text text-anchor="middle" x="449" y="-64.5" font-family="Helvetica,sans-Serif" font-size="10.00">Task_set_running</text>
</a>
</g>
</g>
<!-- Node4&#45;&gt;Node5 -->
<g id="edge4" class="edge">
<title>Node4&#45;&gt;Node5</title>
<path fill="none" stroke="midnightblue" d="M347.15,-52.03C360.27,-53.98 376.53,-56.39 392.13,-58.71"/>
<polygon fill="midnightblue" stroke="midnightblue" points="391.85,-62.2 402.25,-60.21 392.87,-55.28 391.85,-62.2"/>
</g>
<!-- Node9 -->
<g id="node9" class="node">
<title>Node9</title>
<g id="a_node9"><a xlink:href="group___rltos__task__scheduler__api.html#gaa65328e4b21083ff31b9ab00088bba47" target="_top" xlink:title="Function used to append the task to the stopped list.">
<polygon fill="white" stroke="black" points="401,-19.5 401,-38.5 497,-38.5 497,-19.5 401,-19.5"/>
<text text-anchor="middle" x="449" y="-26.5" font-family="Helvetica,sans-Serif" font-size="10.00">Task_set_stopped</text>
</a>
</g>
</g>
<!-- Node4&#45;&gt;Node9 -->
<g id="edge8" class="edge">
<title>Node4&#45;&gt;Node9</title>
<path fill="none" stroke="midnightblue" d="M347.15,-43.97C359.97,-42.07 375.78,-39.72 391.06,-37.45"/>
<polygon fill="midnightblue" stroke="midnightblue" points="391.6,-40.91 400.98,-35.98 390.57,-33.99 391.6,-40.91"/>
</g>
<!-- Node6 -->
<g id="node6" class="node">
<title>Node6</title>
<g id="a_node6"><a xlink:href="group___rltos__task__scheduler__prv.html#ga22fda87fe06611ea2bc93aec643b60bd" target="_top" xlink:title="Function used to insert a task in the running list (sorted).">
<polygon fill="white" stroke="black" points="533,-76.5 533,-95.5 667,-95.5 667,-76.5 533,-76.5"/>
<text text-anchor="middle" x="600" y="-83.5" font-family="Helvetica,sans-Serif" font-size="10.00">Task_insert_in_running_list</text>
</a>
</g>
</g>
<!-- Node5&#45;&gt;Node6 -->
<g id="edge5" class="edge">
<title>Node5&#45;&gt;Node6</title>
<path fill="none" stroke="midnightblue" d="M495.51,-72.8C504.19,-73.91 513.48,-75.1 522.81,-76.28"/>
<polygon fill="midnightblue" stroke="midnightblue" points="522.56,-79.78 532.92,-77.57 523.44,-72.84 522.56,-79.78"/>
</g>
<!-- Node7 -->
<g id="node7" class="node">
<title>Node7</title>
<g id="a_node7"><a xlink:href="group___rltos__task__scheduler__prv.html#ga421dbb81487cd2fdc1fd06b1407eae5b" target="_top" xlink:title="Function used to remove task from a task list.">
<polygon fill="white" stroke="black" points="542,-38.5 542,-57.5 658,-57.5 658,-38.5 542,-38.5"/>
<text text-anchor="middle" x="600" y="-45.5" font-family="Helvetica,sans-Serif" font-size="10.00">Task_remove_from_list</text>
</a>
</g>
</g>
<!-- Node5&#45;&gt;Node7 -->
<g id="edge6" class="edge">
<title>Node5&#45;&gt;Node7</title>
<path fill="none" stroke="midnightblue" d="M495.51,-61.2C506.95,-59.74 519.46,-58.14 531.71,-56.58"/>
<polygon fill="midnightblue" stroke="midnightblue" points="532.43,-60.02 541.91,-55.28 531.55,-53.07 532.43,-60.02"/>
</g>
<!-- Node8 -->
<g id="node8" class="node">
<title>Node8</title>
<g id="a_node8"><a xlink:href="group___rltos__task__scheduler__prv.html#ga6f098dd7382a94e001bdeeadd29ae7bf" target="_top" xlink:title="Function used to check if a task is contained within the task list or not.">
<polygon fill="white" stroke="black" points="703,-38.5 703,-57.5 784,-57.5 784,-38.5 703,-38.5"/>
<text text-anchor="middle" x="743.5" y="-45.5" font-family="Helvetica,sans-Serif" font-size="10.00">Task_is_in_list</text>
</a>
</g>
</g>
<!-- Node7&#45;&gt;Node8 -->
<g id="edge7" class="edge">
<title>Node7&#45;&gt;Node8</title>
<path fill="none" stroke="midnightblue" d="M658.15,-48C669.66,-48 681.67,-48 692.89,-48"/>
<polygon fill="midnightblue" stroke="midnightblue" points="692.95,-51.5 702.95,-48 692.95,-44.5 692.95,-51.5"/>
</g>
<!-- Node9&#45;&gt;Node7 -->
<g id="edge10" class="edge">
<title>Node9&#45;&gt;Node7</title>
<path fill="none" stroke="midnightblue" d="M497.14,-35.01C508.16,-36.42 520.1,-37.94 531.79,-39.43"/>
<polygon fill="midnightblue" stroke="midnightblue" points="531.62,-42.94 541.98,-40.73 532.5,-35.99 531.62,-42.94"/>
</g>
<!-- Node10 -->
<g id="node10" class="node">
<title>Node10</title>
<g id="a_node10"><a xlink:href="group___rltos__task__scheduler__prv.html#ga28f6d69d82ff510be23a1a401d5d42a9" target="_top" xlink:title="Function used to append task to a task list.">
<polygon fill="white" stroke="black" points="547,-0.5 547,-19.5 653,-19.5 653,-0.5 547,-0.5"/>
<text text-anchor="middle" x="600" y="-7.5" font-family="Helvetica,sans-Serif" font-size="10.00">Task_append_to_list</text>
</a>
</g>
</g>
<!-- Node9&#45;&gt;Node10 -->
<g id="edge9" class="edge">
<title>Node9&#45;&gt;Node10</title>
<path fill="none" stroke="midnightblue" d="M497.14,-22.99C509.78,-21.38 523.64,-19.61 536.95,-17.91"/>
<polygon fill="midnightblue" stroke="midnightblue" points="537.51,-21.37 546.99,-16.63 536.63,-14.43 537.51,-21.37"/>
</g>
</g>
</svg>
