<?xml version="1.0" encoding="UTF-8" standalone="no"?>
<!DOCTYPE svg PUBLIC "-//W3C//DTD SVG 1.1//EN"
 "http://www.w3.org/Graphics/SVG/1.1/DTD/svg11.dtd">
<!-- Generated by graphviz version 2.49.2 (20211016.1639)
 -->
<!-- Title: Rltos_kernel_enter Pages: 1 -->
<svg width="254pt" height="104pt"
 viewBox="0.00 0.00 254.00 104.00" xmlns="http://www.w3.org/2000/svg" xmlns:xlink="http://www.w3.org/1999/xlink">
<g id="graph0" class="graph" transform="scale(1 1) rotate(0) translate(4 100)">
<title>Rltos_kernel_enter</title>
<polygon fill="white" stroke="transparent" points="-4,4 -4,-100 250,-100 250,4 -4,4"/>
<!-- Node1 -->
<g id="node1" class="node">
<title>Node1</title>
<g id="a_node1"><a xlink:title="Enters RLTOS kernel and starts scheduler timer.">
<polygon fill="#bfbfbf" stroke="black" points="0,-38.5 0,-57.5 98,-57.5 98,-38.5 0,-38.5"/>
<text text-anchor="middle" x="49" y="-45.5" font-family="Helvetica,sans-Serif" font-size="10.00">Rltos_kernel_enter</text>
</a>
</g>
</g>
<!-- Node2 -->
<g id="node2" class="node">
<title>Node2</title>
<g id="a_node2"><a xlink:href="group___rltos__task__prv.html#ga04568f559034fd5f422b38c455278324" target="_top" xlink:title="Function to enter the first rltos task.">
<polygon fill="white" stroke="black" points="134.5,-76.5 134.5,-95.5 245.5,-95.5 245.5,-76.5 134.5,-76.5"/>
<text text-anchor="middle" x="190" y="-83.5" font-family="Helvetica,sans-Serif" font-size="10.00">Rltos_enter_first_task</text>
</a>
</g>
</g>
<!-- Node1&#45;&gt;Node2 -->
<g id="edge1" class="edge">
<title>Node1&#45;&gt;Node2</title>
<path fill="none" stroke="midnightblue" d="M85.08,-57.59C103.02,-62.49 125.06,-68.52 144.22,-73.76"/>
<polygon fill="midnightblue" stroke="midnightblue" points="143.37,-77.15 153.94,-76.41 145.21,-70.4 143.37,-77.15"/>
</g>
<!-- Node3 -->
<g id="node3" class="node">
<title>Node3</title>
<g id="a_node3"><a xlink:href="group___rltos__task__prv.html#gafd4c0a4449b5bb430a84403949924af1" target="_top" xlink:title="Initialises and start RLTOS tick timer. This function is provided by the application layer.">
<polygon fill="white" stroke="black" points="134,-38.5 134,-57.5 246,-57.5 246,-38.5 134,-38.5"/>
<text text-anchor="middle" x="190" y="-45.5" font-family="Helvetica,sans-Serif" font-size="10.00">Rltos_start_tick_timer</text>
</a>
</g>
</g>
<!-- Node1&#45;&gt;Node3 -->
<g id="edge2" class="edge">
<title>Node1&#45;&gt;Node3</title>
<path fill="none" stroke="midnightblue" d="M98.23,-48C106.45,-48 115.12,-48 123.7,-48"/>
<polygon fill="midnightblue" stroke="midnightblue" points="123.71,-51.5 133.71,-48 123.71,-44.5 123.71,-51.5"/>
</g>
<!-- Node4 -->
<g id="node4" class="node">
<title>Node4</title>
<g id="a_node4"><a xlink:href="group___rltos__task__list__prv.html#ga7a5774702e922fe3bd53f74fc3cf5342" target="_top" xlink:title="Function used to initialise the current task to point at the running lists head.">
<polygon fill="white" stroke="black" points="151,-0.5 151,-19.5 229,-19.5 229,-0.5 151,-0.5"/>
<text text-anchor="middle" x="190" y="-7.5" font-family="Helvetica,sans-Serif" font-size="10.00">Scheduler_init</text>
</a>
</g>
</g>
<!-- Node1&#45;&gt;Node4 -->
<g id="edge3" class="edge">
<title>Node1&#45;&gt;Node4</title>
<path fill="none" stroke="midnightblue" d="M85.08,-38.41C103.02,-33.51 125.06,-27.48 144.22,-22.24"/>
<polygon fill="midnightblue" stroke="midnightblue" points="145.21,-25.6 153.94,-19.59 143.37,-18.85 145.21,-25.6"/>
</g>
</g>
</svg>
