<?xml version="1.0" encoding="UTF-8" standalone="no"?>
<!DOCTYPE svg PUBLIC "-//W3C//DTD SVG 1.1//EN"
 "http://www.w3.org/Graphics/SVG/1.1/DTD/svg11.dtd">
<!-- Generated by graphviz version 2.49.2 (20211016.1639)
 -->
<!-- Title: Mutex Pages: 1 -->
<svg width="164pt" height="64pt"
 viewBox="0.00 0.00 164.00 64.00" xmlns="http://www.w3.org/2000/svg" xmlns:xlink="http://www.w3.org/1999/xlink">
<g id="graph0" class="graph" transform="scale(1 1) rotate(0) translate(4 60)">
<title>Mutex</title>
<polygon fill="white" stroke="transparent" points="-4,4 -4,-60 160,-60 160,4 -4,4"/>
<!-- Node1 -->
<g id="node1" class="node">
<title>Node1</title>
<g id="a_node1"><a xlink:title=" ">
<polygon fill="#bfbfbf" stroke="black" points="44,-37 0,-37 0,-18 44,-18 44,-37"/>
<text text-anchor="middle" x="22" y="-25" font-family="Helvetica,sans-Serif" font-size="10.00">Mutex</text>
</a>
</g>
</g>
<!-- Node3 -->
<g id="node2" class="node">
<title>Node3</title>
<g id="a_node2"><a xlink:href="group___rltos__mutex__api.html" target="_top" xlink:title=" ">
<polygon fill="white" stroke="black" points="149,-56 87,-56 87,-37 149,-37 149,-56"/>
<text text-anchor="middle" x="118" y="-44" font-family="Helvetica,sans-Serif" font-size="10.00">Mutex API</text>
</a>
</g>
</g>
<!-- Node1&#45;&gt;Node3 -->
<g id="edge2" class="edge">
<title>Node1&#45;&gt;Node3</title>
<path fill="none" stroke="black" d="M54.33,-33.83C64.81,-35.95 76.46,-38.31 86.85,-40.4"/>
<polygon fill="black" stroke="black" points="54.83,-30.36 44.33,-31.81 53.44,-37.22 54.83,-30.36"/>
</g>
<!-- Node2 -->
<g id="node3" class="node">
<title>Node2</title>
<g id="a_node3"><a xlink:href="group___rltos__mutex__prv.html" target="_top" xlink:title=" ">
<polygon fill="white" stroke="black" points="156,-19 80,-19 80,0 156,0 156,-19"/>
<text text-anchor="middle" x="118" y="-7" font-family="Helvetica,sans-Serif" font-size="10.00">Mutex Private</text>
</a>
</g>
</g>
<!-- Node1&#45;&gt;Node2 -->
<g id="edge1" class="edge">
<title>Node1&#45;&gt;Node2</title>
<path fill="none" stroke="black" d="M54.25,-21.52C62.46,-19.94 71.4,-18.23 79.88,-16.61"/>
<polygon fill="black" stroke="black" points="53.49,-18.1 44.33,-23.42 54.81,-24.97 53.49,-18.1"/>
</g>
</g>
</svg>
