<?xml version="1.0" encoding="UTF-8" standalone="no"?>
<!DOCTYPE svg PUBLIC "-//W3C//DTD SVG 1.1//EN"
 "http://www.w3.org/Graphics/SVG/1.1/DTD/svg11.dtd">
<!-- Generated by graphviz version 2.49.2 (20211016.1639)
 -->
<!-- Title: Task list Pages: 1 -->
<svg width="191pt" height="64pt"
 viewBox="0.00 0.00 191.00 64.00" xmlns="http://www.w3.org/2000/svg" xmlns:xlink="http://www.w3.org/1999/xlink">
<g id="graph0" class="graph" transform="scale(1 1) rotate(0) translate(4 60)">
<title>Task list</title>
<polygon fill="white" stroke="transparent" points="-4,4 -4,-60 187,-60 187,4 -4,4"/>
<!-- Node1 -->
<g id="node1" class="node">
<title>Node1</title>
<g id="a_node1"><a xlink:title=" ">
<polygon fill="#bfbfbf" stroke="black" points="118,-37 65,-37 65,-18 118,-18 118,-37"/>
<text text-anchor="middle" x="91.5" y="-25" font-family="Helvetica,sans-Serif" font-size="10.00">Task list</text>
</a>
</g>
</g>
<!-- Node4 -->
<g id="node2" class="node">
<title>Node4</title>
<g id="a_node2"><a xlink:href="group___rltos__task__list__api.html" target="_top" xlink:title=" ">
<polygon fill="white" stroke="black" points="183,-56 154,-56 154,-37 183,-37 183,-56"/>
<text text-anchor="middle" x="168.5" y="-44" font-family="Helvetica,sans-Serif" font-size="10.00">api</text>
</a>
</g>
</g>
<!-- Node1&#45;&gt;Node4 -->
<g id="edge3" class="edge">
<title>Node1&#45;&gt;Node4</title>
<path fill="none" stroke="black" d="M128.03,-36.5C137.14,-38.81 146.4,-41.15 153.66,-42.99"/>
<polygon fill="black" stroke="black" points="128.86,-33.1 118.31,-34.04 127.14,-39.89 128.86,-33.1"/>
</g>
<!-- Node3 -->
<g id="node3" class="node">
<title>Node3</title>
<g id="a_node3"><a xlink:href="group___rltos__task__list__prv.html" target="_top" xlink:title=" ">
<polygon fill="white" stroke="black" points="183,-19 154,-19 154,0 183,0 183,-19"/>
<text text-anchor="middle" x="168.5" y="-7" font-family="Helvetica,sans-Serif" font-size="10.00">prv</text>
</a>
</g>
</g>
<!-- Node1&#45;&gt;Node3 -->
<g id="edge2" class="edge">
<title>Node1&#45;&gt;Node3</title>
<path fill="none" stroke="black" d="M128.32,-18.9C137.33,-16.74 146.48,-14.55 153.66,-12.82"/>
<polygon fill="black" stroke="black" points="127.22,-15.57 118.31,-21.31 128.85,-22.37 127.22,-15.57"/>
</g>
<!-- Node2 -->
<g id="node4" class="node">
<title>Node2</title>
<g id="a_node4"><a xlink:href="group___rltos__task__prv.html" target="_top" xlink:title=" ">
<polygon fill="white" stroke="black" points="29,-37 0,-37 0,-18 29,-18 29,-37"/>
<text text-anchor="middle" x="14.5" y="-25" font-family="Helvetica,sans-Serif" font-size="10.00">prv</text>
</a>
</g>
</g>
<!-- Node2&#45;&gt;Node1 -->
<g id="edge1" class="edge">
<title>Node2&#45;&gt;Node1</title>
<path fill="none" stroke="black" d="M39.28,-27.5C47.47,-27.5 56.67,-27.5 65,-27.5"/>
<polygon fill="black" stroke="black" points="39.26,-24 29.26,-27.5 39.26,-31 39.26,-24"/>
</g>
</g>
</svg>
