<?xml version="1.0" encoding="UTF-8" standalone="no"?>
<!DOCTYPE svg PUBLIC "-//W3C//DTD SVG 1.1//EN"
 "http://www.w3.org/Graphics/SVG/1.1/DTD/svg11.dtd">
<!-- Generated by graphviz version 2.49.2 (20211016.1639)
 -->
<!-- Title: Task Scheduler Pages: 1 -->
<svg width="304pt" height="27pt"
 viewBox="0.00 0.00 304.00 27.00" xmlns="http://www.w3.org/2000/svg" xmlns:xlink="http://www.w3.org/1999/xlink">
<g id="graph0" class="graph" transform="scale(1 1) rotate(0) translate(4 23)">
<title>Task Scheduler</title>
<polygon fill="white" stroke="transparent" points="-4,4 -4,-23 300,-23 300,4 -4,4"/>
<!-- Node2 -->
<g id="node1" class="node">
<title>Node2</title>
<g id="a_node1"><a xlink:href="group___rltos__core.html" target="_top" xlink:title=" ">
<polygon fill="white" stroke="black" points="37,-19 0,-19 0,0 37,0 37,-19"/>
<text text-anchor="middle" x="18.5" y="-7" font-family="Helvetica,sans-Serif" font-size="10.00">Core</text>
</a>
</g>
</g>
<!-- Node1 -->
<g id="node2" class="node">
<title>Node1</title>
<g id="a_node2"><a xlink:title=" ">
<polygon fill="#bfbfbf" stroke="black" points="157,-19 73,-19 73,0 157,0 157,-19"/>
<text text-anchor="middle" x="115" y="-7" font-family="Helvetica,sans-Serif" font-size="10.00">Task Scheduler</text>
</a>
</g>
</g>
<!-- Node2&#45;&gt;Node1 -->
<g id="edge1" class="edge">
<title>Node2&#45;&gt;Node1</title>
<path fill="none" stroke="black" d="M47.46,-9.5C55.4,-9.5 64.23,-9.5 72.79,-9.5"/>
<polygon fill="black" stroke="black" points="47.27,-6 37.27,-9.5 47.27,-13 47.27,-6"/>
</g>
<!-- Node3 -->
<g id="node3" class="node">
<title>Node3</title>
<g id="a_node3"><a xlink:href="group___rltos__task__scheduler__api.html" target="_top" xlink:title=" ">
<polygon fill="white" stroke="black" points="296,-19 193,-19 193,0 296,0 296,-19"/>
<text text-anchor="middle" x="244.5" y="-7" font-family="Helvetica,sans-Serif" font-size="10.00">Task Scheduler API</text>
</a>
</g>
</g>
<!-- Node1&#45;&gt;Node3 -->
<g id="edge2" class="edge">
<title>Node1&#45;&gt;Node3</title>
<path fill="none" stroke="black" d="M167.13,-9.5C175.55,-9.5 184.28,-9.5 192.7,-9.5"/>
<polygon fill="black" stroke="black" points="167.04,-6 157.04,-9.5 167.04,-13 167.04,-6"/>
</g>
</g>
</svg>
