<?xml version="1.0" encoding="UTF-8" standalone="no"?>
<!DOCTYPE svg PUBLIC "-//W3C//DTD SVG 1.1//EN"
 "http://www.w3.org/Graphics/SVG/1.1/DTD/svg11.dtd">
<!-- Generated by graphviz version 2.49.2 (20211016.1639)
 -->
<!-- Title: Task_deinit Pages: 1 -->
<svg width="347pt" height="66pt"
 viewBox="0.00 0.00 347.00 66.00" xmlns="http://www.w3.org/2000/svg" xmlns:xlink="http://www.w3.org/1999/xlink">
<g id="graph0" class="graph" transform="scale(1 1) rotate(0) translate(4 62)">
<title>Task_deinit</title>
<polygon fill="white" stroke="transparent" points="-4,4 -4,-62 343,-62 343,4 -4,4"/>
<!-- Node1 -->
<g id="node1" class="node">
<title>Node1</title>
<g id="a_node1"><a xlink:title="Function used to set deinit a task and removes from both state and aux lists.">
<polygon fill="#bfbfbf" stroke="black" points="273,-19.5 273,-38.5 339,-38.5 339,-19.5 273,-19.5"/>
<text text-anchor="middle" x="306" y="-26.5" font-family="Helvetica,sans-Serif" font-size="10.00">Task_deinit</text>
</a>
</g>
</g>
<!-- Node2 -->
<g id="node2" class="node">
<title>Node2</title>
<g id="a_node2"><a xlink:href="group___rltos__task__api.html#ga6b5674d396f97b25b01aebe68350042e" target="_top" xlink:title="Deinitialises task control structure, and removes from any lists.">
<polygon fill="white" stroke="black" points="130,-38.5 130,-57.5 231,-57.5 231,-38.5 130,-38.5"/>
<text text-anchor="middle" x="180.5" y="-45.5" font-family="Helvetica,sans-Serif" font-size="10.00">Rltos_task_destroy</text>
</a>
</g>
</g>
<!-- Node1&#45;&gt;Node2 -->
<g id="edge1" class="edge">
<title>Node1&#45;&gt;Node2</title>
<path fill="none" stroke="midnightblue" d="M262.97,-35.47C252.75,-37.04 241.72,-38.74 231.18,-40.36"/>
<polygon fill="midnightblue" stroke="midnightblue" points="263.52,-38.92 272.87,-33.94 262.46,-32 263.52,-38.92"/>
</g>
<!-- Node3 -->
<g id="node3" class="node">
<title>Node3</title>
<g id="a_node3"><a xlink:href="group___rltos__task__scheduler__api.html#gaea5aed38dc28d13622f7ab25c56e9715" target="_top" xlink:title="Function to deinitialise the current task and remove the idle task from the running list.">
<polygon fill="white" stroke="black" points="124,-0.5 124,-19.5 237,-19.5 237,-0.5 124,-0.5"/>
<text text-anchor="middle" x="180.5" y="-7.5" font-family="Helvetica,sans-Serif" font-size="10.00">Task_scheduler_deinit</text>
</a>
</g>
</g>
<!-- Node1&#45;&gt;Node3 -->
<g id="edge2" class="edge">
<title>Node1&#45;&gt;Node3</title>
<path fill="none" stroke="midnightblue" d="M262.83,-22.51C254.64,-21.25 245.93,-19.91 237.38,-18.6"/>
<polygon fill="midnightblue" stroke="midnightblue" points="262.46,-26 272.87,-24.06 263.52,-19.08 262.46,-26"/>
</g>
<!-- Node4 -->
<g id="node4" class="node">
<title>Node4</title>
<g id="a_node4"><a xlink:href="group___rltos__task__api.html#ga314a18e275e35873128f4b34f31d32c4" target="_top" xlink:title="Cleanup of RLTOS kernel and stops scheduler timer.">
<polygon fill="white" stroke="black" points="0,-0.5 0,-19.5 88,-19.5 88,-0.5 0,-0.5"/>
<text text-anchor="middle" x="44" y="-7.5" font-family="Helvetica,sans-Serif" font-size="10.00">Rltos_kernel_kill</text>
</a>
</g>
</g>
<!-- Node3&#45;&gt;Node4 -->
<g id="edge3" class="edge">
<title>Node3&#45;&gt;Node4</title>
<path fill="none" stroke="midnightblue" d="M113.56,-10C104.94,-10 96.3,-10 88.19,-10"/>
<polygon fill="midnightblue" stroke="midnightblue" points="113.63,-13.5 123.63,-10 113.63,-6.5 113.63,-13.5"/>
</g>
</g>
</svg>
