<?xml version="1.0" encoding="UTF-8" standalone="no"?>
<!DOCTYPE svg PUBLIC "-//W3C//DTD SVG 1.1//EN"
 "http://www.w3.org/Graphics/SVG/1.1/DTD/svg11.dtd">
<!-- Generated by graphviz version 2.49.2 (20211016.1639)
 -->
<!-- Title: Task_remove_from_list Pages: 1 -->
<svg width="700pt" height="318pt"
 viewBox="0.00 0.00 700.00 318.00" xmlns="http://www.w3.org/2000/svg" xmlns:xlink="http://www.w3.org/1999/xlink">
<g id="graph0" class="graph" transform="scale(1 1) rotate(0) translate(4 314)">
<title>Task_remove_from_list</title>
<polygon fill="white" stroke="transparent" points="-4,4 -4,-314 696,-314 696,4 -4,4"/>
<!-- Node1 -->
<g id="node1" class="node">
<title>Node1</title>
<g id="a_node1"><a xlink:title="Function used to remove task from a task list.">
<polygon fill="#bfbfbf" stroke="black" points="576,-151.5 576,-170.5 692,-170.5 692,-151.5 576,-151.5"/>
<text text-anchor="middle" x="634" y="-158.5" font-family="Helvetica,sans-Serif" font-size="10.00">Task_remove_from_list</text>
</a>
</g>
</g>
<!-- Node2 -->
<g id="node2" class="node">
<title>Node2</title>
<g id="a_node2"><a xlink:href="group___rltos__task__scheduler__api.html#ga87d2e1bf2416a8e34b2d5dca73616a03" target="_top" xlink:title="Function used to set deinit a task and removes from both state and aux lists.">
<polygon fill="white" stroke="black" points="451,-252.5 451,-271.5 517,-271.5 517,-252.5 451,-252.5"/>
<text text-anchor="middle" x="484" y="-259.5" font-family="Helvetica,sans-Serif" font-size="10.00">Task_deinit</text>
</a>
</g>
</g>
<!-- Node1&#45;&gt;Node2 -->
<g id="edge1" class="edge">
<title>Node1&#45;&gt;Node2</title>
<path fill="none" stroke="midnightblue" d="M610.67,-176.24C579.72,-197.36 524.72,-234.89 498.99,-252.45"/>
<polygon fill="midnightblue" stroke="midnightblue" points="612.79,-179.03 619.08,-170.5 608.84,-173.25 612.79,-179.03"/>
</g>
<!-- Node6 -->
<g id="node6" class="node">
<title>Node6</title>
<g id="a_node6"><a xlink:href="group___rltos__task__scheduler__api.html#gaef14e9b4eac09dd868feb5c3b2b4442f" target="_top" xlink:title="Function used to append task to the idle list.">
<polygon fill="white" stroke="black" points="428,-170.5 428,-189.5 540,-189.5 540,-170.5 428,-170.5"/>
<text text-anchor="middle" x="484" y="-177.5" font-family="Helvetica,sans-Serif" font-size="10.00">Task_set_current_idle</text>
</a>
</g>
</g>
<!-- Node1&#45;&gt;Node6 -->
<g id="edge5" class="edge">
<title>Node1&#45;&gt;Node6</title>
<path fill="none" stroke="midnightblue" d="M565.78,-169.63C557.2,-170.73 548.49,-171.85 540.12,-172.92"/>
<polygon fill="midnightblue" stroke="midnightblue" points="566.31,-173.09 575.78,-168.35 565.42,-166.15 566.31,-173.09"/>
</g>
<!-- Node9 -->
<g id="node9" class="node">
<title>Node9</title>
<g id="a_node9"><a xlink:href="group___rltos__task__scheduler__api.html#gace63a5440ce856ed27f2c9dc07331b67" target="_top" xlink:title="Function used to insert the task to the running list.">
<polygon fill="white" stroke="black" points="437.5,-66.5 437.5,-85.5 530.5,-85.5 530.5,-66.5 437.5,-66.5"/>
<text text-anchor="middle" x="484" y="-73.5" font-family="Helvetica,sans-Serif" font-size="10.00">Task_set_running</text>
</a>
</g>
</g>
<!-- Node1&#45;&gt;Node9 -->
<g id="edge8" class="edge">
<title>Node1&#45;&gt;Node9</title>
<path fill="none" stroke="midnightblue" d="M607.6,-146.41C577.36,-129.04 527.72,-100.53 501.86,-85.68"/>
<polygon fill="midnightblue" stroke="midnightblue" points="605.9,-149.47 616.31,-151.41 609.38,-143.4 605.9,-149.47"/>
</g>
<!-- Node17 -->
<g id="node17" class="node">
<title>Node17</title>
<g id="a_node17"><a xlink:href="group___rltos__task__scheduler__api.html#ga52008f4c16a074cacada44393f18ef3b" target="_top" xlink:title="Function used to append the task to the stopped list.">
<polygon fill="white" stroke="black" points="436,-129.5 436,-148.5 532,-148.5 532,-129.5 436,-129.5"/>
<text text-anchor="middle" x="484" y="-136.5" font-family="Helvetica,sans-Serif" font-size="10.00">Task_set_stopped</text>
</a>
</g>
</g>
<!-- Node1&#45;&gt;Node17 -->
<g id="edge16" class="edge">
<title>Node1&#45;&gt;Node17</title>
<path fill="none" stroke="midnightblue" d="M565.83,-151.01C554.41,-149.32 542.77,-147.59 532.01,-145.99"/>
<polygon fill="midnightblue" stroke="midnightblue" points="565.37,-154.49 575.78,-152.49 566.4,-147.56 565.37,-154.49"/>
</g>
<!-- Node3 -->
<g id="node3" class="node">
<title>Node3</title>
<g id="a_node3"><a xlink:href="group___rltos__task__api.html#ga6b5674d396f97b25b01aebe68350042e" target="_top" xlink:title="Deinitialises task control structure, and removes from any lists.">
<polygon fill="white" stroke="black" points="282,-290.5 282,-309.5 383,-309.5 383,-290.5 282,-290.5"/>
<text text-anchor="middle" x="332.5" y="-297.5" font-family="Helvetica,sans-Serif" font-size="10.00">Rltos_task_destroy</text>
</a>
</g>
</g>
<!-- Node2&#45;&gt;Node3 -->
<g id="edge2" class="edge">
<title>Node2&#45;&gt;Node3</title>
<path fill="none" stroke="midnightblue" d="M441.19,-272.63C419.18,-278.22 392.41,-285.03 371.06,-290.45"/>
<polygon fill="midnightblue" stroke="midnightblue" points="442.1,-276.01 450.93,-270.15 440.37,-269.22 442.1,-276.01"/>
</g>
<!-- Node4 -->
<g id="node4" class="node">
<title>Node4</title>
<g id="a_node4"><a xlink:href="group___rltos__task__scheduler__api.html#gaea5aed38dc28d13622f7ab25c56e9715" target="_top" xlink:title="Function to deinitialise the current task and remove the idle task from the running list.">
<polygon fill="white" stroke="black" points="276,-252.5 276,-271.5 389,-271.5 389,-252.5 276,-252.5"/>
<text text-anchor="middle" x="332.5" y="-259.5" font-family="Helvetica,sans-Serif" font-size="10.00">Task_scheduler_deinit</text>
</a>
</g>
</g>
<!-- Node2&#45;&gt;Node4 -->
<g id="edge3" class="edge">
<title>Node2&#45;&gt;Node4</title>
<path fill="none" stroke="midnightblue" d="M440.78,-262C424.72,-262 406.17,-262 389.06,-262"/>
<polygon fill="midnightblue" stroke="midnightblue" points="440.93,-265.5 450.93,-262 440.93,-258.5 440.93,-265.5"/>
</g>
<!-- Node5 -->
<g id="node5" class="node">
<title>Node5</title>
<g id="a_node5"><a xlink:href="group___rltos__task__api.html#ga314a18e275e35873128f4b34f31d32c4" target="_top" xlink:title="Cleanup of RLTOS kernel and stops scheduler timer.">
<polygon fill="white" stroke="black" points="141.5,-252.5 141.5,-271.5 229.5,-271.5 229.5,-252.5 141.5,-252.5"/>
<text text-anchor="middle" x="185.5" y="-259.5" font-family="Helvetica,sans-Serif" font-size="10.00">Rltos_kernel_kill</text>
</a>
</g>
</g>
<!-- Node4&#45;&gt;Node5 -->
<g id="edge4" class="edge">
<title>Node4&#45;&gt;Node5</title>
<path fill="none" stroke="midnightblue" d="M265.67,-262C253.44,-262 240.95,-262 229.61,-262"/>
<polygon fill="midnightblue" stroke="midnightblue" points="265.85,-265.5 275.85,-262 265.85,-258.5 265.85,-265.5"/>
</g>
<!-- Node7 -->
<g id="node7" class="node">
<title>Node7</title>
<g id="a_node7"><a xlink:href="group___rltos__task__api.html#ga581dd045fa985add7730a8a1581389b7" target="_top" xlink:title="Puts the current thread to sleep for a minimum of the given number of ticks.">
<polygon fill="white" stroke="black" points="286.5,-214.5 286.5,-233.5 378.5,-233.5 378.5,-214.5 286.5,-214.5"/>
<text text-anchor="middle" x="332.5" y="-221.5" font-family="Helvetica,sans-Serif" font-size="10.00">Rltos_task_sleep</text>
</a>
</g>
</g>
<!-- Node6&#45;&gt;Node7 -->
<g id="edge6" class="edge">
<title>Node6&#45;&gt;Node7</title>
<path fill="none" stroke="midnightblue" d="M440.75,-192.43C417,-199.43 387.8,-208.02 365.88,-214.47"/>
<polygon fill="midnightblue" stroke="midnightblue" points="441.96,-195.73 450.56,-189.55 439.98,-189.01 441.96,-195.73"/>
</g>
<!-- Node8 -->
<g id="node8" class="node">
<title>Node8</title>
<g id="a_node8"><a xlink:href="group___rltos__task__scheduler__api.html#gaf04d49ef43d334ab6fb5e0345f82e332" target="_top" xlink:title="Function used to set the current task to wait on an object (uses auxillary list)">
<polygon fill="white" stroke="black" points="275.5,-165 275.5,-195 389.5,-195 389.5,-165 275.5,-165"/>
<text text-anchor="start" x="283.5" y="-183" font-family="Helvetica,sans-Serif" font-size="10.00">Task_set_current_wait</text>
<text text-anchor="middle" x="332.5" y="-172" font-family="Helvetica,sans-Serif" font-size="10.00">_on_object</text>
</a>
</g>
</g>
<!-- Node6&#45;&gt;Node8 -->
<g id="edge7" class="edge">
<title>Node6&#45;&gt;Node8</title>
<path fill="none" stroke="midnightblue" d="M417.68,-180C408.29,-180 398.7,-180 389.52,-180"/>
<polygon fill="midnightblue" stroke="midnightblue" points="417.76,-183.5 427.76,-180 417.76,-176.5 417.76,-183.5"/>
</g>
<!-- Node10 -->
<g id="node10" class="node">
<title>Node10</title>
<g id="a_node10"><a xlink:href="group___rltos__task__scheduler__prv.html#ga7dad02e1630e47f423618b110c2071a4" target="_top" xlink:title="implementation of rltos context switch &#45; called from rltos_scheduler_asm.asm">
<polygon fill="white" stroke="black" points="273,-39 273,-69 392,-69 392,-39 273,-39"/>
<text text-anchor="start" x="281" y="-57" font-family="Helvetica,sans-Serif" font-size="10.00">Rltos_scheduler_switch</text>
<text text-anchor="middle" x="332.5" y="-46" font-family="Helvetica,sans-Serif" font-size="10.00">_context</text>
</a>
</g>
</g>
<!-- Node9&#45;&gt;Node10 -->
<g id="edge9" class="edge">
<title>Node9&#45;&gt;Node10</title>
<path fill="none" stroke="midnightblue" d="M427.42,-67.82C415.91,-66.13 403.75,-64.34 392.14,-62.63"/>
<polygon fill="midnightblue" stroke="midnightblue" points="426.93,-71.29 437.33,-69.28 427.95,-64.36 426.93,-71.29"/>
</g>
<!-- Node11 -->
<g id="node11" class="node">
<title>Node11</title>
<g id="a_node11"><a xlink:href="group___rltos__task__scheduler__api.html#gaf77c7c3425845b054fd8fc2ddc9ea57a" target="_top" xlink:title="Function used to set initial stack pointer, task entry function &amp; clear pointers to next and prev nod...">
<polygon fill="white" stroke="black" points="304.5,-88.5 304.5,-107.5 360.5,-107.5 360.5,-88.5 304.5,-88.5"/>
<text text-anchor="middle" x="332.5" y="-95.5" font-family="Helvetica,sans-Serif" font-size="10.00">Task_init</text>
</a>
</g>
</g>
<!-- Node9&#45;&gt;Node11 -->
<g id="edge10" class="edge">
<title>Node9&#45;&gt;Node11</title>
<path fill="none" stroke="midnightblue" d="M427.41,-84.18C404.61,-87.54 379.26,-91.27 360.65,-94"/>
<polygon fill="midnightblue" stroke="midnightblue" points="427.95,-87.64 437.33,-82.72 426.93,-80.71 427.95,-87.64"/>
</g>
<!-- Node15 -->
<g id="node15" class="node">
<title>Node15</title>
<g id="a_node15"><a xlink:href="group___rltos__task__scheduler__api.html#ga7aafcf0d154df3fca76237a821cf6060" target="_top" xlink:title="Function used to set a task running &#45; only if it is stopped (not waiting on an object or idled)">
<polygon fill="white" stroke="black" points="295,-0.5 295,-19.5 370,-19.5 370,-0.5 295,-0.5"/>
<text text-anchor="middle" x="332.5" y="-7.5" font-family="Helvetica,sans-Serif" font-size="10.00">Task_resume</text>
</a>
</g>
</g>
<!-- Node9&#45;&gt;Node15 -->
<g id="edge14" class="edge">
<title>Node9&#45;&gt;Node15</title>
<path fill="none" stroke="midnightblue" d="M457.07,-61.17C439.15,-51.28 414.57,-38.42 392,-29 383.72,-25.55 374.58,-22.31 366.03,-19.53"/>
<polygon fill="midnightblue" stroke="midnightblue" points="455.85,-64.5 466.29,-66.32 459.26,-58.39 455.85,-64.5"/>
</g>
<!-- Node12 -->
<g id="node12" class="node">
<title>Node12</title>
<g id="a_node12"><a xlink:href="group___rltos__task__api.html#ga174b5e621bd6dac5d8c7d9a33ebb218d" target="_top" xlink:title="Initialises task control structure, stack &amp; appends to task list.">
<polygon fill="white" stroke="black" points="138,-107.5 138,-126.5 233,-126.5 233,-107.5 138,-107.5"/>
<text text-anchor="middle" x="185.5" y="-114.5" font-family="Helvetica,sans-Serif" font-size="10.00">Rltos_task_create</text>
</a>
</g>
</g>
<!-- Node11&#45;&gt;Node12 -->
<g id="edge11" class="edge">
<title>Node11&#45;&gt;Node12</title>
<path fill="none" stroke="midnightblue" d="M294.07,-102.9C275.45,-105.34 252.77,-108.32 233.05,-110.9"/>
<polygon fill="midnightblue" stroke="midnightblue" points="294.77,-106.34 304.23,-101.57 293.86,-99.4 294.77,-106.34"/>
</g>
<!-- Node13 -->
<g id="node13" class="node">
<title>Node13</title>
<g id="a_node13"><a xlink:href="group___rltos__task__scheduler__api.html#gae1bd8e8e3af9f778a719fb7a086451f1" target="_top" xlink:title="Function to initialise the current task on entry to the scheduler &amp; create + add the idle task to the...">
<polygon fill="white" stroke="black" points="134,-69.5 134,-88.5 237,-88.5 237,-69.5 134,-69.5"/>
<text text-anchor="middle" x="185.5" y="-76.5" font-family="Helvetica,sans-Serif" font-size="10.00">Task_scheduler_init</text>
</a>
</g>
</g>
<!-- Node11&#45;&gt;Node13 -->
<g id="edge12" class="edge">
<title>Node11&#45;&gt;Node13</title>
<path fill="none" stroke="midnightblue" d="M293.94,-93.08C276.62,-90.81 255.81,-88.08 237.13,-85.63"/>
<polygon fill="midnightblue" stroke="midnightblue" points="293.86,-96.6 304.23,-94.43 294.77,-89.66 293.86,-96.6"/>
</g>
<!-- Node14 -->
<g id="node14" class="node">
<title>Node14</title>
<g id="a_node14"><a xlink:href="group___rltos__task__api.html#gac44bc5223fd6d5d7f635776b1eb6231b" target="_top" xlink:title="Enters RLTOS kernel and starts scheduler timer. Should not return from this function,...">
<polygon fill="white" stroke="black" points="0,-69.5 0,-88.5 98,-88.5 98,-69.5 0,-69.5"/>
<text text-anchor="middle" x="49" y="-76.5" font-family="Helvetica,sans-Serif" font-size="10.00">Rltos_kernel_enter</text>
</a>
</g>
</g>
<!-- Node13&#45;&gt;Node14 -->
<g id="edge13" class="edge">
<title>Node13&#45;&gt;Node14</title>
<path fill="none" stroke="midnightblue" d="M123.45,-79C115,-79 106.43,-79 98.25,-79"/>
<polygon fill="midnightblue" stroke="midnightblue" points="123.65,-82.5 133.65,-79 123.65,-75.5 123.65,-82.5"/>
</g>
<!-- Node16 -->
<g id="node16" class="node">
<title>Node16</title>
<g id="a_node16"><a xlink:href="group___rltos__task__api.html#ga9d4e61cf5d9de6406c5e2b71956dc7c6" target="_top" xlink:title="Resumes the targetted task in the stop state.">
<polygon fill="white" stroke="black" points="135,-0.5 135,-19.5 236,-19.5 236,-0.5 135,-0.5"/>
<text text-anchor="middle" x="185.5" y="-7.5" font-family="Helvetica,sans-Serif" font-size="10.00">Rltos_task_resume</text>
</a>
</g>
</g>
<!-- Node15&#45;&gt;Node16 -->
<g id="edge15" class="edge">
<title>Node15&#45;&gt;Node16</title>
<path fill="none" stroke="midnightblue" d="M284.54,-10C269.09,-10 251.87,-10 236.22,-10"/>
<polygon fill="midnightblue" stroke="midnightblue" points="284.91,-13.5 294.91,-10 284.91,-6.5 284.91,-13.5"/>
</g>
<!-- Node17&#45;&gt;Node8 -->
<g id="edge19" class="edge">
<title>Node17&#45;&gt;Node8</title>
<path fill="none" stroke="midnightblue" d="M438.37,-151.24C422.7,-155.54 404.9,-160.42 388.48,-164.92"/>
<polygon fill="midnightblue" stroke="midnightblue" points="439.61,-154.53 448.33,-148.51 437.76,-147.78 439.61,-154.53"/>
</g>
<!-- Node17&#45;&gt;Node11 -->
<g id="edge18" class="edge">
<title>Node17&#45;&gt;Node11</title>
<path fill="none" stroke="midnightblue" d="M438.56,-126.81C413.2,-119.86 382.25,-111.37 360.53,-105.41"/>
<polygon fill="midnightblue" stroke="midnightblue" points="437.76,-130.22 448.33,-129.49 439.61,-123.47 437.76,-130.22"/>
</g>
<!-- Node18 -->
<g id="node18" class="node">
<title>Node18</title>
<g id="a_node18"><a xlink:href="group___rltos__task__api.html#ga8adaf8dcff5d26b382e45361d7f2c874" target="_top" xlink:title="Stops the targetted task indefinitely.">
<polygon fill="white" stroke="black" points="289,-126.5 289,-145.5 376,-145.5 376,-126.5 289,-126.5"/>
<text text-anchor="middle" x="332.5" y="-133.5" font-family="Helvetica,sans-Serif" font-size="10.00">Rltos_task_stop</text>
</a>
</g>
</g>
<!-- Node17&#45;&gt;Node18 -->
<g id="edge17" class="edge">
<title>Node17&#45;&gt;Node18</title>
<path fill="none" stroke="midnightblue" d="M425.65,-137.85C409.21,-137.52 391.58,-137.17 376.19,-136.86"/>
<polygon fill="midnightblue" stroke="midnightblue" points="425.63,-141.35 435.7,-138.05 425.77,-134.35 425.63,-141.35"/>
</g>
</g>
</svg>
