<?xml version="1.0" encoding="UTF-8" standalone="no"?>
<!DOCTYPE svg PUBLIC "-//W3C//DTD SVG 1.1//EN"
 "http://www.w3.org/Graphics/SVG/1.1/DTD/svg11.dtd">
<!-- Generated by graphviz version 2.49.2 (20211016.1639)
 -->
<!-- Title: Task_is_in_list Pages: 1 -->
<svg width="681pt" height="280pt"
 viewBox="0.00 0.00 681.00 280.00" xmlns="http://www.w3.org/2000/svg" xmlns:xlink="http://www.w3.org/1999/xlink">
<g id="graph0" class="graph" transform="scale(1 1) rotate(0) translate(4 276)">
<title>Task_is_in_list</title>
<polygon fill="white" stroke="transparent" points="-4,4 -4,-276 677,-276 677,4 -4,4"/>
<!-- Node1 -->
<g id="node1" class="node">
<title>Node1</title>
<g id="a_node1"><a xlink:title="Function used to check if a task is contained within the task list or not.">
<polygon fill="#bfbfbf" stroke="black" points="592,-110.5 592,-129.5 673,-129.5 673,-110.5 592,-110.5"/>
<text text-anchor="middle" x="632.5" y="-117.5" font-family="Helvetica,sans-Serif" font-size="10.00">Task_is_in_list</text>
</a>
</g>
</g>
<!-- Node2 -->
<g id="node2" class="node">
<title>Node2</title>
<g id="a_node2"><a xlink:href="group___rltos__task__scheduler__prv.html#ga421dbb81487cd2fdc1fd06b1407eae5b" target="_top" xlink:title="Function used to remove task from a task list.">
<polygon fill="white" stroke="black" points="440,-110.5 440,-129.5 556,-129.5 556,-110.5 440,-110.5"/>
<text text-anchor="middle" x="498" y="-117.5" font-family="Helvetica,sans-Serif" font-size="10.00">Task_remove_from_list</text>
</a>
</g>
</g>
<!-- Node1&#45;&gt;Node2 -->
<g id="edge1" class="edge">
<title>Node1&#45;&gt;Node2</title>
<path fill="none" stroke="midnightblue" d="M581.56,-120C573.33,-120 564.75,-120 556.36,-120"/>
<polygon fill="midnightblue" stroke="midnightblue" points="581.75,-123.5 591.75,-120 581.75,-116.5 581.75,-123.5"/>
</g>
<!-- Node3 -->
<g id="node3" class="node">
<title>Node3</title>
<g id="a_node3"><a xlink:href="group___rltos__task__scheduler__api.html#ga497b702db38a8ce118c8393eb0587712" target="_top" xlink:title="Function used to set deinit a task and removes from both state and aux lists.">
<polygon fill="white" stroke="black" points="315,-214.5 315,-233.5 381,-233.5 381,-214.5 315,-214.5"/>
<text text-anchor="middle" x="348" y="-221.5" font-family="Helvetica,sans-Serif" font-size="10.00">Task_deinit</text>
</a>
</g>
</g>
<!-- Node2&#45;&gt;Node3 -->
<g id="edge2" class="edge">
<title>Node2&#45;&gt;Node3</title>
<path fill="none" stroke="midnightblue" d="M474.92,-135.52C443.88,-157.33 388.26,-196.41 362.63,-214.43"/>
<polygon fill="midnightblue" stroke="midnightblue" points="477.17,-138.21 483.34,-129.6 473.15,-132.48 477.17,-138.21"/>
</g>
<!-- Node7 -->
<g id="node7" class="node">
<title>Node7</title>
<g id="a_node7"><a xlink:href="group___rltos__task__scheduler__api.html#gaef14e9b4eac09dd868feb5c3b2b4442f" target="_top" xlink:title="Function used to append task to the idle list.">
<polygon fill="white" stroke="black" points="292,-88.5 292,-107.5 404,-107.5 404,-88.5 292,-88.5"/>
<text text-anchor="middle" x="348" y="-95.5" font-family="Helvetica,sans-Serif" font-size="10.00">Task_set_current_idle</text>
</a>
</g>
</g>
<!-- Node2&#45;&gt;Node7 -->
<g id="edge6" class="edge">
<title>Node2&#45;&gt;Node7</title>
<path fill="none" stroke="midnightblue" d="M429.78,-110.01C421.2,-108.73 412.49,-107.44 404.12,-106.19"/>
<polygon fill="midnightblue" stroke="midnightblue" points="429.37,-113.49 439.78,-111.49 430.4,-106.56 429.37,-113.49"/>
</g>
<!-- Node10 -->
<g id="node10" class="node">
<title>Node10</title>
<g id="a_node10"><a xlink:href="group___rltos__task__scheduler__api.html#gae2e9ba76398ba904d0c32071d3512a2b" target="_top" xlink:title="Function used to insert the task to the running list.">
<polygon fill="white" stroke="black" points="301.5,-132.5 301.5,-151.5 394.5,-151.5 394.5,-132.5 301.5,-132.5"/>
<text text-anchor="middle" x="348" y="-139.5" font-family="Helvetica,sans-Serif" font-size="10.00">Task_set_running</text>
</a>
</g>
</g>
<!-- Node2&#45;&gt;Node10 -->
<g id="edge9" class="edge">
<title>Node2&#45;&gt;Node10</title>
<path fill="none" stroke="midnightblue" d="M429.85,-129.98C417.92,-131.76 405.76,-133.56 394.61,-135.22"/>
<polygon fill="midnightblue" stroke="midnightblue" points="430.4,-133.44 439.78,-128.51 429.37,-126.51 430.4,-133.44"/>
</g>
<!-- Node14 -->
<g id="node14" class="node">
<title>Node14</title>
<g id="a_node14"><a xlink:href="group___rltos__task__scheduler__api.html#gaa65328e4b21083ff31b9ab00088bba47" target="_top" xlink:title="Function used to append the task to the stopped list.">
<polygon fill="white" stroke="black" points="300,-44.5 300,-63.5 396,-63.5 396,-44.5 300,-44.5"/>
<text text-anchor="middle" x="348" y="-51.5" font-family="Helvetica,sans-Serif" font-size="10.00">Task_set_stopped</text>
</a>
</g>
</g>
<!-- Node2&#45;&gt;Node14 -->
<g id="edge13" class="edge">
<title>Node2&#45;&gt;Node14</title>
<path fill="none" stroke="midnightblue" d="M466.33,-106.32C437.72,-93.56 395.77,-74.86 370.55,-63.61"/>
<polygon fill="midnightblue" stroke="midnightblue" points="464.92,-109.53 475.48,-110.4 467.77,-103.13 464.92,-109.53"/>
</g>
<!-- Node4 -->
<g id="node4" class="node">
<title>Node4</title>
<g id="a_node4"><a xlink:href="group___rltos__task__api.html#ga2e60520c320866bc60fdcb5fbc9260e3" target="_top" xlink:title="Deinitialises task control structure, and removes from any lists.">
<polygon fill="white" stroke="black" points="146,-214.5 146,-233.5 247,-233.5 247,-214.5 146,-214.5"/>
<text text-anchor="middle" x="196.5" y="-221.5" font-family="Helvetica,sans-Serif" font-size="10.00">Rltos_task_destroy</text>
</a>
</g>
</g>
<!-- Node3&#45;&gt;Node4 -->
<g id="edge3" class="edge">
<title>Node3&#45;&gt;Node4</title>
<path fill="none" stroke="midnightblue" d="M304.78,-224C286.85,-224 265.83,-224 247.17,-224"/>
<polygon fill="midnightblue" stroke="midnightblue" points="304.93,-227.5 314.93,-224 304.93,-220.5 304.93,-227.5"/>
</g>
<!-- Node5 -->
<g id="node5" class="node">
<title>Node5</title>
<g id="a_node5"><a xlink:href="group___rltos__task__scheduler__api.html#gaea5aed38dc28d13622f7ab25c56e9715" target="_top" xlink:title="Function to deinitialise the current task and remove the idle task from the running list.">
<polygon fill="white" stroke="black" points="140,-252.5 140,-271.5 253,-271.5 253,-252.5 140,-252.5"/>
<text text-anchor="middle" x="196.5" y="-259.5" font-family="Helvetica,sans-Serif" font-size="10.00">Task_scheduler_deinit</text>
</a>
</g>
</g>
<!-- Node3&#45;&gt;Node5 -->
<g id="edge4" class="edge">
<title>Node3&#45;&gt;Node5</title>
<path fill="none" stroke="midnightblue" d="M305.19,-234.63C283.18,-240.22 256.41,-247.03 235.06,-252.45"/>
<polygon fill="midnightblue" stroke="midnightblue" points="306.1,-238.01 314.93,-232.15 304.37,-231.22 306.1,-238.01"/>
</g>
<!-- Node6 -->
<g id="node6" class="node">
<title>Node6</title>
<g id="a_node6"><a xlink:href="group___rltos__task__api.html#ga314a18e275e35873128f4b34f31d32c4" target="_top" xlink:title="Cleanup of RLTOS kernel and stops scheduler timer.">
<polygon fill="white" stroke="black" points="6.5,-252.5 6.5,-271.5 94.5,-271.5 94.5,-252.5 6.5,-252.5"/>
<text text-anchor="middle" x="50.5" y="-259.5" font-family="Helvetica,sans-Serif" font-size="10.00">Rltos_kernel_kill</text>
</a>
</g>
</g>
<!-- Node5&#45;&gt;Node6 -->
<g id="edge5" class="edge">
<title>Node5&#45;&gt;Node6</title>
<path fill="none" stroke="midnightblue" d="M129.48,-262C117.61,-262 105.52,-262 94.52,-262"/>
<polygon fill="midnightblue" stroke="midnightblue" points="129.83,-265.5 139.83,-262 129.83,-258.5 129.83,-265.5"/>
</g>
<!-- Node8 -->
<g id="node8" class="node">
<title>Node8</title>
<g id="a_node8"><a xlink:href="group___rltos__task__api.html#ga581dd045fa985add7730a8a1581389b7" target="_top" xlink:title="Puts the current thread to sleep for a minimum of the given number of ticks.">
<polygon fill="white" stroke="black" points="150.5,-88.5 150.5,-107.5 242.5,-107.5 242.5,-88.5 150.5,-88.5"/>
<text text-anchor="middle" x="196.5" y="-95.5" font-family="Helvetica,sans-Serif" font-size="10.00">Rltos_task_sleep</text>
</a>
</g>
</g>
<!-- Node7&#45;&gt;Node8 -->
<g id="edge7" class="edge">
<title>Node7&#45;&gt;Node8</title>
<path fill="none" stroke="midnightblue" d="M281.4,-98C268.35,-98 254.92,-98 242.74,-98"/>
<polygon fill="midnightblue" stroke="midnightblue" points="281.76,-101.5 291.76,-98 281.76,-94.5 281.76,-101.5"/>
</g>
<!-- Node9 -->
<g id="node9" class="node">
<title>Node9</title>
<g id="a_node9"><a xlink:href="group___rltos__task__scheduler__api.html#ga90ce1a0329edc828e765740fce4e29cb" target="_top" xlink:title="Function used to set the current task to wait on an object (uses auxillary list)">
<polygon fill="white" stroke="black" points="139.5,-39 139.5,-69 253.5,-69 253.5,-39 139.5,-39"/>
<text text-anchor="start" x="147.5" y="-57" font-family="Helvetica,sans-Serif" font-size="10.00">Task_set_current_wait</text>
<text text-anchor="middle" x="196.5" y="-46" font-family="Helvetica,sans-Serif" font-size="10.00">_on_object</text>
</a>
</g>
</g>
<!-- Node7&#45;&gt;Node9 -->
<g id="edge8" class="edge">
<title>Node7&#45;&gt;Node9</title>
<path fill="none" stroke="midnightblue" d="M304.68,-85.54C287.26,-80.42 266.93,-74.44 248.69,-69.07"/>
<polygon fill="midnightblue" stroke="midnightblue" points="303.98,-88.99 314.56,-88.45 305.96,-82.27 303.98,-88.99"/>
</g>
<!-- Node11 -->
<g id="node11" class="node">
<title>Node11</title>
<g id="a_node11"><a xlink:href="group___rltos__task__scheduler__prv.html#ga7dad02e1630e47f423618b110c2071a4" target="_top" xlink:title="implementation of rltos context switch &#45; called from rltos_scheduler_asm.asm">
<polygon fill="white" stroke="black" points="137,-127 137,-157 256,-157 256,-127 137,-127"/>
<text text-anchor="start" x="145" y="-145" font-family="Helvetica,sans-Serif" font-size="10.00">Rltos_scheduler_switch</text>
<text text-anchor="middle" x="196.5" y="-134" font-family="Helvetica,sans-Serif" font-size="10.00">_context</text>
</a>
</g>
</g>
<!-- Node10&#45;&gt;Node11 -->
<g id="edge10" class="edge">
<title>Node10&#45;&gt;Node11</title>
<path fill="none" stroke="midnightblue" d="M291.07,-142C279.66,-142 267.63,-142 256.14,-142"/>
<polygon fill="midnightblue" stroke="midnightblue" points="291.33,-145.5 301.33,-142 291.33,-138.5 291.33,-145.5"/>
</g>
<!-- Node12 -->
<g id="node12" class="node">
<title>Node12</title>
<g id="a_node12"><a xlink:href="group___rltos__task__scheduler__api.html#gafed22720e2a57cdac7337c27d9f6b71d" target="_top" xlink:title="Function used to set a task running &#45; only if it is stopped (not waiting on an object or idled)">
<polygon fill="white" stroke="black" points="159,-176.5 159,-195.5 234,-195.5 234,-176.5 159,-176.5"/>
<text text-anchor="middle" x="196.5" y="-183.5" font-family="Helvetica,sans-Serif" font-size="10.00">Task_resume</text>
</a>
</g>
</g>
<!-- Node10&#45;&gt;Node12 -->
<g id="edge11" class="edge">
<title>Node10&#45;&gt;Node12</title>
<path fill="none" stroke="midnightblue" d="M304.75,-154.43C281,-161.43 251.8,-170.02 229.88,-176.47"/>
<polygon fill="midnightblue" stroke="midnightblue" points="305.96,-157.73 314.56,-151.55 303.98,-151.01 305.96,-157.73"/>
</g>
<!-- Node13 -->
<g id="node13" class="node">
<title>Node13</title>
<g id="a_node13"><a xlink:href="group___rltos__task__api.html#gac973b9f42436cf326284b4a7ae5222ac" target="_top" xlink:title="Resumes the targetted task in the stop state.">
<polygon fill="white" stroke="black" points="0,-176.5 0,-195.5 101,-195.5 101,-176.5 0,-176.5"/>
<text text-anchor="middle" x="50.5" y="-183.5" font-family="Helvetica,sans-Serif" font-size="10.00">Rltos_task_resume</text>
</a>
</g>
</g>
<!-- Node12&#45;&gt;Node13 -->
<g id="edge12" class="edge">
<title>Node12&#45;&gt;Node13</title>
<path fill="none" stroke="midnightblue" d="M148.6,-186C133.42,-186 116.55,-186 101.18,-186"/>
<polygon fill="midnightblue" stroke="midnightblue" points="148.79,-189.5 158.79,-186 148.79,-182.5 148.79,-189.5"/>
</g>
<!-- Node14&#45;&gt;Node9 -->
<g id="edge15" class="edge">
<title>Node14&#45;&gt;Node9</title>
<path fill="none" stroke="midnightblue" d="M289.54,-54C277.76,-54 265.38,-54 253.65,-54"/>
<polygon fill="midnightblue" stroke="midnightblue" points="289.7,-57.5 299.7,-54 289.7,-50.5 289.7,-57.5"/>
</g>
<!-- Node15 -->
<g id="node15" class="node">
<title>Node15</title>
<g id="a_node15"><a xlink:href="group___rltos__task__api.html#gab91ca4aee9a220306a8ba1ad8ad18644" target="_top" xlink:title="Stops the targetted task indefinitely.">
<polygon fill="white" stroke="black" points="153,-0.5 153,-19.5 240,-19.5 240,-0.5 153,-0.5"/>
<text text-anchor="middle" x="196.5" y="-7.5" font-family="Helvetica,sans-Serif" font-size="10.00">Rltos_task_stop</text>
</a>
</g>
</g>
<!-- Node14&#45;&gt;Node15 -->
<g id="edge14" class="edge">
<title>Node14&#45;&gt;Node15</title>
<path fill="none" stroke="midnightblue" d="M304.75,-41.57C281,-34.57 251.8,-25.98 229.88,-19.53"/>
<polygon fill="midnightblue" stroke="midnightblue" points="303.98,-44.99 314.56,-44.45 305.96,-38.27 303.98,-44.99"/>
</g>
</g>
</svg>
