<?xml version="1.0" encoding="UTF-8" standalone="no"?>
<!DOCTYPE svg PUBLIC "-//W3C//DTD SVG 1.1//EN"
 "http://www.w3.org/Graphics/SVG/1.1/DTD/svg11.dtd">
<!-- Generated by graphviz version 2.49.2 (20211016.1639)
 -->
<!-- Title: Event Flags Private Pages: 1 -->
<svg width="369pt" height="27pt"
 viewBox="0.00 0.00 369.00 27.00" xmlns="http://www.w3.org/2000/svg" xmlns:xlink="http://www.w3.org/1999/xlink">
<g id="graph0" class="graph" transform="scale(1 1) rotate(0) translate(4 23)">
<title>Event Flags Private</title>
<polygon fill="white" stroke="transparent" points="-4,4 -4,-23 365,-23 365,4 -4,4"/>
<!-- Node2 -->
<g id="node1" class="node">
<title>Node2</title>
<g id="a_node1"><a xlink:href="group___rltos__event__flags__api.html" target="_top" xlink:title=" ">
<polygon fill="white" stroke="black" points="86,-19 0,-19 0,0 86,0 86,-19"/>
<text text-anchor="middle" x="43" y="-7" font-family="Helvetica,sans-Serif" font-size="10.00">Event Flags API</text>
</a>
</g>
</g>
<!-- Node1 -->
<g id="node2" class="node">
<title>Node1</title>
<g id="a_node2"><a xlink:title=" ">
<polygon fill="#bfbfbf" stroke="black" points="222,-19 122,-19 122,0 222,0 222,-19"/>
<text text-anchor="middle" x="172" y="-7" font-family="Helvetica,sans-Serif" font-size="10.00">Event Flags Private</text>
</a>
</g>
</g>
<!-- Node2&#45;&gt;Node1 -->
<g id="edge1" class="edge">
<title>Node2&#45;&gt;Node1</title>
<path fill="none" stroke="black" d="M96.39,-9.5C104.82,-9.5 113.52,-9.5 121.86,-9.5"/>
<polygon fill="black" stroke="black" points="96.29,-6 86.29,-9.5 96.29,-13 96.29,-6"/>
</g>
<!-- Node3 -->
<g id="node3" class="node">
<title>Node3</title>
<g id="a_node3"><a xlink:href="group___rltos__task__scheduler__api.html" target="_top" xlink:title=" ">
<polygon fill="white" stroke="black" points="361,-19 258,-19 258,0 361,0 361,-19"/>
<text text-anchor="middle" x="309.5" y="-7" font-family="Helvetica,sans-Serif" font-size="10.00">Task Scheduler API</text>
</a>
</g>
</g>
<!-- Node1&#45;&gt;Node3 -->
<g id="edge2" class="edge">
<title>Node1&#45;&gt;Node3</title>
<path fill="none" stroke="black" d="M232.43,-9.5C240.84,-9.5 249.42,-9.5 257.64,-9.5"/>
<polygon fill="black" stroke="black" points="232.3,-6 222.3,-9.5 232.3,-13 232.3,-6"/>
</g>
</g>
</svg>
