<?xml version="1.0" encoding="UTF-8" standalone="no"?>
<!DOCTYPE svg PUBLIC "-//W3C//DTD SVG 1.1//EN"
 "http://www.w3.org/Graphics/SVG/1.1/DTD/svg11.dtd">
<!-- Generated by graphviz version 2.49.2 (20211016.1639)
 -->
<!-- Title: Rltos_kernel_kill Pages: 1 -->
<svg width="616pt" height="28pt"
 viewBox="0.00 0.00 616.00 28.00" xmlns="http://www.w3.org/2000/svg" xmlns:xlink="http://www.w3.org/1999/xlink">
<g id="graph0" class="graph" transform="scale(1 1) rotate(0) translate(4 24)">
<title>Rltos_kernel_kill</title>
<polygon fill="white" stroke="transparent" points="-4,4 -4,-24 612,-24 612,4 -4,4"/>
<!-- Node1 -->
<g id="node1" class="node">
<title>Node1</title>
<g id="a_node1"><a xlink:title="Cleanup of RLTOS kernel and stops scheduler timer.">
<polygon fill="#bfbfbf" stroke="black" points="0,-0.5 0,-19.5 88,-19.5 88,-0.5 0,-0.5"/>
<text text-anchor="middle" x="44" y="-7.5" font-family="Helvetica,sans-Serif" font-size="10.00">Rltos_kernel_kill</text>
</a>
</g>
</g>
<!-- Node2 -->
<g id="node2" class="node">
<title>Node2</title>
<g id="a_node2"><a xlink:href="group___rltos__task__scheduler__api.html#gaea5aed38dc28d13622f7ab25c56e9715" target="_top" xlink:title="Function to deinitialise the current task and remove the idle task from the running list.">
<polygon fill="white" stroke="black" points="124,-0.5 124,-19.5 237,-19.5 237,-0.5 124,-0.5"/>
<text text-anchor="middle" x="180.5" y="-7.5" font-family="Helvetica,sans-Serif" font-size="10.00">Task_scheduler_deinit</text>
</a>
</g>
</g>
<!-- Node1&#45;&gt;Node2 -->
<g id="edge1" class="edge">
<title>Node1&#45;&gt;Node2</title>
<path fill="none" stroke="midnightblue" d="M88.3,-10C96.47,-10 105.18,-10 113.85,-10"/>
<polygon fill="midnightblue" stroke="midnightblue" points="113.99,-13.5 123.99,-10 113.99,-6.5 113.99,-13.5"/>
</g>
<!-- Node3 -->
<g id="node3" class="node">
<title>Node3</title>
<g id="a_node3"><a xlink:href="group___rltos__task__scheduler__api.html#ga497b702db38a8ce118c8393eb0587712" target="_top" xlink:title="Function used to set deinit a task and removes from both state and aux lists.">
<polygon fill="white" stroke="black" points="273,-0.5 273,-19.5 339,-19.5 339,-0.5 273,-0.5"/>
<text text-anchor="middle" x="306" y="-7.5" font-family="Helvetica,sans-Serif" font-size="10.00">Task_deinit</text>
</a>
</g>
</g>
<!-- Node2&#45;&gt;Node3 -->
<g id="edge2" class="edge">
<title>Node2&#45;&gt;Node3</title>
<path fill="none" stroke="midnightblue" d="M237.11,-10C245.75,-10 254.56,-10 262.84,-10"/>
<polygon fill="midnightblue" stroke="midnightblue" points="262.99,-13.5 272.99,-10 262.99,-6.5 262.99,-13.5"/>
</g>
<!-- Node4 -->
<g id="node4" class="node">
<title>Node4</title>
<g id="a_node4"><a xlink:href="group___rltos__task__scheduler__prv.html#ga421dbb81487cd2fdc1fd06b1407eae5b" target="_top" xlink:title="Function used to remove task from a task list.">
<polygon fill="white" stroke="black" points="375,-0.5 375,-19.5 491,-19.5 491,-0.5 375,-0.5"/>
<text text-anchor="middle" x="433" y="-7.5" font-family="Helvetica,sans-Serif" font-size="10.00">Task_remove_from_list</text>
</a>
</g>
</g>
<!-- Node3&#45;&gt;Node4 -->
<g id="edge3" class="edge">
<title>Node3&#45;&gt;Node4</title>
<path fill="none" stroke="midnightblue" d="M339.19,-10C347.07,-10 355.81,-10 364.67,-10"/>
<polygon fill="midnightblue" stroke="midnightblue" points="364.69,-13.5 374.69,-10 364.69,-6.5 364.69,-13.5"/>
</g>
<!-- Node5 -->
<g id="node5" class="node">
<title>Node5</title>
<g id="a_node5"><a xlink:href="group___rltos__task__scheduler__prv.html#ga6f098dd7382a94e001bdeeadd29ae7bf" target="_top" xlink:title="Function used to check if a task is contained within the task list or not.">
<polygon fill="white" stroke="black" points="527,-0.5 527,-19.5 608,-19.5 608,-0.5 527,-0.5"/>
<text text-anchor="middle" x="567.5" y="-7.5" font-family="Helvetica,sans-Serif" font-size="10.00">Task_is_in_list</text>
</a>
</g>
</g>
<!-- Node4&#45;&gt;Node5 -->
<g id="edge4" class="edge">
<title>Node4&#45;&gt;Node5</title>
<path fill="none" stroke="midnightblue" d="M491.35,-10C499.71,-10 508.26,-10 516.46,-10"/>
<polygon fill="midnightblue" stroke="midnightblue" points="516.62,-13.5 526.62,-10 516.62,-6.5 516.62,-13.5"/>
</g>
</g>
</svg>
