<?xml version="1.0" encoding="UTF-8" standalone="no"?>
<!DOCTYPE svg PUBLIC "-//W3C//DTD SVG 1.1//EN"
 "http://www.w3.org/Graphics/SVG/1.1/DTD/svg11.dtd">
<!-- Generated by graphviz version 2.49.2 (20211016.1639)
 -->
<!-- Title: Task_scheduler_deinit Pages: 1 -->
<svg width="375pt" height="28pt"
 viewBox="0.00 0.00 375.00 28.00" xmlns="http://www.w3.org/2000/svg" xmlns:xlink="http://www.w3.org/1999/xlink">
<g id="graph0" class="graph" transform="scale(1 1) rotate(0) translate(4 24)">
<title>Task_scheduler_deinit</title>
<polygon fill="white" stroke="transparent" points="-4,4 -4,-24 371,-24 371,4 -4,4"/>
<!-- Node1 -->
<g id="node1" class="node">
<title>Node1</title>
<g id="a_node1"><a xlink:title="Function to deinitialise the current task and remove the idle task from the running list.">
<polygon fill="#bfbfbf" stroke="black" points="0,-0.5 0,-19.5 113,-19.5 113,-0.5 0,-0.5"/>
<text text-anchor="middle" x="56.5" y="-7.5" font-family="Helvetica,sans-Serif" font-size="10.00">Task_scheduler_deinit</text>
</a>
</g>
</g>
<!-- Node2 -->
<g id="node2" class="node">
<title>Node2</title>
<g id="a_node2"><a xlink:href="group___rltos__task__scheduler__api.html#ga87d2e1bf2416a8e34b2d5dca73616a03" target="_top" xlink:title="Function used to set deinit a task and removes from both state and aux lists.">
<polygon fill="white" stroke="black" points="149,-0.5 149,-19.5 215,-19.5 215,-0.5 149,-0.5"/>
<text text-anchor="middle" x="182" y="-7.5" font-family="Helvetica,sans-Serif" font-size="10.00">Task_deinit</text>
</a>
</g>
</g>
<!-- Node1&#45;&gt;Node2 -->
<g id="edge1" class="edge">
<title>Node1&#45;&gt;Node2</title>
<path fill="none" stroke="midnightblue" d="M113.11,-10C121.75,-10 130.56,-10 138.84,-10"/>
<polygon fill="midnightblue" stroke="midnightblue" points="138.99,-13.5 148.99,-10 138.99,-6.5 138.99,-13.5"/>
</g>
<!-- Node3 -->
<g id="node3" class="node">
<title>Node3</title>
<g id="a_node3"><a xlink:href="group___rltos__task__scheduler__prv.html#gae76b463d2edcb6299d3cf3d2c175055b" target="_top" xlink:title="Function used to remove task from a task list.">
<polygon fill="white" stroke="black" points="251,-0.5 251,-19.5 367,-19.5 367,-0.5 251,-0.5"/>
<text text-anchor="middle" x="309" y="-7.5" font-family="Helvetica,sans-Serif" font-size="10.00">Task_remove_from_list</text>
</a>
</g>
</g>
<!-- Node2&#45;&gt;Node3 -->
<g id="edge2" class="edge">
<title>Node2&#45;&gt;Node3</title>
<path fill="none" stroke="midnightblue" d="M215.19,-10C223.07,-10 231.81,-10 240.67,-10"/>
<polygon fill="midnightblue" stroke="midnightblue" points="240.69,-13.5 250.69,-10 240.69,-6.5 240.69,-13.5"/>
</g>
</g>
</svg>
