<?xml version="1.0" encoding="UTF-8" standalone="no"?>
<!DOCTYPE svg PUBLIC "-//W3C//DTD SVG 1.1//EN"
 "http://www.w3.org/Graphics/SVG/1.1/DTD/svg11.dtd">
<!-- Generated by graphviz version 2.49.2 (20211016.1639)
 -->
<!-- Title: Task_set_current_wait_on_object Pages: 1 -->
<!--zoomable 104 -->
<svg id="main" version="1.1" xmlns="http://www.w3.org/2000/svg" xmlns:xlink="http://www.w3.org/1999/xlink" xml:space="preserve" onload="init(evt)">
<style type="text/css"><![CDATA[
.edge:hover path { stroke: red; }
.edge:hover polygon { stroke: red; fill: red; }
]]></style>
<script type="text/javascript"><![CDATA[
var edges = document.getElementsByTagName('g');
if (edges && edges.length) {
  for (var i=0;i<edges.length;i++) {
    if (edges[i].id.substr(0,4)=='edge') {
      edges[i].setAttribute('class','edge');
    }
  }
}
]]></script>
        <defs>
                <circle id="rim" cx="0" cy="0" r="7"/>
                <circle id="rim2" cx="0" cy="0" r="3.5"/>
                <g id="zoomPlus">
                        <use xlink:href="#rim" fill="#404040">
                                <set attributeName="fill" to="#808080" begin="zoomplus.mouseover" end="zoomplus.mouseout"/>
                        </use>
                        <path d="M-4,0h8M0,-4v8" fill="none" stroke="white" stroke-width="1.5" pointer-events="none"/>
                </g>
                <g id="zoomMin">
                        <use xlink:href="#rim" fill="#404040">
                                <set attributeName="fill" to="#808080" begin="zoomminus.mouseover" end="zoomminus.mouseout"/>
                        </use>
                        <path d="M-4,0h8" fill="none" stroke="white" stroke-width="1.5" pointer-events="none"/>
                </g>
                <g id="dirArrow">
                        <path fill="none" stroke="white" stroke-width="1.5" d="M0,-3.0v7 M-2.5,-0.5L0,-3.0L2.5,-0.5"/>
                </g>
               <g id="resetDef">
                       <use xlink:href="#rim2" fill="#404040">
                               <set attributeName="fill" to="#808080" begin="reset.mouseover" end="reset.mouseout"/>
                       </use>
               </g>
        </defs>

<script type="text/javascript">
var viewWidth = 539;
var viewHeight = 104;
var sectionId = 'dynsection-13';
</script>
<script xlink:href="svgpan.js"/>
<svg id="graph" class="graph">
<g id="viewport">
<title>Task_set_current_wait_on_object</title>
<polygon fill="white" stroke="transparent" points="-4,4 -4,-100 535,-100 535,4 -4,4"/>
<!-- Node1 -->
<g id="node1" class="node">
<title>Node1</title>
<g id="a_node1"><a xlink:title="Function used to set the current task to wait on an object (uses auxillary list)">
<polygon fill="#bfbfbf" stroke="black" points="0,-33 0,-63 114,-63 114,-33 0,-33"/>
<text text-anchor="start" x="8" y="-51" font-family="Helvetica,sans-Serif" font-size="10.00">Task_set_current_wait</text>
<text text-anchor="middle" x="57" y="-40" font-family="Helvetica,sans-Serif" font-size="10.00">_on_object</text>
</a>
</g>
</g>
<!-- Node2 -->
<g id="node2" class="node">
<title>Node2</title>
<g id="a_node2"><a xlink:href="group___rltos__task__scheduler__prv.html#ga28f6d69d82ff510be23a1a401d5d42a9" target="_top" xlink:title="Function used to append task to a task list.">
<polygon fill="white" stroke="black" points="303,-76.5 303,-95.5 409,-95.5 409,-76.5 303,-76.5"/>
<text text-anchor="middle" x="356" y="-83.5" font-family="Helvetica,sans-Serif" font-size="10.00">Task_append_to_list</text>
</a>
</g>
</g>
<!-- Node1&#45;&gt;Node2 -->
<g id="edge1" class="edge">
<title>Node1&#45;&gt;Node2</title>
<path fill="none" stroke="midnightblue" d="M114.26,-60.65C126.03,-63.01 138.39,-65.27 150,-67 197.74,-74.12 252.17,-79.02 292.94,-82.05"/>
<polygon fill="midnightblue" stroke="midnightblue" points="292.77,-85.55 302.99,-82.78 293.27,-78.57 292.77,-85.55"/>
</g>
<!-- Node3 -->
<g id="node3" class="node">
<title>Node3</title>
<g id="a_node3"><a xlink:href="group___rltos__task__scheduler__api.html#gaef14e9b4eac09dd868feb5c3b2b4442f" target="_top" xlink:title="Function used to append task to the idle list.">
<polygon fill="white" stroke="black" points="150,-0.5 150,-19.5 262,-19.5 262,-0.5 150,-0.5"/>
<text text-anchor="middle" x="206" y="-7.5" font-family="Helvetica,sans-Serif" font-size="10.00">Task_set_current_idle</text>
</a>
</g>
</g>
<!-- Node1&#45;&gt;Node3 -->
<g id="edge2" class="edge">
<title>Node1&#45;&gt;Node3</title>
<path fill="none" stroke="midnightblue" d="M114.41,-33.42C128.88,-29.68 144.28,-25.7 158.2,-22.1"/>
<polygon fill="midnightblue" stroke="midnightblue" points="159.23,-25.45 168.04,-19.56 157.48,-18.67 159.23,-25.45"/>
</g>
<!-- Node7 -->
<g id="node7" class="node">
<title>Node7</title>
<g id="a_node7"><a xlink:href="group___rltos__task__scheduler__api.html#gaa65328e4b21083ff31b9ab00088bba47" target="_top" xlink:title="Function used to append the task to the stopped list.">
<polygon fill="white" stroke="black" points="158,-38.5 158,-57.5 254,-57.5 254,-38.5 158,-38.5"/>
<text text-anchor="middle" x="206" y="-45.5" font-family="Helvetica,sans-Serif" font-size="10.00">Task_set_stopped</text>
</a>
</g>
</g>
<!-- Node1&#45;&gt;Node7 -->
<g id="edge6" class="edge">
<title>Node1&#45;&gt;Node7</title>
<path fill="none" stroke="midnightblue" d="M114.41,-48C125.21,-48 136.53,-48 147.37,-48"/>
<polygon fill="midnightblue" stroke="midnightblue" points="147.58,-51.5 157.58,-48 147.58,-44.5 147.58,-51.5"/>
</g>
<!-- Node4 -->
<g id="node4" class="node">
<title>Node4</title>
<g id="a_node4"><a xlink:href="group___rltos__task__scheduler__prv.html#gab915c720a9360b7be5bb388002b6ebcd" target="_top" xlink:title="Function used to insert a task in a sorted task list.">
<polygon fill="white" stroke="black" points="307,-0.5 307,-19.5 405,-19.5 405,-0.5 307,-0.5"/>
<text text-anchor="middle" x="356" y="-7.5" font-family="Helvetica,sans-Serif" font-size="10.00">Task_insert_in_list</text>
</a>
</g>
</g>
<!-- Node3&#45;&gt;Node4 -->
<g id="edge3" class="edge">
<title>Node3&#45;&gt;Node4</title>
<path fill="none" stroke="midnightblue" d="M262.11,-10C273.31,-10 285.13,-10 296.44,-10"/>
<polygon fill="midnightblue" stroke="midnightblue" points="296.66,-13.5 306.66,-10 296.66,-6.5 296.66,-13.5"/>
</g>
<!-- Node5 -->
<g id="node5" class="node">
<title>Node5</title>
<g id="a_node5"><a xlink:href="group___rltos__task__scheduler__prv.html#ga421dbb81487cd2fdc1fd06b1407eae5b" target="_top" xlink:title="Function used to remove task from a task list.">
<polygon fill="white" stroke="black" points="298,-38.5 298,-57.5 414,-57.5 414,-38.5 298,-38.5"/>
<text text-anchor="middle" x="356" y="-45.5" font-family="Helvetica,sans-Serif" font-size="10.00">Task_remove_from_list</text>
</a>
</g>
</g>
<!-- Node3&#45;&gt;Node5 -->
<g id="edge4" class="edge">
<title>Node3&#45;&gt;Node5</title>
<path fill="none" stroke="midnightblue" d="M244.35,-19.59C263.7,-24.56 287.53,-30.68 308.11,-35.96"/>
<polygon fill="midnightblue" stroke="midnightblue" points="307.37,-39.38 317.92,-38.48 309.11,-32.6 307.37,-39.38"/>
</g>
<!-- Node6 -->
<g id="node6" class="node">
<title>Node6</title>
<g id="a_node6"><a xlink:href="group___rltos__task__scheduler__prv.html#ga6f098dd7382a94e001bdeeadd29ae7bf" target="_top" xlink:title="Function used to check if a task is contained within the task list or not.">
<polygon fill="white" stroke="black" points="450,-38.5 450,-57.5 531,-57.5 531,-38.5 450,-38.5"/>
<text text-anchor="middle" x="490.5" y="-45.5" font-family="Helvetica,sans-Serif" font-size="10.00">Task_is_in_list</text>
</a>
</g>
</g>
<!-- Node5&#45;&gt;Node6 -->
<g id="edge5" class="edge">
<title>Node5&#45;&gt;Node6</title>
<path fill="none" stroke="midnightblue" d="M414.35,-48C422.71,-48 431.26,-48 439.46,-48"/>
<polygon fill="midnightblue" stroke="midnightblue" points="439.62,-51.5 449.62,-48 439.62,-44.5 439.62,-51.5"/>
</g>
<!-- Node7&#45;&gt;Node2 -->
<g id="edge7" class="edge">
<title>Node7&#45;&gt;Node2</title>
<path fill="none" stroke="midnightblue" d="M244.35,-57.59C263.7,-62.56 287.53,-68.68 308.11,-73.96"/>
<polygon fill="midnightblue" stroke="midnightblue" points="307.37,-77.38 317.92,-76.48 309.11,-70.6 307.37,-77.38"/>
</g>
<!-- Node7&#45;&gt;Node5 -->
<g id="edge8" class="edge">
<title>Node7&#45;&gt;Node5</title>
<path fill="none" stroke="midnightblue" d="M254.24,-48C264.86,-48 276.33,-48 287.6,-48"/>
<polygon fill="midnightblue" stroke="midnightblue" points="287.86,-51.5 297.86,-48 287.86,-44.5 287.86,-51.5"/>
</g>
</g>
</svg>
        <g id="navigator" transform="translate(0 0)" fill="#404254">
                <rect fill="#f2f5e9" fill-opacity="0.5" stroke="#606060" stroke-width=".5" x="0" y="0" width="60" height="60"/>
                <use id="zoomplus" xlink:href="#zoomPlus" x="17" y="9" onmousedown="handleZoom(evt,'in')"/>
                <use id="zoomminus" xlink:href="#zoomMin" x="42" y="9" onmousedown="handleZoom(evt,'out')"/>
                <use id="reset" xlink:href="#resetDef" x="30" y="36" onmousedown="handleReset()"/>
                <g id="arrowUp" xlink:href="#dirArrow" transform="translate(30 24)" onmousedown="handlePan(0,-1)">
                  <use xlink:href="#rim" fill="#404040">
                        <set attributeName="fill" to="#808080" begin="arrowUp.mouseover" end="arrowUp.mouseout"/>
                  </use>
                  <path fill="none" stroke="white" stroke-width="1.5" d="M0,-3.0v7 M-2.5,-0.5L0,-3.0L2.5,-0.5"/>
                </g>
                <g id="arrowRight" xlink:href="#dirArrow" transform="rotate(90) translate(36 -43)" onmousedown="handlePan(1,0)">
                  <use xlink:href="#rim" fill="#404040">
                        <set attributeName="fill" to="#808080" begin="arrowRight.mouseover" end="arrowRight.mouseout"/>
                  </use>
                  <path fill="none" stroke="white" stroke-width="1.5" d="M0,-3.0v7 M-2.5,-0.5L0,-3.0L2.5,-0.5"/>
                </g>
                <g id="arrowDown" xlink:href="#dirArrow" transform="rotate(180) translate(-30 -48)" onmousedown="handlePan(0,1)">
                  <use xlink:href="#rim" fill="#404040">
                        <set attributeName="fill" to="#808080" begin="arrowDown.mouseover" end="arrowDown.mouseout"/>
                  </use>
                  <path fill="none" stroke="white" stroke-width="1.5" d="M0,-3.0v7 M-2.5,-0.5L0,-3.0L2.5,-0.5"/>
                </g>
                <g id="arrowLeft" xlink:href="#dirArrow" transform="rotate(270) translate(-36 17)" onmousedown="handlePan(-1,0)">
                  <use xlink:href="#rim" fill="#404040">
                        <set attributeName="fill" to="#808080" begin="arrowLeft.mouseover" end="arrowLeft.mouseout"/>
                  </use>
                  <path fill="none" stroke="white" stroke-width="1.5" d="M0,-3.0v7 M-2.5,-0.5L0,-3.0L2.5,-0.5"/>
                </g>
        </g>
        <svg viewBox="0 0 15 15" width="100%" height="30px" preserveAspectRatio="xMaxYMin meet">
         <g id="arrow_out" transform="scale(0.3 0.3)">
          <a xlink:href="group___rltos__task__scheduler__api_ga90ce1a0329edc828e765740fce4e29cb_cgraph_org.svg" target="_base">
           <rect id="button" ry="5" rx="5" y="6" x="6" height="38" width="38"
                fill="#f2f5e9" fill-opacity="0.5" stroke="#606060" stroke-width="1.0"/>
           <path id="arrow"
             d="M 11.500037,31.436501 C 11.940474,20.09759 22.043105,11.32322 32.158766,21.979434 L 37.068811,17.246167 C 37.068811,17.246167 37.088388,32 37.088388,32 L 22.160133,31.978069 C 22.160133,31.978069 26.997745,27.140456 26.997745,27.140456 C 18.528582,18.264221 13.291696,25.230495 11.500037,31.436501 z"
             style="fill:#404040;"/>
          </a>
         </g>
        </svg>
</svg>
