<?xml version="1.0" encoding="UTF-8" standalone="no"?>
<!DOCTYPE svg PUBLIC "-//W3C//DTD SVG 1.1//EN"
 "http://www.w3.org/Graphics/SVG/1.1/DTD/svg11.dtd">
<!-- Generated by graphviz version 2.49.2 (20211016.1639)
 -->
<!-- Title: Task Private Pages: 1 -->
<svg width="309pt" height="27pt"
 viewBox="0.00 0.00 309.00 27.00" xmlns="http://www.w3.org/2000/svg" xmlns:xlink="http://www.w3.org/1999/xlink">
<g id="graph0" class="graph" transform="scale(1 1) rotate(0) translate(4 23)">
<title>Task Private</title>
<polygon fill="white" stroke="transparent" points="-4,4 -4,-23 305,-23 305,4 -4,4"/>
<!-- Node2 -->
<g id="node1" class="node">
<title>Node2</title>
<g id="a_node1"><a xlink:href="group___rltos__task__api.html" target="_top" xlink:title=" ">
<polygon fill="white" stroke="black" points="56,-19 0,-19 0,0 56,0 56,-19"/>
<text text-anchor="middle" x="28" y="-7" font-family="Helvetica,sans-Serif" font-size="10.00">Task API</text>
</a>
</g>
</g>
<!-- Node1 -->
<g id="node2" class="node">
<title>Node1</title>
<g id="a_node2"><a xlink:title=" ">
<polygon fill="#bfbfbf" stroke="black" points="162,-19 92,-19 92,0 162,0 162,-19"/>
<text text-anchor="middle" x="127" y="-7" font-family="Helvetica,sans-Serif" font-size="10.00">Task Private</text>
</a>
</g>
</g>
<!-- Node2&#45;&gt;Node1 -->
<g id="edge1" class="edge">
<title>Node2&#45;&gt;Node1</title>
<path fill="none" stroke="black" d="M66.04,-9.5C74.52,-9.5 83.5,-9.5 91.85,-9.5"/>
<polygon fill="black" stroke="black" points="66.02,-6 56.02,-9.5 66.02,-13 66.02,-6"/>
</g>
<!-- Node3 -->
<g id="node3" class="node">
<title>Node3</title>
<g id="a_node3"><a xlink:href="group___rltos__task__scheduler__api.html" target="_top" xlink:title=" ">
<polygon fill="white" stroke="black" points="301,-19 198,-19 198,0 301,0 301,-19"/>
<text text-anchor="middle" x="249.5" y="-7" font-family="Helvetica,sans-Serif" font-size="10.00">Task Scheduler API</text>
</a>
</g>
</g>
<!-- Node1&#45;&gt;Node3 -->
<g id="edge2" class="edge">
<title>Node1&#45;&gt;Node3</title>
<path fill="none" stroke="black" d="M172.33,-9.5C180.54,-9.5 189.17,-9.5 197.56,-9.5"/>
<polygon fill="black" stroke="black" points="172.21,-6 162.21,-9.5 172.21,-13 172.21,-6"/>
</g>
</g>
</svg>
