<?xml version="1.0" encoding="UTF-8" standalone="no"?>
<!DOCTYPE svg PUBLIC "-//W3C//DTD SVG 1.1//EN"
 "http://www.w3.org/Graphics/SVG/1.1/DTD/svg11.dtd">
<!-- Generated by graphviz version 2.49.2 (20211016.1639)
 -->
<!-- Title: Queue Pages: 1 -->
<svg width="166pt" height="64pt"
 viewBox="0.00 0.00 166.00 64.00" xmlns="http://www.w3.org/2000/svg" xmlns:xlink="http://www.w3.org/1999/xlink">
<g id="graph0" class="graph" transform="scale(1 1) rotate(0) translate(4 60)">
<title>Queue</title>
<polygon fill="white" stroke="transparent" points="-4,4 -4,-60 162,-60 162,4 -4,4"/>
<!-- Node1 -->
<g id="node1" class="node">
<title>Node1</title>
<g id="a_node1"><a xlink:title=" ">
<polygon fill="#bfbfbf" stroke="black" points="45,-37 0,-37 0,-18 45,-18 45,-37"/>
<text text-anchor="middle" x="22.5" y="-25" font-family="Helvetica,sans-Serif" font-size="10.00">Queue</text>
</a>
</g>
</g>
<!-- Node3 -->
<g id="node2" class="node">
<title>Node3</title>
<g id="a_node2"><a xlink:href="group___rltos__queue__api.html" target="_top" xlink:title=" ">
<polygon fill="white" stroke="black" points="151.5,-56 87.5,-56 87.5,-37 151.5,-37 151.5,-56"/>
<text text-anchor="middle" x="119.5" y="-44" font-family="Helvetica,sans-Serif" font-size="10.00">Queue API</text>
</a>
</g>
</g>
<!-- Node1&#45;&gt;Node3 -->
<g id="edge2" class="edge">
<title>Node1&#45;&gt;Node3</title>
<path fill="none" stroke="black" d="M54.98,-33.8C65.37,-35.87 76.93,-38.19 87.3,-40.26"/>
<polygon fill="black" stroke="black" points="55.55,-30.34 45.06,-31.81 54.18,-37.2 55.55,-30.34"/>
</g>
<!-- Node2 -->
<g id="node3" class="node">
<title>Node2</title>
<g id="a_node3"><a xlink:href="group___rltos__queue__prv.html" target="_top" xlink:title=" ">
<polygon fill="white" stroke="black" points="158,-19 81,-19 81,0 158,0 158,-19"/>
<text text-anchor="middle" x="119.5" y="-7" font-family="Helvetica,sans-Serif" font-size="10.00">Queue Private</text>
</a>
</g>
</g>
<!-- Node1&#45;&gt;Node2 -->
<g id="edge1" class="edge">
<title>Node1&#45;&gt;Node2</title>
<path fill="none" stroke="black" d="M55.09,-21.52C63.38,-19.94 72.41,-18.23 80.99,-16.61"/>
<polygon fill="black" stroke="black" points="54.23,-18.12 45.06,-23.42 55.53,-24.99 54.23,-18.12"/>
</g>
</g>
</svg>
