<?xml version="1.0" encoding="UTF-8" standalone="no"?>
<!DOCTYPE svg PUBLIC "-//W3C//DTD SVG 1.1//EN"
 "http://www.w3.org/Graphics/SVG/1.1/DTD/svg11.dtd">
<!-- Generated by graphviz version 2.49.2 (20211016.1639)
 -->
<!-- Title: Task_append_to_list Pages: 1 -->
<svg width="700pt" height="202pt"
 viewBox="0.00 0.00 700.00 202.00" xmlns="http://www.w3.org/2000/svg" xmlns:xlink="http://www.w3.org/1999/xlink">
<g id="graph0" class="graph" transform="scale(1 1) rotate(0) translate(4 198)">
<title>Task_append_to_list</title>
<polygon fill="white" stroke="transparent" points="-4,4 -4,-198 696,-198 696,4 -4,4"/>
<!-- Node1 -->
<g id="node1" class="node">
<title>Node1</title>
<g id="a_node1"><a xlink:title="Function used to append task to a task list.">
<polygon fill="#bfbfbf" stroke="black" points="586,-133.5 586,-152.5 692,-152.5 692,-133.5 586,-133.5"/>
<text text-anchor="middle" x="639" y="-140.5" font-family="Helvetica,sans-Serif" font-size="10.00">Task_append_to_list</text>
</a>
</g>
</g>
<!-- Node2 -->
<g id="node2" class="node">
<title>Node2</title>
<g id="a_node2"><a xlink:href="group___rltos__task__scheduler__prv.html#ga61aab9e930d140a49708e98bf741c3dd" target="_top" xlink:title="Function used to insert a task in the idle list (sorted).">
<polygon fill="white" stroke="black" points="432,-171.5 432,-190.5 550,-190.5 550,-171.5 432,-171.5"/>
<text text-anchor="middle" x="491" y="-178.5" font-family="Helvetica,sans-Serif" font-size="10.00">Task_insert_in_idle_list</text>
</a>
</g>
</g>
<!-- Node1&#45;&gt;Node2 -->
<g id="edge1" class="edge">
<title>Node1&#45;&gt;Node2</title>
<path fill="none" stroke="midnightblue" d="M591.46,-155.11C571.13,-160.4 547.63,-166.52 528.58,-171.48"/>
<polygon fill="midnightblue" stroke="midnightblue" points="592.36,-158.5 601.16,-152.59 590.6,-151.72 592.36,-158.5"/>
</g>
<!-- Node5 -->
<g id="node5" class="node">
<title>Node5</title>
<g id="a_node5"><a xlink:href="group___rltos__task__scheduler__api.html#ga90ce1a0329edc828e765740fce4e29cb" target="_top" xlink:title="Function used to set the current task to wait on an object (uses auxillary list)">
<polygon fill="white" stroke="black" points="134,-125 134,-155 248,-155 248,-125 134,-125"/>
<text text-anchor="start" x="142" y="-143" font-family="Helvetica,sans-Serif" font-size="10.00">Task_set_current_wait</text>
<text text-anchor="middle" x="191" y="-132" font-family="Helvetica,sans-Serif" font-size="10.00">_on_object</text>
</a>
</g>
</g>
<!-- Node1&#45;&gt;Node5 -->
<g id="edge5" class="edge">
<title>Node1&#45;&gt;Node5</title>
<path fill="none" stroke="midnightblue" d="M575.7,-142.58C488.66,-142 331.93,-140.94 248.25,-140.38"/>
<polygon fill="midnightblue" stroke="midnightblue" points="575.94,-146.08 585.97,-142.65 575.99,-139.08 575.94,-146.08"/>
</g>
<!-- Node6 -->
<g id="node6" class="node">
<title>Node6</title>
<g id="a_node6"><a xlink:href="group___rltos__task__scheduler__api.html#gaa65328e4b21083ff31b9ab00088bba47" target="_top" xlink:title="Function used to append the task to the stopped list.">
<polygon fill="white" stroke="black" points="443,-76.5 443,-95.5 539,-95.5 539,-76.5 443,-76.5"/>
<text text-anchor="middle" x="491" y="-83.5" font-family="Helvetica,sans-Serif" font-size="10.00">Task_set_stopped</text>
</a>
</g>
</g>
<!-- Node1&#45;&gt;Node6 -->
<g id="edge6" class="edge">
<title>Node1&#45;&gt;Node6</title>
<path fill="none" stroke="midnightblue" d="M604.18,-129.8C577.37,-119.33 540.55,-104.95 516.52,-95.57"/>
<polygon fill="midnightblue" stroke="midnightblue" points="602.97,-133.08 613.56,-133.46 605.52,-126.56 602.97,-133.08"/>
</g>
<!-- Node3 -->
<g id="node3" class="node">
<title>Node3</title>
<g id="a_node3"><a xlink:href="group___rltos__task__scheduler__api.html#gaef14e9b4eac09dd868feb5c3b2b4442f" target="_top" xlink:title="Function used to append task to the idle list.">
<polygon fill="white" stroke="black" points="284,-171.5 284,-190.5 396,-190.5 396,-171.5 284,-171.5"/>
<text text-anchor="middle" x="340" y="-178.5" font-family="Helvetica,sans-Serif" font-size="10.00">Task_set_current_idle</text>
</a>
</g>
</g>
<!-- Node2&#45;&gt;Node3 -->
<g id="edge2" class="edge">
<title>Node2&#45;&gt;Node3</title>
<path fill="none" stroke="midnightblue" d="M421.93,-181C413.31,-181 404.58,-181 396.19,-181"/>
<polygon fill="midnightblue" stroke="midnightblue" points="421.97,-184.5 431.97,-181 421.97,-177.5 421.97,-184.5"/>
</g>
<!-- Node4 -->
<g id="node4" class="node">
<title>Node4</title>
<g id="a_node4"><a xlink:href="group___rltos__task__api.html#ga581dd045fa985add7730a8a1581389b7" target="_top" xlink:title="Puts the current thread to sleep for a minimum of the given number of ticks.">
<polygon fill="white" stroke="black" points="145,-174.5 145,-193.5 237,-193.5 237,-174.5 145,-174.5"/>
<text text-anchor="middle" x="191" y="-181.5" font-family="Helvetica,sans-Serif" font-size="10.00">Rltos_task_sleep</text>
</a>
</g>
</g>
<!-- Node3&#45;&gt;Node4 -->
<g id="edge3" class="edge">
<title>Node3&#45;&gt;Node4</title>
<path fill="none" stroke="midnightblue" d="M273.66,-182.33C261.42,-182.58 248.86,-182.84 237.39,-183.07"/>
<polygon fill="midnightblue" stroke="midnightblue" points="273.92,-185.83 283.84,-182.13 273.78,-178.83 273.92,-185.83"/>
</g>
<!-- Node3&#45;&gt;Node5 -->
<g id="edge4" class="edge">
<title>Node3&#45;&gt;Node5</title>
<path fill="none" stroke="midnightblue" d="M295.11,-168.76C279.7,-164.46 262.21,-159.58 246.06,-155.08"/>
<polygon fill="midnightblue" stroke="midnightblue" points="294.33,-172.18 304.91,-171.49 296.21,-165.43 294.33,-172.18"/>
</g>
<!-- Node6&#45;&gt;Node5 -->
<g id="edge12" class="edge">
<title>Node6&#45;&gt;Node5</title>
<path fill="none" stroke="midnightblue" d="M432.84,-96.36C379.68,-105.99 300.97,-120.25 248.14,-129.83"/>
<polygon fill="midnightblue" stroke="midnightblue" points="433.57,-99.78 442.78,-94.56 432.32,-92.9 433.57,-99.78"/>
</g>
<!-- Node7 -->
<g id="node7" class="node">
<title>Node7</title>
<g id="a_node7"><a xlink:href="group___rltos__task__api.html#gab91ca4aee9a220306a8ba1ad8ad18644" target="_top" xlink:title="Stops the targetted task indefinitely.">
<polygon fill="white" stroke="black" points="296.5,-57.5 296.5,-76.5 383.5,-76.5 383.5,-57.5 296.5,-57.5"/>
<text text-anchor="middle" x="340" y="-64.5" font-family="Helvetica,sans-Serif" font-size="10.00">Rltos_task_stop</text>
</a>
</g>
</g>
<!-- Node6&#45;&gt;Node7 -->
<g id="edge7" class="edge">
<title>Node6&#45;&gt;Node7</title>
<path fill="none" stroke="midnightblue" d="M432.88,-78.72C416.58,-76.64 399.09,-74.41 383.8,-72.46"/>
<polygon fill="midnightblue" stroke="midnightblue" points="432.49,-82.2 442.86,-79.99 433.38,-75.25 432.49,-82.2"/>
</g>
<!-- Node8 -->
<g id="node8" class="node">
<title>Node8</title>
<g id="a_node8"><a xlink:href="group___rltos__task__scheduler__api.html#ga6bbde0c90e5e572e8131cc7652d8dd78" target="_top" xlink:title="Function used to set initial stack pointer, task entry function &amp; clear pointers to next and prev nod...">
<polygon fill="white" stroke="black" points="312,-19.5 312,-38.5 368,-38.5 368,-19.5 312,-19.5"/>
<text text-anchor="middle" x="340" y="-26.5" font-family="Helvetica,sans-Serif" font-size="10.00">Task_init</text>
</a>
</g>
</g>
<!-- Node6&#45;&gt;Node8 -->
<g id="edge8" class="edge">
<title>Node6&#45;&gt;Node8</title>
<path fill="none" stroke="midnightblue" d="M457.85,-72.52C439.76,-65.07 416.72,-55.76 396,-48 387.01,-44.63 377.12,-41.15 368.23,-38.1"/>
<polygon fill="midnightblue" stroke="midnightblue" points="456.76,-75.86 467.34,-76.46 459.44,-69.39 456.76,-75.86"/>
</g>
<!-- Node9 -->
<g id="node9" class="node">
<title>Node9</title>
<g id="a_node9"><a xlink:href="group___rltos__task__api.html#ga834372bf1fbfa182dcd47b8f680f435a" target="_top" xlink:title="Initialises task control structure, stack &amp; appends to task list.">
<polygon fill="white" stroke="black" points="143.5,-38.5 143.5,-57.5 238.5,-57.5 238.5,-38.5 143.5,-38.5"/>
<text text-anchor="middle" x="191" y="-45.5" font-family="Helvetica,sans-Serif" font-size="10.00">Rltos_task_create</text>
</a>
</g>
</g>
<!-- Node8&#45;&gt;Node9 -->
<g id="edge9" class="edge">
<title>Node8&#45;&gt;Node9</title>
<path fill="none" stroke="midnightblue" d="M301.54,-33.84C282.37,-36.32 258.85,-39.36 238.52,-41.99"/>
<polygon fill="midnightblue" stroke="midnightblue" points="302.23,-37.28 311.69,-32.53 301.33,-30.34 302.23,-37.28"/>
</g>
<!-- Node10 -->
<g id="node10" class="node">
<title>Node10</title>
<g id="a_node10"><a xlink:href="group___rltos__task__scheduler__api.html#gae1bd8e8e3af9f778a719fb7a086451f1" target="_top" xlink:title="Function to initialise the current task on entry to the scheduler &amp; create + add the idle task to the...">
<polygon fill="white" stroke="black" points="139.5,-0.5 139.5,-19.5 242.5,-19.5 242.5,-0.5 139.5,-0.5"/>
<text text-anchor="middle" x="191" y="-7.5" font-family="Helvetica,sans-Serif" font-size="10.00">Task_scheduler_init</text>
</a>
</g>
</g>
<!-- Node8&#45;&gt;Node10 -->
<g id="edge10" class="edge">
<title>Node8&#45;&gt;Node10</title>
<path fill="none" stroke="midnightblue" d="M301.64,-24.17C283.74,-21.86 262.02,-19.05 242.66,-16.55"/>
<polygon fill="midnightblue" stroke="midnightblue" points="301.33,-27.66 311.69,-25.47 302.23,-20.72 301.33,-27.66"/>
</g>
<!-- Node11 -->
<g id="node11" class="node">
<title>Node11</title>
<g id="a_node11"><a xlink:href="group___rltos__task__api.html#gac44bc5223fd6d5d7f635776b1eb6231b" target="_top" xlink:title="Enters RLTOS kernel and starts scheduler timer.">
<polygon fill="white" stroke="black" points="0,-0.5 0,-19.5 98,-19.5 98,-0.5 0,-0.5"/>
<text text-anchor="middle" x="49" y="-7.5" font-family="Helvetica,sans-Serif" font-size="10.00">Rltos_kernel_enter</text>
</a>
</g>
</g>
<!-- Node10&#45;&gt;Node11 -->
<g id="edge11" class="edge">
<title>Node10&#45;&gt;Node11</title>
<path fill="none" stroke="midnightblue" d="M129.19,-10C118.8,-10 108.13,-10 98.13,-10"/>
<polygon fill="midnightblue" stroke="midnightblue" points="129.46,-13.5 139.46,-10 129.46,-6.5 129.46,-13.5"/>
</g>
</g>
</svg>
