<?xml version="1.0" encoding="UTF-8" standalone="no"?>
<!DOCTYPE svg PUBLIC "-//W3C//DTD SVG 1.1//EN"
 "http://www.w3.org/Graphics/SVG/1.1/DTD/svg11.dtd">
<!-- Generated by graphviz version 2.49.2 (20211016.1639)
 -->
<!-- Title: Restore_context Pages: 1 -->
<svg width="377pt" height="104pt"
 viewBox="0.00 0.00 377.00 104.00" xmlns="http://www.w3.org/2000/svg" xmlns:xlink="http://www.w3.org/1999/xlink">
<g id="graph0" class="graph" transform="scale(1 1) rotate(0) translate(4 100)">
<title>Restore_context</title>
<polygon fill="white" stroke="transparent" points="-4,4 -4,-100 373,-100 373,4 -4,4"/>
<!-- Node1 -->
<g id="node1" class="node">
<title>Node1</title>
<g id="a_node1"><a xlink:title="emtpy function used to emulate the dummy functions">
<polygon fill="#bfbfbf" stroke="black" points="281,-38.5 281,-57.5 369,-57.5 369,-38.5 281,-38.5"/>
<text text-anchor="middle" x="325" y="-45.5" font-family="Helvetica,sans-Serif" font-size="10.00">Restore_context</text>
</a>
</g>
</g>
<!-- Node2 -->
<g id="node2" class="node">
<title>Node2</title>
<g id="a_node2"><a xlink:href="group___rltos__task__prv.html#ga04568f559034fd5f422b38c455278324" target="_top" xlink:title="dummy definition of function referenced in source that is typically provided in asm">
<polygon fill="white" stroke="black" points="134,-76.5 134,-95.5 245,-95.5 245,-76.5 134,-76.5"/>
<text text-anchor="middle" x="189.5" y="-83.5" font-family="Helvetica,sans-Serif" font-size="10.00">Rltos_enter_first_task</text>
</a>
</g>
</g>
<!-- Node1&#45;&gt;Node2 -->
<g id="edge1" class="edge">
<title>Node1&#45;&gt;Node2</title>
<path fill="none" stroke="midnightblue" d="M280.47,-60.39C262.19,-65.59 241.25,-71.55 224.18,-76.41"/>
<polygon fill="midnightblue" stroke="midnightblue" points="281.65,-63.69 290.31,-57.59 279.74,-56.96 281.65,-63.69"/>
</g>
<!-- Node4 -->
<g id="node4" class="node">
<title>Node4</title>
<g id="a_node4"><a xlink:href="rltos__scheduler__asm__dummy_8c.html#a3e46e11736a8372c7fbdda0fface2eea" target="_top" xlink:title="dummy definition of function referenced in source that is typically provided in asm">
<polygon fill="white" stroke="black" points="159.5,-38.5 159.5,-57.5 219.5,-57.5 219.5,-38.5 159.5,-38.5"/>
<text text-anchor="middle" x="189.5" y="-45.5" font-family="Helvetica,sans-Serif" font-size="10.00">Rltos_tick</text>
</a>
</g>
</g>
<!-- Node1&#45;&gt;Node4 -->
<g id="edge3" class="edge">
<title>Node1&#45;&gt;Node4</title>
<path fill="none" stroke="midnightblue" d="M270.62,-48C253.26,-48 234.64,-48 219.73,-48"/>
<polygon fill="midnightblue" stroke="midnightblue" points="270.66,-51.5 280.66,-48 270.66,-44.5 270.66,-51.5"/>
</g>
<!-- Node5 -->
<g id="node5" class="node">
<title>Node5</title>
<g id="a_node5"><a xlink:href="rltos__scheduler__asm__dummy_8c.html#a6077bc6263d8f5d904b5bc949c97ec1c" target="_top" xlink:title="dummy definition of function referenced in source that is typically provided in asm">
<polygon fill="white" stroke="black" points="157,-0.5 157,-19.5 222,-19.5 222,-0.5 157,-0.5"/>
<text text-anchor="middle" x="189.5" y="-7.5" font-family="Helvetica,sans-Serif" font-size="10.00">Rltos_yield</text>
</a>
</g>
</g>
<!-- Node1&#45;&gt;Node5 -->
<g id="edge4" class="edge">
<title>Node1&#45;&gt;Node5</title>
<path fill="none" stroke="midnightblue" d="M280.68,-35.67C261.69,-30.26 239.8,-24.03 222.34,-19.06"/>
<polygon fill="midnightblue" stroke="midnightblue" points="279.74,-39.04 290.31,-38.41 281.65,-32.31 279.74,-39.04"/>
</g>
<!-- Node3 -->
<g id="node3" class="node">
<title>Node3</title>
<g id="a_node3"><a xlink:href="group___rltos__task__prv.html#gac44bc5223fd6d5d7f635776b1eb6231b" target="_top" xlink:title="Enters RLTOS kernel and starts scheduler timer.">
<polygon fill="white" stroke="black" points="0,-76.5 0,-95.5 98,-95.5 98,-76.5 0,-76.5"/>
<text text-anchor="middle" x="49" y="-83.5" font-family="Helvetica,sans-Serif" font-size="10.00">Rltos_kernel_enter</text>
</a>
</g>
</g>
<!-- Node2&#45;&gt;Node3 -->
<g id="edge2" class="edge">
<title>Node2&#45;&gt;Node3</title>
<path fill="none" stroke="midnightblue" d="M123.7,-86C115.07,-86 106.34,-86 98.06,-86"/>
<polygon fill="midnightblue" stroke="midnightblue" points="123.76,-89.5 133.76,-86 123.76,-82.5 123.76,-89.5"/>
</g>
</g>
</svg>
