<?xml version="1.0" encoding="UTF-8" standalone="no"?>
<!DOCTYPE svg PUBLIC "-//W3C//DTD SVG 1.1//EN"
 "http://www.w3.org/Graphics/SVG/1.1/DTD/svg11.dtd">
<!-- Generated by graphviz version 2.49.2 (20211016.1639)
 -->
<!-- Title: Rltos_tick Pages: 1 -->
<svg width="510pt" height="154pt"
 viewBox="0.00 0.00 510.00 154.00" xmlns="http://www.w3.org/2000/svg" xmlns:xlink="http://www.w3.org/1999/xlink">
<g id="graph0" class="graph" transform="scale(1 1) rotate(0) translate(4 150)">
<title>Rltos_tick</title>
<polygon fill="white" stroke="transparent" points="-4,4 -4,-150 506,-150 506,4 -4,4"/>
<!-- Node1 -->
<g id="node1" class="node">
<title>Node1</title>
<g id="a_node1"><a xlink:title="dummy definition of function referenced in source that is typically provided in asm">
<polygon fill="#bfbfbf" stroke="black" points="0,-60.5 0,-79.5 60,-79.5 60,-60.5 0,-60.5"/>
<text text-anchor="middle" x="30" y="-67.5" font-family="Helvetica,sans-Serif" font-size="10.00">Rltos_tick</text>
</a>
</g>
</g>
<!-- Node2 -->
<g id="node2" class="node">
<title>Node2</title>
<g id="a_node2"><a xlink:href="rltos__scheduler__asm__dummy_8c.html#ad1e8ab72b936d58f5c0d5bc0b1cbd21f" target="_top" xlink:title="emtpy function used to emulate the dummy functions">
<polygon fill="white" stroke="black" points="114.5,-126.5 114.5,-145.5 202.5,-145.5 202.5,-126.5 114.5,-126.5"/>
<text text-anchor="middle" x="158.5" y="-133.5" font-family="Helvetica,sans-Serif" font-size="10.00">Restore_context</text>
</a>
</g>
</g>
<!-- Node1&#45;&gt;Node2 -->
<g id="edge1" class="edge">
<title>Node1&#45;&gt;Node2</title>
<path fill="none" stroke="midnightblue" d="M41.78,-79.52C54.13,-89.98 75.32,-106.68 96,-117 100.39,-119.19 105.09,-121.19 109.86,-123"/>
<polygon fill="midnightblue" stroke="midnightblue" points="109.07,-126.43 119.67,-126.44 111.39,-119.83 109.07,-126.43"/>
</g>
<!-- Node3 -->
<g id="node3" class="node">
<title>Node3</title>
<g id="a_node3"><a xlink:href="group___rltos__task__list__prv.html#ga7dad02e1630e47f423618b110c2071a4" target="_top" xlink:title="implementation of rltos context switch &#45; called from rltos_scheduler_asm.asm">
<polygon fill="white" stroke="black" points="99,-77 99,-107 218,-107 218,-77 99,-77"/>
<text text-anchor="start" x="107" y="-95" font-family="Helvetica,sans-Serif" font-size="10.00">Rltos_scheduler_switch</text>
<text text-anchor="middle" x="158.5" y="-84" font-family="Helvetica,sans-Serif" font-size="10.00">_context</text>
</a>
</g>
</g>
<!-- Node1&#45;&gt;Node3 -->
<g id="edge2" class="edge">
<title>Node1&#45;&gt;Node3</title>
<path fill="none" stroke="midnightblue" d="M60.02,-75.05C68.72,-76.56 78.65,-78.29 88.78,-80.05"/>
<polygon fill="midnightblue" stroke="midnightblue" points="88.47,-83.55 98.92,-81.81 89.67,-76.65 88.47,-83.55"/>
</g>
<!-- Node4 -->
<g id="node4" class="node">
<title>Node4</title>
<g id="a_node4"><a xlink:href="group___rltos__task__list__prv.html#ga609bbe6d9efbe0605517cde0ba5c9f06" target="_top" xlink:title="implementation of rltos tick increment &#45; called from rltos_scheduler_asm.asm">
<polygon fill="white" stroke="black" points="96,-38.5 96,-57.5 221,-57.5 221,-38.5 96,-38.5"/>
<text text-anchor="middle" x="158.5" y="-45.5" font-family="Helvetica,sans-Serif" font-size="10.00">Rltos_scheduler_tick_inc</text>
</a>
</g>
</g>
<!-- Node1&#45;&gt;Node4 -->
<g id="edge3" class="edge">
<title>Node1&#45;&gt;Node4</title>
<path fill="none" stroke="midnightblue" d="M60.02,-64.95C69.84,-63.25 81.23,-61.26 92.69,-59.27"/>
<polygon fill="midnightblue" stroke="midnightblue" points="93.49,-62.69 102.74,-57.52 92.29,-55.79 93.49,-62.69"/>
</g>
<!-- Node8 -->
<g id="node8" class="node">
<title>Node8</title>
<g id="a_node8"><a xlink:href="rltos__scheduler__asm__dummy_8c.html#a2abf68090a04ea19ee3344d262cd3af2" target="_top" xlink:title="emtpy function used to emulate the dummy functions">
<polygon fill="white" stroke="black" points="121,-0.5 121,-19.5 196,-19.5 196,-0.5 121,-0.5"/>
<text text-anchor="middle" x="158.5" y="-7.5" font-family="Helvetica,sans-Serif" font-size="10.00">Save_context</text>
</a>
</g>
</g>
<!-- Node1&#45;&gt;Node8 -->
<g id="edge7" class="edge">
<title>Node1&#45;&gt;Node8</title>
<path fill="none" stroke="midnightblue" d="M43.86,-60.45C56.58,-51.36 76.85,-37.81 96,-29 100.76,-26.81 105.85,-24.78 110.97,-22.93"/>
<polygon fill="midnightblue" stroke="midnightblue" points="112.46,-26.13 120.81,-19.6 110.22,-19.49 112.46,-26.13"/>
</g>
<!-- Node5 -->
<g id="node5" class="node">
<title>Node5</title>
<g id="a_node5"><a xlink:href="group___rltos__task__list__prv.html#gae2e9ba76398ba904d0c32071d3512a2b" target="_top" xlink:title="Function used to append task to the running list.">
<polygon fill="white" stroke="black" points="257,-38.5 257,-57.5 350,-57.5 350,-38.5 257,-38.5"/>
<text text-anchor="middle" x="303.5" y="-45.5" font-family="Helvetica,sans-Serif" font-size="10.00">Task_set_running</text>
</a>
</g>
</g>
<!-- Node4&#45;&gt;Node5 -->
<g id="edge4" class="edge">
<title>Node4&#45;&gt;Node5</title>
<path fill="none" stroke="midnightblue" d="M221.39,-48C229.87,-48 238.53,-48 246.89,-48"/>
<polygon fill="midnightblue" stroke="midnightblue" points="246.9,-51.5 256.9,-48 246.9,-44.5 246.9,-51.5"/>
</g>
<!-- Node6 -->
<g id="node6" class="node">
<title>Node6</title>
<g id="a_node6"><a xlink:href="group___rltos__task__list__prv.html#gab915c720a9360b7be5bb388002b6ebcd" target="_top" xlink:title="Function used to insert a task in a sorted task list.">
<polygon fill="white" stroke="black" points="395,-57.5 395,-76.5 493,-76.5 493,-57.5 395,-57.5"/>
<text text-anchor="middle" x="444" y="-64.5" font-family="Helvetica,sans-Serif" font-size="10.00">Task_insert_in_list</text>
</a>
</g>
</g>
<!-- Node5&#45;&gt;Node6 -->
<g id="edge5" class="edge">
<title>Node5&#45;&gt;Node6</title>
<path fill="none" stroke="midnightblue" d="M350.23,-54.27C361.33,-55.8 373.33,-57.44 384.91,-59.03"/>
<polygon fill="midnightblue" stroke="midnightblue" points="384.55,-62.51 394.94,-60.41 385.51,-55.58 384.55,-62.51"/>
</g>
<!-- Node7 -->
<g id="node7" class="node">
<title>Node7</title>
<g id="a_node7"><a xlink:href="group___rltos__task__list__prv.html#ga421dbb81487cd2fdc1fd06b1407eae5b" target="_top" xlink:title="Function used to remove task from a task list.">
<polygon fill="white" stroke="black" points="386,-19.5 386,-38.5 502,-38.5 502,-19.5 386,-19.5"/>
<text text-anchor="middle" x="444" y="-26.5" font-family="Helvetica,sans-Serif" font-size="10.00">Task_remove_from_list</text>
</a>
</g>
</g>
<!-- Node5&#45;&gt;Node7 -->
<g id="edge6" class="edge">
<title>Node5&#45;&gt;Node7</title>
<path fill="none" stroke="midnightblue" d="M350.23,-41.73C358.39,-40.61 367.04,-39.42 375.65,-38.24"/>
<polygon fill="midnightblue" stroke="midnightblue" points="376.27,-41.69 385.7,-36.86 375.32,-34.75 376.27,-41.69"/>
</g>
</g>
</svg>
