<?xml version="1.0" encoding="UTF-8" standalone="no"?>
<!DOCTYPE svg PUBLIC "-//W3C//DTD SVG 1.1//EN"
 "http://www.w3.org/Graphics/SVG/1.1/DTD/svg11.dtd">
<!-- Generated by graphviz version 2.49.2 (20211016.1639)
 -->
<!-- Title: Rltos_yield Pages: 1 -->
<svg width="228pt" height="116pt"
 viewBox="0.00 0.00 228.00 116.00" xmlns="http://www.w3.org/2000/svg" xmlns:xlink="http://www.w3.org/1999/xlink">
<g id="graph0" class="graph" transform="scale(1 1) rotate(0) translate(4 112)">
<title>Rltos_yield</title>
<polygon fill="white" stroke="transparent" points="-4,4 -4,-112 224,-112 224,4 -4,4"/>
<!-- Node1 -->
<g id="node1" class="node">
<title>Node1</title>
<g id="a_node1"><a xlink:title="dummy definition of function referenced in source that is typically provided in asm">
<polygon fill="#bfbfbf" stroke="black" points="0,-44.5 0,-63.5 65,-63.5 65,-44.5 0,-44.5"/>
<text text-anchor="middle" x="32.5" y="-51.5" font-family="Helvetica,sans-Serif" font-size="10.00">Rltos_yield</text>
</a>
</g>
</g>
<!-- Node2 -->
<g id="node2" class="node">
<title>Node2</title>
<g id="a_node2"><a xlink:href="rltos__scheduler__asm__dummy_8c.html#ad1e8ab72b936d58f5c0d5bc0b1cbd21f" target="_top" xlink:title="emtpy function used to emulate the dummy functions">
<polygon fill="white" stroke="black" points="116.5,-88.5 116.5,-107.5 204.5,-107.5 204.5,-88.5 116.5,-88.5"/>
<text text-anchor="middle" x="160.5" y="-95.5" font-family="Helvetica,sans-Serif" font-size="10.00">Restore_context</text>
</a>
</g>
</g>
<!-- Node1&#45;&gt;Node2 -->
<g id="edge1" class="edge">
<title>Node1&#45;&gt;Node2</title>
<path fill="none" stroke="midnightblue" d="M58.42,-63.5C71.12,-68.28 86.83,-74.08 101,-79 107.02,-81.09 113.42,-83.24 119.69,-85.31"/>
<polygon fill="midnightblue" stroke="midnightblue" points="118.77,-88.69 129.36,-88.47 120.94,-82.04 118.77,-88.69"/>
</g>
<!-- Node3 -->
<g id="node3" class="node">
<title>Node3</title>
<g id="a_node3"><a xlink:href="group___rltos__task__list__prv.html#ga7dad02e1630e47f423618b110c2071a4" target="_top" xlink:title="implementation of rltos context switch &#45; called from rltos_scheduler_asm.asm">
<polygon fill="white" stroke="black" points="101,-39 101,-69 220,-69 220,-39 101,-39"/>
<text text-anchor="start" x="109" y="-57" font-family="Helvetica,sans-Serif" font-size="10.00">Rltos_scheduler_switch</text>
<text text-anchor="middle" x="160.5" y="-46" font-family="Helvetica,sans-Serif" font-size="10.00">_context</text>
</a>
</g>
</g>
<!-- Node1&#45;&gt;Node3 -->
<g id="edge2" class="edge">
<title>Node1&#45;&gt;Node3</title>
<path fill="none" stroke="midnightblue" d="M65.3,-54C73.13,-54 81.84,-54 90.69,-54"/>
<polygon fill="midnightblue" stroke="midnightblue" points="90.72,-57.5 100.72,-54 90.72,-50.5 90.72,-57.5"/>
</g>
<!-- Node4 -->
<g id="node4" class="node">
<title>Node4</title>
<g id="a_node4"><a xlink:href="rltos__scheduler__asm__dummy_8c.html#a2abf68090a04ea19ee3344d262cd3af2" target="_top" xlink:title="emtpy function used to emulate the dummy functions">
<polygon fill="white" stroke="black" points="123,-0.5 123,-19.5 198,-19.5 198,-0.5 123,-0.5"/>
<text text-anchor="middle" x="160.5" y="-7.5" font-family="Helvetica,sans-Serif" font-size="10.00">Save_context</text>
</a>
</g>
</g>
<!-- Node1&#45;&gt;Node4 -->
<g id="edge3" class="edge">
<title>Node1&#45;&gt;Node4</title>
<path fill="none" stroke="midnightblue" d="M60.08,-44.46C72.5,-40.03 87.49,-34.71 101,-30 107.61,-27.7 114.64,-25.27 121.45,-22.93"/>
<polygon fill="midnightblue" stroke="midnightblue" points="122.88,-26.14 131.21,-19.59 120.61,-19.52 122.88,-26.14"/>
</g>
</g>
</svg>
