<?xml version="1.0" encoding="UTF-8" standalone="no"?>
<!DOCTYPE svg PUBLIC "-//W3C//DTD SVG 1.1//EN"
 "http://www.w3.org/Graphics/SVG/1.1/DTD/svg11.dtd">
<!-- Generated by graphviz version 2.49.2 (20211016.1639)
 -->
<!-- Title: Save_context Pages: 1 -->
<svg width="184pt" height="66pt"
 viewBox="0.00 0.00 184.00 66.00" xmlns="http://www.w3.org/2000/svg" xmlns:xlink="http://www.w3.org/1999/xlink">
<g id="graph0" class="graph" transform="scale(1 1) rotate(0) translate(4 62)">
<title>Save_context</title>
<polygon fill="white" stroke="transparent" points="-4,4 -4,-62 180,-62 180,4 -4,4"/>
<!-- Node1 -->
<g id="node1" class="node">
<title>Node1</title>
<g id="a_node1"><a xlink:title="emtpy function used to emulate the dummy functions">
<polygon fill="#bfbfbf" stroke="black" points="101,-19.5 101,-38.5 176,-38.5 176,-19.5 101,-19.5"/>
<text text-anchor="middle" x="138.5" y="-26.5" font-family="Helvetica,sans-Serif" font-size="10.00">Save_context</text>
</a>
</g>
</g>
<!-- Node2 -->
<g id="node2" class="node">
<title>Node2</title>
<g id="a_node2"><a xlink:href="rltos__scheduler__asm__dummy_8c.html#a3e46e11736a8372c7fbdda0fface2eea" target="_top" xlink:title="dummy definition of function referenced in source that is typically provided in asm">
<polygon fill="white" stroke="black" points="2.5,-38.5 2.5,-57.5 62.5,-57.5 62.5,-38.5 2.5,-38.5"/>
<text text-anchor="middle" x="32.5" y="-45.5" font-family="Helvetica,sans-Serif" font-size="10.00">Rltos_tick</text>
</a>
</g>
</g>
<!-- Node1&#45;&gt;Node2 -->
<g id="edge1" class="edge">
<title>Node1&#45;&gt;Node2</title>
<path fill="none" stroke="midnightblue" d="M90.95,-37.5C81.33,-39.26 71.45,-41.07 62.66,-42.67"/>
<polygon fill="midnightblue" stroke="midnightblue" points="91.63,-40.94 100.83,-35.7 90.37,-34.05 91.63,-40.94"/>
</g>
<!-- Node3 -->
<g id="node3" class="node">
<title>Node3</title>
<g id="a_node3"><a xlink:href="rltos__scheduler__asm__dummy_8c.html#a6077bc6263d8f5d904b5bc949c97ec1c" target="_top" xlink:title="dummy definition of function referenced in source that is typically provided in asm">
<polygon fill="white" stroke="black" points="0,-0.5 0,-19.5 65,-19.5 65,-0.5 0,-0.5"/>
<text text-anchor="middle" x="32.5" y="-7.5" font-family="Helvetica,sans-Serif" font-size="10.00">Rltos_yield</text>
</a>
</g>
</g>
<!-- Node1&#45;&gt;Node3 -->
<g id="edge2" class="edge">
<title>Node1&#45;&gt;Node3</title>
<path fill="none" stroke="midnightblue" d="M90.75,-20.46C82.04,-18.87 73.13,-17.24 65.01,-15.76"/>
<polygon fill="midnightblue" stroke="midnightblue" points="90.37,-23.95 100.83,-22.3 91.63,-17.06 90.37,-23.95"/>
</g>
</g>
</svg>
