<?xml version="1.0" encoding="UTF-8" standalone="no"?>
<!DOCTYPE svg PUBLIC "-//W3C//DTD SVG 1.1//EN"
 "http://www.w3.org/Graphics/SVG/1.1/DTD/svg11.dtd">
<!-- Generated by graphviz version 2.49.2 (20211016.1639)
 -->
<!-- Title: Task Pages: 1 -->
<svg width="135pt" height="101pt"
 viewBox="0.00 0.00 135.00 101.00" xmlns="http://www.w3.org/2000/svg" xmlns:xlink="http://www.w3.org/1999/xlink">
<g id="graph0" class="graph" transform="scale(1 1) rotate(0) translate(4 97)">
<title>Task</title>
<polygon fill="white" stroke="transparent" points="-4,4 -4,-97 131,-97 131,4 -4,4"/>
<!-- Node1 -->
<g id="node1" class="node">
<title>Node1</title>
<g id="a_node1"><a xlink:title=" ">
<polygon fill="#bfbfbf" stroke="black" points="38,-56 0,-56 0,-37 38,-37 38,-56"/>
<text text-anchor="middle" x="19" y="-44" font-family="Helvetica,sans-Serif" font-size="10.00">Task</text>
</a>
</g>
</g>
<!-- Node2 -->
<g id="node2" class="node">
<title>Node2</title>
<g id="a_node2"><a xlink:href="group___rltos__task__api.html" target="_top" xlink:title=" ">
<polygon fill="white" stroke="black" points="115,-93 86,-93 86,-74 115,-74 115,-93"/>
<text text-anchor="middle" x="100.5" y="-81" font-family="Helvetica,sans-Serif" font-size="10.00">api</text>
</a>
</g>
</g>
<!-- Node1&#45;&gt;Node2 -->
<g id="edge1" class="edge">
<title>Node1&#45;&gt;Node2</title>
<path fill="none" stroke="black" d="M47.12,-59.12C60.22,-65.22 75.37,-72.27 85.99,-77.21"/>
<polygon fill="black" stroke="black" points="48.58,-55.94 38.04,-54.9 45.63,-62.29 48.58,-55.94"/>
</g>
<!-- Node4 -->
<g id="node3" class="node">
<title>Node4</title>
<g id="a_node3"><a xlink:href="group___rltos__task__list.html" target="_top" xlink:title=" ">
<polygon fill="white" stroke="black" points="127,-56 74,-56 74,-37 127,-37 127,-56"/>
<text text-anchor="middle" x="100.5" y="-44" font-family="Helvetica,sans-Serif" font-size="10.00">Task list</text>
</a>
</g>
</g>
<!-- Node1&#45;&gt;Node4 -->
<g id="edge3" class="edge">
<title>Node1&#45;&gt;Node4</title>
<path fill="none" stroke="black" d="M48.17,-46.5C56.58,-46.5 65.76,-46.5 74,-46.5"/>
<polygon fill="black" stroke="black" points="48.04,-43 38.04,-46.5 48.04,-50 48.04,-43"/>
</g>
<!-- Node3 -->
<g id="node4" class="node">
<title>Node3</title>
<g id="a_node4"><a xlink:href="group___rltos__task__prv.html" target="_top" xlink:title=" ">
<polygon fill="white" stroke="black" points="115,-19 86,-19 86,0 115,0 115,-19"/>
<text text-anchor="middle" x="100.5" y="-7" font-family="Helvetica,sans-Serif" font-size="10.00">prv</text>
</a>
</g>
</g>
<!-- Node1&#45;&gt;Node3 -->
<g id="edge2" class="edge">
<title>Node1&#45;&gt;Node3</title>
<path fill="none" stroke="black" d="M47.12,-33.88C60.22,-27.78 75.37,-20.73 85.99,-15.79"/>
<polygon fill="black" stroke="black" points="45.63,-30.71 38.04,-38.1 48.58,-37.06 45.63,-30.71"/>
</g>
</g>
</svg>
