<?xml version="1.0" encoding="UTF-8" standalone="no"?>
<!DOCTYPE svg PUBLIC "-//W3C//DTD SVG 1.1//EN"
 "http://www.w3.org/Graphics/SVG/1.1/DTD/svg11.dtd">
<!-- Generated by graphviz version 2.49.2 (20211016.1639)
 -->
<!-- Title: Task_insert_in_list Pages: 1 -->
<svg width="415pt" height="154pt"
 viewBox="0.00 0.00 415.00 154.00" xmlns="http://www.w3.org/2000/svg" xmlns:xlink="http://www.w3.org/1999/xlink">
<g id="graph0" class="graph" transform="scale(1 1) rotate(0) translate(4 150)">
<title>Task_insert_in_list</title>
<polygon fill="white" stroke="transparent" points="-4,4 -4,-150 411,-150 411,4 -4,4"/>
<!-- Node1 -->
<g id="node1" class="node">
<title>Node1</title>
<g id="a_node1"><a xlink:title="Function used to insert a task in a sorted task list.">
<polygon fill="#bfbfbf" stroke="black" points="309,-55.5 309,-74.5 407,-74.5 407,-55.5 309,-55.5"/>
<text text-anchor="middle" x="358" y="-62.5" font-family="Helvetica,sans-Serif" font-size="10.00">Task_insert_in_list</text>
</a>
</g>
</g>
<!-- Node2 -->
<g id="node2" class="node">
<title>Node2</title>
<g id="a_node2"><a xlink:href="group___rltos__task__list__prv.html#ga7381af6f29df467e5543f1a7f358c4b1" target="_top" xlink:title="Function used to set initial stack pointer, task entry function &amp; clear pointers to next and prev nod...">
<polygon fill="white" stroke="black" points="189,-115.5 189,-134.5 245,-134.5 245,-115.5 189,-115.5"/>
<text text-anchor="middle" x="217" y="-122.5" font-family="Helvetica,sans-Serif" font-size="10.00">Task_init</text>
</a>
</g>
</g>
<!-- Node1&#45;&gt;Node2 -->
<g id="edge1" class="edge">
<title>Node1&#45;&gt;Node2</title>
<path fill="none" stroke="midnightblue" d="M325.58,-78.56C299.64,-89.76 263.46,-105.38 240.38,-115.34"/>
<polygon fill="midnightblue" stroke="midnightblue" points="327.18,-81.68 334.98,-74.51 324.41,-75.26 327.18,-81.68"/>
</g>
<!-- Node4 -->
<g id="node4" class="node">
<title>Node4</title>
<g id="a_node4"><a xlink:href="group___rltos__task__list__prv.html#gaef14e9b4eac09dd868feb5c3b2b4442f" target="_top" xlink:title="Function used to append task to the idle list.">
<polygon fill="white" stroke="black" points="161,-55.5 161,-74.5 273,-74.5 273,-55.5 161,-55.5"/>
<text text-anchor="middle" x="217" y="-62.5" font-family="Helvetica,sans-Serif" font-size="10.00">Task_set_current_idle</text>
</a>
</g>
</g>
<!-- Node1&#45;&gt;Node4 -->
<g id="edge3" class="edge">
<title>Node1&#45;&gt;Node4</title>
<path fill="none" stroke="midnightblue" d="M298.67,-65C290.26,-65 281.63,-65 273.29,-65"/>
<polygon fill="midnightblue" stroke="midnightblue" points="298.77,-68.5 308.77,-65 298.77,-61.5 298.77,-68.5"/>
</g>
<!-- Node7 -->
<g id="node7" class="node">
<title>Node7</title>
<g id="a_node7"><a xlink:href="group___rltos__task__list__prv.html#gae2e9ba76398ba904d0c32071d3512a2b" target="_top" xlink:title="Function used to append task to the running list.">
<polygon fill="white" stroke="black" points="170.5,-14.5 170.5,-33.5 263.5,-33.5 263.5,-14.5 170.5,-14.5"/>
<text text-anchor="middle" x="217" y="-21.5" font-family="Helvetica,sans-Serif" font-size="10.00">Task_set_running</text>
</a>
</g>
</g>
<!-- Node1&#45;&gt;Node7 -->
<g id="edge6" class="edge">
<title>Node1&#45;&gt;Node7</title>
<path fill="none" stroke="midnightblue" d="M314.96,-52.6C294.29,-46.5 269.76,-39.27 250.55,-33.6"/>
<polygon fill="midnightblue" stroke="midnightblue" points="314.18,-56.02 324.76,-55.49 316.16,-49.3 314.18,-56.02"/>
</g>
<!-- Node3 -->
<g id="node3" class="node">
<title>Node3</title>
<g id="a_node3"><a xlink:href="group___rltos__task__prv.html#ga9620fe030b4b4f2e2f790b9b60a6dc0a" target="_top" xlink:title="Initialises task control structure, stack &amp; appends to task list.">
<polygon fill="white" stroke="black" points="15,-126.5 15,-145.5 110,-145.5 110,-126.5 15,-126.5"/>
<text text-anchor="middle" x="62.5" y="-133.5" font-family="Helvetica,sans-Serif" font-size="10.00">Rltos_task_create</text>
</a>
</g>
</g>
<!-- Node2&#45;&gt;Node3 -->
<g id="edge2" class="edge">
<title>Node2&#45;&gt;Node3</title>
<path fill="none" stroke="midnightblue" d="M178.48,-127.71C157.89,-129.19 132.17,-131.05 110.28,-132.63"/>
<polygon fill="midnightblue" stroke="midnightblue" points="179.01,-131.18 188.74,-126.97 178.51,-124.2 179.01,-131.18"/>
</g>
<!-- Node5 -->
<g id="node5" class="node">
<title>Node5</title>
<g id="a_node5"><a xlink:href="group___rltos__task__prv.html#ga581dd045fa985add7730a8a1581389b7" target="_top" xlink:title="Puts the current thread to sleep for a minimum of the given number of ticks.">
<polygon fill="white" stroke="black" points="16.5,-88.5 16.5,-107.5 108.5,-107.5 108.5,-88.5 16.5,-88.5"/>
<text text-anchor="middle" x="62.5" y="-95.5" font-family="Helvetica,sans-Serif" font-size="10.00">Rltos_task_sleep</text>
</a>
</g>
</g>
<!-- Node4&#45;&gt;Node5 -->
<g id="edge4" class="edge">
<title>Node4&#45;&gt;Node5</title>
<path fill="none" stroke="midnightblue" d="M161.67,-76.76C143.91,-80.6 124.41,-84.82 107.51,-88.48"/>
<polygon fill="midnightblue" stroke="midnightblue" points="162.86,-80.08 171.89,-74.54 161.38,-73.24 162.86,-80.08"/>
</g>
<!-- Node6 -->
<g id="node6" class="node">
<title>Node6</title>
<g id="a_node6"><a xlink:href="group___rltos__task__list__prv.html#ga90ce1a0329edc828e765740fce4e29cb" target="_top" xlink:title="Function used to set the current task to wait on an object (uses auxillary list)">
<polygon fill="white" stroke="black" points="5.5,-39 5.5,-69 119.5,-69 119.5,-39 5.5,-39"/>
<text text-anchor="start" x="13.5" y="-57" font-family="Helvetica,sans-Serif" font-size="10.00">Task_set_current_wait</text>
<text text-anchor="middle" x="62.5" y="-46" font-family="Helvetica,sans-Serif" font-size="10.00">_on_object</text>
</a>
</g>
</g>
<!-- Node4&#45;&gt;Node6 -->
<g id="edge5" class="edge">
<title>Node4&#45;&gt;Node6</title>
<path fill="none" stroke="midnightblue" d="M150.68,-60.29C140.3,-59.54 129.64,-58.77 119.5,-58.04"/>
<polygon fill="midnightblue" stroke="midnightblue" points="150.72,-63.8 160.94,-61.03 151.22,-56.82 150.72,-63.8"/>
</g>
<!-- Node8 -->
<g id="node8" class="node">
<title>Node8</title>
<g id="a_node8"><a xlink:href="group___rltos__task__list__prv.html#ga609bbe6d9efbe0605517cde0ba5c9f06" target="_top" xlink:title="implementation of rltos tick increment &#45; called from rltos_scheduler_asm.asm">
<polygon fill="white" stroke="black" points="0,-0.5 0,-19.5 125,-19.5 125,-0.5 0,-0.5"/>
<text text-anchor="middle" x="62.5" y="-7.5" font-family="Helvetica,sans-Serif" font-size="10.00">Rltos_scheduler_tick_inc</text>
</a>
</g>
</g>
<!-- Node7&#45;&gt;Node8 -->
<g id="edge7" class="edge">
<title>Node7&#45;&gt;Node8</title>
<path fill="none" stroke="midnightblue" d="M160,-18.86C148.62,-17.81 136.59,-16.71 125.02,-15.65"/>
<polygon fill="midnightblue" stroke="midnightblue" points="159.97,-22.37 170.24,-19.8 160.61,-15.4 159.97,-22.37"/>
</g>
</g>
</svg>
