<?xml version="1.0" encoding="UTF-8" standalone="no"?>
<!DOCTYPE svg PUBLIC "-//W3C//DTD SVG 1.1//EN"
 "http://www.w3.org/Graphics/SVG/1.1/DTD/svg11.dtd">
<!-- Generated by graphviz version 2.49.2 (20211016.1639)
 -->
<!-- Title: Task list Pages: 1 -->
<svg width="126pt" height="64pt"
 viewBox="0.00 0.00 126.00 64.00" xmlns="http://www.w3.org/2000/svg" xmlns:xlink="http://www.w3.org/1999/xlink">
<g id="graph0" class="graph" transform="scale(1 1) rotate(0) translate(4 60)">
<title>Task list</title>
<polygon fill="white" stroke="transparent" points="-4,4 -4,-60 122,-60 122,4 -4,4"/>
<!-- Node1 -->
<g id="node1" class="node">
<title>Node1</title>
<g id="a_node1"><a xlink:title=" ">
<polygon fill="#bfbfbf" stroke="black" points="53,-37 0,-37 0,-18 53,-18 53,-37"/>
<text text-anchor="middle" x="26.5" y="-25" font-family="Helvetica,sans-Serif" font-size="10.00">Task list</text>
</a>
</g>
</g>
<!-- Node3 -->
<g id="node2" class="node">
<title>Node3</title>
<g id="a_node2"><a xlink:href="group___rltos__task__list__api.html" target="_top" xlink:title=" ">
<polygon fill="white" stroke="black" points="118,-56 89,-56 89,-37 118,-37 118,-56"/>
<text text-anchor="middle" x="103.5" y="-44" font-family="Helvetica,sans-Serif" font-size="10.00">api</text>
</a>
</g>
</g>
<!-- Node1&#45;&gt;Node3 -->
<g id="edge2" class="edge">
<title>Node1&#45;&gt;Node3</title>
<path fill="none" stroke="black" d="M63.03,-36.5C72.14,-38.81 81.4,-41.15 88.66,-42.99"/>
<polygon fill="black" stroke="black" points="63.86,-33.1 53.31,-34.04 62.14,-39.89 63.86,-33.1"/>
</g>
<!-- Node2 -->
<g id="node3" class="node">
<title>Node2</title>
<g id="a_node3"><a xlink:href="group___rltos__task__list__prv.html" target="_top" xlink:title=" ">
<polygon fill="white" stroke="black" points="118,-19 89,-19 89,0 118,0 118,-19"/>
<text text-anchor="middle" x="103.5" y="-7" font-family="Helvetica,sans-Serif" font-size="10.00">prv</text>
</a>
</g>
</g>
<!-- Node1&#45;&gt;Node2 -->
<g id="edge1" class="edge">
<title>Node1&#45;&gt;Node2</title>
<path fill="none" stroke="black" d="M63.32,-18.9C72.33,-16.74 81.48,-14.55 88.66,-12.82"/>
<polygon fill="black" stroke="black" points="62.22,-15.57 53.31,-21.31 63.85,-22.37 62.22,-15.57"/>
</g>
</g>
</svg>
