<?xml version="1.0" encoding="UTF-8" standalone="no"?>
<!DOCTYPE svg PUBLIC "-//W3C//DTD SVG 1.1//EN"
 "http://www.w3.org/Graphics/SVG/1.1/DTD/svg11.dtd">
<!-- Generated by graphviz version 2.49.2 (20211016.1639)
 -->
<!-- Title: Task_remove_from_list Pages: 1 -->
<svg width="433pt" height="116pt"
 viewBox="0.00 0.00 433.00 116.00" xmlns="http://www.w3.org/2000/svg" xmlns:xlink="http://www.w3.org/1999/xlink">
<g id="graph0" class="graph" transform="scale(1 1) rotate(0) translate(4 112)">
<title>Task_remove_from_list</title>
<polygon fill="white" stroke="transparent" points="-4,4 -4,-112 429,-112 429,4 -4,4"/>
<!-- Node1 -->
<g id="node1" class="node">
<title>Node1</title>
<g id="a_node1"><a xlink:title="Function used to remove task from a task list.">
<polygon fill="#bfbfbf" stroke="black" points="309,-44.5 309,-63.5 425,-63.5 425,-44.5 309,-44.5"/>
<text text-anchor="middle" x="367" y="-51.5" font-family="Helvetica,sans-Serif" font-size="10.00">Task_remove_from_list</text>
</a>
</g>
</g>
<!-- Node2 -->
<g id="node2" class="node">
<title>Node2</title>
<g id="a_node2"><a xlink:href="group___rltos__task__list__prv.html#ga497b702db38a8ce118c8393eb0587712" target="_top" xlink:title="Function used to set deinit a task and removes from both running and idle lists.">
<polygon fill="white" stroke="black" points="184,-82.5 184,-101.5 250,-101.5 250,-82.5 184,-82.5"/>
<text text-anchor="middle" x="217" y="-89.5" font-family="Helvetica,sans-Serif" font-size="10.00">Task_deinit</text>
</a>
</g>
</g>
<!-- Node1&#45;&gt;Node2 -->
<g id="edge1" class="edge">
<title>Node1&#45;&gt;Node2</title>
<path fill="none" stroke="midnightblue" d="M318.7,-66.15C296.38,-71.87 270.32,-78.57 250.31,-83.7"/>
<polygon fill="midnightblue" stroke="midnightblue" points="319.84,-69.47 328.65,-63.59 318.1,-62.69 319.84,-69.47"/>
</g>
<!-- Node3 -->
<g id="node3" class="node">
<title>Node3</title>
<g id="a_node3"><a xlink:href="group___rltos__task__list__prv.html#gaef14e9b4eac09dd868feb5c3b2b4442f" target="_top" xlink:title="Function used to append task to the idle list.">
<polygon fill="white" stroke="black" points="161,-44.5 161,-63.5 273,-63.5 273,-44.5 161,-44.5"/>
<text text-anchor="middle" x="217" y="-51.5" font-family="Helvetica,sans-Serif" font-size="10.00">Task_set_current_idle</text>
</a>
</g>
</g>
<!-- Node1&#45;&gt;Node3 -->
<g id="edge2" class="edge">
<title>Node1&#45;&gt;Node3</title>
<path fill="none" stroke="midnightblue" d="M298.5,-54C290.01,-54 281.4,-54 273.12,-54"/>
<polygon fill="midnightblue" stroke="midnightblue" points="298.78,-57.5 308.78,-54 298.78,-50.5 298.78,-57.5"/>
</g>
<!-- Node6 -->
<g id="node6" class="node">
<title>Node6</title>
<g id="a_node6"><a xlink:href="group___rltos__task__list__prv.html#gae2e9ba76398ba904d0c32071d3512a2b" target="_top" xlink:title="Function used to append task to the running list.">
<polygon fill="white" stroke="black" points="170.5,-3.5 170.5,-22.5 263.5,-22.5 263.5,-3.5 170.5,-3.5"/>
<text text-anchor="middle" x="217" y="-10.5" font-family="Helvetica,sans-Serif" font-size="10.00">Task_set_running</text>
</a>
</g>
</g>
<!-- Node1&#45;&gt;Node6 -->
<g id="edge5" class="edge">
<title>Node1&#45;&gt;Node6</title>
<path fill="none" stroke="midnightblue" d="M321.81,-41.76C299.59,-35.6 273.07,-28.26 252.4,-22.53"/>
<polygon fill="midnightblue" stroke="midnightblue" points="321.1,-45.19 331.67,-44.49 322.97,-38.45 321.1,-45.19"/>
</g>
<!-- Node4 -->
<g id="node4" class="node">
<title>Node4</title>
<g id="a_node4"><a xlink:href="group___rltos__task__prv.html#ga581dd045fa985add7730a8a1581389b7" target="_top" xlink:title="Puts the current thread to sleep for a minimum of the given number of ticks.">
<polygon fill="white" stroke="black" points="16.5,-88.5 16.5,-107.5 108.5,-107.5 108.5,-88.5 16.5,-88.5"/>
<text text-anchor="middle" x="62.5" y="-95.5" font-family="Helvetica,sans-Serif" font-size="10.00">Rltos_task_sleep</text>
</a>
</g>
</g>
<!-- Node3&#45;&gt;Node4 -->
<g id="edge3" class="edge">
<title>Node3&#45;&gt;Node4</title>
<path fill="none" stroke="midnightblue" d="M173.23,-66.34C148.94,-73.35 118.99,-81.99 96.53,-88.47"/>
<polygon fill="midnightblue" stroke="midnightblue" points="174.27,-69.68 182.91,-63.55 172.33,-62.96 174.27,-69.68"/>
</g>
<!-- Node5 -->
<g id="node5" class="node">
<title>Node5</title>
<g id="a_node5"><a xlink:href="group___rltos__task__list__prv.html#ga90ce1a0329edc828e765740fce4e29cb" target="_top" xlink:title="Function used to set the current task to wait on an object (uses auxillary list)">
<polygon fill="white" stroke="black" points="5.5,-39 5.5,-69 119.5,-69 119.5,-39 5.5,-39"/>
<text text-anchor="start" x="13.5" y="-57" font-family="Helvetica,sans-Serif" font-size="10.00">Task_set_current_wait</text>
<text text-anchor="middle" x="62.5" y="-46" font-family="Helvetica,sans-Serif" font-size="10.00">_on_object</text>
</a>
</g>
</g>
<!-- Node3&#45;&gt;Node5 -->
<g id="edge4" class="edge">
<title>Node3&#45;&gt;Node5</title>
<path fill="none" stroke="midnightblue" d="M150.68,-54C140.3,-54 129.64,-54 119.5,-54"/>
<polygon fill="midnightblue" stroke="midnightblue" points="150.94,-57.5 160.94,-54 150.94,-50.5 150.94,-57.5"/>
</g>
<!-- Node7 -->
<g id="node7" class="node">
<title>Node7</title>
<g id="a_node7"><a xlink:href="group___rltos__task__list__prv.html#ga609bbe6d9efbe0605517cde0ba5c9f06" target="_top" xlink:title="implementation of rltos tick increment &#45; called from rltos_scheduler_asm.asm">
<polygon fill="white" stroke="black" points="0,-0.5 0,-19.5 125,-19.5 125,-0.5 0,-0.5"/>
<text text-anchor="middle" x="62.5" y="-7.5" font-family="Helvetica,sans-Serif" font-size="10.00">Rltos_scheduler_tick_inc</text>
</a>
</g>
</g>
<!-- Node6&#45;&gt;Node7 -->
<g id="edge6" class="edge">
<title>Node6&#45;&gt;Node7</title>
<path fill="none" stroke="midnightblue" d="M160,-11.9C148.62,-11.67 136.59,-11.44 125.02,-11.21"/>
<polygon fill="midnightblue" stroke="midnightblue" points="160.18,-15.4 170.24,-12.1 160.32,-8.4 160.18,-15.4"/>
</g>
</g>
</svg>
